<?xml version="1.0" encoding="UTF-8" standalone="no"?><!-- Generator: Gravit.io --><svg xmlns="http://www.w3.org/2000/svg" xmlns:xlink="http://www.w3.org/1999/xlink" style="isolation:isolate" viewBox="0 0 60 60" width="60pt" height="60pt"><defs><clipPath id="_clipPath_9AgXKMzuJ6YZXVKMy2O1jUHj88kk5ILR"><rect width="60" height="60"/></clipPath></defs><g clip-path="url(#_clipPath_9AgXKMzuJ6YZXVKMy2O1jUHj88kk5ILR)"><rect width="60" height="60" style="fill:rgb(0,0,0)" fill-opacity="0"/><g><path d=" M 47.4 25.437 L 36.341 25.437 L 36.341 14.378 C 36.341 11.661 34.059 9.437 31.341 9.437 C 28.623 9.437 26.341 11.661 26.341 14.378 L 26.341 25.437 L 15.282 25.437 C 12.565 25.437 10.341 27.719 10.341 30.437 C 10.341 33.155 12.565 35.437 15.282 35.437 L 26.341 35.437 L 26.341 46.496 C 26.341 49.213 28.623 51.437 31.341 51.437 C 34.059 51.437 36.341 49.213 36.341 46.496 L 36.341 35.437 L 47.4 35.437 C 50.117 35.437 52.341 33.155 52.341 30.437 C 52.341 27.719 50.117 25.437 47.4 25.437 Z " fill="rgb(255,153,0)"/></g></g></svg>