<?xml version="1.0" encoding="UTF-8" standalone="no"?><!-- Generator: Gravit.io --><svg xmlns="http://www.w3.org/2000/svg" xmlns:xlink="http://www.w3.org/1999/xlink" style="isolation:isolate" viewBox="0 0 60 60" width="60pt" height="60pt"><defs><clipPath id="_clipPath_E6ML1G7WLXdOEmm8JKK1oRzPIIAot2Ol"><rect width="60" height="60"/></clipPath></defs><g clip-path="url(#_clipPath_E6ML1G7WLXdOEmm8JKK1oRzPIIAot2Ol)"><rect width="60" height="60" style="fill:rgb(0,0,0)" fill-opacity="0"/><g><path d=" M 13 1 C 10.694 1 8.781 2.758 8.53 5 L 8.5 6 C 8.5 8.2 10.3 10 12.5 10 L 13.5 10 L 16.5 10 L 18.5 10 L 20.5 6 L 32.5 6 L 30.539 9.921 C 30.521 9.958 30.548 10 30.588 10 L 30.799 10 L 51.5 10 L 51.5 1 L 13 1 Z " fill="rgb(234,216,187)"/><path d=" M 30.5 10 L 30.5 36.201 C 30.5 36.706 29.835 36.891 29.575 36.457 L 24.5 28 L 19.425 36.458 C 19.165 36.891 18.5 36.707 18.5 36.202 L 18.5 10 L 12.5 10 C 10.3 10 8.5 8.2 8.5 6 L 8.5 54.958 C 8.5 57.19 10.31 59 12.542 59 L 51.5 59 L 51.5 10 L 30.5 10 Z " fill="rgb(255,153,0)"/><path d=" M 13.5 10 L 12.5 10 C 10.3 10 8.5 8.2 8.5 6 L 8.5 54.958 C 8.5 57.19 10.31 59 12.542 59 L 13.5 59 L 13.5 10 Z " fill="rgb(193,117,2)"/><path d=" M 51.5 3 L 42.5 3 C 41.947 3 41.5 3.447 41.5 4 C 41.5 4.553 41.947 5 42.5 5 L 51.5 5 L 51.5 3 Z " fill="rgb(211,190,161)"/><path d=" M 51.5 6 L 43.5 6 C 42.947 6 42.5 6.447 42.5 7 C 42.5 7.553 42.947 8 43.5 8 L 51.5 8 L 51.5 6 Z " fill="rgb(211,190,161)"/><path d=" M 20.5 6 L 18.5 10 L 18.5 36.201 C 18.5 36.706 19.166 36.891 19.425 36.457 L 24.5 28 L 29.575 36.458 C 29.835 36.891 30.5 36.707 30.5 36.202 L 30.5 10 L 32.5 6 L 20.5 6 Z " fill="rgb(74,134,232)"/><path d=" M 20.5 6 L 18.5 10 L 30.5 10 L 32.5 6 L 20.5 6 Z " fill="rgb(37,103,208)"/></g></g></svg>