<?xml version="1.0" encoding="UTF-8" standalone="no"?><!-- Generator: Gravit.io --><svg xmlns="http://www.w3.org/2000/svg" xmlns:xlink="http://www.w3.org/1999/xlink" style="isolation:isolate" viewBox="0 0 60 60" width="60pt" height="60pt"><defs><clipPath id="_clipPath_IOJMRIJk5Du9FMX1YHcOASZBYKs2yYwS"><rect width="60" height="60"/></clipPath></defs><g clip-path="url(#_clipPath_IOJMRIJk5Du9FMX1YHcOASZBYKs2yYwS)"><rect width="60" height="60" style="fill:rgb(0,0,0)" fill-opacity="0"/><g><path d=" M 14.015 49.208 C 24.716 51.055 30.674 51.055 41.375 49.208 L 50.865 47.57 L 50.865 47.57 C 46.18 42.913 43.548 37.155 43.548 30.57 L 43.548 21.57 C 43.586 15.523 39.591 11.092 35.602 9.269 C 30.603 6.984 24.787 6.975 19.796 9.277 C 15.842 11.1 11.561 15.528 11.523 21.57 L 11.523 30.57 C 11.523 37.155 9.208 42.913 4.523 47.57 L 4.523 47.57 L 14.015 49.208 Z " fill="rgb(74,134,232)"/><path d=" M 16.523 22.57 C 16.521 22.57 16.519 22.57 16.517 22.57 C 15.965 22.566 15.52 22.116 15.523 21.564 C 15.553 16.882 19.275 13.921 21.471 12.91 C 25.32 11.135 30.065 11.138 33.94 12.908 C 34.442 13.137 34.663 13.73 34.434 14.233 C 34.204 14.735 33.611 14.957 33.108 14.726 C 29.755 13.193 25.639 13.189 22.309 14.726 C 20.542 15.54 17.547 17.899 17.524 21.576 C 17.52 22.127 17.073 22.57 16.523 22.57 Z " fill="rgb(126,167,234)"/><path d=" M 31.523 7.951 L 31.523 6.57 C 31.523 4.361 29.732 2.57 27.523 2.57 C 25.314 2.57 23.523 4.361 23.523 6.57 L 23.523 8.023 C 26.152 7.432 28.884 7.411 31.523 7.951 Z " fill="rgb(255,153,0)"/><path d=" M 19.429 50.03 C 20.874 53.298 24.031 55.57 27.706 55.57 C 31.382 55.57 34.54 53.297 35.984 50.027 C 30.056 50.779 25.353 50.78 19.429 50.03 Z " fill="rgb(255,153,0)"/></g></g></svg>