<?xml version="1.0" encoding="UTF-8" standalone="no"?><!-- Generator: Gravit.io --><svg xmlns="http://www.w3.org/2000/svg" xmlns:xlink="http://www.w3.org/1999/xlink" style="isolation:isolate" viewBox="0 0 60 60" width="60pt" height="60pt"><defs><clipPath id="_clipPath_lNXFTvQUJJAVXr73Bf8btOphQYuzddAw"><rect width="60" height="60"/></clipPath></defs><g clip-path="url(#_clipPath_lNXFTvQUJJAVXr73Bf8btOphQYuzddAw)"><rect width="60" height="60" style="fill:rgb(0,0,0)" fill-opacity="0"/><g><circle vector-effect="non-scaling-stroke" cx="29.999624999999998" cy="30.578374999999994" r="26" fill="rgb(224,225,226)"/><circle vector-effect="non-scaling-stroke" cx="29.999624999999995" cy="30.578375" r="14.999999999999998" fill="rgb(209,209,209)"/><path d=" M 14 58.578 C 13.744 58.578 13.488 58.48 13.293 58.285 C 12.902 57.894 12.902 57.262 13.293 56.871 L 17.226 52.938 C 17.617 52.547 18.249 52.547 18.64 52.938 C 19.031 53.329 19.031 53.961 18.64 54.352 L 14.707 58.285 C 14.512 58.48 14.256 58.578 14 58.578 Z " fill="rgb(74,134,232)"/><path d=" M 46 58.578 C 45.744 58.578 45.488 58.48 45.293 58.285 L 41.33 54.322 C 40.939 53.931 40.939 53.299 41.33 52.908 C 41.721 52.517 42.353 52.517 42.744 52.908 L 46.707 56.871 C 47.098 57.262 47.098 57.894 46.707 58.285 C 46.512 58.48 46.256 58.578 46 58.578 Z " fill="rgb(74,134,232)"/><path d=" M 48.094 12.792 C 47.838 12.792 47.582 12.694 47.387 12.499 C 46.996 12.108 46.996 11.476 47.387 11.085 L 50.387 8.085 C 50.778 7.694 51.41 7.694 51.801 8.085 C 52.192 8.476 52.192 9.108 51.801 9.499 L 48.801 12.499 C 48.605 12.695 48.349 12.792 48.094 12.792 Z " fill="rgb(199,202,199)"/><path d=" M 11.907 12.792 C 11.651 12.792 11.395 12.694 11.2 12.499 L 8.2 9.499 C 7.809 9.108 7.809 8.476 8.2 8.085 C 8.591 7.694 9.223 7.694 9.614 8.085 L 12.614 11.085 C 13.005 11.476 13.005 12.108 12.614 12.499 C 12.419 12.695 12.163 12.792 11.907 12.792 Z " fill="rgb(199,202,199)"/><path d=" M 30 58.578 C 14.561 58.578 2 46.017 2 30.578 C 2 15.139 14.561 2.578 30 2.578 C 45.439 2.578 58 15.139 58 30.578 C 58 46.017 45.44 58.578 30 58.578 Z  M 30 6.578 C 16.766 6.578 6 17.345 6 30.578 C 6 43.811 16.766 54.578 30 54.578 C 43.234 54.578 54 43.811 54 30.578 C 54 17.345 43.234 6.578 30 6.578 Z " fill="rgb(255,153,0)"/><g><path d=" M 30 7.457 C 29.448 7.457 29 7.904 29 8.457 L 29 9.457 C 29 10.01 29.448 10.457 30 10.457 C 30.552 10.457 31 10.01 31 9.457 L 31 8.457 C 31 7.904 30.553 7.457 30 7.457 Z " fill="rgb(255,153,0)"/><path d=" M 30 50.457 C 29.448 50.457 29 50.904 29 51.457 L 29 52.457 C 29 53.01 29.448 53.457 30 53.457 C 30.552 53.457 31 53.01 31 52.457 L 31 51.457 C 31 50.904 30.553 50.457 30 50.457 Z " fill="rgb(255,153,0)"/><path d=" M 52 29.457 L 51 29.457 C 50.448 29.457 50 29.904 50 30.457 C 50 31.01 50.448 31.457 51 31.457 L 52 31.457 C 52.552 31.457 53 31.01 53 30.457 C 53 29.904 52.553 29.457 52 29.457 Z " fill="rgb(255,153,0)"/><path d=" M 9 29.457 L 8 29.457 C 7.448 29.457 7 29.904 7 30.457 C 7 31.01 7.448 31.457 8 31.457 L 9 31.457 C 9.552 31.457 10 31.01 10 30.457 C 10 29.904 9.553 29.457 9 29.457 Z " fill="rgb(255,153,0)"/><path d=" M 44.849 14.193 L 44.142 14.9 C 43.751 15.291 43.751 15.923 44.142 16.314 C 44.337 16.509 44.593 16.607 44.849 16.607 C 45.105 16.607 45.361 16.509 45.556 16.314 L 46.263 15.607 C 46.654 15.216 46.654 14.584 46.263 14.193 C 45.872 13.802 45.24 13.802 44.849 14.193 Z " fill="rgb(255,153,0)"/><path d=" M 14.444 44.599 L 13.737 45.306 C 13.346 45.697 13.346 46.329 13.737 46.72 C 13.932 46.915 14.188 47.013 14.444 47.013 C 14.7 47.013 14.956 46.915 15.151 46.72 L 15.858 46.013 C 16.249 45.622 16.249 44.99 15.858 44.599 C 15.467 44.208 14.835 44.209 14.444 44.599 Z " fill="rgb(255,153,0)"/><path d=" M 45.556 44.599 C 45.165 44.208 44.533 44.208 44.142 44.599 C 43.751 44.99 43.751 45.622 44.142 46.013 L 44.849 46.72 C 45.044 46.915 45.3 47.013 45.556 47.013 C 45.812 47.013 46.068 46.915 46.263 46.72 C 46.654 46.329 46.654 45.697 46.263 45.306 L 45.556 44.599 Z " fill="rgb(255,153,0)"/><path d=" M 15.151 14.193 C 14.76 13.802 14.128 13.802 13.737 14.193 C 13.346 14.584 13.346 15.216 13.737 15.607 L 14.444 16.314 C 14.639 16.509 14.895 16.607 15.151 16.607 C 15.407 16.607 15.663 16.509 15.858 16.314 C 16.249 15.923 16.249 15.291 15.858 14.9 L 15.151 14.193 Z " fill="rgb(255,153,0)"/></g><path d=" M 41 31.578 L 33 31.578 C 32.448 31.578 32 31.131 32 30.578 C 32 30.025 32.448 29.578 33 29.578 L 41 29.578 C 41.552 29.578 42 30.025 42 30.578 C 42 31.131 41.553 31.578 41 31.578 Z " fill="rgb(74,134,232)"/><path d=" M 30 28.578 C 29.448 28.578 29 28.131 29 27.578 L 29 16.578 C 29 16.025 29.448 15.578 30 15.578 C 30.552 15.578 31 16.025 31 16.578 L 31 27.578 C 31 28.13 30.553 28.578 30 28.578 Z " fill="rgb(74,134,232)"/><path d=" M 30 34.578 C 27.794 34.578 26 32.784 26 30.578 C 26 28.372 27.794 26.578 30 26.578 C 32.206 26.578 34 28.372 34 30.578 C 34 32.784 32.206 34.578 30 34.578 Z  M 30 28.578 C 28.897 28.578 28 29.475 28 30.578 C 28 31.681 28.897 32.578 30 32.578 C 31.103 32.578 32 31.681 32 30.578 C 32 29.475 31.103 28.578 30 28.578 Z " fill="rgb(255,153,0)"/><path d=" M 55.915 3.507 C 58.696 6.288 58.696 10.797 55.915 13.578 L 45.843 3.507 C 48.625 0.726 53.133 0.726 55.915 3.507 Z " fill="rgb(209,209,209)"/><path d=" M 4.086 3.507 C 1.305 6.288 1.305 10.797 4.086 13.578 L 14.157 3.507 C 11.376 0.726 6.867 0.726 4.086 3.507 Z " fill="rgb(209,209,209)"/></g></g></svg>