<?xml version="1.0" encoding="UTF-8" standalone="no"?><!-- Generator: Gravit.io --><svg xmlns="http://www.w3.org/2000/svg" xmlns:xlink="http://www.w3.org/1999/xlink" style="isolation:isolate" viewBox="0 0 60 60" width="60pt" height="60pt"><defs><clipPath id="_clipPath_3tgbdU2JKsNPpTjzZ4XsFKPBdx6deMUx"><rect width="60" height="60"/></clipPath></defs><g clip-path="url(#_clipPath_3tgbdU2JKsNPpTjzZ4XsFKPBdx6deMUx)"><rect width="60" height="60" style="fill:rgb(0,0,0)" fill-opacity="0"/><g><mask id="_mask_t74ZD1qaZHfcQKc3yQULTVuwhMZUGfMP" x="-200%" y="-200%" width="400%" height="400%"><rect x="-200%" y="-200%" width="400%" height="400%" style="fill:white;"/><path d=" M 34 11.5 L 34 7.5 C 34 5.291 32.209 3.5 30 3.5 C 27.791 3.5 26 5.291 26 7.5 L 26 11.572" fill="black" stroke="none"/></mask><path d=" M 34 11.5 L 34 7.5 C 34 5.291 32.209 3.5 30 3.5 C 27.791 3.5 26 5.291 26 7.5 L 26 11.572" fill="none" mask="url(#_mask_t74ZD1qaZHfcQKc3yQULTVuwhMZUGfMP)" vector-effect="non-scaling-stroke" stroke-width="4" stroke="rgb(74,134,232)" stroke-linejoin="round" stroke-linecap="round" stroke-miterlimit="10"/><path d=" M 34 11.5 L 34 7.5 C 34 5.291 32.209 3.5 30 3.5 C 27.791 3.5 26 5.291 26 7.5 L 26 11.572" fill="none"/><path d=" M 16.491 50.138 C 27.192 51.985 33.149 51.985 43.851 50.138 L 53.341 48.5 L 53.341 48.5 C 48.656 43.843 46.024 38.085 46.024 31.5 L 46.024 22.5 C 46.062 16.453 42.067 12.022 38.078 10.199 C 33.079 7.914 27.263 7.905 22.272 10.207 C 18.319 12.03 14.038 16.458 14 22.5 L 14 31.5 C 14 38.085 11.685 43.843 7 48.5 L 7 48.5 L 16.491 50.138 Z " fill="rgb(255,153,0)"/><path d=" M 19 25.491 C 18.998 25.491 18.996 25.491 18.994 25.491 C 18.442 25.487 17.997 25.037 18 24.485 C 18.03 19.803 21.752 16.842 23.948 15.831 C 27.797 14.056 32.542 14.059 36.417 15.829 C 36.919 16.058 37.14 16.651 36.911 17.154 C 36.682 17.656 36.089 17.878 35.585 17.647 C 32.231 16.114 28.116 16.11 24.786 17.647 C 23.019 18.461 20.024 20.82 20.001 24.497 C 19.997 25.047 19.549 25.491 19 25.491 Z " fill="rgb(240,171,67)"/><path d=" M 21.906 50.96 C 23.35 54.228 26.508 56.5 30.183 56.5 C 33.859 56.5 37.017 54.227 38.461 50.957 C 32.533 51.709 27.83 51.71 21.906 50.96 Z " fill="rgb(74,134,232)"/><path d=" M 4.095 39.467 C 3.839 39.467 3.583 39.369 3.388 39.174 C 1.203 36.989 0 34.08 0 30.983 C 0 27.885 1.203 24.977 3.388 22.793 C 3.779 22.402 4.411 22.402 4.802 22.793 C 5.193 23.184 5.193 23.816 4.802 24.207 C 2.995 26.014 2 28.42 2 30.983 C 2 33.546 2.995 35.952 4.802 37.759 C 5.193 38.15 5.193 38.782 4.802 39.173 C 4.606 39.369 4.351 39.467 4.095 39.467 Z " fill="rgb(74,134,232)"/><path d=" M 8.305 37.19 C 8.049 37.19 7.793 37.092 7.598 36.897 C 4.261 33.56 4.261 28.129 7.598 24.793 C 7.989 24.402 8.621 24.402 9.012 24.793 C 9.403 25.184 9.403 25.816 9.012 26.207 C 6.454 28.765 6.454 32.926 9.012 35.483 C 9.403 35.874 9.403 36.506 9.012 36.897 C 8.817 37.093 8.561 37.19 8.305 37.19 Z " fill="rgb(74,134,232)"/><path d=" M 55.905 39.467 C 55.649 39.467 55.393 39.369 55.198 39.174 C 54.807 38.783 54.807 38.151 55.198 37.76 C 57.005 35.952 58 33.546 58 30.983 C 58 28.42 57.005 26.013 55.198 24.207 C 54.807 23.816 54.807 23.184 55.198 22.793 C 55.589 22.402 56.221 22.402 56.612 22.793 C 58.797 24.978 60 27.886 60 30.983 C 60 34.08 58.797 36.989 56.612 39.173 C 56.417 39.369 56.161 39.467 55.905 39.467 Z " fill="rgb(74,134,232)"/><path d=" M 51.695 37.19 C 51.439 37.19 51.183 37.092 50.988 36.897 C 50.597 36.506 50.597 35.874 50.988 35.483 C 53.546 32.925 53.546 28.764 50.988 26.207 C 50.597 25.816 50.597 25.184 50.988 24.793 C 51.379 24.402 52.011 24.402 52.402 24.793 C 55.739 28.13 55.739 33.561 52.402 36.897 C 52.207 37.093 51.951 37.19 51.695 37.19 Z " fill="rgb(74,134,232)"/></g></g></svg>