<?xml version="1.0" encoding="UTF-8" standalone="no"?><!-- Generator: Gravit.io --><svg xmlns="http://www.w3.org/2000/svg" xmlns:xlink="http://www.w3.org/1999/xlink" style="isolation:isolate" viewBox="0 0 60 60" width="60pt" height="60pt"><defs><clipPath id="_clipPath_9LFiDyNXFFXR5TOyyE2g1RVSSH2IlpGq"><rect width="60" height="60"/></clipPath></defs><g clip-path="url(#_clipPath_9LFiDyNXFFXR5TOyyE2g1RVSSH2IlpGq)"><rect width="60" height="60" style="fill:rgb(0,0,0)" fill-opacity="0"/><g><g><path d=" M 17.225 52.938 L 13.292 56.871 C 12.901 57.262 12.901 57.894 13.292 58.285 C 13.487 58.48 13.743 58.578 13.999 58.578 C 14.255 58.578 14.511 58.48 14.706 58.285 L 18.64 54.352 C 19.03 53.961 19.03 53.329 18.64 52.938 C 18.249 52.547 17.616 52.547 17.225 52.938 Z " fill="rgb(74,134,232)"/><path d=" M 46.706 56.871 L 42.743 52.908 C 42.352 52.517 41.72 52.517 41.329 52.908 C 40.938 53.299 40.938 53.931 41.329 54.322 L 45.292 58.285 C 45.487 58.48 45.743 58.578 45.999 58.578 C 46.255 58.578 46.511 58.48 46.706 58.285 C 47.098 57.894 47.098 57.261 46.706 56.871 Z " fill="rgb(74,134,232)"/></g><path d=" M 48.724 12.55 C 48.748 12.53 48.777 12.522 48.8 12.5 L 51.8 9.5 C 52.191 9.109 52.191 8.477 51.8 8.086 C 51.409 7.695 50.777 7.695 50.386 8.086 L 47.386 11.086 C 47.355 11.117 47.343 11.157 47.317 11.19 C 42.719 7.08 36.653 4.578 30 4.578 C 23.347 4.578 17.281 7.08 12.682 11.189 C 12.656 11.156 12.644 11.116 12.613 11.085 L 9.613 8.085 C 9.222 7.694 8.59 7.694 8.199 8.085 C 7.808 8.476 7.808 9.108 8.199 9.499 L 11.199 12.499 C 11.221 12.521 11.251 12.529 11.275 12.549 C 6.773 17.224 4 23.575 4 30.577 C 4 44.936 15.641 56.577 30 56.577 C 44.36 56.577 56 44.936 56 30.577 C 56 23.575 53.226 17.224 48.724 12.55 Z " fill="rgb(255,153,0)"/><circle vector-effect="non-scaling-stroke" cx="29.999499999999994" cy="30.578374999999994" r="22" fill="rgb(231,236,237)"/><circle vector-effect="non-scaling-stroke" cx="29.999499999999998" cy="30.578374999999994" r="15.000000000000002" fill="rgb(255,255,255)"/><g><path d=" M 29.999 7.578 C 29.447 7.578 28.999 8.025 28.999 8.578 L 28.999 10.578 C 28.999 11.131 29.447 11.578 29.999 11.578 C 30.551 11.578 30.999 11.131 30.999 10.578 L 30.999 8.578 C 30.999 8.025 30.552 7.578 29.999 7.578 Z " fill="rgb(255,255,255)"/><path d=" M 29.999 49.578 C 29.447 49.578 28.999 50.025 28.999 50.578 L 28.999 52.578 C 28.999 53.131 29.447 53.578 29.999 53.578 C 30.551 53.578 30.999 53.131 30.999 52.578 L 30.999 50.578 C 30.999 50.025 30.552 49.578 29.999 49.578 Z " fill="rgb(255,255,255)"/><path d=" M 52 29.578 L 50 29.578 C 49.448 29.578 49 30.025 49 30.578 C 49 31.131 49.448 31.578 50 31.578 L 52 31.578 C 52.552 31.578 53 31.131 53 30.578 C 53 30.025 52.552 29.578 52 29.578 Z " fill="rgb(255,255,255)"/><path d=" M 10.999 30.578 C 10.999 30.025 10.551 29.578 9.999 29.578 L 7.999 29.578 C 7.447 29.578 6.999 30.025 6.999 30.578 C 6.999 31.131 7.447 31.578 7.999 31.578 L 9.999 31.578 C 10.552 31.578 10.999 31.13 10.999 30.578 Z " fill="rgb(255,255,255)"/><path d=" M 19.866 11.025 C 19.589 10.547 18.978 10.381 18.5 10.659 C 18.022 10.935 17.858 11.547 18.134 12.025 L 19.134 13.757 C 19.32 14.077 19.655 14.257 20.001 14.257 C 20.17 14.257 20.342 14.214 20.5 14.123 C 20.978 13.847 21.142 13.235 20.866 12.757 L 19.866 11.025 Z " fill="rgb(255,255,255)"/><path d=" M 40.866 47.398 C 40.589 46.92 39.979 46.755 39.5 47.032 C 39.022 47.308 38.858 47.92 39.134 48.398 L 40.134 50.13 C 40.32 50.45 40.656 50.63 41.001 50.63 C 41.17 50.63 41.342 50.587 41.5 50.496 C 41.979 50.22 42.143 49.608 41.866 49.13 L 40.866 47.398 Z " fill="rgb(255,255,255)"/><path d=" M 13.179 19.711 L 11.447 18.711 C 10.968 18.435 10.357 18.6 10.081 19.077 C 9.805 19.556 9.969 20.167 10.447 20.443 L 12.179 21.443 C 12.337 21.534 12.509 21.577 12.678 21.577 C 13.024 21.577 13.36 21.397 13.545 21.077 C 13.821 20.599 13.657 19.988 13.179 19.711 Z " fill="rgb(255,255,255)"/><path d=" M 49.552 40.711 L 47.82 39.711 C 47.341 39.433 46.73 39.6 46.454 40.077 C 46.178 40.556 46.342 41.167 46.82 41.443 L 48.552 42.443 C 48.71 42.534 48.882 42.577 49.052 42.577 C 49.397 42.577 49.734 42.397 49.918 42.077 C 50.195 41.599 50.031 40.988 49.552 40.711 Z " fill="rgb(255,255,255)"/><path d=" M 12.179 39.711 L 10.447 40.711 C 9.969 40.987 9.805 41.599 10.081 42.077 C 10.267 42.397 10.602 42.577 10.948 42.577 C 11.117 42.577 11.289 42.534 11.447 42.443 L 13.179 41.443 C 13.657 41.167 13.821 40.555 13.545 40.077 C 13.268 39.6 12.658 39.433 12.179 39.711 Z " fill="rgb(255,255,255)"/><path d=" M 47.321 21.578 C 47.49 21.578 47.662 21.535 47.82 21.444 L 49.552 20.444 C 50.031 20.168 50.195 19.556 49.918 19.078 C 49.641 18.6 49.031 18.435 48.552 18.712 L 46.82 19.712 C 46.342 19.988 46.178 20.6 46.454 21.078 C 46.64 21.398 46.976 21.578 47.321 21.578 Z " fill="rgb(255,255,255)"/><path d=" M 20.499 47.032 C 20.018 46.756 19.409 46.921 19.133 47.398 L 18.133 49.13 C 17.857 49.609 18.021 50.22 18.499 50.496 C 18.657 50.587 18.829 50.63 18.998 50.63 C 19.344 50.63 19.68 50.45 19.865 50.13 L 20.865 48.398 C 21.141 47.919 20.977 47.308 20.499 47.032 Z " fill="rgb(255,255,255)"/><path d=" M 41.5 10.659 C 41.02 10.382 40.409 10.548 40.134 11.025 L 39.134 12.757 C 38.857 13.236 39.021 13.847 39.5 14.123 C 39.658 14.214 39.829 14.257 39.999 14.257 C 40.345 14.257 40.681 14.077 40.866 13.757 L 41.866 12.025 C 42.141 11.546 41.977 10.935 41.5 10.659 Z " fill="rgb(255,255,255)"/></g><path d=" M 41 29.578 L 33.857 29.578 C 33.494 28.179 32.399 27.084 30.999 26.72 L 30.999 16.578 C 30.999 16.025 30.551 15.578 29.999 15.578 C 29.447 15.578 28.999 16.025 28.999 16.578 L 28.999 26.72 C 27.279 27.167 25.999 28.719 25.999 30.578 C 25.999 32.784 27.793 34.578 29.999 34.578 C 31.857 34.578 33.411 33.298 33.857 31.578 L 41 31.578 C 41.552 31.578 42 31.131 42 30.578 C 42 30.025 41.552 29.578 41 29.578 Z  M 29.999 32.578 C 28.896 32.578 27.999 31.681 27.999 30.578 C 27.999 29.475 28.896 28.578 29.999 28.578 C 31.102 28.578 31.999 29.475 31.999 30.578 C 31.999 31.681 31.102 32.578 29.999 32.578 Z " fill="rgb(74,134,232)"/><path d=" M 55.915 3.507 C 58.695 6.288 58.695 10.797 55.915 13.578 L 45.842 3.507 C 48.625 0.726 53.132 0.726 55.915 3.507 Z " fill="rgb(74,134,232)"/><path d=" M 4.085 3.507 C 1.304 6.288 1.304 10.797 4.085 13.578 L 14.156 3.507 C 11.375 0.726 6.866 0.726 4.085 3.507 Z " fill="rgb(74,134,232)"/></g></g></svg>