<?xml version="1.0" encoding="UTF-8" standalone="no"?><!-- Generator: Gravit.io --><svg xmlns="http://www.w3.org/2000/svg" xmlns:xlink="http://www.w3.org/1999/xlink" style="isolation:isolate" viewBox="258.546 300.61 55 55" width="55pt" height="55pt"><defs><clipPath id="_clipPath_NFi5x2XnlZy8OLp6o7is5d9gHdhbgqGR"><rect x="258.546" y="300.61" width="55" height="55"/></clipPath></defs><g clip-path="url(#_clipPath_NFi5x2XnlZy8OLp6o7is5d9gHdhbgqGR)"><g><path d=" M 280.206 324.61 L 260.886 324.61 C 259.594 324.61 258.546 323.562 258.546 322.27 L 258.546 302.95 C 258.546 301.658 259.594 300.61 260.886 300.61 L 280.206 300.61 C 281.498 300.61 282.546 301.658 282.546 302.95 L 282.546 322.27 C 282.546 323.562 281.498 324.61 280.206 324.61 Z " fill="rgb(255,153,0)"/><path d=" M 310.206 324.61 L 290.886 324.61 C 289.594 324.61 288.546 323.562 288.546 322.27 L 288.546 302.95 C 288.546 301.658 289.594 300.61 290.886 300.61 L 310.206 300.61 C 311.498 300.61 312.546 301.658 312.546 302.95 L 312.546 322.27 C 312.546 323.562 311.498 324.61 310.206 324.61 Z " fill="rgb(74,134,232)"/><path d=" M 280.206 354.61 L 260.886 354.61 C 259.594 354.61 258.546 353.562 258.546 352.27 L 258.546 332.95 C 258.546 331.658 259.594 330.61 260.886 330.61 L 280.206 330.61 C 281.498 330.61 282.546 331.658 282.546 332.95 L 282.546 352.27 C 282.546 353.562 281.498 354.61 280.206 354.61 Z " fill="rgb(93,93,93)"/><line x1="300.546" y1="330.61" x2="300.546" y2="354.61" vector-effect="non-scaling-stroke" stroke-width="2" stroke="rgb(255,153,0)" stroke-linejoin="miter" stroke-linecap="round" stroke-miterlimit="10"/><line x1="288.546" y1="342.61" x2="312.546" y2="342.61" vector-effect="non-scaling-stroke" stroke-width="2" stroke="rgb(74,134,232)" stroke-linejoin="miter" stroke-linecap="round" stroke-miterlimit="10"/></g></g></svg>