<?xml version="1.0" encoding="UTF-8" standalone="no"?><!-- Generator: Gravit.io --><svg xmlns="http://www.w3.org/2000/svg" xmlns:xlink="http://www.w3.org/1999/xlink" style="isolation:isolate" viewBox="221.95 274.87 107.56 96.706" width="107.56pt" height="96.706pt"><defs><clipPath id="_clipPath_mC577iiYPV8rzgOkZ3WxD9oih62t1AkZ"><rect x="221.95" y="274.87" width="107.56" height="96.706"/></clipPath></defs><g clip-path="url(#_clipPath_mC577iiYPV8rzgOkZ3WxD9oih62t1AkZ)"><g><path d=" M 308.714 358.61 L 260.378 358.61 C 259.366 358.61 258.546 357.79 258.546 356.778 L 258.546 302.442 C 258.546 301.43 259.366 300.61 260.378 300.61 L 308.713 300.61 C 309.726 300.61 310.546 301.43 310.546 302.442 L 310.546 356.777 C 310.546 357.79 309.726 358.61 308.714 358.61 Z " fill="rgb(74,134,232)"/><path d=" M 290.041 317.61 L 279.051 317.61 C 277.118 317.61 275.546 316.038 275.546 314.105 L 275.546 312.61 C 275.546 312.057 275.993 311.61 276.546 311.61 C 277.099 311.61 277.546 312.057 277.546 312.61 L 277.546 314.105 C 277.546 314.935 278.221 315.61 279.051 315.61 L 290.041 315.61 C 290.871 315.61 291.546 314.935 291.546 314.105 L 291.546 312.61 C 291.546 312.057 291.993 311.61 292.546 311.61 C 293.099 311.61 293.546 312.057 293.546 312.61 L 293.546 314.105 C 293.546 316.038 291.974 317.61 290.041 317.61 Z " fill="rgb(46,46,46)"/><path d=" M 290.041 346.61 L 279.051 346.61 C 277.118 346.61 275.546 345.038 275.546 343.105 L 275.546 341.61 C 275.546 341.057 275.993 340.61 276.546 340.61 C 277.099 340.61 277.546 341.057 277.546 341.61 L 277.546 343.105 C 277.546 343.935 278.221 344.61 279.051 344.61 L 290.041 344.61 C 290.871 344.61 291.546 343.935 291.546 343.105 L 291.546 341.61 C 291.546 341.057 291.993 340.61 292.546 340.61 C 293.099 340.61 293.546 341.057 293.546 341.61 L 293.546 343.105 C 293.546 345.038 291.974 346.61 290.041 346.61 Z " fill="rgb(46,46,46)"/><rect x="258.546" y="328.61" width="52" height="2" transform="matrix(1,0,0,1,0,0)" fill="rgb(255,153,0)"/></g></g></svg>