<?xml version="1.0" encoding="UTF-8" standalone="no"?><!-- Generator: Gravit.io --><svg xmlns="http://www.w3.org/2000/svg" xmlns:xlink="http://www.w3.org/1999/xlink" style="isolation:isolate" viewBox="258.546 300.61 58 54" width="58pt" height="54pt"><defs><clipPath id="_clipPath_5qdNip85qFCfFKl9XC30mVBv6CeVhcIw"><rect x="258.546" y="300.61" width="58" height="54"/></clipPath></defs><g clip-path="url(#_clipPath_5qdNip85qFCfFKl9XC30mVBv6CeVhcIw)"><g><path d=" M 316.546 312.61 L 258.546 312.61 L 258.546 302.022 C 258.546 301.242 259.178 300.61 259.958 300.61 L 315.134 300.61 C 315.914 300.61 316.546 301.242 316.546 302.022 L 316.546 312.61 Z " fill="rgb(255,153,0)"/><path d=" M 261.546 312.61 L 261.546 351.2 C 261.546 353.083 263.073 354.61 264.956 354.61 L 310.136 354.61 C 312.019 354.61 313.546 353.083 313.546 351.2 L 313.546 312.61 L 261.546 312.61 Z " fill="rgb(74,134,232)"/><path d=" M 271.546 354.61 L 264.956 354.61 C 263.073 354.61 261.546 353.083 261.546 351.2 L 261.546 344.61 L 261.546 344.61 C 267.069 344.61 271.546 349.087 271.546 354.61 L 271.546 354.61 Z " fill="rgb(255,153,0)"/><path d=" M 310.136 354.61 L 303.546 354.61 L 303.546 354.61 C 303.546 349.087 308.023 344.61 313.546 344.61 L 313.546 344.61 L 313.546 351.2 C 313.546 353.083 312.019 354.61 310.136 354.61 Z " fill="rgb(255,153,0)"/><path d=" M 293.041 328.61 L 282.051 328.61 C 280.118 328.61 278.546 327.038 278.546 325.105 L 278.546 323.61 C 278.546 323.057 278.993 322.61 279.546 322.61 C 280.099 322.61 280.546 323.057 280.546 323.61 L 280.546 325.105 C 280.546 325.935 281.221 326.61 282.051 326.61 L 293.041 326.61 C 293.871 326.61 294.546 325.935 294.546 325.105 L 294.546 323.61 C 294.546 323.057 294.993 322.61 295.546 322.61 C 296.099 322.61 296.546 323.057 296.546 323.61 L 296.546 325.105 C 296.546 327.038 294.974 328.61 293.041 328.61 Z " fill="rgb(231,236,237)"/><rect x="261.546" y="312.61" width="52" height="6" transform="matrix(1,0,0,1,0,0)" fill="rgb(206,126,6)"/></g></g></svg>