<?xml version="1.0" encoding="UTF-8" standalone="no"?><!-- Generator: Gravit.io --><svg xmlns="http://www.w3.org/2000/svg" xmlns:xlink="http://www.w3.org/1999/xlink" style="isolation:isolate" viewBox="0 0 60 60" width="60pt" height="60pt"><defs><clipPath id="_clipPath_O7lPgfddDcLPYJkPCJupSF2GSX4W2aWx"><rect width="60" height="60"/></clipPath></defs><g clip-path="url(#_clipPath_O7lPgfddDcLPYJkPCJupSF2GSX4W2aWx)"><rect width="60" height="60" style="fill:rgb(0,0,0)" fill-opacity="0"/><g><rect x="24" y="1" width="10" height="4" transform="matrix(1,0,0,1,0,0)" fill="rgb(255,153,0)"/><path d=" M 41.536 59 L 16.464 59 C 15.103 59 14 57.897 14 56.536 L 14 7.464 C 14 6.103 15.103 5 16.464 5 L 41.536 5 C 42.897 5 44 6.103 44 7.464 L 44 56.536 C 44 57.897 42.897 59 41.536 59 Z " fill="rgb(209,209,209)"/><path d=" M 14 46 L 14 56.536 C 14 57.897 15.103 59 16.464 59 L 41.536 59 C 42.897 59 44 57.897 44 56.536 L 44 46 L 14 46 Z " fill="rgb(74,134,232)"/></g></g></svg>