<?xml version="1.0" encoding="UTF-8" standalone="no"?><!-- Generator: Gravit.io --><svg xmlns="http://www.w3.org/2000/svg" xmlns:xlink="http://www.w3.org/1999/xlink" style="isolation:isolate" viewBox="0 0 60 60" width="60pt" height="60pt"><defs><clipPath id="_clipPath_cDOua6hNaYBOwFZW4ShlTmXnfazG8Edg"><rect width="60" height="60"/></clipPath></defs><g clip-path="url(#_clipPath_cDOua6hNaYBOwFZW4ShlTmXnfazG8Edg)"><rect width="60" height="60" style="fill:rgb(0,0,0)" fill-opacity="0"/><g><path d=" M 42.536 59 L 17.464 59 C 16.103 59 15 57.897 15 56.536 L 15 7.464 C 15 6.103 16.103 5 17.464 5 L 42.536 5 C 43.897 5 45 6.103 45 7.464 L 45 56.536 C 45 57.897 43.897 59 42.536 59 Z " fill="rgb(227,80,80)"/><rect x="25" y="1" width="10" height="4" transform="matrix(1,0,0,1,0,0)" fill="rgb(162,162,162)"/><path d=" M 37 30 L 33 30 L 33 17.068 C 33.012 17.01 32.936 16.976 32.9 17.022 L 23 33 L 28 33 L 28.002 46.929 C 27.986 46.988 28.062 47.026 28.1 46.979 L 37 30 Z " fill="rgb(209,209,209)"/><path d=" M 42.536 5 L 17.464 5 C 16.103 5 15 6.103 15 7.464 L 15 14 L 45 14 L 45 7.464 C 45 6.103 43.897 5 42.536 5 Z " fill="rgb(93,93,93)"/></g></g></svg>