<?xml version="1.0" encoding="UTF-8" standalone="no"?><!-- Generator: Gravit.io --><svg xmlns="http://www.w3.org/2000/svg" xmlns:xlink="http://www.w3.org/1999/xlink" style="isolation:isolate" viewBox="353 265 57 57" width="57pt" height="57pt"><defs><clipPath id="_clipPath_6v55STFlbas6egeA58bVf8G3B34P5NFt"><rect x="353" y="265" width="57" height="57"/></clipPath></defs><g clip-path="url(#_clipPath_6v55STFlbas6egeA58bVf8G3B34P5NFt)"><g><path d=" M 359 265 C 355.686 265 353 267.686 353 271 L 353 316 C 353 312.686 355.686 310 359 310 C 362.314 310 365 312.686 365 316 L 365 271 C 365 267.686 362.314 265 359 265 Z " fill="rgb(52,122,234)"/><path d=" M 365 272 L 365 316 C 365 312.686 362.314 310 359 310 C 355.686 310 353 312.686 353 316 L 353 316.06 C 353 319.34 355.66 322 358.94 322 L 410 322 L 410 272 L 365 272 Z " fill="rgb(74,134,232)"/><path d=" M 405 306 L 402 306 C 401.447 306 401 305.553 401 305 C 401 304.447 401.447 304 402 304 L 403 304 L 403 303.383 C 403 302.83 403.447 302.383 404 302.383 C 404.553 302.383 405 302.83 405 303.383 L 405 306 Z  M 398 306 L 396 306 C 395.447 306 395 305.553 395 305 C 395 304.447 395.447 304 396 304 L 398 304 C 398.553 304 399 304.447 399 305 C 399 305.553 398.553 306 398 306 Z  M 392 306 L 390 306 C 389.447 306 389 305.553 389 305 C 389 304.447 389.447 304 390 304 L 392 304 C 392.553 304 393 304.447 393 305 C 393 305.553 392.553 306 392 306 Z  M 386 306 L 384 306 C 383.447 306 383 305.553 383 305 C 383 304.447 383.447 304 384 304 L 386 304 C 386.553 304 387 304.447 387 305 C 387 305.553 386.553 306 386 306 Z  M 380 306 L 378 306 C 377.447 306 377 305.553 377 305 C 377 304.447 377.447 304 378 304 L 380 304 C 380.553 304 381 304.447 381 305 C 381 305.553 380.553 306 380 306 Z  M 374 306 L 372 306 C 371.447 306 371 305.553 371 305 C 371 304.447 371.447 304 372 304 L 374 304 C 374.553 304 375 304.447 375 305 C 375 305.553 374.553 306 374 306 Z  M 370 304 C 369.447 304 369 303.553 369 303 L 369 301 C 369 300.447 369.447 300 370 300 C 370.553 300 371 300.447 371 301 L 371 303 C 371 303.553 370.553 304 370 304 Z  M 404 300.383 C 403.447 300.383 403 299.936 403 299.383 L 403 297.383 C 403 296.83 403.447 296.383 404 296.383 C 404.553 296.383 405 296.83 405 297.383 L 405 299.383 C 405 299.936 404.553 300.383 404 300.383 Z  M 370 298 C 369.447 298 369 297.553 369 297 L 369 295 C 369 294.447 369.447 294 370 294 C 370.553 294 371 294.447 371 295 L 371 297 C 371 297.553 370.553 298 370 298 Z  M 404 294.383 C 403.447 294.383 403 293.936 403 293.383 L 403 291.383 C 403 290.83 403.447 290.383 404 290.383 C 404.553 290.383 405 290.83 405 291.383 L 405 293.383 C 405 293.936 404.553 294.383 404 294.383 Z  M 370 292 C 369.447 292 369 291.553 369 291 L 369 289 C 369 288.447 369.447 288 370 288 C 370.553 288 371 288.447 371 289 L 371 291 C 371 291.553 370.553 292 370 292 Z  M 403.495 288.644 C 403.296 288.644 403.095 288.584 402.92 288.461 L 401.285 287.308 C 400.834 286.99 400.725 286.366 401.044 285.914 C 401.363 285.463 401.986 285.355 402.438 285.673 L 404.073 286.826 C 404.524 287.144 404.633 287.768 404.314 288.22 C 404.118 288.496 403.81 288.644 403.495 288.644 Z  M 372.452 287.27 C 372.138 287.27 371.829 287.123 371.634 286.847 C 371.316 286.396 371.423 285.772 371.874 285.452 L 373.508 284.299 C 373.961 283.982 374.584 284.089 374.903 284.539 C 375.221 284.99 375.114 285.614 374.663 285.934 L 373.029 287.087 C 372.853 287.21 372.651 287.27 372.452 287.27 Z  M 398.593 285.184 C 398.394 285.184 398.193 285.124 398.017 285.001 L 396.383 283.848 C 395.932 283.529 395.824 282.905 396.143 282.453 C 396.462 282.003 397.084 281.895 397.538 282.213 L 399.172 283.366 C 399.623 283.685 399.731 284.309 399.412 284.761 C 399.216 285.036 398.907 285.184 398.593 285.184 Z  M 377.354 283.81 C 377.04 283.81 376.731 283.663 376.536 283.387 C 376.218 282.936 376.325 282.312 376.776 281.992 L 378.41 280.839 C 378.863 280.523 379.485 280.63 379.805 281.079 C 380.123 281.53 380.016 282.154 379.565 282.474 L 377.931 283.627 C 377.754 283.75 377.553 283.81 377.354 283.81 Z  M 393.691 281.724 C 393.492 281.724 393.291 281.664 393.115 281.541 L 391.481 280.388 C 391.03 280.069 390.922 279.445 391.241 278.993 C 391.56 278.543 392.182 278.435 392.636 278.753 L 394.27 279.906 C 394.721 280.225 394.829 280.849 394.51 281.301 C 394.314 281.576 394.006 281.724 393.691 281.724 Z  M 382.256 280.35 C 381.942 280.35 381.633 280.203 381.438 279.927 C 381.12 279.476 381.227 278.852 381.678 278.532 L 383.312 277.379 C 383.766 277.061 384.387 277.17 384.707 277.619 C 385.025 278.07 384.918 278.694 384.467 279.014 L 382.833 280.167 C 382.656 280.29 382.455 280.35 382.256 280.35 Z  M 388.789 278.264 C 388.59 278.264 388.389 278.204 388.213 278.081 L 386.579 276.928 C 386.128 276.609 386.02 275.985 386.339 275.533 C 386.658 275.084 387.28 274.976 387.734 275.293 L 389.368 276.446 C 389.819 276.765 389.927 277.389 389.608 277.841 C 389.412 278.116 389.104 278.264 388.789 278.264 Z " fill="rgb(163,188,215)"/><rect x="394" y="311" width="11" height="6" transform="matrix(1,0,0,1,0,0)" fill="none" vector-effect="non-scaling-stroke" stroke-width="2" stroke="rgb(255,153,0)" stroke-linejoin="miter" stroke-linecap="round" stroke-miterlimit="2"/><path d=" M 383 301 L 381 301 C 380.447 301 380 300.553 380 300 C 380 299.447 380.447 299 381 299 L 382 299 L 382 298 C 382 297.447 382.447 297 383 297 C 383.553 297 384 297.447 384 298 L 384 300 C 384 300.553 383.553 301 383 301 Z  M 377 301 L 375 301 C 374.447 301 374 300.553 374 300 C 374 299.447 374.447 299 375 299 L 377 299 C 377.553 299 378 299.447 378 300 C 378 300.553 377.553 301 377 301 Z  M 375 297 C 374.447 297 374 296.553 374 296 L 374 294 C 374 293.447 374.447 293 375 293 C 375.553 293 376 293.447 376 294 L 376 296 C 376 296.553 375.553 297 375 297 Z  M 383 295 C 382.447 295 382 294.553 382 294 L 382 292 C 382 291.447 382.447 291 383 291 C 383.553 291 384 291.447 384 292 L 384 294 C 384 294.553 383.553 295 383 295 Z  M 379 293 L 377 293 C 376.447 293 376 292.553 376 292 C 376 291.447 376.447 291 377 291 L 379 291 C 379.553 291 380 291.447 380 292 C 380 292.553 379.553 293 379 293 Z " fill="rgb(163,188,215)"/><path d=" M 399 301 L 397 301 C 396.447 301 396 300.553 396 300 C 396 299.447 396.447 299 397 299 L 398 299 L 398 298 C 398 297.447 398.447 297 399 297 C 399.553 297 400 297.447 400 298 L 400 300 C 400 300.553 399.553 301 399 301 Z  M 393 301 L 391 301 C 390.447 301 390 300.553 390 300 C 390 299.447 390.447 299 391 299 L 393 299 C 393.553 299 394 299.447 394 300 C 394 300.553 393.553 301 393 301 Z  M 391 297 C 390.447 297 390 296.553 390 296 L 390 294 C 390 293.447 390.447 293 391 293 C 391.553 293 392 293.447 392 294 L 392 296 C 392 296.553 391.553 297 391 297 Z  M 399 295 C 398.447 295 398 294.553 398 294 L 398 292 C 398 291.447 398.447 291 399 291 C 399.553 291 400 291.447 400 292 L 400 294 C 400 294.553 399.553 295 399 295 Z  M 395 293 L 393 293 C 392.447 293 392 292.553 392 292 C 392 291.447 392.447 291 393 291 L 395 291 C 395.553 291 396 291.447 396 292 C 396 292.553 395.553 293 395 293 Z " fill="rgb(163,188,215)"/><line x1="390" y1="311" x2="385" y2="311" vector-effect="non-scaling-stroke" stroke-width="2" stroke="rgb(223,240,253)" stroke-linejoin="miter" stroke-linecap="round" stroke-miterlimit="10"/><line x1="390" y1="314" x2="383" y2="314" vector-effect="non-scaling-stroke" stroke-width="2" stroke="rgb(223,240,253)" stroke-linejoin="miter" stroke-linecap="round" stroke-miterlimit="10"/><line x1="390" y1="317" x2="380" y2="317" vector-effect="non-scaling-stroke" stroke-width="2" stroke="rgb(223,240,253)" stroke-linejoin="miter" stroke-linecap="round" stroke-miterlimit="10"/></g></g></svg>