<?xml version="1.0" encoding="UTF-8" standalone="no"?><!-- Generator: Gravit.io --><svg xmlns="http://www.w3.org/2000/svg" xmlns:xlink="http://www.w3.org/1999/xlink" style="isolation:isolate" viewBox="240.872 291.335 52 89" width="52pt" height="89pt"><defs><clipPath id="_clipPath_OYDHNyHem8VtYC0c4NbGWSb12Gz1QLGU"><rect x="240.872" y="291.335" width="52" height="89"/></clipPath></defs><g clip-path="url(#_clipPath_OYDHNyHem8VtYC0c4NbGWSb12Gz1QLGU)"><g><mask id="_mask_KDba7TUCGC241H4VmfHPPWpezfNpJ0fZ" x="-200%" y="-200%" width="400%" height="400%"><rect x="-200%" y="-200%" width="400%" height="400%" style="fill:white;"/><path d=" M 260.872 360.335 L 260.872 347.335 L 260.872 335.335 L 272.872 347.335 L 260.872 360.335 Z " fill="black" stroke="none"/></mask><path d=" M 260.872 360.335 L 260.872 347.335 L 260.872 335.335 L 272.872 347.335 L 260.872 360.335 Z " fill="rgb(255,255,255)" mask="url(#_mask_KDba7TUCGC241H4VmfHPPWpezfNpJ0fZ)" vector-effect="non-scaling-stroke" stroke-width="4" stroke="rgb(74,134,232)" stroke-linejoin="miter" stroke-linecap="butt" stroke-miterlimit="10"/><path d=" M 260.872 360.335 L 260.872 347.335 L 260.872 335.335 L 272.872 347.335 L 260.872 360.335 Z " fill="rgb(255,255,255)"/><mask id="_mask_pX4OFW9ahrdZcThzdC6JSd1nUSXk0Q7C" x="-200%" y="-200%" width="400%" height="400%"><rect x="-200%" y="-200%" width="400%" height="400%" style="fill:white;"/><path d=" M 260.872 336.335 L 260.872 323.335 L 260.872 311.335 L 272.872 323.335 L 260.872 336.335 Z " fill="black" stroke="none"/></mask><path d=" M 260.872 336.335 L 260.872 323.335 L 260.872 311.335 L 272.872 323.335 L 260.872 336.335 Z " fill="rgb(255,255,255)" mask="url(#_mask_pX4OFW9ahrdZcThzdC6JSd1nUSXk0Q7C)" vector-effect="non-scaling-stroke" stroke-width="4" stroke="rgb(74,134,232)" stroke-linejoin="miter" stroke-linecap="butt" stroke-miterlimit="10"/><path d=" M 260.872 336.335 L 260.872 323.335 L 260.872 311.335 L 272.872 323.335 L 260.872 336.335 Z " fill="rgb(255,255,255)"/><line x1="247.872" y1="322.335" x2="261.872" y2="336.335" vector-effect="non-scaling-stroke" stroke-width="2" stroke="rgb(74,134,232)" stroke-linejoin="miter" stroke-linecap="butt" stroke-miterlimit="10"/><line x1="261.872" y1="335.335" x2="247.872" y2="349.335" vector-effect="non-scaling-stroke" stroke-width="2" stroke="rgb(74,134,232)" stroke-linejoin="miter" stroke-linecap="butt" stroke-miterlimit="10"/></g></g></svg>