<?xml version="1.0" encoding="UTF-8" standalone="no"?><!-- Generator: Gravit.io --><svg xmlns="http://www.w3.org/2000/svg" xmlns:xlink="http://www.w3.org/1999/xlink" style="isolation:isolate" viewBox="244.872 301.335 48 75" width="48pt" height="75pt"><defs><clipPath id="_clipPath_M63NE4l9BRjrkBNxV1ZGoY6tGzcHjeQx"><rect x="244.872" y="301.335" width="48" height="75"/></clipPath></defs><g clip-path="url(#_clipPath_M63NE4l9BRjrkBNxV1ZGoY6tGzcHjeQx)"><g><path d=" M 264.872 366.335 L 264.872 366.335 C 255.483 366.335 247.872 358.724 247.872 349.335 L 247.872 328.335 C 247.872 318.946 255.483 311.335 264.872 311.335 L 264.872 311.335 C 274.261 311.335 281.872 318.946 281.872 328.335 L 281.872 349.335 C 281.872 358.724 274.261 366.335 264.872 366.335 Z " fill="rgb(74,134,232)"/><mask id="_mask_0HGvnIfGpxXUfoexd0EF0DD0wEG6P9Dr" x="-200%" y="-200%" width="400%" height="400%"><rect x="-200%" y="-200%" width="400%" height="400%" style="fill:white;"/><path d=" M 264.907 338.335 L 264.872 329.335 L 264.872 321.335 L 272.872 329.335 L 264.907 338.335 Z " fill="black" stroke="none"/></mask><path d=" M 264.907 338.335 L 264.872 329.335 L 264.872 321.335 L 272.872 329.335 L 264.907 338.335 Z " fill="none" mask="url(#_mask_0HGvnIfGpxXUfoexd0EF0DD0wEG6P9Dr)" vector-effect="non-scaling-stroke" stroke-width="4" stroke="rgb(255,255,255)" stroke-linejoin="miter" stroke-linecap="butt" stroke-miterlimit="10"/><path d=" M 264.907 338.335 L 264.872 329.335 L 264.872 321.335 L 272.872 329.335 L 264.907 338.335 Z " fill="none"/><mask id="_mask_lTPfqneHHOfhmTmjLs7FEf4zPkIp34Nn" x="-200%" y="-200%" width="400%" height="400%"><rect x="-200%" y="-200%" width="400%" height="400%" style="fill:white;"/><path d=" M 264.872 356.335 L 264.872 347.335 L 264.907 338.941 L 272.872 347.335 L 264.872 356.335 Z " fill="black" stroke="none"/></mask><path d=" M 264.872 356.335 L 264.872 347.335 L 264.907 338.941 L 272.872 347.335 L 264.872 356.335 Z " fill="none" mask="url(#_mask_lTPfqneHHOfhmTmjLs7FEf4zPkIp34Nn)" vector-effect="non-scaling-stroke" stroke-width="4" stroke="rgb(255,255,255)" stroke-linejoin="miter" stroke-linecap="butt" stroke-miterlimit="10"/><path d=" M 264.872 356.335 L 264.872 347.335 L 264.907 338.941 L 272.872 347.335 L 264.872 356.335 Z " fill="none"/><line x1="254.945" y1="329.348" x2="264.907" y2="338.348" vector-effect="non-scaling-stroke" stroke-width="2" stroke="rgb(255,255,255)" stroke-linejoin="miter" stroke-linecap="butt" stroke-miterlimit="10"/><line x1="264.945" y1="338.348" x2="254.872" y2="347.348" vector-effect="non-scaling-stroke" stroke-width="2" stroke="rgb(255,255,255)" stroke-linejoin="miter" stroke-linecap="butt" stroke-miterlimit="10"/></g></g></svg>