<?xml version="1.0" encoding="UTF-8" standalone="no"?><!-- Generator: Gravit.io --><svg xmlns="http://www.w3.org/2000/svg" xmlns:xlink="http://www.w3.org/1999/xlink" style="isolation:isolate" viewBox="333.9 252.635 53 56" width="53pt" height="56pt"><defs><clipPath id="_clipPath_WpVI89fg46sMKJ6UOrDD8iWpM0sTUoLT"><rect x="333.9" y="252.635" width="53" height="56"/></clipPath></defs><g clip-path="url(#_clipPath_WpVI89fg46sMKJ6UOrDD8iWpM0sTUoLT)"><g><path d=" M 383.903 308.635 L 349.9 308.635 L 349.9 252.638 L 383.903 252.638 C 385.558 252.638 386.9 253.98 386.9 255.635 L 386.9 305.638 C 386.9 307.293 385.558 308.635 383.903 308.635 Z " fill="rgb(255,153,0)"/><rect x="375.9" y="252.638" width="5" height="55.997" transform="matrix(1,0,0,1,0,0)" fill="rgb(74,134,232)"/><rect x="338.9" y="252.635" width="11" height="56" transform="matrix(1,0,0,1,0,0)" fill="rgb(185,185,185)"/><circle vector-effect="non-scaling-stroke" cx="342.8996227096344" cy="297.6346889893146" r="2" fill="rgb(70,70,70)"/><circle vector-effect="non-scaling-stroke" cx="342.8996227096344" cy="291.6346889893146" r="2" fill="rgb(70,70,70)"/><circle vector-effect="non-scaling-stroke" cx="342.8996227096344" cy="285.6346889893146" r="2" fill="rgb(70,70,70)"/><circle vector-effect="non-scaling-stroke" cx="342.8996227096344" cy="279.6346889893146" r="2" fill="rgb(70,70,70)"/><path d=" M 333.9 279.635 C 333.9 280.765 334.291 281.797 334.925 282.635 C 335.33 282.101 335.837 281.656 336.42 281.32 C 336.092 280.839 335.9 280.259 335.9 279.635 C 335.9 277.981 337.246 276.635 338.9 276.635 C 340.554 276.635 341.9 277.981 341.9 279.635 C 341.9 280.188 342.347 280.635 342.9 280.635 C 343.453 280.635 343.9 280.188 343.9 279.635 C 343.9 276.878 341.657 274.635 338.9 274.635 C 336.143 274.635 333.9 276.878 333.9 279.635 Z " fill="rgb(209,209,209)"/><path d=" M 336.42 283.95 C 337.154 284.374 337.993 284.635 338.9 284.635 L 338.9 282.635 C 337.87 282.635 336.961 283.157 336.42 283.95 Z " fill="rgb(162,162,162)"/><path d=" M 336.42 289.95 C 337.154 290.374 337.993 290.635 338.9 290.635 L 338.9 288.635 C 337.87 288.635 336.961 289.157 336.42 289.95 Z " fill="rgb(162,162,162)"/><path d=" M 336.42 281.32 C 335.837 281.656 335.33 282.101 334.925 282.635 C 334.291 283.473 333.9 284.505 333.9 285.635 C 333.9 286.765 334.291 287.797 334.925 288.635 C 335.33 288.101 335.837 287.656 336.42 287.32 C 336.092 286.839 335.9 286.259 335.9 285.635 C 335.9 285.011 336.092 284.431 336.42 283.95 C 336.961 283.157 337.87 282.635 338.9 282.635 C 340.554 282.635 341.9 283.981 341.9 285.635 C 341.9 286.188 342.347 286.635 342.9 286.635 C 343.453 286.635 343.9 286.188 343.9 285.635 C 343.9 282.878 341.657 280.635 338.9 280.635 C 337.993 280.635 337.154 280.896 336.42 281.32 Z " fill="rgb(209,209,209)"/><path d=" M 336.42 295.95 C 337.154 296.374 337.993 296.635 338.9 296.635 L 338.9 294.635 C 337.87 294.635 336.961 295.157 336.42 295.95 Z " fill="rgb(162,162,162)"/><path d=" M 336.42 287.32 C 335.837 287.656 335.33 288.101 334.925 288.635 C 334.291 289.473 333.9 290.505 333.9 291.635 C 333.9 292.765 334.291 293.797 334.925 294.635 C 335.33 294.101 335.837 293.656 336.42 293.32 C 336.092 292.839 335.9 292.259 335.9 291.635 C 335.9 291.011 336.092 290.431 336.42 289.95 C 336.961 289.157 337.87 288.635 338.9 288.635 C 340.554 288.635 341.9 289.981 341.9 291.635 C 341.9 292.188 342.347 292.635 342.9 292.635 C 343.453 292.635 343.9 292.188 343.9 291.635 C 343.9 288.878 341.657 286.635 338.9 286.635 C 337.993 286.635 337.154 286.896 336.42 287.32 Z " fill="rgb(209,209,209)"/><circle vector-effect="non-scaling-stroke" cx="342.8996227096344" cy="273.6346889893146" r="2" fill="rgb(70,70,70)"/><circle vector-effect="non-scaling-stroke" cx="342.8996227096344" cy="267.6346889893146" r="2" fill="rgb(70,70,70)"/><circle vector-effect="non-scaling-stroke" cx="342.8996227096344" cy="261.6346889893146" r="2" fill="rgb(70,70,70)"/><path d=" M 333.9 261.635 C 333.9 262.765 334.291 263.797 334.925 264.635 C 335.33 264.101 335.837 263.656 336.42 263.32 C 336.092 262.839 335.9 262.259 335.9 261.635 C 335.9 259.981 337.246 258.635 338.9 258.635 C 340.554 258.635 341.9 259.981 341.9 261.635 C 341.9 262.188 342.347 262.635 342.9 262.635 C 343.453 262.635 343.9 262.188 343.9 261.635 C 343.9 258.878 341.657 256.635 338.9 256.635 C 336.143 256.635 333.9 258.878 333.9 261.635 Z " fill="rgb(209,209,209)"/><path d=" M 336.42 265.95 C 337.154 266.374 337.993 266.635 338.9 266.635 L 338.9 264.635 C 337.87 264.635 336.961 265.157 336.42 265.95 Z " fill="rgb(162,162,162)"/><path d=" M 336.42 271.95 C 337.154 272.374 337.993 272.635 338.9 272.635 L 338.9 270.635 C 337.87 270.635 336.961 271.157 336.42 271.95 Z " fill="rgb(162,162,162)"/><path d=" M 336.42 263.32 C 335.837 263.656 335.33 264.101 334.925 264.635 C 334.291 265.473 333.9 266.505 333.9 267.635 C 333.9 268.765 334.291 269.797 334.925 270.635 C 335.33 270.101 335.837 269.656 336.42 269.32 C 336.092 268.839 335.9 268.259 335.9 267.635 C 335.9 267.011 336.092 266.431 336.42 265.95 C 336.961 265.157 337.87 264.635 338.9 264.635 C 340.554 264.635 341.9 265.981 341.9 267.635 C 341.9 268.188 342.347 268.635 342.9 268.635 C 343.453 268.635 343.9 268.188 343.9 267.635 C 343.9 264.878 341.657 262.635 338.9 262.635 C 337.993 262.635 337.154 262.896 336.42 263.32 Z " fill="rgb(209,209,209)"/><path d=" M 336.42 277.95 C 337.154 278.374 337.993 278.635 338.9 278.635 L 338.9 276.635 C 337.87 276.635 336.961 277.157 336.42 277.95 Z " fill="rgb(162,162,162)"/><path d=" M 336.42 269.32 C 335.837 269.656 335.33 270.101 334.925 270.635 C 334.291 271.473 333.9 272.505 333.9 273.635 C 333.9 274.765 334.291 275.797 334.925 276.635 C 335.33 276.101 335.837 275.656 336.42 275.32 C 336.092 274.839 335.9 274.259 335.9 273.635 C 335.9 273.011 336.092 272.431 336.42 271.95 C 336.961 271.157 337.87 270.635 338.9 270.635 C 340.554 270.635 341.9 271.981 341.9 273.635 C 341.9 274.188 342.347 274.635 342.9 274.635 C 343.453 274.635 343.9 274.188 343.9 273.635 C 343.9 270.878 341.657 268.635 338.9 268.635 C 337.993 268.635 337.154 268.896 336.42 269.32 Z " fill="rgb(209,209,209)"/><path d=" M 336.42 293.32 C 335.837 293.656 335.33 294.101 334.925 294.635 C 334.291 295.473 333.9 296.505 333.9 297.635 C 333.9 300.392 336.143 302.635 338.9 302.635 L 338.9 300.635 C 337.246 300.635 335.9 299.289 335.9 297.635 C 335.9 297.011 336.092 296.431 336.42 295.95 C 336.961 295.157 337.87 294.635 338.9 294.635 C 340.554 294.635 341.9 295.981 341.9 297.635 C 341.9 298.188 342.347 298.635 342.9 298.635 C 343.453 298.635 343.9 298.188 343.9 297.635 C 343.9 294.878 341.657 292.635 338.9 292.635 C 337.993 292.635 337.154 292.896 336.42 293.32 Z " fill="rgb(209,209,209)"/></g></g></svg>