<?xml version="1.0" encoding="UTF-8" standalone="no"?><!-- Generator: Gravit.io --><svg xmlns="http://www.w3.org/2000/svg" xmlns:xlink="http://www.w3.org/1999/xlink" style="isolation:isolate" viewBox="257.546 280.61 60 69" width="60pt" height="69pt"><defs><clipPath id="_clipPath_5jXFeMLdIddNI3XEb1F1aKVqaGCLPTHa"><rect x="257.546" y="280.61" width="60" height="69"/></clipPath></defs><g clip-path="url(#_clipPath_5jXFeMLdIddNI3XEb1F1aKVqaGCLPTHa)"><g><mask id="_mask_LCkLf11ZyVzMDmncn61utXCKDnyQKt55" x="-200%" y="-200%" width="400%" height="400%"><rect x="-200%" y="-200%" width="400%" height="400%" style="fill:white;"/><path d=" M 277.546 312.61 L 277.546 302.816 C 277.546 301.598 278.534 300.61 279.752 300.61 L 295.339 300.61 C 296.558 300.61 297.546 301.598 297.546 302.816 L 297.546 312.61" fill="black" stroke="none"/></mask><path d=" M 277.546 312.61 L 277.546 302.816 C 277.546 301.598 278.534 300.61 279.752 300.61 L 295.339 300.61 C 296.558 300.61 297.546 301.598 297.546 302.816 L 297.546 312.61" fill="none" mask="url(#_mask_LCkLf11ZyVzMDmncn61utXCKDnyQKt55)" vector-effect="non-scaling-stroke" stroke-width="4" stroke="rgb(70,70,70)" stroke-linejoin="miter" stroke-linecap="round" stroke-miterlimit="10"/><path d=" M 277.546 312.61 L 277.546 302.816 C 277.546 301.598 278.534 300.61 279.752 300.61 L 295.339 300.61 C 296.558 300.61 297.546 301.598 297.546 302.816 L 297.546 312.61" fill="none"/><path d=" M 314.536 349.61 L 260.556 349.61 C 259.446 349.61 258.546 348.71 258.546 347.6 L 258.546 311.62 C 258.546 310.51 259.446 309.61 260.556 309.61 L 314.536 309.61 C 315.646 309.61 316.546 310.51 316.546 311.62 L 316.546 347.6 C 316.546 348.71 315.646 349.61 314.536 349.61 Z " fill="rgb(255,153,0)"/><path d=" M 266.546 309.61 L 260.556 309.61 C 259.446 309.61 258.546 310.51 258.546 311.62 L 258.546 347.6 C 258.546 348.71 259.446 349.61 260.556 349.61 L 266.546 349.61 L 266.546 309.61 Z " fill="rgb(255,153,0)"/><path d=" M 314.536 309.61 L 308.546 309.61 L 308.546 349.61 L 314.536 349.61 C 315.646 349.61 316.546 348.71 316.546 347.6 L 316.546 311.62 C 316.546 310.51 315.646 309.61 314.536 309.61 Z " fill="rgb(255,153,0)"/><rect x="265.546" y="309.61" width="2" height="40" transform="matrix(1,0,0,1,0,0)" fill="rgb(74,134,232)"/><rect x="307.546" y="309.61" width="2" height="40" transform="matrix(1,0,0,1,0,0)" fill="rgb(74,134,232)"/><rect x="263.546" y="306.61" width="8" height="3" transform="matrix(1,0,0,1,0,0)" fill="rgb(116,116,116)"/><rect x="303.546" y="306.61" width="8" height="3" transform="matrix(1,0,0,1,0,0)" fill="rgb(116,116,116)"/></g></g></svg>