<?xml version="1.0" encoding="UTF-8" standalone="no"?><!-- Generator: Gravit.io --><svg xmlns="http://www.w3.org/2000/svg" xmlns:xlink="http://www.w3.org/1999/xlink" style="isolation:isolate" viewBox="248.546 290.61 70.964 70.965" width="70.964pt" height="70.965pt"><defs><clipPath id="_clipPath_NWbn7zt9Ke9hyufwxVgoVEUEQovtEwNn"><rect x="248.546" y="290.61" width="70.964" height="70.965"/></clipPath></defs><g clip-path="url(#_clipPath_NWbn7zt9Ke9hyufwxVgoVEUEQovtEwNn)"><g><path d=" M 281.553 313.012 L 290.745 303.819 C 295.023 299.541 302.023 299.541 306.301 303.819 L 306.301 303.819 C 310.579 308.097 310.579 315.097 306.301 319.375 L 294.28 331.397 C 290.002 335.675 283.002 335.675 278.724 331.397 L 278.724 331.397" fill="none" vector-effect="non-scaling-stroke" stroke-width="2" stroke="rgb(74,134,232)" stroke-linejoin="miter" stroke-linecap="round" stroke-miterlimit="10"/><path d=" M 285.088 340.589 L 277.31 348.367 C 273.032 352.645 266.032 352.645 261.754 348.367 L 261.754 348.367 C 257.476 344.089 257.476 337.089 261.754 332.811 L 273.068 321.497 C 277.346 317.219 284.346 317.219 288.624 321.497 L 288.624 321.497" fill="none" vector-effect="non-scaling-stroke" stroke-width="2" stroke="rgb(255,153,0)" stroke-linejoin="miter" stroke-linecap="round" stroke-miterlimit="10"/><line x1="291.51" y1="344.611" x2="291.51" y2="350.611" vector-effect="non-scaling-stroke" stroke-width="2" stroke="rgb(213,53,78)" stroke-linejoin="miter" stroke-linecap="round" stroke-miterlimit="10"/><line x1="295.267" y1="342.611" x2="299.51" y2="346.854" vector-effect="non-scaling-stroke" stroke-width="2" stroke="rgb(213,53,78)" stroke-linejoin="miter" stroke-linecap="round" stroke-miterlimit="10"/><line x1="296.51" y1="338.611" x2="302.51" y2="338.611" vector-effect="non-scaling-stroke" stroke-width="2" stroke="rgb(213,53,78)" stroke-linejoin="miter" stroke-linecap="round" stroke-miterlimit="10"/><line x1="273.51" y1="309.611" x2="273.51" y2="303.611" vector-effect="non-scaling-stroke" stroke-width="2" stroke="rgb(213,53,78)" stroke-linejoin="miter" stroke-linecap="round" stroke-miterlimit="10"/><line x1="269.752" y1="311.611" x2="265.51" y2="307.368" vector-effect="non-scaling-stroke" stroke-width="2" stroke="rgb(213,53,78)" stroke-linejoin="miter" stroke-linecap="round" stroke-miterlimit="10"/><line x1="268.51" y1="315.611" x2="262.51" y2="315.611" vector-effect="non-scaling-stroke" stroke-width="2" stroke="rgb(213,53,78)" stroke-linejoin="miter" stroke-linecap="round" stroke-miterlimit="10"/></g></g></svg>