<?xml version="1.0" encoding="UTF-8" standalone="no"?><!-- Generator: Gravit.io --><svg xmlns="http://www.w3.org/2000/svg" xmlns:xlink="http://www.w3.org/1999/xlink" style="isolation:isolate" viewBox="0 0 60 60" width="60pt" height="60pt"><defs><clipPath id="_clipPath_ECY03UNHKbYGFuF9N3dueNqnpBUdNH7u"><rect width="60" height="60"/></clipPath></defs><g clip-path="url(#_clipPath_ECY03UNHKbYGFuF9N3dueNqnpBUdNH7u)"><rect width="60" height="60" style="fill:rgb(0,0,0)" fill-opacity="0"/><g><path d=" M 50.586 59 L 9.414 59 C 8.357 59 7.5 58.143 7.5 57.086 L 7.5 2.914 C 7.5 1.857 8.357 1 9.414 1 L 50.585 1 C 51.643 1 52.5 1.857 52.5 2.914 L 52.5 57.085 C 52.5 58.143 51.643 59 50.586 59 Z " fill="rgb(255,153,0)"/><rect x="12.5" y="45" width="9" height="9" transform="matrix(1,0,0,1,0,0)" fill="rgb(74,134,232)"/><rect x="25.5" y="45" width="9" height="9" transform="matrix(1,0,0,1,0,0)" fill="rgb(74,134,232)"/><rect x="38.5" y="32" width="9" height="22" transform="matrix(1,0,0,1,0,0)" fill="rgb(242,89,89)"/><rect x="12.5" y="32" width="9" height="9" transform="matrix(1,0,0,1,0,0)" fill="rgb(74,134,232)"/><rect x="25.5" y="32" width="9" height="9" transform="matrix(1,0,0,1,0,0)" fill="rgb(74,134,232)"/><rect x="12.5" y="19" width="9" height="9" transform="matrix(1,0,0,1,0,0)" fill="rgb(74,134,232)"/><rect x="25.5" y="19" width="9" height="9" transform="matrix(1,0,0,1,0,0)" fill="rgb(74,134,232)"/><rect x="38.5" y="19" width="9" height="9" transform="matrix(1,0,0,1,0,0)" fill="rgb(46,46,46)"/><rect x="12.5" y="6" width="35" height="8" transform="matrix(1,0,0,1,0,0)" fill="rgb(232,232,232)"/></g></g></svg>