<?xml version="1.0" encoding="UTF-8" standalone="no"?><!-- Generator: Gravit.io --><svg xmlns="http://www.w3.org/2000/svg" xmlns:xlink="http://www.w3.org/1999/xlink" style="isolation:isolate" viewBox="0 0 60 60" width="60pt" height="60pt"><defs><clipPath id="_clipPath_cn6wTNEFl54lWad1jwoA5n9WMjr18rvd"><rect width="60" height="60"/></clipPath></defs><g clip-path="url(#_clipPath_cn6wTNEFl54lWad1jwoA5n9WMjr18rvd)"><rect width="60" height="60" style="fill:rgb(0,0,0)" fill-opacity="0"/><g><rect x="2" y="2" width="28" height="28" transform="matrix(1,0,0,1,0,0)" fill="rgb(242,179,85)"/><rect x="30" y="2" width="28" height="28" transform="matrix(1,0,0,1,0,0)" fill="rgb(255,153,0)"/><rect x="2" y="30" width="28" height="28" transform="matrix(1,0,0,1,0,0)" fill="rgb(255,153,0)"/><rect x="30" y="30" width="28" height="28" transform="matrix(1,0,0,1,0,0)" fill="rgb(74,134,232)"/><path d=" M 50 48 L 38 48 C 37.448 48 37 47.553 37 47 C 37 46.447 37.448 46 38 46 L 50 46 C 50.552 46 51 46.447 51 47 C 51 47.553 50.552 48 50 48 Z " fill="rgb(255,255,255)"/><path d=" M 50 42 L 38 42 C 37.448 42 37 41.553 37 41 C 37 40.447 37.448 40 38 40 L 50 40 C 50.552 40 51 40.447 51 41 C 51 41.553 50.552 42 50 42 Z " fill="rgb(255,255,255)"/><path d=" M 16 45 C 15.744 45 15.488 44.902 15.293 44.707 C 14.902 44.316 14.902 43.684 15.293 43.293 L 20.293 38.293 C 20.684 37.902 21.316 37.902 21.707 38.293 C 22.098 38.684 22.098 39.316 21.707 39.707 L 16.707 44.707 C 16.512 44.902 16.256 45 16 45 Z " fill="rgb(255,255,255)"/><path d=" M 11 50 C 10.744 50 10.488 49.902 10.293 49.707 C 9.902 49.316 9.902 48.684 10.293 48.293 L 15.293 43.293 C 15.684 42.902 16.316 42.902 16.707 43.293 C 17.098 43.684 17.098 44.316 16.707 44.707 L 11.707 49.707 C 11.512 49.902 11.256 50 11 50 Z " fill="rgb(255,255,255)"/><path d=" M 21 50 C 20.744 50 20.488 49.902 20.293 49.707 L 15.293 44.707 C 14.902 44.316 14.902 43.684 15.293 43.293 C 15.684 42.902 16.316 42.902 16.707 43.293 L 21.707 48.293 C 22.098 48.684 22.098 49.316 21.707 49.707 C 21.512 49.902 21.256 50 21 50 Z " fill="rgb(255,255,255)"/><path d=" M 16 45 C 15.744 45 15.488 44.902 15.293 44.707 L 10.293 39.707 C 9.902 39.316 9.902 38.684 10.293 38.293 C 10.684 37.902 11.316 37.902 11.707 38.293 L 16.707 43.293 C 17.098 43.684 17.098 44.316 16.707 44.707 C 16.512 44.902 16.256 45 16 45 Z " fill="rgb(255,255,255)"/><path d=" M 22 17 L 10 17 C 9.448 17 9 16.553 9 16 C 9 15.447 9.448 15 10 15 L 22 15 C 22.552 15 23 15.447 23 16 C 23 16.553 22.552 17 22 17 Z " fill="rgb(255,255,255)"/><path d=" M 16 23 C 15.448 23 15 22.553 15 22 L 15 10 C 15 9.447 15.448 9 16 9 C 16.552 9 17 9.447 17 10 L 17 22 C 17 22.553 16.552 23 16 23 Z " fill="rgb(255,255,255)"/><path d=" M 50 17 L 38 17 C 37.448 17 37 16.553 37 16 C 37 15.447 37.448 15 38 15 L 50 15 C 50.552 15 51 15.447 51 16 C 51 16.553 50.552 17 50 17 Z " fill="rgb(255,255,255)"/></g></g></svg>