<?xml version="1.0" encoding="UTF-8" standalone="no"?><!-- Generator: Gravit.io --><svg xmlns="http://www.w3.org/2000/svg" xmlns:xlink="http://www.w3.org/1999/xlink" style="isolation:isolate" viewBox="345.531 281.946 56 56" width="56pt" height="56pt"><defs><clipPath id="_clipPath_pHABhwy4ZLeAbGG9e0YF6Ub7msOWJMei"><rect x="345.531" y="281.946" width="56" height="56"/></clipPath></defs><g clip-path="url(#_clipPath_pHABhwy4ZLeAbGG9e0YF6Ub7msOWJMei)"><g><path d=" M 386.531 286.946 L 360.531 286.946 L 345.531 286.946 L 345.531 297.946 L 401.531 297.946 L 401.531 286.946 L 386.531 286.946 Z " fill="rgb(255,153,0)"/><circle vector-effect="non-scaling-stroke" cx="364.5310540627336" cy="290.94589599912456" r="2" fill="rgb(70,70,70)"/><circle vector-effect="non-scaling-stroke" cx="370.5310540627336" cy="290.94589599912456" r="2" fill="rgb(70,70,70)"/><circle vector-effect="non-scaling-stroke" cx="376.5310540627336" cy="290.94589599912456" r="2" fill="rgb(70,70,70)"/><circle vector-effect="non-scaling-stroke" cx="382.5310540627336" cy="290.94589599912456" r="2" fill="rgb(70,70,70)"/><rect x="345.531" y="297.946" width="56" height="40" transform="matrix(1,0,0,1,0,0)" fill="rgb(240,238,228)"/><g><circle vector-effect="non-scaling-stroke" cx="366.5310540627336" cy="305.94589599912456" r="1" fill="rgb(74,134,232)"/><circle vector-effect="non-scaling-stroke" cx="373.5310540627336" cy="305.94589599912456" r="1" fill="rgb(74,134,232)"/><circle vector-effect="non-scaling-stroke" cx="380.5310540627336" cy="305.94589599912456" r="1" fill="rgb(74,134,232)"/><circle vector-effect="non-scaling-stroke" cx="387.5310540627336" cy="305.94589599912456" r="1" fill="rgb(74,134,232)"/><circle vector-effect="non-scaling-stroke" cx="394.5310540627336" cy="305.94589599912456" r="1" fill="rgb(74,134,232)"/><circle vector-effect="non-scaling-stroke" cx="352.5310540627336" cy="313.94589599912456" r="1" fill="rgb(74,134,232)"/><circle vector-effect="non-scaling-stroke" cx="359.5310540627336" cy="313.94589599912456" r="1" fill="rgb(74,134,232)"/><circle vector-effect="non-scaling-stroke" cx="366.5310540627336" cy="313.94589599912456" r="1" fill="rgb(74,134,232)"/><circle vector-effect="non-scaling-stroke" cx="373.5310540627336" cy="313.94589599912456" r="1" fill="rgb(74,134,232)"/><circle vector-effect="non-scaling-stroke" cx="380.5310540627336" cy="313.94589599912456" r="1" fill="rgb(74,134,232)"/><circle vector-effect="non-scaling-stroke" cx="387.5310540627336" cy="313.94589599912456" r="1" fill="rgb(74,134,232)"/><circle vector-effect="non-scaling-stroke" cx="394.5310540627336" cy="313.94589599912456" r="1" fill="rgb(74,134,232)"/><circle vector-effect="non-scaling-stroke" cx="352.5310540627336" cy="320.94589599912456" r="1" fill="rgb(74,134,232)"/><circle vector-effect="non-scaling-stroke" cx="359.5310540627336" cy="320.94589599912456" r="1" fill="rgb(74,134,232)"/><circle vector-effect="non-scaling-stroke" cx="366.5310540627336" cy="320.94589599912456" r="1" fill="rgb(74,134,232)"/><circle vector-effect="non-scaling-stroke" cx="373.5310540627336" cy="320.94589599912456" r="1" fill="rgb(74,134,232)"/><circle vector-effect="non-scaling-stroke" cx="380.5310540627336" cy="320.94589599912456" r="1" fill="rgb(74,134,232)"/><circle vector-effect="non-scaling-stroke" cx="387.5310540627336" cy="320.94589599912456" r="1" fill="rgb(74,134,232)"/><circle vector-effect="non-scaling-stroke" cx="394.5310540627336" cy="320.94589599912456" r="1" fill="rgb(74,134,232)"/><circle vector-effect="non-scaling-stroke" cx="352.5310540627336" cy="328.94589599912456" r="1" fill="rgb(74,134,232)"/><circle vector-effect="non-scaling-stroke" cx="359.5310540627336" cy="328.94589599912456" r="1" fill="rgb(74,134,232)"/><circle vector-effect="non-scaling-stroke" cx="366.5310540627336" cy="328.94589599912456" r="1" fill="rgb(74,134,232)"/><circle vector-effect="non-scaling-stroke" cx="373.5310540627336" cy="328.94589599912456" r="1" fill="rgb(74,134,232)"/><circle vector-effect="non-scaling-stroke" cx="380.5310540627336" cy="328.94589599912456" r="1" fill="rgb(74,134,232)"/></g><path d=" M 382.531 281.946 C 381.401 281.946 380.369 282.337 379.531 282.971 C 380.065 283.376 380.51 283.883 380.846 284.466 C 381.327 284.138 381.907 283.946 382.531 283.946 C 384.185 283.946 385.531 285.292 385.531 286.946 C 385.531 288.6 384.185 289.946 382.531 289.946 C 381.978 289.946 381.531 290.393 381.531 290.946 C 381.531 291.499 381.978 291.946 382.531 291.946 C 385.288 291.946 387.531 289.703 387.531 286.946 C 387.531 284.189 385.288 281.946 382.531 281.946 Z " fill="rgb(209,209,209)"/><path d=" M 378.216 284.466 C 377.792 285.2 377.531 286.039 377.531 286.946 L 379.531 286.946 C 379.531 285.916 379.009 285.007 378.216 284.466 Z " fill="rgb(139,139,139)"/><path d=" M 372.216 284.466 C 371.792 285.2 371.531 286.039 371.531 286.946 L 373.531 286.946 C 373.531 285.916 373.009 285.007 372.216 284.466 Z " fill="rgb(139,139,139)"/><path d=" M 380.846 284.466 C 380.51 283.883 380.065 283.376 379.531 282.971 C 378.693 282.337 377.661 281.946 376.531 281.946 C 375.401 281.946 374.369 282.337 373.531 282.971 C 374.065 283.376 374.51 283.883 374.846 284.466 C 375.327 284.138 375.907 283.946 376.531 283.946 C 377.155 283.946 377.735 284.138 378.216 284.466 C 379.009 285.007 379.531 285.916 379.531 286.946 C 379.531 288.6 378.185 289.946 376.531 289.946 C 375.978 289.946 375.531 290.393 375.531 290.946 C 375.531 291.499 375.978 291.946 376.531 291.946 C 379.288 291.946 381.531 289.703 381.531 286.946 C 381.531 286.039 381.27 285.2 380.846 284.466 Z " fill="rgb(209,209,209)"/><path d=" M 366.216 284.466 C 365.792 285.2 365.531 286.039 365.531 286.946 L 367.531 286.946 C 367.531 285.916 367.009 285.007 366.216 284.466 Z " fill="rgb(139,139,139)"/><path d=" M 374.846 284.466 C 374.51 283.883 374.065 283.376 373.531 282.971 C 372.693 282.337 371.661 281.946 370.531 281.946 C 369.401 281.946 368.369 282.337 367.531 282.971 C 368.065 283.376 368.51 283.883 368.846 284.466 C 369.327 284.138 369.907 283.946 370.531 283.946 C 371.155 283.946 371.735 284.138 372.216 284.466 C 373.009 285.007 373.531 285.916 373.531 286.946 C 373.531 288.6 372.185 289.946 370.531 289.946 C 369.978 289.946 369.531 290.393 369.531 290.946 C 369.531 291.499 369.978 291.946 370.531 291.946 C 373.288 291.946 375.531 289.703 375.531 286.946 C 375.531 286.039 375.27 285.2 374.846 284.466 Z " fill="rgb(209,209,209)"/><path d=" M 368.846 284.466 C 368.51 283.883 368.065 283.376 367.531 282.971 C 366.693 282.337 365.661 281.946 364.531 281.946 C 361.774 281.946 359.531 284.189 359.531 286.946 L 361.531 286.946 C 361.531 285.292 362.877 283.946 364.531 283.946 C 365.155 283.946 365.735 284.138 366.216 284.466 C 367.009 285.007 367.531 285.916 367.531 286.946 C 367.531 288.6 366.185 289.946 364.531 289.946 C 363.978 289.946 363.531 290.393 363.531 290.946 C 363.531 291.499 363.978 291.946 364.531 291.946 C 367.288 291.946 369.531 289.703 369.531 286.946 C 369.531 286.039 369.27 285.2 368.846 284.466 Z " fill="rgb(209,209,209)"/></g></g></svg>