<?xml version="1.0" encoding="UTF-8" standalone="no"?><!-- Generator: Gravit.io --><svg xmlns="http://www.w3.org/2000/svg" xmlns:xlink="http://www.w3.org/1999/xlink" style="isolation:isolate" viewBox="345.531 280.946 58 59" width="58pt" height="59pt"><defs><clipPath id="_clipPath_HXtYIsdFYSBJ0pc6I90SIiNdmYk4zdfr"><rect x="345.531" y="280.946" width="58" height="59"/></clipPath></defs><g clip-path="url(#_clipPath_HXtYIsdFYSBJ0pc6I90SIiNdmYk4zdfr)"><g><rect x="345.531" y="292.946" width="58" height="47" transform="matrix(1,0,0,1,0,0)" fill="rgb(231,236,237)"/><g><path d=" M 378.044 282.454 L 376.978 284.147 C 382.799 287.811 393.949 293.768 394.061 293.828 L 395.002 292.064 C 394.89 292.005 383.803 286.081 378.044 282.454 Z " fill="rgb(70,70,70)"/><path d=" M 354.06 292.064 L 355.001 293.828 C 355.113 293.768 366.263 287.811 372.084 284.147 L 371.018 282.454 C 365.259 286.08 354.172 292.005 354.06 292.064 Z " fill="rgb(70,70,70)"/></g><g><circle vector-effect="non-scaling-stroke" cx="367.5310540627336" cy="308.94589599912456" r="1" fill="rgb(0,150,136)"/><circle vector-effect="non-scaling-stroke" cx="374.5310540627336" cy="308.94589599912456" r="1" fill="rgb(0,150,136)"/><circle vector-effect="non-scaling-stroke" cx="381.5310540627336" cy="308.94589599912456" r="1" fill="rgb(0,150,136)"/><circle vector-effect="non-scaling-stroke" cx="388.5310540627336" cy="308.94589599912456" r="1" fill="rgb(0,150,136)"/><circle vector-effect="non-scaling-stroke" cx="395.5310540627336" cy="308.94589599912456" r="1" fill="rgb(0,150,136)"/><circle vector-effect="non-scaling-stroke" cx="353.5310540627336" cy="316.94589599912456" r="1" fill="rgb(74,134,232)"/><circle vector-effect="non-scaling-stroke" cx="360.5310540627336" cy="316.94589599912456" r="1" fill="rgb(255,153,0)"/><circle vector-effect="non-scaling-stroke" cx="353.5310540627336" cy="308.94589599912456" r="1" fill="rgb(162,162,162)"/><circle vector-effect="non-scaling-stroke" cx="360.5310540627336" cy="308.94589599912456" r="1" fill="rgb(162,162,162)"/><circle vector-effect="non-scaling-stroke" cx="367.5310540627336" cy="316.94589599912456" r="1" fill="rgb(0,150,136)"/><circle vector-effect="non-scaling-stroke" cx="374.5310540627336" cy="316.94589599912456" r="1" fill="rgb(0,150,136)"/><circle vector-effect="non-scaling-stroke" cx="381.5310540627336" cy="316.94589599912456" r="1" fill="rgb(0,150,136)"/><circle vector-effect="non-scaling-stroke" cx="388.5310540627336" cy="316.94589599912456" r="1" fill="rgb(0,150,136)"/><circle vector-effect="non-scaling-stroke" cx="395.5310540627336" cy="316.94589599912456" r="1" fill="rgb(0,150,136)"/><circle vector-effect="non-scaling-stroke" cx="353.5310540627336" cy="323.94589599912456" r="1" fill="rgb(74,134,232)"/><circle vector-effect="non-scaling-stroke" cx="360.5310540627336" cy="323.94589599912456" r="1" fill="rgb(255,153,0)"/><circle vector-effect="non-scaling-stroke" cx="367.5310540627336" cy="323.94589599912456" r="1" fill="rgb(0,150,136)"/><circle vector-effect="non-scaling-stroke" cx="374.5310540627336" cy="323.94589599912456" r="1" fill="rgb(0,150,136)"/><circle vector-effect="non-scaling-stroke" cx="381.5310540627336" cy="323.94589599912456" r="1" fill="rgb(0,150,136)"/><circle vector-effect="non-scaling-stroke" cx="388.5310540627336" cy="323.94589599912456" r="1" fill="rgb(0,150,136)"/><circle vector-effect="non-scaling-stroke" cx="395.5310540627336" cy="323.94589599912456" r="1" fill="rgb(0,150,136)"/><circle vector-effect="non-scaling-stroke" cx="388.5310540627336" cy="331.94589599912456" r="1" fill="rgb(162,162,162)"/><circle vector-effect="non-scaling-stroke" cx="395.5310540627336" cy="331.94589599912456" r="1" fill="rgb(162,162,162)"/><circle vector-effect="non-scaling-stroke" cx="353.5310540627336" cy="331.94589599912456" r="1" fill="rgb(74,134,232)"/><circle vector-effect="non-scaling-stroke" cx="360.5310540627336" cy="331.94589599912456" r="1" fill="rgb(255,153,0)"/><circle vector-effect="non-scaling-stroke" cx="367.5310540627336" cy="331.94589599912456" r="1" fill="rgb(0,150,136)"/><circle vector-effect="non-scaling-stroke" cx="374.5310540627336" cy="331.94589599912456" r="1" fill="rgb(0,150,136)"/><circle vector-effect="non-scaling-stroke" cx="381.5310540627336" cy="331.94589599912456" r="1" fill="rgb(0,150,136)"/></g><circle vector-effect="non-scaling-stroke" cx="374.5310540627336" cy="285.94589599912456" r="4" fill="rgb(116,116,116)" stroke-width="2" stroke="rgb(185,185,185)" stroke-linejoin="round" stroke-linecap="butt" stroke-miterlimit="10"/><rect x="345.531" y="292.946" width="58" height="7" transform="matrix(1,0,0,1,0,0)" fill="rgb(74,134,232)"/></g></g></svg>