<?xml version="1.0" encoding="UTF-8" standalone="no"?><!-- Generator: Gravit.io --><svg xmlns="http://www.w3.org/2000/svg" xmlns:xlink="http://www.w3.org/1999/xlink" style="isolation:isolate" viewBox="353 265 56 55" width="56pt" height="55pt"><defs><clipPath id="_clipPath_qz5OwzxgD64Sav2jx97BmyDWZ9WOvXyI"><rect x="353" y="265" width="56" height="55"/></clipPath></defs><g clip-path="url(#_clipPath_qz5OwzxgD64Sav2jx97BmyDWZ9WOvXyI)"><g><path d=" M 394 270 L 368 270 L 353 270 L 353 280 L 409 280 L 409 270 L 394 270 Z " fill="rgb(255,153,0)"/><circle vector-effect="non-scaling-stroke" cx="372" cy="274" r="2" fill="rgb(38,43,56)"/><circle vector-effect="non-scaling-stroke" cx="378" cy="274" r="2" fill="rgb(38,43,56)"/><circle vector-effect="non-scaling-stroke" cx="384" cy="274" r="2" fill="rgb(38,43,56)"/><circle vector-effect="non-scaling-stroke" cx="390" cy="274" r="2" fill="rgb(38,43,56)"/><path d=" M 390 265 C 388.87 265 387.838 265.391 387 266.025 C 387.534 266.43 387.979 266.937 388.315 267.52 C 388.796 267.192 389.376 267 390 267 C 391.654 267 393 268.346 393 270 C 393 271.654 391.654 273 390 273 C 389.447 273 389 273.447 389 274 C 389 274.553 389.447 275 390 275 C 392.757 275 395 272.757 395 270 C 395 267.243 392.757 265 390 265 Z " fill="rgb(209,209,209)"/><path d=" M 385.685 267.52 C 385.261 268.254 385 269.093 385 270 L 387 270 C 387 268.97 386.478 268.061 385.685 267.52 Z " fill="rgb(139,139,139)"/><path d=" M 379.685 267.52 C 379.261 268.254 379 269.093 379 270 L 381 270 C 381 268.97 380.478 268.061 379.685 267.52 Z " fill="rgb(139,139,139)"/><path d=" M 388.315 267.52 C 387.979 266.937 387.534 266.43 387 266.025 C 386.162 265.391 385.13 265 384 265 C 382.87 265 381.838 265.391 381 266.025 C 381.534 266.43 381.979 266.937 382.315 267.52 C 382.796 267.192 383.376 267 384 267 C 384.624 267 385.204 267.192 385.685 267.52 C 386.478 268.061 387 268.97 387 270 C 387 271.654 385.654 273 384 273 C 383.447 273 383 273.447 383 274 C 383 274.553 383.447 275 384 275 C 386.757 275 389 272.757 389 270 C 389 269.093 388.739 268.254 388.315 267.52 Z " fill="rgb(209,209,209)"/><path d=" M 373.685 267.52 C 373.261 268.254 373 269.093 373 270 L 375 270 C 375 268.97 374.478 268.061 373.685 267.52 Z " fill="rgb(139,139,139)"/><path d=" M 382.315 267.52 C 381.979 266.937 381.534 266.43 381 266.025 C 380.162 265.391 379.13 265 378 265 C 376.87 265 375.838 265.391 375 266.025 C 375.534 266.43 375.979 266.937 376.315 267.52 C 376.796 267.192 377.376 267 378 267 C 378.624 267 379.204 267.192 379.685 267.52 C 380.478 268.061 381 268.97 381 270 C 381 271.654 379.654 273 378 273 C 377.447 273 377 273.447 377 274 C 377 274.553 377.447 275 378 275 C 380.757 275 383 272.757 383 270 C 383 269.093 382.739 268.254 382.315 267.52 Z " fill="rgb(209,209,209)"/><path d=" M 376.315 267.52 C 375.979 266.937 375.534 266.43 375 266.025 C 374.162 265.391 373.13 265 372 265 C 369.243 265 367 267.243 367 270 L 369 270 C 369 268.346 370.346 267 372 267 C 372.624 267 373.204 267.192 373.685 267.52 C 374.478 268.061 375 268.97 375 270 C 375 271.654 373.654 273 372 273 C 371.447 273 371 273.447 371 274 C 371 274.553 371.447 275 372 275 C 374.757 275 377 272.757 377 270 C 377 269.093 376.739 268.254 376.315 267.52 Z " fill="rgb(209,209,209)"/><rect x="353" y="280" width="56" height="40" transform="matrix(1,0,0,1,0,0)" fill="rgb(237,234,218)"/><g><path d=" M 361 289 L 383 289 C 383.552 289 384 288.553 384 288 C 384 287.447 383.552 287 383 287 L 361 287 C 360.448 287 360 287.447 360 288 C 360 288.553 360.448 289 361 289 Z " fill="rgb(74,134,232)"/><path d=" M 401 303 L 386 303 C 385.448 303 385 303.447 385 304 C 385 304.553 385.448 305 386 305 L 401 305 C 401.552 305 402 304.553 402 304 C 402 303.447 401.552 303 401 303 Z " fill="rgb(74,134,232)"/><path d=" M 361 297 L 371 297 C 371.552 297 372 296.553 372 296 C 372 295.447 371.552 295 371 295 L 361 295 C 360.448 295 360 295.447 360 296 C 360 296.553 360.448 297 361 297 Z " fill="rgb(74,134,232)"/><path d=" M 401 311 L 391 311 C 390.448 311 390 311.447 390 312 C 390 312.553 390.448 313 391 313 L 401 313 C 401.552 313 402 312.553 402 312 C 402 311.447 401.552 311 401 311 Z " fill="rgb(74,134,232)"/><path d=" M 380 296 C 380 296.553 380.448 297 381 297 L 396 297 C 396.552 297 397 296.553 397 296 C 397 295.447 396.552 295 396 295 L 381 295 C 380.448 295 380 295.447 380 296 Z " fill="rgb(74,134,232)"/><path d=" M 376.71 296.71 C 376.89 296.52 377 296.26 377 296 C 377 295.739 376.89 295.479 376.71 295.29 C 376.34 294.92 375.66 294.92 375.29 295.29 C 375.11 295.479 375 295.739 375 296 C 375 296.26 375.11 296.52 375.29 296.71 C 375.48 296.899 375.74 297 376 297 C 376.26 297 376.52 296.899 376.71 296.71 Z " fill="rgb(74,134,232)"/><path d=" M 365 304 C 365 304.553 365.448 305 366 305 L 381 305 C 381.552 305 382 304.553 382 304 C 382 303.447 381.552 303 381 303 L 366 303 C 365.448 303 365 303.447 365 304 Z " fill="rgb(74,134,232)"/><path d=" M 361 305 C 361.26 305 361.52 304.89 361.71 304.71 C 361.89 304.52 362 304.26 362 304 C 362 303.739 361.89 303.479 361.71 303.3 C 361.34 302.92 360.66 302.92 360.29 303.29 C 360.11 303.479 360 303.739 360 304 C 360 304.26 360.11 304.52 360.29 304.71 C 360.48 304.89 360.73 305 361 305 Z " fill="rgb(74,134,232)"/><path d=" M 401 297 C 401.26 297 401.52 296.899 401.71 296.71 C 401.9 296.52 402 296.26 402 296 C 402 295.739 401.9 295.479 401.71 295.29 C 401.33 294.92 400.66 294.92 400.29 295.29 C 400.11 295.479 400 295.739 400 296 C 400 296.26 400.11 296.52 400.29 296.71 C 400.48 296.899 400.74 297 401 297 Z " fill="rgb(74,134,232)"/><path d=" M 386 311 L 361 311 C 360.448 311 360 311.447 360 312 C 360 312.553 360.448 313 361 313 L 386 313 C 386.552 313 387 312.553 387 312 C 387 311.447 386.552 311 386 311 Z " fill="rgb(74,134,232)"/></g></g></g></svg>