<?xml version="1.0" encoding="UTF-8" standalone="no"?><!-- Generator: Gravit.io --><svg xmlns="http://www.w3.org/2000/svg" xmlns:xlink="http://www.w3.org/1999/xlink" style="isolation:isolate" viewBox="353 265 58 59" width="58pt" height="59pt"><defs><clipPath id="_clipPath_qq5tSSN4qpE5fEC2WXPt8Nxs7hpUS3ed"><rect x="353" y="265" width="58" height="59"/></clipPath></defs><g clip-path="url(#_clipPath_qq5tSSN4qpE5fEC2WXPt8Nxs7hpUS3ed)"><g><rect x="354" y="281" width="56" height="42" transform="matrix(1,0,0,1,0,0)" fill="rgb(244,244,208)"/><path d=" M 395 270 L 369 270 L 353 270 L 353 280 L 411 280 L 411 270 L 395 270 Z " fill="rgb(255,153,0)"/><circle vector-effect="non-scaling-stroke" cx="373" cy="274" r="2" fill="rgb(38,43,56)"/><circle vector-effect="non-scaling-stroke" cx="379" cy="274" r="2" fill="rgb(38,43,56)"/><circle vector-effect="non-scaling-stroke" cx="385" cy="274" r="2" fill="rgb(38,43,56)"/><circle vector-effect="non-scaling-stroke" cx="391" cy="274" r="2" fill="rgb(38,43,56)"/><path d=" M 391 265 C 389.87 265 388.838 265.391 388 266.025 C 388.534 266.43 388.979 266.937 389.315 267.52 C 389.796 267.192 390.376 267 391 267 C 392.654 267 394 268.346 394 270 C 394 271.654 392.654 273 391 273 C 390.447 273 390 273.447 390 274 C 390 274.553 390.447 275 391 275 C 393.757 275 396 272.757 396 270 C 396 267.243 393.757 265 391 265 Z " fill="rgb(209,209,209)"/><path d=" M 386.685 267.52 C 386.261 268.254 386 269.093 386 270 L 388 270 C 388 268.97 387.478 268.061 386.685 267.52 Z " fill="rgb(162,162,162)"/><path d=" M 380.685 267.52 C 380.261 268.254 380 269.093 380 270 L 382 270 C 382 268.97 381.478 268.061 380.685 267.52 Z " fill="rgb(162,162,162)"/><path d=" M 389.315 267.52 C 388.978 266.937 388.534 266.43 388 266.025 C 387.162 265.391 386.13 265 385 265 C 383.87 265 382.838 265.391 382 266.025 C 382.534 266.43 382.979 266.937 383.315 267.52 C 383.796 267.192 384.376 267 385 267 C 385.624 267 386.204 267.192 386.685 267.52 C 387.478 268.061 388 268.97 388 270 C 388 271.654 386.654 273 385 273 C 384.447 273 384 273.447 384 274 C 384 274.553 384.447 275 385 275 C 387.757 275 390 272.757 390 270 C 390 269.093 389.739 268.254 389.315 267.52 Z " fill="rgb(209,209,209)"/><path d=" M 374.685 267.52 C 374.261 268.254 374 269.093 374 270 L 376 270 C 376 268.97 375.478 268.061 374.685 267.52 Z " fill="rgb(162,162,162)"/><path d=" M 383.315 267.52 C 382.978 266.937 382.534 266.43 382 266.025 C 381.162 265.391 380.13 265 379 265 C 377.87 265 376.838 265.391 376 266.025 C 376.534 266.43 376.979 266.937 377.315 267.52 C 377.796 267.192 378.376 267 379 267 C 379.624 267 380.204 267.192 380.685 267.52 C 381.478 268.061 382 268.97 382 270 C 382 271.654 380.654 273 379 273 C 378.447 273 378 273.447 378 274 C 378 274.553 378.447 275 379 275 C 381.757 275 384 272.757 384 270 C 384 269.093 383.739 268.254 383.315 267.52 Z " fill="rgb(209,209,209)"/><path d=" M 377.315 267.52 C 376.978 266.937 376.534 266.43 376 266.025 C 375.162 265.391 374.13 265 373 265 C 370.243 265 368 267.243 368 270 L 370 270 C 370 268.346 371.346 267 373 267 C 373.624 267 374.204 267.192 374.685 267.52 C 375.478 268.061 376 268.97 376 270 C 376 271.654 374.654 273 373 273 C 372.447 273 372 273.447 372 274 C 372 274.553 372.447 275 373 275 C 375.757 275 378 272.757 378 270 C 378 269.093 377.739 268.254 377.315 267.52 Z " fill="rgb(209,209,209)"/><rect x="382" y="295" width="14" height="14" transform="matrix(1,0,0,1,0,0)" fill="none" vector-effect="non-scaling-stroke" stroke-width="2" stroke="rgb(16,129,224)" stroke-linejoin="miter" stroke-linecap="round" stroke-miterlimit="2"/><path d=" M 397 280 L 395 280 L 383 280 L 381 280 L 369 280 L 367 280 L 353 280 L 353 294 L 353 296 L 353 308 L 353 310 L 353 324 L 367 324 L 369 324 L 381 324 L 383 324 L 395 324 L 397 324 L 411 324 L 411 310 L 411 308 L 411 296 L 411 294 L 411 280 L 397 280 Z  M 383 282 L 395 282 L 395 294 L 383 294 L 383 282 Z  M 395 308 L 383 308 L 383 296 L 395 296 L 395 308 Z  M 369 296 L 381 296 L 381 308 L 369 308 L 369 296 Z  M 369 282 L 381 282 L 381 294 L 369 294 L 369 282 Z  M 355 282 L 367 282 L 367 294 L 355 294 L 355 282 Z  M 355 296 L 367 296 L 367 308 L 355 308 L 355 296 Z  M 367 322 L 355 322 L 355 310 L 367 310 L 367 322 Z  M 381 322 L 369 322 L 369 310 L 381 310 L 381 322 Z  M 395 322 L 383 322 L 383 310 L 395 310 L 395 322 Z  M 409 322 L 397 322 L 397 310 L 409 310 L 409 322 Z  M 409 308 L 397 308 L 397 296 L 409 296 L 409 308 Z  M 397 294 L 397 282 L 409 282 L 409 294 L 397 294 Z " fill="rgb(74,134,232)"/><rect x="383" y="296" width="12" height="12" transform="matrix(1,0,0,1,0,0)" fill="rgb(242,118,118)"/><path d=" M 390.414 302 L 393.707 298.707 C 394.098 298.316 394.098 297.684 393.707 297.293 C 393.316 296.902 392.684 296.902 392.293 297.293 L 389 300.586 L 385.707 297.293 C 385.316 296.902 384.684 296.902 384.293 297.293 C 383.902 297.684 383.902 298.316 384.293 298.707 L 387.586 302 L 384.293 305.293 C 383.902 305.684 383.902 306.316 384.293 306.707 C 384.488 306.902 384.744 307 385 307 C 385.256 307 385.512 306.902 385.707 306.707 L 389 303.414 L 392.293 306.707 C 392.488 306.902 392.744 307 393 307 C 393.256 307 393.512 306.902 393.707 306.707 C 394.098 306.316 394.098 305.684 393.707 305.293 L 390.414 302 Z " fill="rgb(232,232,232)"/></g></g></svg>