<?xml version="1.0" encoding="UTF-8" standalone="no"?><!-- Generator: Gravit.io --><svg xmlns="http://www.w3.org/2000/svg" xmlns:xlink="http://www.w3.org/1999/xlink" style="isolation:isolate" viewBox="353 265 56 58" width="56pt" height="58pt"><defs><clipPath id="_clipPath_Vv4UKbrvcTVMm3ciii2JbPF0dvbuA8QD"><rect x="353" y="265" width="56" height="58"/></clipPath></defs><g clip-path="url(#_clipPath_Vv4UKbrvcTVMm3ciii2JbPF0dvbuA8QD)"><g><path d=" M 394 270 L 368 270 L 353 270 L 353 283 L 409 283 L 409 270 L 394 270 Z " fill="rgb(255,153,0)"/><circle vector-effect="non-scaling-stroke" cx="372" cy="274" r="2" fill="rgb(56,69,79)"/><circle vector-effect="non-scaling-stroke" cx="378" cy="274" r="2" fill="rgb(56,69,79)"/><circle vector-effect="non-scaling-stroke" cx="384" cy="274" r="2" fill="rgb(56,69,79)"/><circle vector-effect="non-scaling-stroke" cx="390" cy="274" r="2" fill="rgb(56,69,79)"/><path d=" M 390 265 C 388.87 265 387.838 265.391 387 266.025 C 387.534 266.43 387.979 266.937 388.315 267.52 C 388.796 267.192 389.376 267 390 267 C 391.654 267 393 268.346 393 270 C 393 271.654 391.654 273 390 273 C 389.447 273 389 273.447 389 274 C 389 274.553 389.447 275 390 275 C 392.757 275 395 272.757 395 270 C 395 267.243 392.757 265 390 265 Z " fill="rgb(209,209,209)"/><path d=" M 385.685 267.52 C 385.261 268.254 385 269.093 385 270 L 387 270 C 387 268.97 386.478 268.061 385.685 267.52 Z " fill="rgb(139,139,139)"/><path d=" M 379.685 267.52 C 379.261 268.254 379 269.093 379 270 L 381 270 C 381 268.97 380.478 268.061 379.685 267.52 Z " fill="rgb(139,139,139)"/><path d=" M 388.315 267.52 C 387.979 266.937 387.534 266.43 387 266.025 C 386.162 265.391 385.13 265 384 265 C 382.87 265 381.838 265.391 381 266.025 C 381.534 266.43 381.979 266.937 382.315 267.52 C 382.796 267.192 383.376 267 384 267 C 384.624 267 385.204 267.192 385.685 267.52 C 386.478 268.061 387 268.97 387 270 C 387 271.654 385.654 273 384 273 C 383.447 273 383 273.447 383 274 C 383 274.553 383.447 275 384 275 C 386.757 275 389 272.757 389 270 C 389 269.093 388.739 268.254 388.315 267.52 Z " fill="rgb(209,209,209)"/><path d=" M 373.685 267.52 C 373.261 268.254 373 269.093 373 270 L 375 270 C 375 268.97 374.478 268.061 373.685 267.52 Z " fill="rgb(139,139,139)"/><path d=" M 382.315 267.52 C 381.979 266.937 381.534 266.43 381 266.025 C 380.162 265.391 379.13 265 378 265 C 376.87 265 375.838 265.391 375 266.025 C 375.534 266.43 375.979 266.937 376.315 267.52 C 376.796 267.192 377.376 267 378 267 C 378.624 267 379.204 267.192 379.685 267.52 C 380.478 268.061 381 268.97 381 270 C 381 271.654 379.654 273 378 273 C 377.447 273 377 273.447 377 274 C 377 274.553 377.447 275 378 275 C 380.757 275 383 272.757 383 270 C 383 269.093 382.739 268.254 382.315 267.52 Z " fill="rgb(209,209,209)"/><path d=" M 376.315 267.52 C 375.979 266.937 375.534 266.43 375 266.025 C 374.162 265.391 373.13 265 372 265 C 369.243 265 367 267.243 367 270 L 369 270 C 369 268.346 370.346 267 372 267 C 372.624 267 373.204 267.192 373.685 267.52 C 374.478 268.061 375 268.97 375 270 C 375 271.654 373.654 273 372 273 C 371.447 273 371 273.447 371 274 C 371 274.553 371.447 275 372 275 C 374.757 275 377 272.757 377 270 C 377 269.093 376.739 268.254 376.315 267.52 Z " fill="rgb(209,209,209)"/><rect x="353" y="283" width="56" height="40" transform="matrix(1,0,0,1,0,0)" fill="rgb(237,234,218)"/><circle vector-effect="non-scaling-stroke" cx="365" cy="294" r="5" fill="rgb(74,134,232)"/><circle vector-effect="non-scaling-stroke" cx="381" cy="294" r="5" fill="rgb(74,134,232)"/><circle vector-effect="non-scaling-stroke" cx="397" cy="294" r="5" fill="rgb(74,134,232)"/><circle vector-effect="non-scaling-stroke" cx="365" cy="310" r="5" fill="rgb(74,134,232)"/><circle vector-effect="non-scaling-stroke" cx="381" cy="310" r="5" fill="rgb(74,134,232)"/><circle vector-effect="non-scaling-stroke" cx="397" cy="310" r="5" fill="rgb(255,153,0)"/></g></g></svg>