<?xml version="1.0" encoding="UTF-8" standalone="no"?><!-- Generator: Gravit.io --><svg xmlns="http://www.w3.org/2000/svg" xmlns:xlink="http://www.w3.org/1999/xlink" style="isolation:isolate" viewBox="0 0 60 60" width="60pt" height="60pt"><defs><clipPath id="_clipPath_WtqQ5QP9gyqvhfzsSw4HnLpHKkAp7yIm"><rect width="60" height="60"/></clipPath></defs><g clip-path="url(#_clipPath_WtqQ5QP9gyqvhfzsSw4HnLpHKkAp7yIm)"><rect width="60" height="60" style="fill:rgb(0,0,0)" fill-opacity="0"/><g><circle vector-effect="non-scaling-stroke" cx="30" cy="30" r="29" fill="rgb(231,236,237)"/><path d=" M 30 5 C 43.785 5 55 16.215 55 30 C 55 43.785 43.785 55 30 55 C 16.215 55 5 43.785 5 30 C 5 16.215 16.215 5 30 5 Z  M 30 1 C 13.984 1 1 13.984 1 30 C 1 46.016 13.984 59 30 59 C 46.016 59 59 46.016 59 30 C 59 13.984 46.016 1 30 1 L 30 1 Z " fill="rgb(255,153,0)"/><g><path d=" M 30 6.879 C 29.448 6.879 29 7.326 29 7.879 L 29 8.879 C 29 9.432 29.448 9.879 30 9.879 C 30.552 9.879 31 9.432 31 8.879 L 31 7.879 C 31 7.326 30.552 6.879 30 6.879 Z " fill="rgb(74,134,232)"/><path d=" M 30 49.879 C 29.448 49.879 29 50.326 29 50.879 L 29 51.879 C 29 52.432 29.448 52.879 30 52.879 C 30.552 52.879 31 52.432 31 51.879 L 31 50.879 C 31 50.326 30.552 49.879 30 49.879 Z " fill="rgb(74,134,232)"/><path d=" M 52 28.879 L 51 28.879 C 50.448 28.879 50 29.326 50 29.879 C 50 30.432 50.448 30.879 51 30.879 L 52 30.879 C 52.552 30.879 53 30.432 53 29.879 C 53 29.326 52.552 28.879 52 28.879 Z " fill="rgb(74,134,232)"/><path d=" M 9 28.879 L 8 28.879 C 7.448 28.879 7 29.326 7 29.879 C 7 30.432 7.448 30.879 8 30.879 L 9 30.879 C 9.552 30.879 10 30.432 10 29.879 C 10 29.326 9.552 28.879 9 28.879 Z " fill="rgb(74,134,232)"/><path d=" M 44.849 13.615 L 44.142 14.322 C 43.751 14.713 43.751 15.345 44.142 15.736 C 44.337 15.931 44.593 16.029 44.849 16.029 C 45.105 16.029 45.361 15.931 45.556 15.736 L 46.263 15.029 C 46.654 14.638 46.654 14.006 46.263 13.615 C 45.872 13.224 45.24 13.224 44.849 13.615 Z " fill="rgb(74,134,232)"/><path d=" M 14.444 44.021 L 13.737 44.728 C 13.346 45.119 13.346 45.751 13.737 46.142 C 13.932 46.337 14.188 46.435 14.444 46.435 C 14.7 46.435 14.956 46.337 15.151 46.142 L 15.858 45.435 C 16.249 45.044 16.249 44.412 15.858 44.021 C 15.467 43.63 14.834 43.631 14.444 44.021 Z " fill="rgb(74,134,232)"/><path d=" M 45.556 44.021 C 45.165 43.63 44.533 43.63 44.142 44.021 C 43.751 44.412 43.751 45.044 44.142 45.435 L 44.849 46.142 C 45.044 46.337 45.3 46.435 45.556 46.435 C 45.812 46.435 46.068 46.337 46.263 46.142 C 46.654 45.751 46.654 45.119 46.263 44.728 L 45.556 44.021 Z " fill="rgb(74,134,232)"/><path d=" M 15.151 13.615 C 14.76 13.224 14.128 13.224 13.737 13.615 C 13.346 14.006 13.346 14.638 13.737 15.029 L 14.444 15.736 C 14.639 15.931 14.895 16.029 15.151 16.029 C 15.407 16.029 15.663 15.931 15.858 15.736 C 16.249 15.345 16.249 14.713 15.858 14.322 L 15.151 13.615 Z " fill="rgb(74,134,232)"/></g><line x1="27" y1="29.879" x2="19" y2="29.879" vector-effect="non-scaling-stroke" stroke-width="2" stroke="rgb(74,134,232)" stroke-linejoin="round" stroke-linecap="round" stroke-miterlimit="10"/><line x1="30" y1="26.879" x2="30" y2="15.879" vector-effect="non-scaling-stroke" stroke-width="2" stroke="rgb(74,134,232)" stroke-linejoin="round" stroke-linecap="round" stroke-miterlimit="10"/><circle vector-effect="non-scaling-stroke" cx="30" cy="29.879000000000005" r="3" fill="none" stroke-width="2" stroke="rgb(255,153,0)" stroke-linejoin="round" stroke-linecap="round" stroke-miterlimit="10"/></g></g></svg>