<?xml version="1.0" encoding="UTF-8" standalone="no"?><!-- Generator: Gravit.io --><svg xmlns="http://www.w3.org/2000/svg" xmlns:xlink="http://www.w3.org/1999/xlink" style="isolation:isolate" viewBox="0 0 60 60" width="60pt" height="60pt"><defs><clipPath id="_clipPath_U8b5NvxKgFybxmrYfBliVAXyeL6wAA2a"><rect width="60" height="60"/></clipPath></defs><g clip-path="url(#_clipPath_U8b5NvxKgFybxmrYfBliVAXyeL6wAA2a)"><rect width="60" height="60" style="fill:rgb(0,0,0)" fill-opacity="0"/><g><rect x="0" y="0" width="60" height="60" transform="matrix(1,0,0,1,0,0)" fill="rgb(231,236,237)"/><path d=" M 56 4 L 56 56 L 4 56 L 4 4 L 56 4 Z  M 60 0 L 0 0 L 0 60 L 60 60 L 60 0 L 60 0 Z " fill="rgb(255,153,0)"/><g><path d=" M 30 7 C 29.448 7 29 7.447 29 8 L 29 9 C 29 9.553 29.448 10 30 10 C 30.552 10 31 9.553 31 9 L 31 8 C 31 7.447 30.552 7 30 7 Z " fill="rgb(74,134,232)"/><path d=" M 30 50 C 29.448 50 29 50.447 29 51 L 29 52 C 29 52.553 29.448 53 30 53 C 30.552 53 31 52.553 31 52 L 31 51 C 31 50.447 30.552 50 30 50 Z " fill="rgb(74,134,232)"/><path d=" M 52 29 L 51 29 C 50.448 29 50 29.447 50 30 C 50 30.553 50.448 31 51 31 L 52 31 C 52.552 31 53 30.553 53 30 C 53 29.447 52.552 29 52 29 Z " fill="rgb(74,134,232)"/><path d=" M 10 30 C 10 29.447 9.552 29 9 29 L 8 29 C 7.448 29 7 29.447 7 30 C 7 30.553 7.448 31 8 31 L 9 31 C 9.552 31 10 30.553 10 30 Z " fill="rgb(74,134,232)"/><path d=" M 50.293 10.707 C 50.549 10.707 50.805 10.609 51 10.414 L 51.707 9.707 C 52.098 9.316 52.098 8.684 51.707 8.293 C 51.316 7.902 50.684 7.902 50.293 8.293 L 49.586 9 C 49.195 9.391 49.195 10.023 49.586 10.414 C 49.781 10.609 50.037 10.707 50.293 10.707 Z " fill="rgb(74,134,232)"/><path d=" M 9.146 49.439 L 8.439 50.146 C 8.048 50.537 8.048 51.169 8.439 51.56 C 8.634 51.755 8.89 51.853 9.146 51.853 C 9.402 51.853 9.658 51.755 9.853 51.56 L 10.56 50.853 C 10.951 50.462 10.951 49.83 10.56 49.439 C 10.169 49.048 9.537 49.049 9.146 49.439 Z " fill="rgb(74,134,232)"/><path d=" M 50.854 49.439 C 50.463 49.048 49.831 49.048 49.44 49.439 C 49.049 49.83 49.049 50.462 49.44 50.853 L 50.147 51.56 C 50.342 51.755 50.598 51.853 50.854 51.853 C 51.11 51.853 51.366 51.755 51.561 51.56 C 51.952 51.169 51.952 50.537 51.561 50.146 L 50.854 49.439 Z " fill="rgb(74,134,232)"/><path d=" M 8.793 10.207 C 8.988 10.402 9.244 10.5 9.5 10.5 C 9.756 10.5 10.012 10.402 10.207 10.207 C 10.598 9.816 10.598 9.184 10.207 8.793 L 9.5 8.086 C 9.109 7.695 8.477 7.695 8.086 8.086 C 7.695 8.477 7.695 9.109 8.086 9.5 L 8.793 10.207 Z " fill="rgb(74,134,232)"/></g><line x1="27" y1="30" x2="19" y2="30" vector-effect="non-scaling-stroke" stroke-width="2" stroke="rgb(74,134,232)" stroke-linejoin="round" stroke-linecap="round" stroke-miterlimit="10"/><line x1="30" y1="27" x2="30" y2="16" vector-effect="non-scaling-stroke" stroke-width="2" stroke="rgb(74,134,232)" stroke-linejoin="round" stroke-linecap="round" stroke-miterlimit="10"/><circle vector-effect="non-scaling-stroke" cx="30" cy="30" r="3" fill="none" stroke-width="2" stroke="rgb(255,153,0)" stroke-linejoin="round" stroke-linecap="round" stroke-miterlimit="10"/></g></g></svg>