<?xml version="1.0" encoding="UTF-8" standalone="no"?><!-- Generator: Gravit.io --><svg xmlns="http://www.w3.org/2000/svg" xmlns:xlink="http://www.w3.org/1999/xlink" style="isolation:isolate" viewBox="0 0 60 60" width="60pt" height="60pt"><defs><clipPath id="_clipPath_9eQwy0B4lV5yLVvTySopmaDvk5zacwcN"><rect width="60" height="60"/></clipPath></defs><g clip-path="url(#_clipPath_9eQwy0B4lV5yLVvTySopmaDvk5zacwcN)"><rect width="60" height="60" style="fill:rgb(0,0,0)" fill-opacity="0"/><g><path d=" M 50.003 29 C 49.888 20.301 42.81 13 34.084 13 C 28.525 13 23.305 16.005 20.423 20.336 C 19.157 19.493 17.636 19 16 19 C 11.582 19 8 22.582 8 27 C 8 27.153 8.014 27.302 8.023 27.454 C 8.013 27.636 8 27.82 8 28 C 4.012 29.912 1 34.457 1 39.155 C 1 45.67 6.33 51 12.845 51 L 37.352 51 C 37.49 51 37.624 50.984 37.76 50.979 C 37.897 50.984 38.031 51 38.169 51 L 47.972 51 C 54.037 51 59 46.037 59 39.972 C 59 34.601 55.106 29.961 50.003 29 Z " fill="rgb(74,134,232)" vector-effect="non-scaling-stroke" stroke-width="2" stroke="rgb(255,153,0)" stroke-linejoin="miter" stroke-linecap="round" stroke-miterlimit="10"/><path d=" M 50.003 29 C 50.003 29 47.468 28.625 45 29" fill="rgb(74,134,232)" vector-effect="non-scaling-stroke" stroke-width="2" stroke="rgb(255,153,0)" stroke-linejoin="miter" stroke-linecap="round" stroke-miterlimit="10"/><path d=" M 8 27 C 8 22.582 11.582 19 16 19 C 20.418 19 24 22.582 24 27" fill="rgb(74,134,232)" vector-effect="non-scaling-stroke" stroke-width="2" stroke="rgb(255,153,0)" stroke-linejoin="miter" stroke-linecap="round" stroke-miterlimit="10"/></g></g></svg>