<?xml version="1.0" encoding="UTF-8" standalone="no"?><!-- Generator: Gravit.io --><svg xmlns="http://www.w3.org/2000/svg" xmlns:xlink="http://www.w3.org/1999/xlink" style="isolation:isolate" viewBox="0 0 60 60" width="60pt" height="60pt"><defs><clipPath id="_clipPath_apvj7ek5AXif0ZaC9aLPci6Zn5wBSSyU"><rect width="60" height="60"/></clipPath></defs><g clip-path="url(#_clipPath_apvj7ek5AXif0ZaC9aLPci6Zn5wBSSyU)"><rect width="60" height="60" style="fill:rgb(0,0,0)" fill-opacity="0"/><g><path d=" M 50.003 19 C 49.888 10.301 42.81 3 34.084 3 C 28.525 3 23.305 6.005 20.423 10.336 C 19.157 9.493 17.636 9 16 9 C 11.582 9 8 12.582 8 17 C 8 17.153 8.014 17.302 8.023 17.454 C 8.013 17.636 8 17.82 8 18 C 4.012 19.912 1 24.457 1 29.155 C 1 35.67 6.33 41 12.845 41 L 37.352 41 C 37.49 41 37.624 40.984 37.76 40.979 C 37.897 40.984 38.031 41 38.169 41 L 47.972 41 C 54.037 41 59 36.037 59 29.972 C 59 24.601 55.106 19.961 50.003 19 Z " fill="rgb(74,134,232)" vector-effect="non-scaling-stroke" stroke-width="2" stroke="rgb(255,153,0)" stroke-linejoin="miter" stroke-linecap="round" stroke-miterlimit="10"/><path d=" M 50.003 19 C 50.003 19 47.468 18.625 45 19" fill="rgb(74,134,232)" vector-effect="non-scaling-stroke" stroke-width="2" stroke="rgb(255,153,0)" stroke-linejoin="miter" stroke-linecap="round" stroke-miterlimit="10"/><path d=" M 8 17 C 8 12.582 11.582 9 16 9 C 20.418 9 24 12.582 24 17" fill="rgb(74,134,232)" vector-effect="non-scaling-stroke" stroke-width="2" stroke="rgb(255,153,0)" stroke-linejoin="miter" stroke-linecap="round" stroke-miterlimit="10"/></g><g><line x1="31" y1="33" x2="31" y2="56" vector-effect="non-scaling-stroke" stroke-width="2" stroke="rgb(255,153,0)" stroke-linejoin="miter" stroke-linecap="round" stroke-miterlimit="10"/><line x1="31" y1="57" x2="23" y2="49" vector-effect="non-scaling-stroke" stroke-width="2" stroke="rgb(255,153,0)" stroke-linejoin="miter" stroke-linecap="round" stroke-miterlimit="10"/><line x1="39" y1="49" x2="31" y2="57" vector-effect="non-scaling-stroke" stroke-width="2" stroke="rgb(255,153,0)" stroke-linejoin="miter" stroke-linecap="round" stroke-miterlimit="10"/></g></g></svg>