<?xml version="1.0" encoding="UTF-8" standalone="no"?><!-- Generator: Gravit.io --><svg xmlns="http://www.w3.org/2000/svg" xmlns:xlink="http://www.w3.org/1999/xlink" style="isolation:isolate" viewBox="0 0 60 60" width="60pt" height="60pt"><defs><clipPath id="_clipPath_jjiFlzbCOxVjK3ds35V08erQ80idKWaD"><rect width="60" height="60"/></clipPath></defs><g clip-path="url(#_clipPath_jjiFlzbCOxVjK3ds35V08erQ80idKWaD)"><rect width="60" height="60" style="fill:rgb(0,0,0)" fill-opacity="0"/><g><path d=" M 50.003 22.462 C 49.888 13.763 42.81 6.462 34.084 6.462 C 28.525 6.462 23.305 9.467 20.423 13.798 C 19.157 12.955 17.636 12.462 16 12.462 C 11.582 12.462 8 16.044 8 20.462 C 8 20.615 8.014 20.764 8.023 20.916 C 8.013 21.098 8 21.282 8 21.462 C 4.012 23.374 1 27.919 1 32.617 C 1 39.132 6.33 44.462 12.845 44.462 L 37.352 44.462 C 37.49 44.462 37.624 44.446 37.76 44.441 C 37.897 44.446 38.031 44.462 38.169 44.462 L 47.972 44.462 C 54.037 44.462 59 39.499 59 33.434 C 59 28.063 55.106 23.423 50.003 22.462 Z " fill="rgb(74,134,232)" vector-effect="non-scaling-stroke" stroke-width="2" stroke="rgb(255,153,0)" stroke-linejoin="miter" stroke-linecap="round" stroke-miterlimit="10"/><path d=" M 50.003 22.462 C 50.003 22.462 47.468 22.087 45 22.462" fill="rgb(74,134,232)" vector-effect="non-scaling-stroke" stroke-width="2" stroke="rgb(255,153,0)" stroke-linejoin="miter" stroke-linecap="round" stroke-miterlimit="10"/><path d=" M 8 20.462 C 8 16.044 11.582 12.462 16 12.462 C 20.418 12.462 24 16.044 24 20.462" fill="rgb(74,134,232)" vector-effect="non-scaling-stroke" stroke-width="2" stroke="rgb(255,153,0)" stroke-linejoin="miter" stroke-linecap="round" stroke-miterlimit="10"/></g><g><circle vector-effect="non-scaling-stroke" cx="30" cy="42" r="16" fill="rgb(255,153,0)"/><path d=" M 40 42 C 39.448 42 39 42.447 39 43 C 39 47.963 34.962 52 30 52 C 25.038 52 21 47.963 21 43 C 21 38.037 25.038 34 30 34 C 33 34 35.677 35.506 37.311 38 L 31 38 C 30.448 38 30 38.447 30 39 C 30 39.553 30.448 40 31 40 L 39 40 C 39.002 40 39.003 39.999 39.005 39.999 C 39.075 39.999 39.145 39.972 39.215 39.957 C 39.275 39.943 39.34 39.942 39.396 39.918 C 39.398 39.917 39.4 39.918 39.401 39.917 C 39.435 39.902 39.457 39.874 39.488 39.856 C 39.569 39.81 39.65 39.763 39.715 39.697 C 39.759 39.651 39.785 39.594 39.819 39.542 C 39.855 39.487 39.899 39.438 39.924 39.376 C 39.958 39.292 39.967 39.201 39.978 39.111 C 39.982 39.072 40 39.039 40 39 L 40 38.989 L 40 38.987 L 40 31 C 40 30.447 39.552 30 39 30 C 38.448 30 38 30.447 38 31 L 38 35.6 C 35.986 33.328 33.136 32 30 32 C 23.935 32 19 36.935 19 43 C 19 49.065 23.935 54 30 54 C 36.065 54 41 49.065 41 43 C 41 42.447 40.552 42 40 42 Z " fill="rgb(74,134,232)"/></g></g></svg>