<?xml version="1.0" encoding="UTF-8" standalone="no"?><!-- Generator: Gravit.io --><svg xmlns="http://www.w3.org/2000/svg" xmlns:xlink="http://www.w3.org/1999/xlink" style="isolation:isolate" viewBox="0 0 60 60" width="60pt" height="60pt"><defs><clipPath id="_clipPath_0Y6v4plCfUxfdzUisY8yS5117KDkU5fu"><rect width="60" height="60"/></clipPath></defs><g clip-path="url(#_clipPath_0Y6v4plCfUxfdzUisY8yS5117KDkU5fu)"><rect width="60" height="60" style="fill:rgb(0,0,0)" fill-opacity="0"/><g><path d=" M 50.003 22.462 C 49.888 13.763 42.81 6.462 34.084 6.462 C 28.525 6.462 23.305 9.467 20.423 13.798 C 19.157 12.955 17.636 12.462 16 12.462 C 11.582 12.462 8 16.044 8 20.462 C 8 20.615 8.014 20.764 8.023 20.916 C 8.013 21.098 8 21.282 8 21.462 C 4.012 23.374 1 27.919 1 32.617 C 1 39.132 6.33 44.462 12.845 44.462 L 37.352 44.462 C 37.49 44.462 37.624 44.446 37.76 44.441 C 37.897 44.446 38.031 44.462 38.169 44.462 L 47.972 44.462 C 54.037 44.462 59 39.499 59 33.434 C 59 28.063 55.106 23.423 50.003 22.462 Z " fill="rgb(74,134,232)" vector-effect="non-scaling-stroke" stroke-width="2" stroke="rgb(255,153,0)" stroke-linejoin="miter" stroke-linecap="round" stroke-miterlimit="10"/><path d=" M 50.003 22.462 C 50.003 22.462 47.468 22.087 45 22.462" fill="rgb(74,134,232)" vector-effect="non-scaling-stroke" stroke-width="2" stroke="rgb(255,153,0)" stroke-linejoin="miter" stroke-linecap="round" stroke-miterlimit="10"/><path d=" M 8 20.462 C 8 16.044 11.582 12.462 16 12.462 C 20.418 12.462 24 16.044 24 20.462" fill="rgb(74,134,232)" vector-effect="non-scaling-stroke" stroke-width="2" stroke="rgb(255,153,0)" stroke-linejoin="miter" stroke-linecap="round" stroke-miterlimit="10"/></g><g><circle vector-effect="non-scaling-stroke" cx="30" cy="42" r="10" fill="rgb(74,134,232)" stroke-width="2" stroke="rgb(255,153,0)" stroke-linejoin="miter" stroke-linecap="round" stroke-miterlimit="10"/><line x1="37.071" y1="49.071" x2="47" y2="59" vector-effect="non-scaling-stroke" stroke-width="2" stroke="rgb(255,153,0)" stroke-linejoin="miter" stroke-linecap="round" stroke-miterlimit="10"/></g></g></svg>