<?xml version="1.0" encoding="UTF-8" standalone="no"?><!-- Generator: Gravit.io --><svg xmlns="http://www.w3.org/2000/svg" xmlns:xlink="http://www.w3.org/1999/xlink" style="isolation:isolate" viewBox="0 0 60 60" width="60pt" height="60pt"><defs><clipPath id="_clipPath_jsCtb6Id4CSYREQfn4LTw97lZfXthtdb"><rect width="60" height="60"/></clipPath></defs><g clip-path="url(#_clipPath_jsCtb6Id4CSYREQfn4LTw97lZfXthtdb)"><rect width="60" height="60" style="fill:rgb(0,0,0)" fill-opacity="0"/><g><path d=" M 51.2 60 L 8.8 60 C 3.94 60 0 56.06 0 51.2 L 0 8.8 C 0 3.94 3.94 0 8.8 0 L 51.2 0 C 56.06 0 60 3.94 60 8.8 L 60 51.2 C 60 56.06 56.06 60 51.2 60 Z " fill="rgb(209,209,209)"/><mask id="_mask_ELtPwJvpgiJZ5WYHT82NccslYQGdqnMj" x="-200%" y="-200%" width="400%" height="400%"><rect x="-200%" y="-200%" width="400%" height="400%" style="fill:white;"/><path d=" M 25 25 L 20.5 25 C 18.015 25 16 22.985 16 20.5 L 16 20.5 C 16 18.015 18.015 16 20.5 16 L 20.5 16 C 22.985 16 25 18.015 25 20.5 L 25 25 Z " fill="black" stroke="none"/></mask><path d=" M 25 25 L 20.5 25 C 18.015 25 16 22.985 16 20.5 L 16 20.5 C 16 18.015 18.015 16 20.5 16 L 20.5 16 C 22.985 16 25 18.015 25 20.5 L 25 25 Z " fill="none" mask="url(#_mask_ELtPwJvpgiJZ5WYHT82NccslYQGdqnMj)" vector-effect="non-scaling-stroke" stroke-width="4" stroke="rgb(70,70,70)" stroke-linejoin="miter" stroke-linecap="round" stroke-miterlimit="10"/><path d=" M 25 25 L 20.5 25 C 18.015 25 16 22.985 16 20.5 L 16 20.5 C 16 18.015 18.015 16 20.5 16 L 20.5 16 C 22.985 16 25 18.015 25 20.5 L 25 25 Z " fill="none"/><rect x="26" y="26" width="9" height="9" transform="matrix(1,0,0,1,0,0)" fill="none" vector-effect="non-scaling-stroke" stroke-width="2" stroke="rgb(70,70,70)" stroke-linejoin="miter" stroke-linecap="round" stroke-miterlimit="2"/><mask id="_mask_HTgFZAaZfJq8VPmxxxIVltmMjAGwixop" x="-200%" y="-200%" width="400%" height="400%"><rect x="-200%" y="-200%" width="400%" height="400%" style="fill:white;"/><path d=" M 20.5 45 L 20.5 45 C 18.015 45 16 42.985 16 40.5 L 16 40.5 C 16 38.015 18.015 36 20.5 36 L 25 36 L 25 40.5 C 25 42.985 22.985 45 20.5 45 Z " fill="black" stroke="none"/></mask><path d=" M 20.5 45 L 20.5 45 C 18.015 45 16 42.985 16 40.5 L 16 40.5 C 16 38.015 18.015 36 20.5 36 L 25 36 L 25 40.5 C 25 42.985 22.985 45 20.5 45 Z " fill="none" mask="url(#_mask_HTgFZAaZfJq8VPmxxxIVltmMjAGwixop)" vector-effect="non-scaling-stroke" stroke-width="4" stroke="rgb(70,70,70)" stroke-linejoin="miter" stroke-linecap="round" stroke-miterlimit="10"/><path d=" M 20.5 45 L 20.5 45 C 18.015 45 16 42.985 16 40.5 L 16 40.5 C 16 38.015 18.015 36 20.5 36 L 25 36 L 25 40.5 C 25 42.985 22.985 45 20.5 45 Z " fill="none"/><mask id="_mask_pjSxpW6uGWIO5DXZhXIZnYNDRZEPna7w" x="-200%" y="-200%" width="400%" height="400%"><rect x="-200%" y="-200%" width="400%" height="400%" style="fill:white;"/><path d=" M 40.5 25 L 36 25 L 36 20.5 C 36 18.015 38.015 16 40.5 16 L 40.5 16 C 42.985 16 45 18.015 45 20.5 L 45 20.5 C 45 22.985 42.985 25 40.5 25 Z " fill="black" stroke="none"/></mask><path d=" M 40.5 25 L 36 25 L 36 20.5 C 36 18.015 38.015 16 40.5 16 L 40.5 16 C 42.985 16 45 18.015 45 20.5 L 45 20.5 C 45 22.985 42.985 25 40.5 25 Z " fill="none" mask="url(#_mask_pjSxpW6uGWIO5DXZhXIZnYNDRZEPna7w)" vector-effect="non-scaling-stroke" stroke-width="4" stroke="rgb(70,70,70)" stroke-linejoin="miter" stroke-linecap="round" stroke-miterlimit="10"/><path d=" M 40.5 25 L 36 25 L 36 20.5 C 36 18.015 38.015 16 40.5 16 L 40.5 16 C 42.985 16 45 18.015 45 20.5 L 45 20.5 C 45 22.985 42.985 25 40.5 25 Z " fill="none"/><mask id="_mask_0TTJRAykY4jQYAEOtsRPZKpnC15XeIsp" x="-200%" y="-200%" width="400%" height="400%"><rect x="-200%" y="-200%" width="400%" height="400%" style="fill:white;"/><path d=" M 40.5 45 L 40.5 45 C 38.015 45 36 42.985 36 40.5 L 36 36 L 40.5 36 C 42.985 36 45 38.015 45 40.5 L 45 40.5 C 45 42.985 42.985 45 40.5 45 Z " fill="black" stroke="none"/></mask><path d=" M 40.5 45 L 40.5 45 C 38.015 45 36 42.985 36 40.5 L 36 36 L 40.5 36 C 42.985 36 45 38.015 45 40.5 L 45 40.5 C 45 42.985 42.985 45 40.5 45 Z " fill="none" mask="url(#_mask_0TTJRAykY4jQYAEOtsRPZKpnC15XeIsp)" vector-effect="non-scaling-stroke" stroke-width="4" stroke="rgb(70,70,70)" stroke-linejoin="miter" stroke-linecap="round" stroke-miterlimit="10"/><path d=" M 40.5 45 L 40.5 45 C 38.015 45 36 42.985 36 40.5 L 36 36 L 40.5 36 C 42.985 36 45 38.015 45 40.5 L 45 40.5 C 45 42.985 42.985 45 40.5 45 Z " fill="none"/></g></g></svg>