<?xml version="1.0" encoding="UTF-8" standalone="no"?><!-- Generator: Gravit.io --><svg xmlns="http://www.w3.org/2000/svg" xmlns:xlink="http://www.w3.org/1999/xlink" style="isolation:isolate" viewBox="0 0 60 60" width="60pt" height="60pt"><defs><clipPath id="_clipPath_fgk0bq6qKLuV6VhRuBOZnPzX3uMMvVwT"><rect width="60" height="60"/></clipPath></defs><g clip-path="url(#_clipPath_fgk0bq6qKLuV6VhRuBOZnPzX3uMMvVwT)"><rect width="60" height="60" style="fill:rgb(0,0,0)" fill-opacity="0"/><g><path d=" M 30 1 C 13.984 1 1 13.984 1 30 C 1 46.016 13.984 59 30 59 C 46.016 59 59 46.016 59 30 C 59 13.984 46.016 1 30 1 Z  M 30 39 C 25.029 39 21 34.971 21 30 C 21 25.029 25.029 21 30 21 C 34.971 21 39 25.029 39 30 C 39 34.971 34.971 39 30 39 Z " fill="rgb(209,209,209)"/><path d=" M 4.373 16.425 L 19.181 24.52 C 19.715 23.543 20.389 22.622 21.216 21.795 C 22.043 20.968 22.965 20.295 23.941 19.76 L 15.738 4.753 C 10.926 7.477 6.97 11.533 4.373 16.425 Z " fill="rgb(185,185,185)"/><path d=" M 55.259 44.242 L 40.182 36 C 39.648 36.977 38.974 37.898 38.147 38.726 C 37.32 39.553 36.398 40.226 35.421 40.761 L 43.554 55.638 C 48.462 53.037 52.531 49.07 55.259 44.242 Z " fill="rgb(185,185,185)"/><path d=" M 30 15 C 21.716 15 15 21.716 15 30 C 15 38.284 21.716 45 30 45 C 38.284 45 45 38.284 45 30 C 45 21.716 38.284 15 30 15 Z  M 30 37.5 C 25.858 37.5 22.5 34.142 22.5 30 C 22.5 25.858 25.858 22.5 30 22.5 C 34.142 22.5 37.5 25.858 37.5 30 C 37.5 34.142 34.142 37.5 30 37.5 Z " fill="rgb(255,255,255)"/><path d=" M 30 19.167 C 24.017 19.167 19.167 24.017 19.167 30 C 19.167 35.983 24.017 40.833 30 40.833 C 35.983 40.833 40.833 35.983 40.833 30 C 40.833 24.017 35.983 19.167 30 19.167 Z  M 30 35.833 C 26.778 35.833 24.167 33.221 24.167 30 C 24.167 26.779 26.779 24.167 30 24.167 C 33.221 24.167 35.833 26.779 35.833 30 C 35.833 33.221 33.222 35.833 30 35.833 Z " fill="rgb(209,209,209)"/><path d=" M 30 0 C 13.458 0 0 13.458 0 30 C 0 46.542 13.458 60 30 60 C 46.542 60 60 46.542 60 30 C 60 13.458 46.542 0 30 0 Z  M 30 58 C 14.561 58 2 45.439 2 30 C 2 14.561 14.561 2 30 2 C 45.439 2 58 14.561 58 30 C 58 45.439 45.439 58 30 58 Z " fill="rgb(116,116,116)"/></g></g></svg>