<?xml version="1.0" encoding="UTF-8" standalone="no"?><!-- Generator: Gravit.io --><svg xmlns="http://www.w3.org/2000/svg" xmlns:xlink="http://www.w3.org/1999/xlink" style="isolation:isolate" viewBox="0 0 60 60" width="60pt" height="60pt"><defs><clipPath id="_clipPath_USBp2YE3s2VRI2VUPZ2vKgeH4urK6thw"><rect width="60" height="60"/></clipPath></defs><g clip-path="url(#_clipPath_USBp2YE3s2VRI2VUPZ2vKgeH4urK6thw)"><rect width="60" height="60" style="fill:rgb(0,0,0)" fill-opacity="0"/><g><path d=" M 30 1 C 13.984 1 1 13.984 1 30 C 1 46.016 13.984 59 30 59 C 46.016 59 59 46.016 59 30 C 59 13.984 46.016 1 30 1 Z  M 30 37.08 C 26.09 37.08 22.92 33.91 22.92 30 C 22.92 26.09 26.09 22.92 30 22.92 C 33.91 22.92 37.08 26.09 37.08 30 C 37.08 33.91 33.91 37.08 30 37.08 Z " fill="rgb(116,116,116)"/><path d=" M 7.487 23.932 C 7.41 23.932 7.331 23.923 7.253 23.905 C 6.716 23.775 6.385 23.235 6.514 22.699 C 7.46 18.764 9.469 15.177 12.323 12.323 C 15.177 9.469 18.764 7.461 22.699 6.514 C 23.235 6.387 23.776 6.716 23.905 7.253 C 24.034 7.789 23.703 8.329 23.166 8.459 C 19.591 9.318 16.33 11.144 13.737 13.736 C 11.144 16.328 9.319 19.59 8.46 23.165 C 8.349 23.624 7.938 23.932 7.487 23.932 Z " fill="rgb(209,209,209)"/><path d=" M 37.066 53.514 C 36.615 53.514 36.205 53.206 36.094 52.747 C 35.965 52.211 36.296 51.671 36.833 51.541 C 40.409 50.682 43.67 48.856 46.263 46.264 C 48.856 43.672 50.681 40.41 51.54 36.835 C 51.669 36.297 52.208 35.967 52.746 36.096 C 53.283 36.226 53.614 36.766 53.485 37.302 C 52.539 41.237 50.53 44.824 47.676 47.678 C 44.822 50.532 41.235 52.54 37.299 53.487 C 37.223 53.505 37.144 53.514 37.066 53.514 Z " fill="rgb(209,209,209)"/><path d=" M 12.313 25.226 C 12.238 25.226 12.162 25.218 12.085 25.2 C 11.547 25.075 11.212 24.537 11.338 24 C 12.058 20.91 13.62 18.096 15.858 15.859 C 18.094 13.622 20.909 12.059 23.999 11.339 C 24.534 11.208 25.074 11.548 25.199 12.086 C 25.325 12.623 24.99 13.161 24.452 13.286 C 21.727 13.921 19.245 15.3 17.272 17.272 C 15.299 19.244 13.92 21.727 13.286 24.452 C 13.179 24.914 12.768 25.226 12.313 25.226 Z " fill="rgb(209,209,209)"/><path d=" M 35.773 48.688 C 35.319 48.688 34.908 48.376 34.8 47.915 C 34.674 47.378 35.009 46.84 35.547 46.715 C 38.272 46.08 40.754 44.701 42.727 42.729 C 44.7 40.757 46.079 38.274 46.713 35.549 C 46.838 35.011 47.375 34.669 47.913 34.802 C 48.451 34.927 48.786 35.465 48.66 36.002 C 47.94 39.092 46.378 41.906 44.14 44.143 C 41.904 46.38 39.089 47.943 35.999 48.663 C 35.925 48.68 35.849 48.688 35.773 48.688 Z " fill="rgb(209,209,209)"/><path d=" M 17.14 26.519 C 17.069 26.519 16.997 26.511 16.925 26.496 C 16.386 26.378 16.044 25.845 16.162 25.306 C 17.159 20.749 20.748 17.16 25.305 16.163 C 25.842 16.047 26.376 16.385 26.495 16.926 C 26.613 17.465 26.271 17.998 25.732 18.116 C 21.936 18.947 18.946 21.937 18.115 25.733 C 18.013 26.2 17.6 26.519 17.14 26.519 Z " fill="rgb(209,209,209)"/><path d=" M 34.48 43.861 C 34.02 43.861 33.607 43.543 33.504 43.075 C 33.386 42.536 33.728 42.003 34.267 41.885 C 38.063 41.054 41.053 38.064 41.884 34.268 C 42.002 33.727 42.534 33.387 43.074 33.505 C 43.613 33.623 43.955 34.156 43.837 34.695 C 42.84 39.252 39.251 42.841 34.694 43.838 C 34.623 43.854 34.552 43.861 34.48 43.861 Z " fill="rgb(209,209,209)"/><path d=" M 30 39.08 C 24.993 39.08 20.92 35.007 20.92 30 C 20.92 24.993 24.993 20.92 30 20.92 C 35.007 20.92 39.08 24.993 39.08 30 C 39.08 35.007 35.007 39.08 30 39.08 Z  M 30 24.92 C 27.199 24.92 24.92 27.199 24.92 30 C 24.92 32.801 27.199 35.08 30 35.08 C 32.801 35.08 35.08 32.801 35.08 30 C 35.08 27.199 32.801 24.92 30 24.92 Z " fill="rgb(231,236,237)"/></g></g></svg>