<?xml version="1.0" encoding="UTF-8" standalone="no"?><!-- Generator: Gravit.io --><svg xmlns="http://www.w3.org/2000/svg" xmlns:xlink="http://www.w3.org/1999/xlink" style="isolation:isolate" viewBox="0 0 60 60" width="60pt" height="60pt"><defs><clipPath id="_clipPath_f79bkxNV8khmNJ76TmzN9Gc2A749mbHW"><rect width="60" height="60"/></clipPath></defs><g clip-path="url(#_clipPath_f79bkxNV8khmNJ76TmzN9Gc2A749mbHW)"><rect width="60" height="60" style="fill:rgb(0,0,0)" fill-opacity="0"/><g><path d=" M 49.799 10.201 C 38.864 -0.734 21.136 -0.734 10.201 10.201 C -0.734 21.136 -0.734 38.864 10.201 49.799 C 21.136 60.734 38.864 60.734 49.799 49.799 C 60.734 38.864 60.734 21.136 49.799 10.201 Z  M 34.95 34.95 C 32.216 37.684 27.784 37.684 25.051 34.95 C 22.317 32.216 22.317 27.784 25.051 25.051 C 27.785 22.318 32.217 22.317 34.95 25.051 C 37.683 27.785 37.683 32.216 34.95 34.95 Z " fill="rgb(70,70,70)"/><path d=" M 37.778 22.222 C 33.482 17.926 26.517 17.926 22.222 22.222 C 17.926 26.518 17.926 33.483 22.222 37.778 C 26.518 42.074 33.483 42.074 37.778 37.778 C 42.074 33.482 42.074 26.518 37.778 22.222 Z  M 32.121 32.121 C 30.949 33.293 29.05 33.293 27.878 32.121 C 26.706 30.949 26.706 29.05 27.878 27.878 C 29.05 26.706 30.949 26.706 32.121 27.878 C 33.293 29.05 33.293 30.95 32.121 32.121 Z " fill="rgb(240,239,239)"/><g><path d=" M 37.778 37.778 C 37.018 38.538 36.171 39.156 35.274 39.648 L 43.431 54.568 C 45.715 53.318 47.865 51.733 49.799 49.799 C 51.733 47.865 53.318 45.715 54.568 43.431 L 39.648 35.274 C 39.157 36.172 38.538 37.018 37.778 37.778 Z " fill="rgb(162,162,162)"/><path d=" M 22.222 22.222 C 22.982 21.462 23.829 20.844 24.726 20.352 L 16.569 5.432 C 14.285 6.682 12.135 8.267 10.201 10.201 C 8.267 12.135 6.682 14.285 5.432 16.569 L 20.352 24.726 C 20.843 23.828 21.462 22.982 22.222 22.222 Z " fill="rgb(162,162,162)"/></g></g></g></svg>