<?xml version="1.0" encoding="UTF-8" standalone="no"?><!-- Generator: Gravit.io --><svg xmlns="http://www.w3.org/2000/svg" xmlns:xlink="http://www.w3.org/1999/xlink" style="isolation:isolate" viewBox="0 0 60 60" width="60pt" height="60pt"><defs><clipPath id="_clipPath_62FWiCJNXhkkotsj3vgz2qlE6UTkSTEf"><rect width="60" height="60"/></clipPath></defs><g clip-path="url(#_clipPath_62FWiCJNXhkkotsj3vgz2qlE6UTkSTEf)"><rect width="60" height="60" style="fill:rgb(0,0,0)" fill-opacity="0"/><g><path d=" M 56 13 L 20 13 C 19.447 13 19 12.553 19 12 C 19 11.447 19.447 11 20 11 L 56 11 C 56.553 11 57 11.447 57 12 C 57 12.553 56.553 13 56 13 Z " fill="rgb(255,153,0)"/><path d=" M 8 13 L 4 13 C 3.447 13 3 12.553 3 12 C 3 11.447 3.447 11 4 11 L 8 11 C 8.553 11 9 11.447 9 12 C 9 12.553 8.553 13 8 13 Z " fill="rgb(255,153,0)"/><path d=" M 56 32 L 36 32 C 35.447 32 35 31.553 35 31 C 35 30.447 35.447 30 36 30 L 56 30 C 56.553 30 57 30.447 57 31 C 57 31.553 56.553 32 56 32 Z " fill="rgb(255,153,0)"/><path d=" M 24 32 L 4 32 C 3.447 32 3 31.553 3 31 C 3 30.447 3.447 30 4 30 L 24 30 C 24.553 30 25 30.447 25 31 C 25 31.553 24.553 32 24 32 Z " fill="rgb(255,153,0)"/><path d=" M 40 51 L 4 51 C 3.447 51 3 50.553 3 50 C 3 49.447 3.447 49 4 49 L 40 49 C 40.553 49 41 49.447 41 50 C 41 50.553 40.553 51 40 51 Z " fill="rgb(255,153,0)"/><path d=" M 56 51 L 52 51 C 51.447 51 51 50.553 51 50 C 51 49.447 51.447 49 52 49 L 56 49 C 56.553 49 57 49.447 57 50 C 57 50.553 56.553 51 56 51 Z " fill="rgb(255,153,0)"/><rect x="8" y="7" width="12" height="10" transform="matrix(1,0,0,1,0,0)" fill="rgb(42,110,221)"/><rect x="24" y="26" width="12" height="10" transform="matrix(1,0,0,1,0,0)" fill="rgb(42,110,221)"/><rect x="40" y="45" width="12" height="10" transform="matrix(1,0,0,1,0,0)" fill="rgb(42,110,221)"/><rect x="8" y="5" width="12" height="10" transform="matrix(1,0,0,1,0,0)" fill="rgb(74,134,232)"/><rect x="24" y="24" width="12" height="10" transform="matrix(1,0,0,1,0,0)" fill="rgb(74,134,232)"/><rect x="40" y="43" width="12" height="10" transform="matrix(1,0,0,1,0,0)" fill="rgb(74,134,232)"/></g></g></svg>