<?xml version="1.0" encoding="UTF-8" standalone="no"?><!-- Generator: Gravit.io --><svg xmlns="http://www.w3.org/2000/svg" xmlns:xlink="http://www.w3.org/1999/xlink" style="isolation:isolate" viewBox="0 0 60 60" width="60pt" height="60pt"><defs><clipPath id="_clipPath_yQxwMO68cuYfaFa36J7IJ01mzsYYerzk"><rect width="60" height="60"/></clipPath></defs><g clip-path="url(#_clipPath_yQxwMO68cuYfaFa36J7IJ01mzsYYerzk)"><rect width="60" height="60" style="fill:rgb(0,0,0)" fill-opacity="0"/><g><rect x="1" y="1" width="58" height="58" transform="matrix(1,0,0,1,0,0)" fill="rgb(185,185,185)"/><g><path d=" M 20 13 L 52 13 C 52.553 13 53 12.553 53 12 C 53 11.447 52.553 11 52 11 L 20 11 C 19.447 11 19 11.447 19 12 C 19 12.553 19.447 13 20 13 Z " fill="rgb(74,134,232)"/><path d=" M 40 47 L 8 47 C 7.447 47 7 47.447 7 48 C 7 48.553 7.447 49 8 49 L 40 49 C 40.553 49 41 48.553 41 48 C 41 47.447 40.553 47 40 47 Z " fill="rgb(74,134,232)"/><path d=" M 52 29 L 37 29 C 36.447 29 36 29.447 36 30 C 36 30.553 36.447 31 37 31 L 52 31 C 52.553 31 53 30.553 53 30 C 53 29.447 52.553 29 52 29 Z " fill="rgb(74,134,232)"/><path d=" M 8 31 L 25 31 C 25.553 31 26 30.553 26 30 C 26 29.447 25.553 29 25 29 L 8 29 C 7.447 29 7 29.447 7 30 C 7 30.553 7.447 31 8 31 Z " fill="rgb(74,134,232)"/></g><circle vector-effect="non-scaling-stroke" cx="14" cy="12" r="5.999999999999999" fill="rgb(255,153,0)"/><circle vector-effect="non-scaling-stroke" cx="46.00000000000001" cy="48.00000000000001" r="6" fill="rgb(255,153,0)"/><circle vector-effect="non-scaling-stroke" cx="31" cy="30" r="5.999999999999998" fill="rgb(255,153,0)"/></g></g></svg>