<?xml version="1.0" encoding="UTF-8" standalone="no"?><!-- Generator: Gravit.io --><svg xmlns="http://www.w3.org/2000/svg" xmlns:xlink="http://www.w3.org/1999/xlink" style="isolation:isolate" viewBox="0 0 60 60" width="60pt" height="60pt"><defs><clipPath id="_clipPath_yNJi2atlChRePb2DqloGzlGrKWMH9UEZ"><rect width="60" height="60"/></clipPath></defs><g clip-path="url(#_clipPath_yNJi2atlChRePb2DqloGzlGrKWMH9UEZ)"><rect width="60" height="60" style="fill:rgb(0,0,0)" fill-opacity="0"/><clipPath id="_clipPath_shEGnGkQbEEkINIKmYc1YLVuoDHFv54j"><rect x="0" y="0" width="60" height="60" transform="matrix(0,-1,1,0,0,60)" fill="rgb(255,255,255)"/></clipPath><g clip-path="url(#_clipPath_shEGnGkQbEEkINIKmYc1YLVuoDHFv54j)"><g><rect x="0" y="0" width="60" height="60" transform="matrix(0,-1,1,0,0,60)" fill="none"/><g><rect x="1" y="1" width="58" height="58" transform="matrix(0,-1,1,0,0,60)" fill="rgb(185,185,185)"/><g><path d=" M 13 40 L 13 8 C 13 7.447 12.553 7 12 7 C 11.447 7 11 7.447 11 8 L 11 40 C 11 40.553 11.447 41 12 41 C 12.553 41 13 40.553 13 40 Z " fill="rgb(74,134,232)"/><path d=" M 47 20 L 47 52 C 47 52.553 47.447 53 48 53 C 48.553 53 49 52.553 49 52 L 49 20 C 49 19.447 48.553 19 48 19 C 47.447 19 47 19.447 47 20 Z " fill="rgb(74,134,232)"/><path d=" M 29 8 L 29 23 C 29 23.553 29.447 24 30 24 C 30.553 24 31 23.553 31 23 L 31 8 C 31 7.447 30.553 7 30 7 C 29.447 7 29 7.447 29 8 Z " fill="rgb(74,134,232)"/><path d=" M 31 52 L 31 35 C 31 34.447 30.553 34 30 34 C 29.447 34 29 34.447 29 35 L 29 52 C 29 52.553 29.447 53 30 53 C 30.553 53 31 52.553 31 52 Z " fill="rgb(74,134,232)"/></g><path d=" M 12 52 C 8.689 52 6 49.311 6 46 C 6 42.689 8.689 40 12 40 C 15.311 40 18 42.689 18 46 C 18 49.311 15.311 52 12 52 Z " fill="rgb(255,153,0)"/><path d=" M 48 20 C 44.689 20 42 17.311 42 14 C 42 10.689 44.689 8 48 8 C 51.311 8 54 10.689 54 14 C 54 17.311 51.311 20 48 20 Z " fill="rgb(255,153,0)"/><path d=" M 30 35 C 26.689 35 24 32.311 24 29 C 24 25.689 26.689 23 30 23 C 33.311 23 36 25.689 36 29 C 36 32.311 33.311 35 30 35 Z " fill="rgb(255,153,0)"/></g></g></g></g></svg>