<?xml version="1.0" encoding="UTF-8" standalone="no"?><!-- Generator: Gravit.io --><svg xmlns="http://www.w3.org/2000/svg" xmlns:xlink="http://www.w3.org/1999/xlink" style="isolation:isolate" viewBox="0 0 60 60" width="60pt" height="60pt"><defs><clipPath id="_clipPath_mADbz363BLd41C21hG3W5bfhPo1jqPDI"><rect width="60" height="60"/></clipPath></defs><g clip-path="url(#_clipPath_mADbz363BLd41C21hG3W5bfhPo1jqPDI)"><rect width="60" height="60" style="fill:rgb(0,0,0)" fill-opacity="0"/><clipPath id="_clipPath_Aoo9ROZAtqjM9GRBXgs1duj6GfoL3ELF"><rect x="0" y="0" width="60" height="60" transform="matrix(0,-1,1,0,0,60)" fill="rgb(255,255,255)"/></clipPath><g clip-path="url(#_clipPath_Aoo9ROZAtqjM9GRBXgs1duj6GfoL3ELF)"><g><rect x="0" y="0" width="60" height="60" transform="matrix(0,-1,1,0,0,60)" fill="none"/><g><path d=" M 13 4 L 13 40 C 13 40.553 12.553 41 12 41 C 11.447 41 11 40.553 11 40 L 11 4 C 11 3.447 11.447 3 12 3 C 12.553 3 13 3.447 13 4 Z " fill="rgb(255,153,0)"/><path d=" M 13 52 L 13 56 C 13 56.553 12.553 57 12 57 C 11.447 57 11 56.553 11 56 L 11 52 C 11 51.447 11.447 51 12 51 C 12.553 51 13 51.447 13 52 Z " fill="rgb(255,153,0)"/><path d=" M 32 4 L 32 24 C 32 24.553 31.553 25 31 25 C 30.447 25 30 24.553 30 24 L 30 4 C 30 3.447 30.447 3 31 3 C 31.553 3 32 3.447 32 4 Z " fill="rgb(255,153,0)"/><path d=" M 32 36 L 32 56 C 32 56.553 31.553 57 31 57 C 30.447 57 30 56.553 30 56 L 30 36 C 30 35.447 30.447 35 31 35 C 31.553 35 32 35.447 32 36 Z " fill="rgb(255,153,0)"/><path d=" M 51 20 L 51 56 C 51 56.553 50.553 57 50 57 C 49.447 57 49 56.553 49 56 L 49 20 C 49 19.447 49.447 19 50 19 C 50.553 19 51 19.447 51 20 Z " fill="rgb(255,153,0)"/><path d=" M 51 4 L 51 8 C 51 8.553 50.553 9 50 9 C 49.447 9 49 8.553 49 8 L 49 4 C 49 3.447 49.447 3 50 3 C 50.553 3 51 3.447 51 4 Z " fill="rgb(255,153,0)"/><rect x="5" y="42" width="12" height="10" transform="matrix(1,0,0,1,0,0)" fill="rgb(42,110,221)"/><rect x="24" y="26" width="12" height="10" transform="matrix(1,0,0,1,0,0)" fill="rgb(42,110,221)"/><rect x="43" y="10" width="12" height="10" transform="matrix(1,0,0,1,0,0)" fill="rgb(42,110,221)"/><rect x="5" y="40" width="12" height="10" transform="matrix(1,0,0,1,0,0)" fill="rgb(74,134,232)"/><rect x="24" y="24" width="12" height="10" transform="matrix(1,0,0,1,0,0)" fill="rgb(74,134,232)"/><rect x="43" y="8" width="12" height="10" transform="matrix(1,0,0,1,0,0)" fill="rgb(74,134,232)"/></g></g></g></g></svg>