<?xml version="1.0" encoding="UTF-8" standalone="no"?><!-- Generator: Gravit.io --><svg xmlns="http://www.w3.org/2000/svg" xmlns:xlink="http://www.w3.org/1999/xlink" style="isolation:isolate" viewBox="0 0 60 60" width="60pt" height="60pt"><defs><clipPath id="_clipPath_pLRIcBlVynCKZx3WOFsgoPj1LH1YUQOU"><rect width="60" height="60"/></clipPath></defs><g clip-path="url(#_clipPath_pLRIcBlVynCKZx3WOFsgoPj1LH1YUQOU)"><rect width="60" height="60" style="fill:rgb(0,0,0)" fill-opacity="0"/><g><path d=" M 53.955 11.5 L 53.955 11.5 C 53.224 7.038 42.781 3.5 30 3.5 C 17.219 3.5 6.776 7.038 6.045 11.5 L 6.045 11.5 L 6 11.5 L 6 12 L 6 23.5 L 6 24 L 6 24.5 L 6 35.5 L 6 36 L 6 36.5 L 6 48.5 L 6.045 48.5 C 6.776 52.961 17.22 56.5 30 56.5 C 42.78 56.5 53.224 52.961 53.955 48.5 L 54 48.5 L 54 36.5 L 54 36 L 54 35.5 L 54 24.5 L 54 24 L 54 23.5 L 54 12 L 54 11.5 L 53.955 11.5 Z " fill="rgb(66,74,96)"/><g><path d=" M 30 44.5 C 16.745 44.5 6 40.694 6 36 L 6 48.5 L 6.045 48.5 C 6.776 52.961 17.22 56.5 30 56.5 C 42.78 56.5 53.224 52.961 53.955 48.5 L 54 48.5 L 54 36 C 54 40.694 43.255 44.5 30 44.5 Z " fill="rgb(74,134,232)"/><path d=" M 6 35.5 L 6 36 C 6 35.832 6.018 35.666 6.045 35.5 L 6 35.5 Z " fill="rgb(66,74,96)"/><path d=" M 53.955 35.5 C 53.982 35.666 54 35.832 54 36 L 54 35.5 L 53.955 35.5 Z " fill="rgb(66,74,96)"/></g><g><path d=" M 30 32.5 C 16.745 32.5 6 28.694 6 24 L 6 36.5 L 6.045 36.5 C 6.776 40.961 17.22 44.5 30 44.5 C 42.78 44.5 53.224 40.961 53.955 36.5 L 54 36.5 L 54 24 C 54 28.694 43.255 32.5 30 32.5 Z " fill="rgb(255,153,0)"/><path d=" M 6 23.5 L 6 24 C 6 23.832 6.018 23.666 6.045 23.5 L 6 23.5 Z " fill="rgb(85,96,128)"/><path d=" M 53.955 23.5 C 53.982 23.666 54 23.832 54 24 L 54 23.5 L 53.955 23.5 Z " fill="rgb(85,96,128)"/></g><ellipse vector-effect="non-scaling-stroke" cx="30" cy="12" rx="24" ry="8.5" fill="rgb(255,153,0)"/><g><path d=" M 30 20.5 C 16.745 20.5 6 16.694 6 12 L 6 24.5 L 6.045 24.5 C 6.776 28.961 17.22 32.5 30 32.5 C 42.78 32.5 53.224 28.961 53.955 24.5 L 54 24.5 L 54 12 C 54 16.694 43.255 20.5 30 20.5 Z " fill="rgb(74,134,232)"/><path d=" M 6 11.5 L 6 12 C 6 11.832 6.018 11.666 6.045 11.5 L 6 11.5 Z " fill="rgb(115,131,191)"/><path d=" M 53.955 11.5 C 53.982 11.666 54 11.832 54 12 L 54 11.5 L 53.955 11.5 Z " fill="rgb(115,131,191)"/></g></g></g></svg>