<?xml version="1.0" encoding="UTF-8" standalone="no"?><!-- Generator: Gravit.io --><svg xmlns="http://www.w3.org/2000/svg" xmlns:xlink="http://www.w3.org/1999/xlink" style="isolation:isolate" viewBox="0 0 60 60" width="60pt" height="60pt"><defs><clipPath id="_clipPath_jVvsbwlZm5ml15ltFcrjIACJd1wxTEyA"><rect width="60" height="60"/></clipPath></defs><g clip-path="url(#_clipPath_jVvsbwlZm5ml15ltFcrjIACJd1wxTEyA)"><rect width="60" height="60" style="fill:rgb(0,0,0)" fill-opacity="0"/><clipPath id="_clipPath_Z4VPVkJjfDahHNR4x55HogAkAEXsGWKV"><rect x="0.159" y="1.752" width="60" height="60" transform="matrix(1,0,0,1,0,0)" fill="rgb(255,255,255)"/></clipPath><g clip-path="url(#_clipPath_Z4VPVkJjfDahHNR4x55HogAkAEXsGWKV)"><g><rect x="0.159" y="1.752" width="60" height="60" transform="matrix(1,0,0,1,0,0)" fill="none"/><g><path d=" M 55.551 22.252 L 4.767 22.252 C 2.775 22.252 1.159 20.636 1.159 18.644 L 1.159 6.86 C 1.159 4.868 2.775 3.252 4.767 3.252 L 55.55 3.252 C 57.543 3.252 59.159 4.868 59.159 6.86 L 59.159 18.643 C 59.159 20.636 57.543 22.252 55.551 22.252 Z " fill="rgb(255,153,0)"/><path d=" M 55.551 41.252 L 4.767 41.252 C 2.775 41.252 1.159 39.636 1.159 37.644 L 1.159 25.86 C 1.159 23.868 2.775 22.252 4.767 22.252 L 55.55 22.252 C 57.543 22.252 59.158 23.868 59.158 25.86 L 59.158 37.643 C 59.159 39.636 57.543 41.252 55.551 41.252 Z " fill="rgb(74,134,232)"/><path d=" M 55.551 60.252 L 4.767 60.252 C 2.775 60.252 1.159 58.636 1.159 56.644 L 1.159 44.86 C 1.159 42.868 2.775 41.252 4.767 41.252 L 55.55 41.252 C 57.543 41.252 59.158 42.868 59.158 44.86 L 59.158 56.643 C 59.159 58.636 57.543 60.252 55.551 60.252 Z " fill="rgb(255,153,0)"/><circle vector-effect="non-scaling-stroke" cx="10.659240075078728" cy="12.751640825865934" r="3.5" fill="rgb(74,134,232)"/><circle vector-effect="non-scaling-stroke" cx="50.15924007507873" cy="11.251640825865934" r="1" fill="rgb(74,134,232)"/><circle vector-effect="non-scaling-stroke" cx="46.15924007507873" cy="11.251640825865934" r="1" fill="rgb(74,134,232)"/><circle vector-effect="non-scaling-stroke" cx="52.15924007507873" cy="14.251640825865934" r="1" fill="rgb(74,134,232)"/><circle vector-effect="non-scaling-stroke" cx="48.15924007507873" cy="14.251640825865934" r="1" fill="rgb(74,134,232)"/><circle vector-effect="non-scaling-stroke" cx="42.15924007507873" cy="11.251640825865934" r="1" fill="rgb(74,134,232)"/><circle vector-effect="non-scaling-stroke" cx="44.15924007507873" cy="14.251640825865934" r="1" fill="rgb(74,134,232)"/><circle vector-effect="non-scaling-stroke" cx="38.15924007507873" cy="11.251640825865934" r="1" fill="rgb(74,134,232)"/><circle vector-effect="non-scaling-stroke" cx="40.15924007507873" cy="14.251640825865934" r="1" fill="rgb(74,134,232)"/><circle vector-effect="non-scaling-stroke" cx="34.15924007507873" cy="11.251640825865934" r="1" fill="rgb(74,134,232)"/><circle vector-effect="non-scaling-stroke" cx="36.15924007507873" cy="14.251640825865934" r="1" fill="rgb(74,134,232)"/><circle vector-effect="non-scaling-stroke" cx="10.659240075078728" cy="31.751640825865934" r="3.5" fill="rgb(255,153,0)"/><circle vector-effect="non-scaling-stroke" cx="50.15924007507873" cy="30.251640825865938" r="1" fill="rgb(255,153,0)"/><circle vector-effect="non-scaling-stroke" cx="46.15924007507873" cy="30.251640825865938" r="1" fill="rgb(255,153,0)"/><circle vector-effect="non-scaling-stroke" cx="52.15924007507873" cy="33.251640825865934" r="1" fill="rgb(255,153,0)"/><circle vector-effect="non-scaling-stroke" cx="48.15924007507873" cy="33.251640825865934" r="1" fill="rgb(255,153,0)"/><circle vector-effect="non-scaling-stroke" cx="42.15924007507873" cy="30.251640825865938" r="1" fill="rgb(255,153,0)"/><circle vector-effect="non-scaling-stroke" cx="44.15924007507873" cy="33.251640825865934" r="1" fill="rgb(255,153,0)"/><circle vector-effect="non-scaling-stroke" cx="38.15924007507873" cy="30.251640825865938" r="1" fill="rgb(255,153,0)"/><circle vector-effect="non-scaling-stroke" cx="40.15924007507873" cy="33.251640825865934" r="1" fill="rgb(255,153,0)"/><circle vector-effect="non-scaling-stroke" cx="34.15924007507873" cy="30.251640825865938" r="1" fill="rgb(255,153,0)"/><circle vector-effect="non-scaling-stroke" cx="36.15924007507873" cy="33.251640825865934" r="1" fill="rgb(255,153,0)"/><circle vector-effect="non-scaling-stroke" cx="10.659240075078728" cy="50.75164082586594" r="3.5" fill="rgb(74,134,232)"/><circle vector-effect="non-scaling-stroke" cx="50.15924007507873" cy="49.251640825865934" r="1" fill="rgb(74,134,232)"/><circle vector-effect="non-scaling-stroke" cx="46.15924007507873" cy="49.251640825865934" r="1" fill="rgb(74,134,232)"/><circle vector-effect="non-scaling-stroke" cx="52.15924007507873" cy="52.251640825865934" r="1" fill="rgb(74,134,232)"/><circle vector-effect="non-scaling-stroke" cx="48.15924007507873" cy="52.251640825865934" r="1" fill="rgb(74,134,232)"/><circle vector-effect="non-scaling-stroke" cx="42.15924007507873" cy="49.251640825865934" r="1" fill="rgb(74,134,232)"/><circle vector-effect="non-scaling-stroke" cx="44.15924007507873" cy="52.251640825865934" r="1" fill="rgb(74,134,232)"/><circle vector-effect="non-scaling-stroke" cx="38.15924007507873" cy="49.251640825865934" r="1" fill="rgb(74,134,232)"/><circle vector-effect="non-scaling-stroke" cx="40.15924007507873" cy="52.251640825865934" r="1" fill="rgb(74,134,232)"/><circle vector-effect="non-scaling-stroke" cx="34.15924007507873" cy="49.251640825865934" r="1" fill="rgb(74,134,232)"/><circle vector-effect="non-scaling-stroke" cx="36.15924007507873" cy="52.251640825865934" r="1" fill="rgb(74,134,232)"/></g></g></g><g><g><path d=" M 42 49.75 C 32.059 49.75 24 46.896 24 43.375 L 24 54 L 24.034 54 C 24.582 57.346 32.415 60 42 60 C 51.585 60 59.418 57.346 59.966 54 L 60 54 L 60 43.375 C 60 46.896 51.941 49.75 42 49.75 Z " fill="rgb(74,134,232)"/><path d=" M 24 43 L 24 43.375 C 24 43.249 24.013 43.124 24.034 43 L 24 43 Z " fill="rgb(26,145,114)"/><path d=" M 59.966 43 C 59.987 43.124 60 43.249 60 43.375 L 60 43 L 59.966 43 Z " fill="rgb(26,145,114)"/></g><g><path d=" M 42 39 C 32.059 39 24 36.146 24 32.625 L 24 43.75 L 24.034 43.75 C 24.582 47.096 32.415 49.75 42 49.75 C 51.585 49.75 59.418 47.096 59.966 43.75 L 60 43.75 L 60 32.625 C 60 36.146 51.941 39 42 39 Z " fill="rgb(223,136,4)"/><path d=" M 24 32.25 L 24 32.625 C 24 32.499 24.013 32.374 24.034 32.25 L 24 32.25 Z " fill="rgb(37,174,136)"/><path d=" M 59.966 32.25 C 59.987 32.374 60 32.499 60 32.625 L 60 32.25 L 59.966 32.25 Z " fill="rgb(37,174,136)"/></g><ellipse vector-effect="non-scaling-stroke" cx="42" cy="22.375" rx="18" ry="6.375" fill="rgb(74,134,232)"/><g><path d=" M 42 28.75 C 32.059 28.75 24 25.896 24 22.375 L 24 33 L 24.034 33 C 24.582 36.346 32.415 39 42 39 C 51.585 39 59.418 36.346 59.966 33 L 60 33 L 60 22.375 C 60 25.896 51.941 28.75 42 28.75 Z " fill="rgb(255,153,0)"/><path d=" M 24 22 L 24 22.375 C 24 22.249 24.013 22.124 24.034 22 L 24 22 Z " fill="rgb(97,184,114)"/><path d=" M 59.966 22 C 59.987 22.124 60 22.249 60 22.375 L 60 22 L 59.966 22 Z " fill="rgb(97,184,114)"/></g></g></g></svg>