<?xml version="1.0" encoding="UTF-8" standalone="no"?><!-- Generator: Gravit.io --><svg xmlns="http://www.w3.org/2000/svg" xmlns:xlink="http://www.w3.org/1999/xlink" style="isolation:isolate" viewBox="0 0 60 60" width="60pt" height="60pt"><defs><clipPath id="_clipPath_z0L2dal6n07N40Ery3wM0EWFmyYZ38AI"><rect width="60" height="60"/></clipPath></defs><g clip-path="url(#_clipPath_z0L2dal6n07N40Ery3wM0EWFmyYZ38AI)"><rect width="60" height="60" style="fill:rgb(0,0,0)" fill-opacity="0"/><g><path d=" M 35 1 C 23.773 1 14.35 3.73 11.728 7.418 C 5.63 8.854 1.495 11.252 1.045 14 L 1.045 14 L 1 14 L 1 14.5 L 1 26 L 1 26.5 L 1 27 L 1 38 L 1 38.5 L 1 39 L 1 51 L 1.045 51 C 1.776 55.461 12.219 59 25 59 C 36.227 59 45.648 56.269 48.269 52.581 C 54.366 51.145 58.505 48.748 58.956 46 L 59 46 L 59 34 L 59 33.5 L 59 22 L 59 21.5 L 59 9.5 C 59 4.806 48.255 1 35 1 Z " fill="rgb(66,74,96)"/><g><path d=" M 25 47 C 11.745 47 1 43.194 1 38.5 L 1 51 L 1.045 51 C 1.776 55.461 12.219 59 25 59 C 37.781 59 48.224 55.461 48.955 51 L 49 51 L 49 38.5 C 49 43.194 38.255 47 25 47 Z " fill="rgb(255,153,0)"/><path d=" M 1 38 L 1 38.5 C 1 38.332 1.018 38.166 1.045 38 L 1 38 Z " fill="rgb(66,74,96)"/><path d=" M 48.955 38 C 48.982 38.166 49 38.332 49 38.5 L 49 38 L 48.955 38 Z " fill="rgb(66,74,96)"/></g><g><path d=" M 25 35 C 11.745 35 1 31.194 1 26.5 L 1 39 L 1.045 39 C 1.776 43.461 12.219 47 25 47 C 37.781 47 48.224 43.461 48.955 39 L 49 39 L 49 26.5 C 49 31.194 38.255 35 25 35 Z " fill="rgb(242,163,44)"/><path d=" M 1 26 L 1 26.5 C 1 26.332 1.018 26.166 1.045 26 L 1 26 Z " fill="rgb(85,96,128)"/><path d=" M 48.955 26 C 48.982 26.166 49 26.332 49 26.5 L 49 26 L 48.955 26 Z " fill="rgb(85,96,128)"/></g><ellipse vector-effect="non-scaling-stroke" cx="25" cy="14.500000000000004" rx="24" ry="8.5" fill="rgb(255,153,0)"/><g><path d=" M 25 23 C 11.745 23 1 19.194 1 14.5 L 1 27 L 1.045 27 C 1.776 31.461 12.219 35 25 35 C 37.781 35 48.224 31.461 48.955 27 L 49 27 L 49 14.5 C 49 19.194 38.255 23 25 23 Z " fill="rgb(244,180,84)"/><path d=" M 1 14 L 1 14.5 C 1 14.332 1.018 14.166 1.045 14 L 1 14 Z " fill="rgb(115,131,191)"/><path d=" M 48.955 14 C 48.982 14.166 49 14.332 49 14.5 L 49 14 L 48.955 14 Z " fill="rgb(115,131,191)"/></g><path d=" M 35 1 C 23.772 1 14.347 3.731 11.727 7.42 C 15.529 6.524 20.09 6 25 6 C 37.781 6 48.224 9.538 48.955 14 L 49 14 L 49 14.5 L 49 16.402 C 55.054 14.859 59 12.343 59 9.5 C 59 4.806 48.255 1 35 1 Z " fill="rgb(74,134,232)"/><path d=" M 49 16.402 L 49 26 L 49 26.5 L 49 27 L 49 28.403 C 54.696 26.951 58.523 24.637 58.955 22 L 59 22 L 59 9.5 C 59 12.343 55.054 14.859 49 16.402 Z " fill="rgb(126,169,238)"/><path d=" M 49 28.402 L 49 38 L 49 38.5 L 49 39 L 49 40.403 C 54.696 38.951 58.523 36.637 58.955 34 L 59 34 L 59 21.5 C 59 24.343 55.054 26.859 49 28.402 Z " fill="rgb(101,156,244)"/><path d=" M 49 40.402 L 49 51 L 48.955 51 C 48.866 51.542 48.631 52.071 48.268 52.581 C 54.365 51.145 58.504 48.748 58.955 46 L 59 46 L 59 33.5 C 59 36.343 55.054 38.859 49 40.402 Z " fill="rgb(74,134,232)"/></g></g></svg>