<?xml version="1.0" encoding="UTF-8" standalone="no"?><!-- Generator: Gravit.io --><svg xmlns="http://www.w3.org/2000/svg" xmlns:xlink="http://www.w3.org/1999/xlink" style="isolation:isolate" viewBox="3 8 45 58" width="45pt" height="58pt"><defs><clipPath id="_clipPath_9agjxD7ijt7M8bhDvNA8lcFigu8ZzZTB"><rect x="3" y="8" width="45" height="58"/></clipPath></defs><g clip-path="url(#_clipPath_9agjxD7ijt7M8bhDvNA8lcFigu8ZzZTB)"><rect x="3" y="8" width="45" height="58" style="fill:rgb(0,0,0)" fill-opacity="0"/><g><path d=" M 48 22 L 34 8 L 3 8 L 3 66 L 48 66 L 48 22 Z " fill="rgb(232,232,232)"/><path d=" M 34 8 L 34 22 L 48 22 L 34 8 Z " fill="rgb(209,209,209)"/><g><path d=" M 12 24 L 21 24 C 21.553 24 22 23.553 22 23 C 22 22.447 21.553 22 21 22 L 12 22 C 11.447 22 11 22.447 11 23 C 11 23.553 11.447 24 12 24 Z " fill="rgb(93,93,93)"/><path d=" M 12 32 L 17 32 C 17.553 32 18 31.553 18 31 C 18 30.447 17.553 30 17 30 L 12 30 C 11.447 30 11 30.447 11 31 C 11 31.553 11.447 32 12 32 Z " fill="rgb(93,93,93)"/><path d=" M 34 30 L 27 30 C 26.447 30 26 30.447 26 31 C 26 31.553 26.447 32 27 32 L 34 32 C 34.553 32 35 31.553 35 31 C 35 30.447 34.553 30 34 30 Z " fill="rgb(93,93,93)"/><path d=" M 21.29 30.3 C 21.1 30.48 21 30.739 21 31 C 21 31.26 21.1 31.52 21.29 31.71 C 21.479 31.89 21.74 32 22 32 C 22.26 32 22.52 31.899 22.71 31.7 C 22.89 31.519 23 31.26 23 31 C 23 30.739 22.89 30.479 22.71 30.29 C 22.33 29.92 21.66 29.92 21.29 30.3 Z " fill="rgb(93,93,93)"/><path d=" M 39.71 30.29 C 39.33 29.92 38.67 29.92 38.29 30.29 C 38.109 30.479 38 30.739 38 31 C 38 31.26 38.109 31.52 38.29 31.71 C 38.479 31.89 38.74 32 39 32 C 39.26 32 39.52 31.89 39.71 31.71 C 39.89 31.52 40 31.26 40 31 C 40 30.739 39.89 30.479 39.71 30.29 Z " fill="rgb(93,93,93)"/><path d=" M 24 38 L 17 38 C 16.447 38 16 38.447 16 39 C 16 39.553 16.447 40 17 40 L 24 40 C 24.553 40 25 39.553 25 39 C 25 38.447 24.553 38 24 38 Z " fill="rgb(93,93,93)"/><path d=" M 11.29 38.29 C 11.1 38.479 11 38.729 11 39 C 11 39.26 11.109 39.52 11.29 39.71 C 11.479 39.89 11.74 40 12 40 C 12.26 40 12.52 39.89 12.71 39.71 C 12.899 39.52 13 39.26 13 39 C 13 38.739 12.899 38.479 12.71 38.29 C 12.33 37.92 11.67 37.92 11.29 38.29 Z " fill="rgb(93,93,93)"/></g><g><path d=" M 15.145 47.166 C 12.954 48.307 12.217 50.487 11.949 52.748 C 11.535 52.401 11.121 52.055 10.708 51.708 C 9.727 50.886 8.304 52.293 9.294 53.123 C 10.229 53.906 11.165 54.69 12.1 55.474 C 12.762 56.029 13.776 55.685 13.807 54.767 C 13.88 52.6 13.984 50.024 16.155 48.894 C 17.299 48.298 16.287 46.572 15.145 47.166 Z " fill="rgb(74,134,232)"/><path d=" M 24.483 52.25 C 23.963 51.32 22.841 50.859 21.795 51.155 C 20.43 51.541 18.814 53.197 17.859 51.261 C 17.288 50.104 15.564 51.118 16.132 52.27 C 16.646 53.312 17.632 54.068 18.801 54.202 C 19.408 54.271 19.918 54.189 20.489 53.976 C 20.895 53.824 22.412 52.644 22.756 53.259 C 23.385 54.385 25.113 53.376 24.483 52.25 Z " fill="rgb(74,134,232)"/></g><path d=" M 36.545 37.09 L 36.545 37.09 C 36.871 38.005 37.916 38.439 38.794 38.021 L 38.794 38.021 C 40.187 37.359 41.641 38.812 40.979 40.206 L 40.979 40.206 C 40.562 41.083 40.995 42.129 41.91 42.455 L 41.91 42.455 C 43.364 42.972 43.364 45.028 41.91 45.545 L 41.91 45.545 C 40.995 45.871 40.561 46.916 40.979 47.794 L 40.979 47.794 C 41.641 49.187 40.188 50.641 38.794 49.979 L 38.794 49.979 C 37.917 49.562 36.871 49.995 36.545 50.91 L 36.545 50.91 C 36.028 52.364 33.972 52.364 33.455 50.91 L 33.455 50.91 C 33.129 49.995 32.084 49.561 31.206 49.979 L 31.206 49.979 C 29.813 50.641 28.359 49.188 29.021 47.794 L 29.021 47.794 C 29.438 46.917 29.005 45.871 28.09 45.545 L 28.09 45.545 C 26.636 45.028 26.636 42.972 28.09 42.455 L 28.09 42.455 C 29.005 42.129 29.439 41.084 29.021 40.206 L 29.021 40.206 C 28.359 38.813 29.812 37.359 31.206 38.021 L 31.206 38.021 C 32.083 38.438 33.129 38.005 33.455 37.09 L 33.455 37.09 C 33.972 35.637 36.028 35.637 36.545 37.09 Z " fill="rgb(253,194,0)"/><path d=" M 38.794 49.979 C 37.916 49.562 36.871 49.995 36.545 50.91 C 36.028 52.364 33.972 52.364 33.455 50.91 C 33.129 49.994 32.084 49.561 31.206 49.979 C 31.137 50.012 31.069 50.017 31 50.04 L 31 61 L 35 57 L 39 61 L 39 50.039 C 38.931 50.017 38.863 50.011 38.794 49.979 Z " fill="rgb(230,126,112)"/></g></g></svg>