<?xml version="1.0" encoding="UTF-8" standalone="no"?><!-- Generator: Gravit.io --><svg xmlns="http://www.w3.org/2000/svg" xmlns:xlink="http://www.w3.org/1999/xlink" style="isolation:isolate" viewBox="0 0 60 60" width="60pt" height="60pt"><defs><clipPath id="_clipPath_QMHHDC6OvilfgPMh9n5V5FVIt1l5zrnW"><rect width="60" height="60"/></clipPath></defs><g clip-path="url(#_clipPath_QMHHDC6OvilfgPMh9n5V5FVIt1l5zrnW)"><rect width="60" height="60" style="fill:rgb(0,0,0)" fill-opacity="0"/><g><mask id="_mask_kS6rzPkFKesFpCx6y1GENunVXfTSd1AB" x="-200%" y="-200%" width="400%" height="400%"><rect x="-200%" y="-200%" width="400%" height="400%" style="fill:white;"/><path d=" M 29.85 15.126 C 31.868 10.343 36.478 7.001 41.84 7.001 C 49.063 7.001 54.265 13.18 54.919 20.544 C 54.919 20.544 55.272 22.372 54.495 25.663 C 53.437 30.145 50.95 34.127 47.597 37.166 L 29.85 53 L 12.402 37.165 C 9.049 34.127 6.562 30.144 5.504 25.662 C 4.727 22.371 5.08 20.543 5.08 20.543 C 5.734 13.179 10.936 7 18.159 7 C 23.522 7 27.832 10.343 29.85 15.126 Z " fill="black" stroke="none"/></mask><path d=" M 29.85 15.126 C 31.868 10.343 36.478 7.001 41.84 7.001 C 49.063 7.001 54.265 13.18 54.919 20.544 C 54.919 20.544 55.272 22.372 54.495 25.663 C 53.437 30.145 50.95 34.127 47.597 37.166 L 29.85 53 L 12.402 37.165 C 9.049 34.127 6.562 30.144 5.504 25.662 C 4.727 22.371 5.08 20.543 5.08 20.543 C 5.734 13.179 10.936 7 18.159 7 C 23.522 7 27.832 10.343 29.85 15.126 Z " fill="rgb(240,149,149)" mask="url(#_mask_kS6rzPkFKesFpCx6y1GENunVXfTSd1AB)" vector-effect="non-scaling-stroke" stroke-width="2" stroke="rgb(255,0,0)" stroke-linejoin="miter" stroke-linecap="butt" stroke-miterlimit="4"/><path d=" M 29.85 15.126 C 31.868 10.343 36.478 7.001 41.84 7.001 C 49.063 7.001 54.265 13.18 54.919 20.544 C 54.919 20.544 55.272 22.372 54.495 25.663 C 53.437 30.145 50.95 34.127 47.597 37.166 L 29.85 53 L 12.402 37.165 C 9.049 34.127 6.562 30.144 5.504 25.662 C 4.727 22.371 5.08 20.543 5.08 20.543 C 5.734 13.179 10.936 7 18.159 7 C 23.522 7 27.832 10.343 29.85 15.126 Z " fill="rgb(240,149,149)"/><mask id="_mask_YtiEig3N2Q54ZIWQ7spoNF340bupRvIw" x="-200%" y="-200%" width="400%" height="400%"><rect x="-200%" y="-200%" width="400%" height="400%" style="fill:white;"/><path d=" M 41.841 7.001 C 36.601 7.001 32.088 10.196 30 14.804 L 30 16.078 L 23 23.078 L 38 25.078 L 26 36.078 L 34 41.078 L 30.1 52.777 L 47.598 37.166 C 50.951 34.128 53.438 30.145 54.496 25.663 C 55.273 22.372 54.92 20.544 54.92 20.544 C 54.266 13.18 49.064 7.001 41.841 7.001 Z " fill="black" stroke="none"/></mask><path d=" M 41.841 7.001 C 36.601 7.001 32.088 10.196 30 14.804 L 30 16.078 L 23 23.078 L 38 25.078 L 26 36.078 L 34 41.078 L 30.1 52.777 L 47.598 37.166 C 50.951 34.128 53.438 30.145 54.496 25.663 C 55.273 22.372 54.92 20.544 54.92 20.544 C 54.266 13.18 49.064 7.001 41.841 7.001 Z " fill="rgb(240,93,93)" mask="url(#_mask_YtiEig3N2Q54ZIWQ7spoNF340bupRvIw)" vector-effect="non-scaling-stroke" stroke-width="2" stroke="rgb(255,0,0)" stroke-linejoin="miter" stroke-linecap="butt" stroke-miterlimit="4"/><path d=" M 41.841 7.001 C 36.601 7.001 32.088 10.196 30 14.804 L 30 16.078 L 23 23.078 L 38 25.078 L 26 36.078 L 34 41.078 L 30.1 52.777 L 47.598 37.166 C 50.951 34.128 53.438 30.145 54.496 25.663 C 55.273 22.372 54.92 20.544 54.92 20.544 C 54.266 13.18 49.064 7.001 41.841 7.001 Z " fill="rgb(240,93,93)"/></g></g></svg>