<?xml version="1.0" encoding="UTF-8" standalone="no"?><!-- Generator: Gravit.io --><svg xmlns="http://www.w3.org/2000/svg" xmlns:xlink="http://www.w3.org/1999/xlink" style="isolation:isolate" viewBox="2 6 45 58" width="45pt" height="58pt"><defs><clipPath id="_clipPath_tVMbm2jI4zF4Knty6DOgW67QjZ3ADeYO"><rect x="2" y="6" width="45" height="58"/></clipPath></defs><g clip-path="url(#_clipPath_tVMbm2jI4zF4Knty6DOgW67QjZ3ADeYO)"><rect x="2" y="6" width="45" height="58" style="fill:rgb(0,0,0)" fill-opacity="0"/><g><path d=" M 47 20 L 33 6 L 2 6 L 2 64 L 47 64 L 47 20 Z " fill="rgb(232,232,232)"/><path d=" M 33 6 L 33 20 L 47 20 L 33 6 Z " fill="rgb(185,185,185)"/><g><path d=" M 11 22 L 20 22 C 20.552 22 21 21.553 21 21 C 21 20.447 20.552 20 20 20 L 11 20 C 10.448 20 10 20.447 10 21 C 10 21.553 10.448 22 11 22 Z " fill="rgb(93,93,93)"/><path d=" M 28 42 L 11 42 C 10.448 42 10 42.447 10 43 C 10 43.553 10.448 44 11 44 L 28 44 C 28.552 44 29 43.553 29 43 C 29 42.447 28.552 42 28 42 Z " fill="rgb(93,93,93)"/><path d=" M 38 35 L 31 35 C 30.448 35 30 35.447 30 36 C 30 36.553 30.448 37 31 37 L 38 37 C 38.552 37 39 36.553 39 36 C 39 35.447 38.552 35 38 35 Z " fill="rgb(93,93,93)"/><path d=" M 11 30 L 16 30 C 16.552 30 17 29.553 17 29 C 17 28.447 16.552 28 16 28 L 11 28 C 10.448 28 10 28.447 10 29 C 10 29.553 10.448 30 11 30 Z " fill="rgb(93,93,93)"/><path d=" M 26 30 L 33 30 C 33.552 30 34 29.553 34 29 C 34 28.447 33.552 28 33 28 L 26 28 C 25.448 28 25 28.447 25 29 C 25 29.553 25.448 30 26 30 Z " fill="rgb(93,93,93)"/><path d=" M 20 29 C 20 29.26 20.11 29.52 20.29 29.71 C 20.48 29.89 20.74 30 21 30 C 21.26 30 21.52 29.89 21.71 29.71 C 21.89 29.52 22 29.26 22 29 C 22 28.739 21.89 28.479 21.71 28.29 C 21.34 27.92 20.67 27.92 20.29 28.29 C 20.11 28.479 20 28.739 20 29 Z " fill="rgb(93,93,93)"/><path d=" M 16 35 C 15.448 35 15 35.447 15 36 C 15 36.553 15.448 37 16 37 L 26 37 C 26.552 37 27 36.553 27 36 C 27 35.447 26.552 35 26 35 L 16 35 Z " fill="rgb(93,93,93)"/><path d=" M 11 37 C 11.26 37 11.52 36.89 11.71 36.71 C 11.89 36.52 12 36.26 12 36 C 12 35.739 11.89 35.479 11.71 35.29 C 11.34 34.92 10.66 34.92 10.29 35.29 C 10.11 35.479 10 35.729 10 36 C 10 36.26 10.11 36.52 10.29 36.71 C 10.48 36.89 10.74 37 11 37 Z " fill="rgb(93,93,93)"/><path d=" M 38 49 L 31 49 C 30.448 49 30 49.447 30 50 C 30 50.553 30.448 51 31 51 L 38 51 C 38.552 51 39 50.553 39 50 C 39 49.447 38.552 49 38 49 Z " fill="rgb(93,93,93)"/><path d=" M 26 49 L 16 49 C 15.448 49 15 49.447 15 50 C 15 50.553 15.448 51 16 51 L 26 51 C 26.552 51 27 50.553 27 50 C 27 49.447 26.552 49 26 49 Z " fill="rgb(93,93,93)"/><path d=" M 10.29 49.29 C 10.11 49.47 10 49.729 10 50 C 10 50.27 10.1 50.52 10.29 50.71 C 10.48 50.89 10.74 51 11 51 C 11.27 51 11.52 50.89 11.71 50.71 C 11.89 50.52 12 50.26 12 50 C 12 49.729 11.89 49.479 11.71 49.3 C 11.34 48.92 10.67 48.92 10.29 49.29 Z " fill="rgb(93,93,93)"/><path d=" M 38 30 C 38.26 30 38.52 29.89 38.71 29.71 C 38.9 29.52 39 29.26 39 29 C 39 28.739 38.9 28.479 38.71 28.29 C 38.33 27.92 37.67 27.92 37.29 28.29 C 37.11 28.479 37 28.739 37 29 C 37 29.26 37.11 29.52 37.29 29.71 C 37.48 29.89 37.74 30 38 30 Z " fill="rgb(93,93,93)"/><path d=" M 33.71 43.71 C 33.89 43.52 34 43.26 34 43 C 34 42.739 33.89 42.479 33.71 42.29 C 33.33 41.92 32.66 41.92 32.29 42.29 C 32.11 42.479 32 42.739 32 43 C 32 43.26 32.11 43.52 32.29 43.71 C 32.48 43.899 32.73 44 33 44 C 33.27 44 33.52 43.89 33.71 43.71 Z " fill="rgb(93,93,93)"/><path d=" M 37.29 42.29 C 37.11 42.479 37 42.739 37 43 C 37 43.26 37.11 43.52 37.29 43.71 C 37.48 43.89 37.73 44 38 44 C 38.27 44 38.52 43.89 38.71 43.71 C 38.89 43.52 39 43.26 39 43 C 39 42.739 38.89 42.479 38.71 42.29 C 38.34 41.92 37.66 41.92 37.29 42.29 Z " fill="rgb(93,93,93)"/></g></g></g></svg>