<?xml version="1.0" encoding="UTF-8" standalone="no"?><!-- Generator: Gravit.io --><svg xmlns="http://www.w3.org/2000/svg" xmlns:xlink="http://www.w3.org/1999/xlink" style="isolation:isolate" viewBox="0 0 60 60" width="60pt" height="60pt"><defs><clipPath id="_clipPath_7oX8o9l2y92MKPayd7uSJvU1s51vJebQ"><rect width="60" height="60"/></clipPath></defs><g clip-path="url(#_clipPath_7oX8o9l2y92MKPayd7uSJvU1s51vJebQ)"><rect width="60" height="60" style="fill:rgb(0,0,0)" fill-opacity="0"/><g><path d=" M 42.97 5.715 C 46.095 2.591 51.16 2.591 54.284 5.715 C 57.409 8.839 57.409 13.905 54.284 17.029 L 42.97 5.715 Z " fill="rgb(247,106,106)"/><path d=" M 45.799 21.271 L 19.884 47.186 L 19.354 51.96 L 47.921 23.392 L 47.921 23.392 L 45.799 21.271 Z " fill="rgb(255,153,0)"/><path d=" M 13.697 46.302 L 18.47 45.772 L 44.384 19.857 L 40.143 15.615 L 14.227 41.529 L 13.697 46.302 Z " fill="rgb(255,153,0)"/><path d=" M 38.729 14.201 L 36.607 12.079 L 36.607 12.079 L 8.04 40.646 L 12.813 40.116 L 38.729 14.201 Z " fill="rgb(255,153,0)"/><path d=" M 52.162 19.15 L 52.162 19.15 L 54.284 17.029 L 42.97 5.715 L 40.848 7.837 L 40.849 7.837 L 52.162 19.15 Z " fill="rgb(209,209,209)"/><path d=" M 39.434 9.251 L 39.434 9.251 L 38.021 10.665 L 38.021 10.665 L 49.335 21.978 L 49.335 21.978 L 50.748 20.564 L 50.748 20.564 L 39.434 9.251 Z " fill="rgb(209,209,209)"/><path d=" M 7.334 52.665 C 6.943 52.274 6.311 52.274 5.92 52.665 L 3.814 54.771 L 3.372 56.628 L 5.228 56.186 L 7.334 54.079 C 7.724 53.689 7.724 53.056 7.334 52.665 Z " fill="rgb(46,46,46)"/><path d=" M 52.162 19.15 L 40.849 7.837 L 40.848 7.837 L 39.434 9.251 L 39.434 9.251 L 50.748 20.564 L 50.748 20.564 L 52.162 19.15 L 52.162 19.15 Z " fill="rgb(162,162,162)"/><path d=" M 44.384 19.857 L 18.47 45.772 L 13.697 46.302 L 14.227 41.529 L 40.143 15.615 L 38.729 14.201 L 12.813 40.116 L 8.04 40.646 L 6.907 41.779 L 6.679 42.736 C 6.754 42.754 6.826 42.778 6.906 42.778 C 6.942 42.778 6.98 42.776 7.017 42.772 L 12.139 42.203 L 11.57 47.325 C 11.566 47.363 11.58 47.398 11.58 47.435 C 11.58 47.473 11.566 47.507 11.57 47.545 C 11.574 47.578 11.591 47.605 11.598 47.637 C 11.61 47.694 11.627 47.749 11.648 47.802 C 11.674 47.866 11.705 47.926 11.743 47.982 C 11.773 48.027 11.806 48.07 11.843 48.11 C 11.89 48.159 11.943 48.204 12 48.244 C 12.044 48.274 12.089 48.305 12.138 48.328 C 12.203 48.359 12.273 48.378 12.345 48.395 C 12.383 48.404 12.414 48.425 12.453 48.43 C 12.489 48.433 12.525 48.436 12.562 48.436 L 12.563 48.436 L 12.563 48.436 L 12.564 48.436 L 12.565 48.436 C 12.565 48.436 12.566 48.436 12.566 48.436 L 12.566 48.436 C 12.601 48.436 12.638 48.433 12.675 48.43 L 17.797 47.86 L 17.228 52.982 C 17.216 53.101 17.232 53.212 17.258 53.321 L 18.221 53.092 L 19.354 51.96 L 19.884 47.187 L 45.799 21.272 L 44.384 19.857 Z " fill="rgb(74,134,232)"/><path d=" M 49.335 21.978 L 38.021 10.665 L 38.021 10.665 L 36.607 12.079 L 36.607 12.079 L 38.729 14.201 L 40.143 15.615 L 44.384 19.857 L 45.799 21.271 L 47.921 23.392 L 47.921 23.392 L 49.335 21.978 L 49.335 21.978 Z " fill="rgb(162,162,162)"/><path d=" M 17.796 47.86 L 12.674 48.43 C 12.638 48.433 12.601 48.436 12.565 48.436 C 12.565 48.436 12.564 48.436 12.564 48.436 L 12.564 48.436 L 12.564 48.436 C 12.563 48.436 12.563 48.436 12.563 48.436 C 12.527 48.436 12.49 48.433 12.454 48.43 C 12.415 48.426 12.383 48.403 12.346 48.395 C 12.274 48.378 12.205 48.36 12.139 48.328 C 12.089 48.304 12.046 48.275 12.001 48.244 C 11.944 48.204 11.892 48.161 11.844 48.11 C 11.806 48.07 11.775 48.028 11.744 47.982 C 11.706 47.925 11.675 47.866 11.649 47.802 C 11.627 47.747 11.611 47.695 11.599 47.637 C 11.592 47.605 11.575 47.578 11.571 47.545 C 11.567 47.507 11.581 47.472 11.581 47.435 C 11.581 47.397 11.567 47.363 11.571 47.325 L 12.14 42.203 L 7.018 42.772 C 6.981 42.776 6.943 42.778 6.907 42.778 C 6.828 42.778 6.755 42.754 6.68 42.736 L 3.814 54.771 L 5.92 52.665 C 6.311 52.274 6.943 52.274 7.334 52.665 C 7.725 53.056 7.725 53.689 7.334 54.079 L 5.228 56.186 L 17.258 53.322 C 17.232 53.213 17.215 53.1 17.228 52.983 L 17.796 47.86 Z " fill="rgb(251,206,157)"/></g></g></svg>