<?xml version="1.0" encoding="UTF-8" standalone="no"?><!-- Generator: Gravit.io --><svg xmlns="http://www.w3.org/2000/svg" xmlns:xlink="http://www.w3.org/1999/xlink" style="isolation:isolate" viewBox="333.9 252.635 58.018 58" width="58.018pt" height="58pt"><defs><clipPath id="_clipPath_K88ypOfZKPjq9ItAKuX7AI3mH8pzTpLp"><rect x="333.9" y="252.635" width="58.018" height="58"/></clipPath></defs><g clip-path="url(#_clipPath_K88ypOfZKPjq9ItAKuX7AI3mH8pzTpLp)"><g><path d=" M 358.092 292.118 L 350.314 294.239 L 352.436 286.461 L 382.262 256.635 L 333.9 256.635 L 333.9 310.635 L 387.9 310.635 L 387.9 262.311 L 358.092 292.118 Z " fill="rgb(232,232,232)"/><path d=" M 352.616 291.937 C 353.007 292.328 353.007 292.96 352.616 293.351 L 352.258 293.709 L 358.051 292.129 L 352.424 286.502 L 350.844 292.294 L 351.202 291.936 C 351.593 291.546 352.226 291.546 352.616 291.937 Z " fill="rgb(244,218,112)"/><path d=" M 352.258 293.709 L 352.616 293.351 C 353.007 292.96 353.007 292.328 352.616 291.937 C 352.225 291.546 351.593 291.546 351.202 291.937 L 350.844 292.295 L 350.314 294.239 L 352.258 293.709 Z " fill="rgb(70,70,70)"/><path d=" M 384.962 265.248 L 379.306 259.591 L 352.436 286.461 L 352.424 286.502 L 358.051 292.129 L 358.092 292.118 L 384.962 265.248 Z " fill="rgb(255,153,0)"/><path d=" M 391.337 256.066 L 388.487 253.216 C 387.712 252.441 386.455 252.441 385.68 253.216 L 382.134 256.762 L 387.791 262.419 L 391.337 258.873 C 392.112 258.098 392.112 256.841 391.337 256.066 Z " fill="rgb(237,113,97)"/><rect x="378.72" y="258.178" width="4" height="0" transform="matrix(NaN,NaN,NaN,NaN,NaN,NaN)" fill="rgb(247,230,161)"/><rect x="379.548" y="259.004" width="8" height="4" transform="matrix(0.707,0.707,-0.707,0.707,296.897,-194.763)" fill="rgb(74,134,232)"/></g></g></svg>