<?xml version="1.0" encoding="UTF-8" standalone="no"?><!-- Generator: Gravit.io --><svg xmlns="http://www.w3.org/2000/svg" xmlns:xlink="http://www.w3.org/1999/xlink" style="isolation:isolate" viewBox="0 0 60 60" width="60pt" height="60pt"><defs><clipPath id="_clipPath_KtYZt5PMX3YRAfl4mKtRFZGktxvAibOc"><rect width="60" height="60"/></clipPath></defs><g clip-path="url(#_clipPath_KtYZt5PMX3YRAfl4mKtRFZGktxvAibOc)"><rect width="60" height="60" style="fill:rgb(0,0,0)" fill-opacity="0"/><g><circle vector-effect="non-scaling-stroke" cx="30" cy="29.999999999999996" r="29" fill="rgb(255,153,0)"/><g><path d=" M 30 12 L 45 34 L 30.273 34 L 15 34 L 30 12 Z " fill="rgb(74,134,232)"/><path d=" M 45.02 35 C 45.016 35 45.008 35.001 45 35 L 15 35 C 14.629 35 14.289 34.795 14.116 34.467 C 13.942 34.14 13.965 33.743 14.174 33.437 L 29.174 11.437 C 29.547 10.89 30.453 10.89 30.826 11.437 L 45.73 33.297 C 45.909 33.478 46.019 33.726 46.019 34 C 46.02 34.553 45.572 35 45.02 35 Z  M 16.893 33 L 43.108 33 L 30 13.775 L 16.893 33 Z " fill="rgb(74,134,232)"/></g><g><rect x="15" y="39" width="30" height="5" transform="matrix(1,0,0,1,0,0)" fill="rgb(74,134,232)"/><path d=" M 46 45 L 14 45 L 14 38 L 46 38 L 46 45 Z  M 16 43 L 44 43 L 44 40 L 16 40 L 16 43 Z " fill="rgb(74,134,232)"/></g></g></g></svg>