<?xml version="1.0" encoding="UTF-8" standalone="no"?><!-- Generator: Gravit.io --><svg xmlns="http://www.w3.org/2000/svg" xmlns:xlink="http://www.w3.org/1999/xlink" style="isolation:isolate" viewBox="0 0 60 60" width="60pt" height="60pt"><defs><clipPath id="_clipPath_2Z7Vlo3ZpAMf8ZBadUsVI1eX5CG17Zdt"><rect width="60" height="60"/></clipPath></defs><g clip-path="url(#_clipPath_2Z7Vlo3ZpAMf8ZBadUsVI1eX5CG17Zdt)"><rect width="60" height="60" style="fill:rgb(0,0,0)" fill-opacity="0"/><g><path d=" M 46.059 17 L 35 17 L 25 17 L 13.941 17 C 11.224 17 9 19.282 9 22 C 9 24.718 11.224 27 13.941 27 L 25 27 L 35 27 L 46.059 27 C 48.776 27 51 24.718 51 22 C 51 19.282 48.776 17 46.059 17 Z " fill="rgb(255,153,0)"/><path d=" M 46.059 33 L 35 33 L 25 33 L 13.941 33 C 11.224 33 9 35.282 9 38 C 9 40.718 11.224 43 13.941 43 L 25 43 L 35 43 L 46.059 43 C 48.776 43 51 40.718 51 38 C 51 35.282 48.776 33 46.059 33 Z " fill="rgb(255,153,0)"/></g></g></svg>