<?xml version="1.0" encoding="UTF-8" standalone="no"?><!-- Generator: Gravit.io --><svg xmlns="http://www.w3.org/2000/svg" xmlns:xlink="http://www.w3.org/1999/xlink" style="isolation:isolate" viewBox="0 0 60 60" width="60pt" height="60pt"><defs><clipPath id="_clipPath_6janLKoxYjFkcrn95ent29iuWJ10U3hx"><rect width="60" height="60"/></clipPath></defs><g clip-path="url(#_clipPath_6janLKoxYjFkcrn95ent29iuWJ10U3hx)"><rect width="60" height="60" style="fill:rgb(0,0,0)" fill-opacity="0"/><g><circle vector-effect="non-scaling-stroke" cx="29.999999999999996" cy="30" r="25" fill="rgb(255,153,0)"/><mask id="_mask_EO8uofA43hSkiUKd02beTyj5kMKhXsrm" x="-200%" y="-200%" width="400%" height="400%"><rect x="-200%" y="-200%" width="400%" height="400%" style="fill:white;"/><path d=" M 21 39 L 30 30 L 39 21" fill="black" stroke="none"/></mask><path d=" M 21 39 L 30 30 L 39 21" fill="none" mask="url(#_mask_EO8uofA43hSkiUKd02beTyj5kMKhXsrm)" vector-effect="non-scaling-stroke" stroke-width="8" stroke="rgb(255,255,255)" stroke-linejoin="miter" stroke-linecap="round" stroke-miterlimit="10"/><path d=" M 21 39 L 30 30 L 39 21" fill="none"/><mask id="_mask_vt5M0SI1txUOfG9cXkjjrRCJtWoOTIY8" x="-200%" y="-200%" width="400%" height="400%"><rect x="-200%" y="-200%" width="400%" height="400%" style="fill:white;"/><path d=" M 21 21 L 30 30 L 39 39" fill="black" stroke="none"/></mask><path d=" M 21 21 L 30 30 L 39 39" fill="none" mask="url(#_mask_vt5M0SI1txUOfG9cXkjjrRCJtWoOTIY8)" vector-effect="non-scaling-stroke" stroke-width="8" stroke="rgb(255,255,255)" stroke-linejoin="miter" stroke-linecap="round" stroke-miterlimit="10"/><path d=" M 21 21 L 30 30 L 39 39" fill="none"/></g></g></svg>