<?xml version="1.0" encoding="UTF-8" standalone="no"?><!-- Generator: Gravit.io --><svg xmlns="http://www.w3.org/2000/svg" xmlns:xlink="http://www.w3.org/1999/xlink" style="isolation:isolate" viewBox="247 370.375 60 22" width="60pt" height="22pt"><defs><clipPath id="_clipPath_BZhpFkqWTwaQoUhIS774c52gSs8q33rd"><rect x="247" y="370.375" width="60" height="22"/></clipPath></defs><g clip-path="url(#_clipPath_BZhpFkqWTwaQoUhIS774c52gSs8q33rd)"><g><path d=" M 273 381.375 C 273 387.45 268.187 392.375 262.072 392.375 C 255.957 392.375 251 387.45 251 381.375 C 251 375.3 255.957 370.375 262.072 370.375 C 268.187 370.375 273 375.3 273 381.375 Z " fill="rgb(255,153,0)"/><path d=" M 303 381.375 C 303 387.45 298.187 392.375 292.072 392.375 C 285.957 392.375 281 387.45 281 381.375 C 281 375.3 285.957 370.375 292.072 370.375 C 298.187 370.375 303 375.3 303 381.375 Z " fill="rgb(255,153,0)"/><path d=" M 281 381.375 C 279.832 379.483 278.264 378.598 276.721 378.719 C 275.364 378.826 274.027 379.711 273 381.375" fill="none" vector-effect="non-scaling-stroke" stroke-width="2" stroke="rgb(74,134,232)" stroke-linejoin="round" stroke-linecap="round" stroke-miterlimit="10"/><line x1="251" y1="381.375" x2="248" y2="381.375" vector-effect="non-scaling-stroke" stroke-width="2" stroke="rgb(74,134,232)" stroke-linejoin="round" stroke-linecap="round" stroke-miterlimit="10"/><line x1="303" y1="380.375" x2="306" y2="380.375" vector-effect="non-scaling-stroke" stroke-width="2" stroke="rgb(74,134,232)" stroke-linejoin="round" stroke-linecap="round" stroke-miterlimit="10"/></g></g></svg>