<?xml version="1.0" encoding="UTF-8" standalone="no"?><!-- Generator: Gravit.io --><svg xmlns="http://www.w3.org/2000/svg" xmlns:xlink="http://www.w3.org/1999/xlink" style="isolation:isolate" viewBox="0 0 60 60" width="60pt" height="60pt"><defs><clipPath id="_clipPath_6p11aDFZHrnF8Ckx0zhrqlTgUST0z6rh"><rect width="60" height="60"/></clipPath></defs><g clip-path="url(#_clipPath_6p11aDFZHrnF8Ckx0zhrqlTgUST0z6rh)"><rect width="60" height="60" style="fill:rgb(0,0,0)" fill-opacity="0"/><g><circle vector-effect="non-scaling-stroke" cx="30" cy="30" r="29" fill="rgb(255,153,0)"/><g><path d=" M 55 30 L 33 45 L 33 30.273 L 33 15 L 55 30 Z " fill="rgb(74,134,232)"/><path d=" M 33 46 C 32.84 46 32.68 45.962 32.533 45.884 C 32.205 45.711 32 45.371 32 45 L 32 15 C 32 14.629 32.205 14.289 32.533 14.116 C 32.86 13.942 33.258 13.966 33.563 14.174 L 55.563 29.174 C 55.837 29.36 56 29.669 56 30 C 56 30.331 55.837 30.64 55.563 30.826 L 33.563 45.826 C 33.395 45.941 33.197 46 33 46 Z  M 34 16.893 L 34 43.108 L 53.225 30 L 34 16.893 Z " fill="rgb(74,134,232)"/></g><g><path d=" M 33 30 L 11 45 L 11 30.273 L 11 15 L 33 30 Z " fill="rgb(74,134,232)"/><path d=" M 11 46 C 10.84 46 10.68 45.962 10.533 45.884 C 10.205 45.711 10 45.371 10 45 L 10 15 C 10 14.629 10.205 14.289 10.533 14.116 C 10.86 13.942 11.258 13.966 11.563 14.174 L 33.563 29.174 C 33.837 29.36 34 29.669 34 30 C 34 30.331 33.837 30.64 33.563 30.826 L 11.563 45.826 C 11.395 45.941 11.197 46 11 46 Z  M 12 16.893 L 12 43.108 L 31.225 30 L 12 16.893 Z " fill="rgb(74,134,232)"/></g></g></g></svg>