<?xml version="1.0" encoding="UTF-8" standalone="no"?><!-- Generator: Gravit.io --><svg xmlns="http://www.w3.org/2000/svg" xmlns:xlink="http://www.w3.org/1999/xlink" style="isolation:isolate" viewBox="0 0 60 60" width="60pt" height="60pt"><defs><clipPath id="_clipPath_oBZ982cC7ToADNpbRHPNpb77hpC7HXEM"><rect width="60" height="60"/></clipPath></defs><g clip-path="url(#_clipPath_oBZ982cC7ToADNpbRHPNpb77hpC7HXEM)"><rect width="60" height="60" style="fill:rgb(0,0,0)" fill-opacity="0"/><g><path d=" M 50 36 L 50 53 L 53 53 L 53 50 L 59 50 L 59 18 L 1 18 L 1 50 L 7 50 L 7 53 L 10 53 L 10 36 L 50 36 Z " fill="rgb(116,116,116)"/><rect x="7" y="42" width="46" height="11" transform="matrix(1,0,0,1,0,0)" fill="rgb(70,70,70)"/><rect x="1" y="18" width="58" height="18" transform="matrix(1,0,0,1,0,0)" fill="rgb(70,70,70)"/><path d=" M 50 1 L 50 8 L 50 18 L 10 18 L 10 1 L 50 1 Z " fill="rgb(232,232,232)"/><circle vector-effect="non-scaling-stroke" cx="50" cy="26.999999999999996" r="4" fill="rgb(12,149,12)"/><path d=" M 36 9 L 18 9 C 17.447 9 17 8.553 17 8 C 17 7.447 17.447 7 18 7 L 36 7 C 36.553 7 37 7.447 37 8 C 37 8.553 36.553 9 36 9 Z " fill="rgb(139,139,139)"/><path d=" M 42 14 L 18 14 C 17.447 14 17 13.553 17 13 C 17 12.447 17.447 12 18 12 L 42 12 C 42.553 12 43 12.447 43 13 C 43 13.553 42.553 14 42 14 Z " fill="rgb(139,139,139)"/><path d=" M 9 24 L 6 24 C 5.447 24 5 23.553 5 23 C 5 22.447 5.447 22 6 22 L 9 22 C 9.553 22 10 22.447 10 23 C 10 23.553 9.553 24 9 24 Z " fill="rgb(255,153,0)"/><path d=" M 9 28 L 6 28 C 5.447 28 5 27.553 5 27 C 5 26.447 5.447 26 6 26 L 9 26 C 9.553 26 10 26.447 10 27 C 10 27.553 9.553 28 9 28 Z " fill="rgb(255,153,0)"/><path d=" M 9 32 L 6 32 C 5.447 32 5 31.553 5 31 C 5 30.447 5.447 30 6 30 L 9 30 C 9.553 30 10 30.447 10 31 C 10 31.553 9.553 32 9 32 Z " fill="rgb(255,153,0)"/><path d=" M 16 24 L 13 24 C 12.447 24 12 23.553 12 23 C 12 22.447 12.447 22 13 22 L 16 22 C 16.553 22 17 22.447 17 23 C 17 23.553 16.553 24 16 24 Z " fill="rgb(255,153,0)"/><path d=" M 16 28 L 13 28 C 12.447 28 12 27.553 12 27 C 12 26.447 12.447 26 13 26 L 16 26 C 16.553 26 17 26.447 17 27 C 17 27.553 16.553 28 16 28 Z " fill="rgb(255,153,0)"/><path d=" M 16 32 L 13 32 C 12.447 32 12 31.553 12 31 C 12 30.447 12.447 30 13 30 L 16 30 C 16.553 30 17 30.447 17 31 C 17 31.553 16.553 32 16 32 Z " fill="rgb(255,153,0)"/><path d=" M 23 24 L 20 24 C 19.447 24 19 23.553 19 23 C 19 22.447 19.447 22 20 22 L 23 22 C 23.553 22 24 22.447 24 23 C 24 23.553 23.553 24 23 24 Z " fill="rgb(255,153,0)"/><path d=" M 23 28 L 20 28 C 19.447 28 19 27.553 19 27 C 19 26.447 19.447 26 20 26 L 23 26 C 23.553 26 24 26.447 24 27 C 24 27.553 23.553 28 23 28 Z " fill="rgb(255,153,0)"/><path d=" M 23 32 L 20 32 C 19.447 32 19 31.553 19 31 C 19 30.447 19.447 30 20 30 L 23 30 C 23.553 30 24 30.447 24 31 C 24 31.553 23.553 32 23 32 Z " fill="rgb(255,153,0)"/><rect x="10" y="36" width="40" height="23" transform="matrix(1,0,0,1,0,0)" fill="rgb(232,232,232)"/><path d=" M 42 45 L 18 45 C 17.447 45 17 44.553 17 44 C 17 43.447 17.447 43 18 43 L 42 43 C 42.553 43 43 43.447 43 44 C 43 44.553 42.553 45 42 45 Z " fill="rgb(139,139,139)"/><path d=" M 42 50 L 18 50 C 17.447 50 17 49.553 17 49 C 17 48.447 17.447 48 18 48 L 42 48 C 42.553 48 43 48.447 43 49 C 43 49.553 42.553 50 42 50 Z " fill="rgb(139,139,139)"/><path d=" M 50 16 L 50 16.824 L 50 18 L 10 18 L 10 16 L 50 16 Z " fill="rgb(232,232,232)"/></g></g></svg>