<?xml version="1.0" encoding="UTF-8" standalone="no"?><!-- Generator: Gravit.io --><svg xmlns="http://www.w3.org/2000/svg" xmlns:xlink="http://www.w3.org/1999/xlink" style="isolation:isolate" viewBox="-1 5 47 59" width="47pt" height="59pt"><defs><clipPath id="_clipPath_REBT8NGNfYwZwwmcn5T1XAX0WghetlkV"><rect x="-1" y="5" width="47" height="59"/></clipPath></defs><g clip-path="url(#_clipPath_REBT8NGNfYwZwwmcn5T1XAX0WghetlkV)"><rect x="-1" y="5" width="47" height="59" style="fill:rgb(0,0,0)" fill-opacity="0"/><g><path d=" M 42 25 L 27 10 L 4 10 L 4 60 L 42 60 L 42 25 Z " fill="rgb(232,232,232)"/><circle vector-effect="non-scaling-stroke" cx="24.452999999999996" cy="42.452999999999996" r="10.827999999999996" fill="rgb(255,255,255)" stroke-width="2" stroke="rgb(74,134,232)" stroke-linejoin="miter" stroke-linecap="round" stroke-miterlimit="10"/><line x1="32.244" y1="50.244" x2="45" y2="63" vector-effect="non-scaling-stroke" stroke-width="2" stroke="rgb(74,134,232)" stroke-linejoin="miter" stroke-linecap="round" stroke-miterlimit="10"/><path d=" M 24.625 40 L 18.625 40 C 18.072 40 17.625 39.553 17.625 39 C 17.625 38.447 18.072 38 18.625 38 L 24.625 38 C 25.178 38 25.625 38.447 25.625 39 C 25.625 39.553 25.178 40 24.625 40 Z " fill="rgb(116,116,116)"/><path d=" M 30.625 46 L 18.625 46 C 18.072 46 17.625 45.553 17.625 45 C 17.625 44.447 18.072 44 18.625 44 L 30.625 44 C 31.178 44 31.625 44.447 31.625 45 C 31.625 45.553 31.178 46 30.625 46 Z " fill="rgb(116,116,116)"/><path d=" M 4 10 L 27 10 L 37 20 L 37 5 L -1 5 L -1 55 L 4 55 L 4 10 Z " fill="rgb(209,209,209)"/><path d=" M 41.712 25 L 27 25 L 27 10.288 C 27 10.182 27.129 10.128 27.204 10.204 L 41.796 24.796 C 41.871 24.871 41.818 25 41.712 25 Z " fill="rgb(185,185,185)"/></g></g></svg>