<?xml version="1.0" encoding="UTF-8" standalone="no"?><!-- Generator: Gravit.io --><svg xmlns="http://www.w3.org/2000/svg" xmlns:xlink="http://www.w3.org/1999/xlink" style="isolation:isolate" viewBox="0 0 60 60" width="60pt" height="60pt"><defs><clipPath id="_clipPath_1mnYMqRBD0169aK5bGV51p7HCQUX76ep"><rect width="60" height="60"/></clipPath></defs><g clip-path="url(#_clipPath_1mnYMqRBD0169aK5bGV51p7HCQUX76ep)"><rect width="60" height="60" style="fill:rgb(0,0,0)" fill-opacity="0"/><g><g><path d=" M 29.584 26.539 C 29.054 26.693 28.748 27.247 28.901 27.778 C 28.928 27.871 31.598 37.369 30.863 58.465 C 30.843 59.018 31.275 59.481 31.827 59.499 C 31.839 59.5 31.851 59.5 31.863 59.5 C 32.399 59.5 32.842 59.075 32.861 58.534 C 33.608 37.12 30.936 27.615 30.823 27.221 C 30.67 26.691 30.117 26.389 29.584 26.539 Z " fill="rgb(255,153,0)"/><path d=" M 54.729 16.98 C 50.493 6.97 40.733 0.501 29.863 0.501 C 26.276 0.501 22.778 1.202 19.467 2.584 C 17.633 3.349 15.9 4.259 14.316 5.288 C 13.853 5.59 13.721 6.209 14.022 6.672 C 14.324 7.135 14.944 7.267 15.406 6.966 C 16.889 6.002 18.514 5.149 20.237 4.43 C 23.304 3.149 26.542 2.501 29.863 2.501 C 39.927 2.501 48.965 8.49 52.886 17.76 C 54.516 21.614 55.397 28.71 55.777 32.598 C 55.828 33.115 56.262 33.5 56.771 33.5 C 56.803 33.5 56.836 33.498 56.87 33.495 C 57.419 33.441 57.821 32.952 57.767 32.402 C 57.29 27.516 56.376 20.873 54.729 16.98 Z " fill="rgb(255,153,0)"/><path d=" M 11.352 10.212 C 11.746 9.825 11.749 9.191 11.362 8.798 C 10.975 8.405 10.342 8.401 9.948 8.788 C 4.57 14.086 -0.787 23.939 4.231 40.785 C 4.36 41.22 4.757 41.5 5.189 41.5 C 5.283 41.5 5.379 41.486 5.474 41.458 C 6.003 41.301 6.305 40.744 6.147 40.215 C 2.4 27.633 4.199 17.259 11.352 10.212 Z " fill="rgb(255,153,0)"/><path d=" M 30.631 6.515 C 27.571 6.396 24.593 6.947 21.778 8.121 C 11.972 12.212 6.758 22.995 9.651 33.205 C 9.94 34.226 10.236 35.312 10.395 36.394 C 10.753 38.843 10.772 43.35 10.772 50.499 C 10.772 51.052 11.219 51.499 11.772 51.499 C 12.325 51.499 12.772 51.052 12.772 50.499 C 12.772 43.041 12.753 38.695 12.374 36.103 C 12.198 34.901 11.883 33.743 11.575 32.659 C 8.958 23.423 13.675 13.667 22.548 9.966 C 25.096 8.903 27.807 8.42 30.56 8.512 C 37.671 8.768 45.731 15.036 48.162 22.201 C 50.266 28.4 50.284 38.961 50.023 48.472 C 50.008 49.024 50.444 49.484 50.996 49.499 C 51.538 49.489 52.008 49.08 52.023 48.526 C 52.288 38.837 52.261 28.055 50.056 21.557 C 47.339 13.55 38.625 6.801 30.631 6.515 Z " fill="rgb(255,153,0)"/><path d=" M 22.436 16.838 C 22.888 16.521 22.998 15.897 22.68 15.445 C 22.364 14.993 21.739 14.882 21.287 15.201 C 16.137 18.817 13.899 25.764 15.722 32.496 C 15.743 32.569 17.773 39.958 17.773 51.5 C 17.773 52.053 18.22 52.5 18.773 52.5 C 19.326 52.5 19.773 52.053 19.773 51.5 C 19.773 39.687 17.735 32.268 17.65 31.965 C 16.049 26.051 17.973 19.972 22.436 16.838 Z " fill="rgb(255,153,0)"/><path d=" M 29.863 12.501 C 28.776 12.501 27.694 12.618 26.645 12.85 C 26.106 12.969 25.765 13.502 25.884 14.042 C 26.003 14.581 26.53 14.915 27.076 14.803 C 27.983 14.603 28.921 14.501 29.862 14.501 C 35.095 14.501 39.795 17.615 41.834 22.436 C 44.264 28.176 44.423 37.389 43.862 53.465 C 43.842 54.017 44.274 54.481 44.826 54.499 C 44.838 54.5 44.85 54.5 44.862 54.5 C 45.398 54.5 45.841 54.075 45.86 53.534 C 46.444 36.811 46.266 27.776 43.675 21.655 C 41.324 16.095 35.902 12.501 29.863 12.501 Z " fill="rgb(255,153,0)"/><path d=" M 39.773 48.507 C 39.777 47.954 39.333 47.504 38.78 47.5 C 38.778 47.5 38.775 47.5 38.773 47.5 C 38.224 47.5 37.777 47.943 37.773 48.493 C 37.768 49.245 37.793 50.343 37.82 51.529 C 37.859 53.254 37.903 55.209 37.86 56.466 C 37.84 57.018 38.272 57.481 38.825 57.499 C 38.837 57.5 38.848 57.5 38.86 57.5 C 39.396 57.5 39.839 57.075 39.858 56.534 C 39.904 55.221 39.859 53.235 39.819 51.483 C 39.792 50.321 39.768 49.244 39.773 48.507 Z " fill="rgb(255,153,0)"/><path d=" M 29.863 19.501 C 28.801 19.501 27.765 19.709 26.782 20.119 C 22.89 21.743 20.999 26.134 22.382 30.333 C 23.136 32.622 23.773 44.605 23.773 56.5 C 23.773 57.053 24.22 57.5 24.773 57.5 C 25.326 57.5 25.773 57.053 25.773 56.5 C 25.773 45.793 25.203 32.505 24.283 29.708 C 23.229 26.511 24.636 23.182 27.553 21.965 C 28.29 21.657 29.067 21.501 29.863 21.501 C 32.278 21.501 34.447 22.939 35.392 25.171 C 37.259 29.59 37.814 37.59 37.95 43.524 C 37.963 44.068 38.408 44.501 38.95 44.501 C 38.957 44.501 38.966 44.501 38.973 44.501 C 39.525 44.488 39.962 44.03 39.95 43.478 C 39.809 37.372 39.224 29.103 37.23 24.385 C 35.976 21.418 33.084 19.501 29.863 19.501 Z " fill="rgb(255,153,0)"/></g></g></g></svg>