<?xml version="1.0" encoding="UTF-8" standalone="no"?><!-- Generator: Gravit.io --><svg xmlns="http://www.w3.org/2000/svg" xmlns:xlink="http://www.w3.org/1999/xlink" style="isolation:isolate" viewBox="0 0 60 60" width="60pt" height="60pt"><defs><clipPath id="_clipPath_nk78CmCX7x411INR8V0pNlQ7lj4YPVoj"><rect width="60" height="60"/></clipPath></defs><g clip-path="url(#_clipPath_nk78CmCX7x411INR8V0pNlQ7lj4YPVoj)"><rect width="60" height="60" style="fill:rgb(0,0,0)" fill-opacity="0"/><g><path d=" M 33 4.074 C 24.833 8.407 10 4.074 10 4.074 L 10 34.074 C 10 34.074 24.833 38.407 33 34.074 C 41.167 29.741 52 34.074 52 34.074 L 52 4.074 C 52 4.074 41.167 -0.259 33 4.074 Z " fill="rgb(255,153,0)"/><path d=" M 9 0 C 8.448 0 8 0.447 8 1 L 8 4 L 8 59 C 8 59.553 8.448 60 9 60 C 9.552 60 10 59.553 10 59 L 10 4 L 10 1 C 10 0.447 9.552 0 9 0 Z " fill="rgb(74,134,232)"/><path d=" M 36 2.879 C 34.978 3.171 33.97 3.56 33 4.075 C 29.901 5.719 25.844 6.114 22 5.973 L 22 35.973 C 25.844 36.114 29.901 35.719 33 34.075 C 33.97 33.56 34.978 33.171 36 32.879 L 36 2.879 Z " fill="rgb(247,173,63)"/></g></g></svg>