<?xml version="1.0" encoding="UTF-8" standalone="no"?><!-- Generator: Gravit.io --><svg xmlns="http://www.w3.org/2000/svg" xmlns:xlink="http://www.w3.org/1999/xlink" style="isolation:isolate" viewBox="0 0 60 60" width="60pt" height="60pt"><defs><clipPath id="_clipPath_WbcY0TXSnHkzBAazNDdnejvZDh9Ilfov"><rect width="60" height="60"/></clipPath></defs><g clip-path="url(#_clipPath_WbcY0TXSnHkzBAazNDdnejvZDh9Ilfov)"><g><path d=" M 47 50 C 47 55.527 51.473 60 57 60" fill="none" vector-effect="non-scaling-stroke" stroke-width="2" stroke="rgb(255,153,0)" stroke-linejoin="miter" stroke-linecap="round" stroke-miterlimit="10"/><path d=" M 28 19 C 25.894 19 23.917 19.546 22.196 20.499 C 22.863 23.086 25.205 25 28 25 C 30.795 25 33.137 23.086 33.804 20.499 C 32.083 19.546 30.106 19 28 19 Z " fill="rgb(255,153,0)"/><path d=" M 28 43 C 30.106 43 32.083 42.454 33.804 41.501 C 33.137 38.914 30.795 37 28 37 C 25.205 37 22.863 38.914 22.196 41.501 C 23.917 42.454 25.894 43 28 43 Z " fill="rgb(255,153,0)"/><path d=" M 40 31 C 40 28.894 39.454 26.917 38.501 25.197 C 35.914 25.863 34 28.205 34 31 C 34 33.795 35.914 36.137 38.501 36.803 C 39.454 35.083 40 33.106 40 31 Z " fill="rgb(255,153,0)"/><path d=" M 17.499 25.197 C 16.546 26.917 16 28.894 16 31 C 16 33.106 16.546 35.083 17.499 36.803 C 20.086 36.137 22 33.795 22 31 C 22 28.205 20.086 25.863 17.499 25.197 Z " fill="rgb(255,153,0)"/><path d=" M 28 3 C 12.536 3 0 15.536 0 31 C 0 46.464 12.536 59 28 59 C 43.464 59 56 46.464 56 31 C 56 15.536 43.464 3 28 3 Z  M 28 13 C 31.314 13 34 15.686 34 19 C 34 22.314 31.314 25 28 25 C 24.686 25 22 22.314 22 19 C 22 15.686 24.686 13 28 13 Z  M 16 37 C 12.686 37 10 34.314 10 31 C 10 27.686 12.686 25 16 25 C 19.314 25 22 27.686 22 31 C 22 34.314 19.314 37 16 37 Z  M 28 49 C 24.686 49 22 46.314 22 43 C 22 39.686 24.686 37 28 37 C 31.314 37 34 39.686 34 43 C 34 46.314 31.314 49 28 49 Z  M 40 37 C 36.686 37 34 34.314 34 31 C 34 27.686 36.686 25 40 25 C 43.314 25 46 27.686 46 31 C 46 34.314 43.314 37 40 37 Z " fill="rgb(74,134,232)"/><path d=" M 28 7 C 14.745 7 4 17.745 4 31 C 4 44.255 14.745 55 28 55 C 41.255 55 52 44.255 52 31 C 52 17.745 41.255 7 28 7 Z  M 28 13 C 31.314 13 34 15.686 34 19 C 34 22.314 31.314 25 28 25 C 24.686 25 22 22.314 22 19 C 22 15.686 24.686 13 28 13 Z  M 16 37 C 12.686 37 10 34.314 10 31 C 10 27.686 12.686 25 16 25 C 19.314 25 22 27.686 22 31 C 22 34.314 19.314 37 16 37 Z  M 28 49 C 24.686 49 22 46.314 22 43 C 22 39.686 24.686 37 28 37 C 31.314 37 34 39.686 34 43 C 34 46.314 31.314 49 28 49 Z  M 40 37 C 36.686 37 34 34.314 34 31 C 34 27.686 36.686 25 40 25 C 43.314 25 46 27.686 46 31 C 46 34.314 43.314 37 40 37 Z " fill="rgb(223,223,223)"/></g></g></svg>