<?xml version="1.0" encoding="UTF-8" standalone="no"?><!-- Generator: Gravit.io --><svg xmlns="http://www.w3.org/2000/svg" xmlns:xlink="http://www.w3.org/1999/xlink" style="isolation:isolate" viewBox="4.395 9.307 58 47" width="58pt" height="47pt"><defs><clipPath id="_clipPath_enjceKMQd4Pc0TfPj89BueScTipIb9W4"><rect x="4.395" y="9.307" width="58" height="47"/></clipPath></defs><g clip-path="url(#_clipPath_enjceKMQd4Pc0TfPj89BueScTipIb9W4)"><rect x="4.395" y="9.307" width="58" height="47" style="fill:rgb(0,0,0)" fill-opacity="0"/><g><path d=" M 50.719 56.307 L 5.96 56.307 C 4.93 56.307 4.181 55.329 4.45 54.334 L 14.616 26.463 C 14.8 25.781 15.419 25.307 16.126 25.307 L 60.885 25.307 C 61.915 25.307 62.395 26.291 62.395 27.28 L 52.229 55.151 C 52.045 55.833 51.426 56.307 50.719 56.307 Z " fill="rgb(251,177,66)"/><path d=" M 14.616 26.463 C 14.8 25.78 15.419 25.307 16.126 25.307 L 57.395 25.307 L 57.395 18.307 L 13.395 18.307 L 7.395 24.307 L 7.395 46.26 L 14.616 26.463 Z " fill="rgb(232,232,232)"/><path d=" M 27.966 14.307 L 24.395 9.307 L 6.127 9.307 C 5.171 9.307 4.395 10.082 4.395 11.039 L 4.395 53.767 C 4.464 53.769 4.533 53.773 4.6 53.777 L 7.395 46.156 L 7.395 24.307 L 9.395 22.307 L 9.395 14.307 L 27.966 14.307 Z " fill="rgb(255,153,0)"/><path d=" M 9.395 14.307 L 9.395 22.307 L 13.395 18.307 L 55.395 18.307 L 55.395 14.307 L 9.395 14.307 Z " fill="rgb(209,209,209)"/><rect x="32.395" y="23.307" width="2" height="2" transform="matrix(1,0,0,1,0,0)" fill="rgb(116,116,116)"/><rect x="39.395" y="23.307" width="2" height="2" transform="matrix(1,0,0,1,0,0)" fill="rgb(116,116,116)"/><rect x="46.395" y="23.307" width="2" height="2" transform="matrix(1,0,0,1,0,0)" fill="rgb(116,116,116)"/><rect x="18.395" y="23.307" width="2" height="2" transform="matrix(1,0,0,1,0,0)" fill="rgb(116,116,116)"/><rect x="25.395" y="23.307" width="2" height="2" transform="matrix(1,0,0,1,0,0)" fill="rgb(116,116,116)"/><path d=" M 13.395 24.307 L 13.395 18.307 L 7.395 24.307 L 13.395 24.307 Z " fill="rgb(185,185,185)"/></g></g></svg>