<?xml version="1.0" encoding="UTF-8" standalone="no"?><!-- Generator: Gravit.io --><svg xmlns="http://www.w3.org/2000/svg" xmlns:xlink="http://www.w3.org/1999/xlink" style="isolation:isolate" viewBox="0 0 60 60" width="60pt" height="60pt"><defs><clipPath id="_clipPath_VtfxA9XA5gVX8ETo9Cf4TVVNP2LEWGTL"><rect width="60" height="60"/></clipPath></defs><g clip-path="url(#_clipPath_VtfxA9XA5gVX8ETo9Cf4TVVNP2LEWGTL)"><rect width="60" height="60" style="fill:rgb(0,0,0)" fill-opacity="0"/><g><path d=" M 57.648 57.864 L 3.686 57.864 C 2.571 57.864 1.667 56.96 1.667 55.845 L 1.667 23.864 L 59.667 23.864 L 59.667 55.845 C 59.667 56.96 58.763 57.864 57.648 57.864 Z " fill="rgb(234,174,83)"/><path d=" M 27.686 14.864 L 27.686 8.883 C 27.686 7.768 26.782 6.864 25.667 6.864 L 3.686 6.864 C 2.571 6.864 1.667 7.768 1.667 8.883 L 1.667 13.864 L 1.667 23.864 L 59.667 23.864 L 59.667 16.883 C 59.667 15.768 58.763 14.864 57.648 14.864 L 27.686 14.864 Z " fill="rgb(255,153,0)"/><rect x="35.667" y="40.864" width="19" height="12" transform="matrix(1,0,0,1,0,0)" fill="rgb(237,234,218)"/><g><path d=" M 39.667 45.864 L 43.667 45.864 C 44.219 45.864 44.667 45.417 44.667 44.864 C 44.667 44.311 44.219 43.864 43.667 43.864 L 39.667 43.864 C 39.115 43.864 38.667 44.311 38.667 44.864 C 38.667 45.417 39.115 45.864 39.667 45.864 Z " fill="rgb(93,93,93)"/><path d=" M 47.667 45.864 L 48.667 45.864 C 49.219 45.864 49.667 45.417 49.667 44.864 C 49.667 44.311 49.219 43.864 48.667 43.864 L 47.667 43.864 C 47.115 43.864 46.667 44.311 46.667 44.864 C 46.667 45.417 47.115 45.864 47.667 45.864 Z " fill="rgb(93,93,93)"/><path d=" M 50.667 47.864 L 39.667 47.864 C 39.115 47.864 38.667 48.311 38.667 48.864 C 38.667 49.417 39.115 49.864 39.667 49.864 L 50.667 49.864 C 51.219 49.864 51.667 49.417 51.667 48.864 C 51.667 48.311 51.219 47.864 50.667 47.864 Z " fill="rgb(93,93,93)"/></g></g></g></svg>