<?xml version="1.0" encoding="UTF-8" standalone="no"?><!-- Generator: Gravit.io --><svg xmlns="http://www.w3.org/2000/svg" xmlns:xlink="http://www.w3.org/1999/xlink" style="isolation:isolate" viewBox="1.044 1 57.912 54.001" width="57.912pt" height="54.001pt"><defs><clipPath id="_clipPath_qu5GU6oIqVRwVZ94O2J8iMT7cWVvck2s"><rect x="1.044" y="1" width="57.912" height="54.001"/></clipPath></defs><g clip-path="url(#_clipPath_qu5GU6oIqVRwVZ94O2J8iMT7cWVvck2s)"><rect x="1.044" y="1" width="57.912" height="54.001" style="fill:rgb(0,0,0)" fill-opacity="0"/><g><path d=" M 53.767 55.001 L 6.233 55.001 C 6.099 55.001 5.985 54.903 5.965 54.771 L 1.047 22.313 C 1.022 22.149 1.149 22.001 1.315 22.001 L 58.685 22.001 C 58.851 22.001 58.978 22.149 58.953 22.313 L 54.035 54.771 C 54.015 54.903 53.901 55.001 53.767 55.001 Z " fill="rgb(255,153,0)"/><g><path d=" M 55.044 22.001 L 55.044 6.769 C 55.044 6.345 54.7 6.001 54.276 6.001 L 23.479 6.001 C 23.209 6.001 22.959 5.86 22.821 5.628 L 20.268 1.373 C 20.129 1.142 19.879 1 19.61 1 L 5.812 1 C 5.388 1.001 5.044 1.345 5.044 1.769 L 5.044 22.001 L 55.044 22.001 Z " fill="rgb(215,129,2)"/></g><rect x="8.044" y="18.001" width="44" height="4" transform="matrix(1,0,0,1,0,0)" fill="rgb(255,255,255)"/><rect x="9.044" y="15.001" width="42" height="3" transform="matrix(1,0,0,1,0,0)" fill="rgb(209,209,209)"/><rect x="10.044" y="12.001" width="40" height="3" transform="matrix(1,0,0,1,0,0)" fill="rgb(185,185,185)"/></g></g></svg>