<?xml version="1.0" encoding="UTF-8" standalone="no"?><!-- Generator: Gravit.io --><svg xmlns="http://www.w3.org/2000/svg" xmlns:xlink="http://www.w3.org/1999/xlink" style="isolation:isolate" viewBox="0 0 60 60" width="60pt" height="60pt"><defs><clipPath id="_clipPath_i6I92g8C4FkJ3n9pxGR55s2yJMqFovb3"><rect width="60" height="60"/></clipPath></defs><g clip-path="url(#_clipPath_i6I92g8C4FkJ3n9pxGR55s2yJMqFovb3)"><rect width="60" height="60" style="fill:rgb(0,0,0)" fill-opacity="0"/><g><path d=" M 56.981 55.5 L 3.019 55.5 C 1.904 55.5 1 54.596 1 53.481 L 1 21.5 L 59 21.5 L 59 53.481 C 59 54.596 58.096 55.5 56.981 55.5 Z " fill="rgb(234,169,72)"/><path d=" M 27.019 12.5 L 27.019 6.519 C 27.019 5.404 26.115 4.5 25 4.5 L 3.019 4.5 C 1.904 4.5 1 5.404 1 6.519 L 1 11.5 L 1 21.5 L 59 21.5 L 59 14.519 C 59 13.404 58.096 12.5 56.981 12.5 L 27.019 12.5 Z " fill="rgb(255,153,0)"/></g></g></svg>