<?xml version="1.0" encoding="UTF-8" standalone="no"?><!-- Generator: Gravit.io --><svg xmlns="http://www.w3.org/2000/svg" xmlns:xlink="http://www.w3.org/1999/xlink" style="isolation:isolate" viewBox="4.395 9.307 58 47" width="58pt" height="47pt"><defs><clipPath id="_clipPath_Rvp92rNnLtQ54RJULpiJHlYBZswmkkEn"><rect x="4.395" y="9.307" width="58" height="47"/></clipPath></defs><g clip-path="url(#_clipPath_Rvp92rNnLtQ54RJULpiJHlYBZswmkkEn)"><rect x="4.395" y="9.307" width="58" height="47" style="fill:rgb(0,0,0)" fill-opacity="0"/><g><path d=" M 50.719 56.307 L 5.96 56.307 C 4.93 56.307 4.181 55.329 4.45 54.334 L 14.616 26.463 C 14.8 25.781 15.419 25.307 16.126 25.307 L 60.885 25.307 C 61.915 25.307 62.395 26.291 62.395 27.28 L 52.229 55.151 C 52.045 55.833 51.426 56.307 50.719 56.307 Z " fill="rgb(251,177,66)"/><g><path d=" M 54.663 16.307 L 29.395 16.307 L 24.395 9.307 L 6.127 9.307 C 5.171 9.307 4.395 10.082 4.395 11.039 L 4.395 53.767 C 4.464 53.769 4.533 53.773 4.6 53.777 L 14.615 26.463 C 14.799 25.78 15.418 25.307 16.125 25.307 L 56.395 25.307 L 56.395 18.039 C 56.395 17.082 55.619 16.307 54.663 16.307 Z " fill="rgb(255,153,0)"/></g></g></g></svg>