<?xml version="1.0" encoding="UTF-8" standalone="no"?><!-- Generator: Gravit.io --><svg xmlns="http://www.w3.org/2000/svg" xmlns:xlink="http://www.w3.org/1999/xlink" style="isolation:isolate" viewBox="0 0 60 60" width="60pt" height="60pt"><defs><clipPath id="_clipPath_O1UaVJECQApPI3Efayzdzb9tkFyJsbsQ"><rect width="60" height="60"/></clipPath></defs><g clip-path="url(#_clipPath_O1UaVJECQApPI3Efayzdzb9tkFyJsbsQ)"><rect width="60" height="60" style="fill:rgb(0,0,0)" fill-opacity="0"/><g><path d=" M 54.39 60.864 L 6.856 60.864 C 6.722 60.864 6.608 60.766 6.588 60.634 L 1.67 28.176 C 1.645 28.012 1.772 27.864 1.938 27.864 L 59.308 27.864 C 59.474 27.864 59.601 28.012 59.576 28.176 L 54.658 60.634 C 54.638 60.766 54.524 60.864 54.39 60.864 Z " fill="rgb(244,174,69)"/><g><path d=" M 55.623 27.864 L 55.623 12.632 C 55.623 12.208 55.279 11.864 54.855 11.864 L 24.058 11.864 C 23.788 11.864 23.538 11.723 23.4 11.491 L 20.847 7.237 C 20.708 7.006 20.458 6.864 20.189 6.864 L 6.391 6.864 C 5.967 6.864 5.623 7.208 5.623 7.632 L 5.623 27.864 L 55.623 27.864 Z " fill="rgb(255,153,0)"/></g><rect x="9.623" y="20.864" width="42" height="7" transform="matrix(1,0,0,1,0,0)" fill="rgb(209,209,209)"/></g></g></svg>