<?xml version="1.0" encoding="UTF-8" standalone="no"?><!-- Generator: Gravit.io --><svg xmlns="http://www.w3.org/2000/svg" xmlns:xlink="http://www.w3.org/1999/xlink" style="isolation:isolate" viewBox="0 0 60 60" width="60pt" height="60pt"><defs><clipPath id="_clipPath_jRCFYEJq6uqKYRKT7a91x0AvUovGar0C"><rect width="60" height="60"/></clipPath></defs><g clip-path="url(#_clipPath_jRCFYEJq6uqKYRKT7a91x0AvUovGar0C)"><rect width="60" height="60" style="fill:rgb(0,0,0)" fill-opacity="0"/><g><path d=" M 21.667 6.864 L 26.667 13.864 L 59.667 13.864 L 59.667 6.864 L 21.667 6.864 Z " fill="rgb(74,134,232)"/><path d=" M 26.667 13.864 L 21.667 6.864 L 1.667 6.864 L 1.667 13.864 L 1.667 57.864 L 59.667 57.864 L 59.667 20.864 L 31.667 20.864 L 26.667 13.864 Z " fill="rgb(255,153,0)"/><path d=" M 31.667 20.864 L 59.667 20.864 L 59.667 13.864 L 26.667 13.864 L 31.667 20.864 Z " fill="rgb(70,70,70)"/><g><path d=" M 19.667 32.864 L 33.667 32.864 C 34.219 32.864 34.667 32.417 34.667 31.864 C 34.667 31.311 34.219 30.864 33.667 30.864 L 19.667 30.864 C 19.115 30.864 18.667 31.311 18.667 31.864 C 18.667 32.417 19.115 32.864 19.667 32.864 Z " fill="rgb(232,232,232)"/><path d=" M 19.667 38.864 L 41.667 38.864 C 42.219 38.864 42.667 38.417 42.667 37.864 C 42.667 37.311 42.219 36.864 41.667 36.864 L 19.667 36.864 C 19.115 36.864 18.667 37.311 18.667 37.864 C 18.667 38.417 19.115 38.864 19.667 38.864 Z " fill="rgb(232,232,232)"/><path d=" M 41.667 42.864 L 19.667 42.864 C 19.115 42.864 18.667 43.311 18.667 43.864 C 18.667 44.417 19.115 44.864 19.667 44.864 L 41.667 44.864 C 42.219 44.864 42.667 44.417 42.667 43.864 C 42.667 43.311 42.219 42.864 41.667 42.864 Z " fill="rgb(232,232,232)"/></g></g></g></svg>