<?xml version="1.0" encoding="UTF-8" standalone="no"?><!-- Generator: Gravit.io --><svg xmlns="http://www.w3.org/2000/svg" xmlns:xlink="http://www.w3.org/1999/xlink" style="isolation:isolate" viewBox="0 0 60 60" width="60pt" height="60pt"><defs><clipPath id="_clipPath_6pCpYkJud1bhjcb4z42szmnWeqEMuBEP"><rect width="60" height="60"/></clipPath></defs><g clip-path="url(#_clipPath_6pCpYkJud1bhjcb4z42szmnWeqEMuBEP)"><rect width="60" height="60" style="fill:rgb(0,0,0)" fill-opacity="0"/><g><path d=" M 57.648 57.864 L 3.686 57.864 C 2.571 57.864 1.667 56.96 1.667 55.845 L 1.667 23.864 L 59.667 23.864 L 59.667 55.845 C 59.667 56.96 58.763 57.864 57.648 57.864 Z " fill="rgb(242,177,78)"/><path d=" M 27.686 14.864 L 27.686 8.883 C 27.686 7.768 26.782 6.864 25.667 6.864 L 3.686 6.864 C 2.571 6.864 1.667 7.768 1.667 8.883 L 1.667 13.864 L 1.667 23.864 L 59.667 23.864 L 59.667 16.883 C 59.667 15.768 58.763 14.864 57.648 14.864 L 27.686 14.864 Z " fill="rgb(255,153,0)"/><g><path d=" M 19.667 35.864 L 33.667 35.864 C 34.219 35.864 34.667 35.417 34.667 34.864 C 34.667 34.311 34.219 33.864 33.667 33.864 L 19.667 33.864 C 19.115 33.864 18.667 34.311 18.667 34.864 C 18.667 35.417 19.115 35.864 19.667 35.864 Z " fill="rgb(232,232,232)"/><path d=" M 19.667 41.864 L 41.667 41.864 C 42.219 41.864 42.667 41.417 42.667 40.864 C 42.667 40.311 42.219 39.864 41.667 39.864 L 19.667 39.864 C 19.115 39.864 18.667 40.311 18.667 40.864 C 18.667 41.417 19.115 41.864 19.667 41.864 Z " fill="rgb(232,232,232)"/><path d=" M 41.667 45.864 L 19.667 45.864 C 19.115 45.864 18.667 46.311 18.667 46.864 C 18.667 47.417 19.115 47.864 19.667 47.864 L 41.667 47.864 C 42.219 47.864 42.667 47.417 42.667 46.864 C 42.667 46.311 42.219 45.864 41.667 45.864 Z " fill="rgb(232,232,232)"/></g></g></g></svg>