<?xml version="1.0" encoding="UTF-8" standalone="no"?><!-- Generator: Gravit.io --><svg xmlns="http://www.w3.org/2000/svg" xmlns:xlink="http://www.w3.org/1999/xlink" style="isolation:isolate" viewBox="0 0 58 58" width="58pt" height="58pt"><defs><clipPath id="_clipPath_HejpE4S0wULYlL4GJYLXVFLq1KZSpTIv"><rect x="0" y="0" width="58" height="58"/></clipPath></defs><g clip-path="url(#_clipPath_HejpE4S0wULYlL4GJYLXVFLq1KZSpTIv)"><rect x="0" y="0" width="58" height="58" style="fill:rgb(0,0,0)" fill-opacity="0"/><g><path d=" M 46.324 58 L 1.565 58 C 0.535 58 -0.214 57.022 0.055 56.027 L 10.221 28.156 C 10.405 27.474 11.024 27 11.731 27 L 56.49 27 C 57.52 27 58 27.984 58 28.973 L 47.834 56.844 C 47.65 57.526 47.031 58 46.324 58 Z " fill="rgb(251,170,48)"/><path d=" M 10.221 28.156 C 10.405 27.474 11.024 27 11.731 27 L 46 27 L 46 15 L 31 0 L 8 0 L 8 34.245 L 10.221 28.156 Z " fill="rgb(232,232,232)"/><g><path d=" M 50.268 18 L 46 18 L 46 27 L 52 27 L 52 19.732 C 52 18.775 51.224 18 50.268 18 Z " fill="rgb(255,153,0)"/><path d=" M 8 11 L 1.732 11 C 0.776 11 0 11.775 0 12.732 L 0 55.46 C 0.069 55.462 0.138 55.466 0.205 55.47 L 8 34.212 L 8 11 Z " fill="rgb(255,153,0)"/></g><path d=" M 25 16 L 15 16 C 14.448 16 14 15.553 14 15 C 14 14.447 14.448 14 15 14 L 25 14 C 25.552 14 26 14.447 26 15 C 26 15.553 25.552 16 25 16 Z " fill="rgb(116,116,116)"/><path d=" M 25 9 L 15 9 C 14.448 9 14 8.553 14 8 C 14 7.447 14.448 7 15 7 L 25 7 C 25.552 7 26 7.447 26 8 C 26 8.553 25.552 9 25 9 Z " fill="rgb(116,116,116)"/><path d=" M 39 23 L 15 23 C 14.448 23 14 22.553 14 22 C 14 21.447 14.448 21 15 21 L 39 21 C 39.552 21 40 21.447 40 22 C 40 22.553 39.552 23 39 23 Z " fill="rgb(116,116,116)"/><path d=" M 31 15 L 46 15 L 31 0 L 31 15 Z " fill="rgb(185,185,185)"/></g></g></svg>