<?xml version="1.0" encoding="UTF-8" standalone="no"?><!-- Generator: Gravit.io --><svg xmlns="http://www.w3.org/2000/svg" xmlns:xlink="http://www.w3.org/1999/xlink" style="isolation:isolate" viewBox="0 0 60 60" width="60pt" height="60pt"><defs><clipPath id="_clipPath_gyXEbpLt5hR1upUT6qePWZtO3fcAYdh5"><rect width="60" height="60"/></clipPath></defs><g clip-path="url(#_clipPath_gyXEbpLt5hR1upUT6qePWZtO3fcAYdh5)"><rect width="60" height="60" style="fill:rgb(0,0,0)" fill-opacity="0"/><g><path d=" M 21.667 6.864 L 26.667 13.864 L 59.667 13.864 L 59.667 6.864 L 21.667 6.864 Z " fill="rgb(74,134,232)"/><path d=" M 26.667 13.864 L 21.667 6.864 L 1.667 6.864 L 1.667 13.864 L 1.667 57.864 L 59.667 57.864 L 59.667 20.864 L 31.667 20.864 L 26.667 13.864 Z " fill="rgb(255,153,0)"/><path d=" M 31.667 20.864 L 59.667 20.864 L 59.667 13.864 L 26.667 13.864 L 31.667 20.864 Z " fill="rgb(70,70,70)"/><rect x="35.667" y="40.864" width="19" height="12" transform="matrix(1,0,0,1,0,0)" fill="rgb(230,230,230)"/><g><path d=" M 39.667 45.864 L 43.667 45.864 C 44.219 45.864 44.667 45.417 44.667 44.864 C 44.667 44.311 44.219 43.864 43.667 43.864 L 39.667 43.864 C 39.115 43.864 38.667 44.311 38.667 44.864 C 38.667 45.417 39.115 45.864 39.667 45.864 Z " fill="rgb(70,70,70)"/><path d=" M 47.667 45.864 L 48.667 45.864 C 49.219 45.864 49.667 45.417 49.667 44.864 C 49.667 44.311 49.219 43.864 48.667 43.864 L 47.667 43.864 C 47.115 43.864 46.667 44.311 46.667 44.864 C 46.667 45.417 47.115 45.864 47.667 45.864 Z " fill="rgb(70,70,70)"/><path d=" M 50.667 47.864 L 39.667 47.864 C 39.115 47.864 38.667 48.311 38.667 48.864 C 38.667 49.417 39.115 49.864 39.667 49.864 L 50.667 49.864 C 51.219 49.864 51.667 49.417 51.667 48.864 C 51.667 48.311 51.219 47.864 50.667 47.864 Z " fill="rgb(70,70,70)"/></g></g></g></svg>