<?xml version="1.0" encoding="UTF-8" standalone="no"?><!-- Generator: Gravit.io --><svg xmlns="http://www.w3.org/2000/svg" xmlns:xlink="http://www.w3.org/1999/xlink" style="isolation:isolate" viewBox="-9.426 -21 52.459 77.999" width="52.459pt" height="77.999pt"><defs><clipPath id="_clipPath_fhYBsPHFjc9hQ1YwRfxQQgNrXsf9UTdm"><rect x="-9.426" y="-21" width="52.459" height="77.999"/></clipPath></defs><g clip-path="url(#_clipPath_fhYBsPHFjc9hQ1YwRfxQQgNrXsf9UTdm)"><rect x="-9.426" y="-21" width="52.459" height="77.999" style="fill:rgb(0,0,0)" fill-opacity="0"/><g><path d=" M 34.496 14.103 L -3.134 8.814 L -2.655 5.404 C -2.458 4.006 -1.166 3.031 0.233 3.228 L 32.799 7.805 C 34.197 8.002 35.172 9.294 34.975 10.693 L 34.496 14.103 Z " fill="rgb(85,96,128)"/><mask id="_mask_m5jTeV3EILztHoH4CzSnRVdd4Upsh57y" x="-200%" y="-200%" width="400%" height="400%"><rect x="-200%" y="-200%" width="400%" height="400%" style="fill:white;"/><path d=" M 10.574 4.682 L 11.131 0.721 C 11.284 -0.368 12.301 -1.134 13.39 -0.981 L 21.312 0.132 C 22.401 0.285 23.167 1.302 23.014 2.391 L 22.457 6.352 L 10.574 4.682 Z " fill="black" stroke="none"/></mask><path d=" M 10.574 4.682 L 11.131 0.721 C 11.284 -0.368 12.301 -1.134 13.39 -0.981 L 21.312 0.132 C 22.401 0.285 23.167 1.302 23.014 2.391 L 22.457 6.352 L 10.574 4.682 Z " fill="rgb(255,255,255)" mask="url(#_mask_m5jTeV3EILztHoH4CzSnRVdd4Upsh57y)" vector-effect="non-scaling-stroke" stroke-width="4" stroke="rgb(115,131,191)" stroke-linejoin="miter" stroke-linecap="round" stroke-miterlimit="10"/><path d=" M 10.574 4.682 L 11.131 0.721 C 11.284 -0.368 12.301 -1.134 13.39 -0.981 L 21.312 0.132 C 22.401 0.285 23.167 1.302 23.014 2.391 L 22.457 6.352 L 10.574 4.682 Z " fill="rgb(255,255,255)"/><path d=" M -0.97 17.999 L 9.657 17.999 L 10 17.656 L 4.343 11.999 L -1.058 17.4 C -1.199 17.541 -1.199 17.77 -1.058 17.911 L -0.97 17.999 Z " fill="rgb(235,186,22)"/><rect x="11" y="14.999" width="8" height="3" transform="matrix(1,0,0,1,0,0)" fill="rgb(221,53,46)"/><rect x="22" y="14.999" width="5" height="3" transform="matrix(1,0,0,1,0,0)" fill="rgb(105,79,135)"/><path d=" M 29.271 56.999 L 0.73 56.999 C -0.777 56.999 -1.999 55.777 -1.999 54.27 L -1.999 17.999 L 32.001 17.999 L 32.001 54.27 C 32 55.777 30.778 56.999 29.271 56.999 Z " fill="rgb(85,96,128)"/><g><circle vector-effect="non-scaling-stroke" cx="2.9997013116382156" cy="25.9994626938185" r="1" fill="rgb(115,131,191)"/><circle vector-effect="non-scaling-stroke" cx="2.9997013116382156" cy="31.9994626938185" r="1" fill="rgb(115,131,191)"/><circle vector-effect="non-scaling-stroke" cx="5.999701311638216" cy="22.9994626938185" r="1" fill="rgb(115,131,191)"/><circle vector-effect="non-scaling-stroke" cx="11.999701311638216" cy="22.9994626938185" r="1" fill="rgb(115,131,191)"/><circle vector-effect="non-scaling-stroke" cx="5.999701311638216" cy="28.9994626938185" r="1" fill="rgb(115,131,191)"/><circle vector-effect="non-scaling-stroke" cx="11.999701311638216" cy="28.9994626938185" r="1" fill="rgb(115,131,191)"/><circle vector-effect="non-scaling-stroke" cx="8.999701311638216" cy="25.9994626938185" r="1" fill="rgb(115,131,191)"/><circle vector-effect="non-scaling-stroke" cx="14.999701311638216" cy="25.9994626938185" r="1" fill="rgb(115,131,191)"/><circle vector-effect="non-scaling-stroke" cx="8.999701311638216" cy="31.9994626938185" r="1" fill="rgb(115,131,191)"/><circle vector-effect="non-scaling-stroke" cx="14.999701311638216" cy="31.9994626938185" r="1" fill="rgb(115,131,191)"/><circle vector-effect="non-scaling-stroke" cx="17.999701311638216" cy="22.9994626938185" r="1" fill="rgb(115,131,191)"/><circle vector-effect="non-scaling-stroke" cx="23.999701311638216" cy="22.9994626938185" r="1" fill="rgb(115,131,191)"/><circle vector-effect="non-scaling-stroke" cx="17.999701311638216" cy="28.9994626938185" r="1" fill="rgb(115,131,191)"/><circle vector-effect="non-scaling-stroke" cx="23.999701311638216" cy="28.9994626938185" r="1" fill="rgb(115,131,191)"/><circle vector-effect="non-scaling-stroke" cx="20.999701311638216" cy="25.9994626938185" r="1" fill="rgb(115,131,191)"/><circle vector-effect="non-scaling-stroke" cx="26.999701311638216" cy="25.9994626938185" r="1" fill="rgb(115,131,191)"/><circle vector-effect="non-scaling-stroke" cx="20.999701311638216" cy="31.9994626938185" r="1" fill="rgb(115,131,191)"/><circle vector-effect="non-scaling-stroke" cx="26.999701311638216" cy="31.9994626938185" r="1" fill="rgb(115,131,191)"/><circle vector-effect="non-scaling-stroke" cx="2.9997013116382156" cy="37.9994626938185" r="1" fill="rgb(115,131,191)"/><circle vector-effect="non-scaling-stroke" cx="2.9997013116382156" cy="43.9994626938185" r="1" fill="rgb(115,131,191)"/><circle vector-effect="non-scaling-stroke" cx="5.999701311638216" cy="34.9994626938185" r="1" fill="rgb(115,131,191)"/><circle vector-effect="non-scaling-stroke" cx="11.999701311638216" cy="34.9994626938185" r="1" fill="rgb(115,131,191)"/><circle vector-effect="non-scaling-stroke" cx="5.999701311638216" cy="40.9994626938185" r="1" fill="rgb(115,131,191)"/><circle vector-effect="non-scaling-stroke" cx="11.999701311638216" cy="40.9994626938185" r="1" fill="rgb(115,131,191)"/><circle vector-effect="non-scaling-stroke" cx="8.999701311638216" cy="37.9994626938185" r="1" fill="rgb(115,131,191)"/><circle vector-effect="non-scaling-stroke" cx="14.999701311638216" cy="37.9994626938185" r="1" fill="rgb(115,131,191)"/><circle vector-effect="non-scaling-stroke" cx="8.999701311638216" cy="43.9994626938185" r="1" fill="rgb(115,131,191)"/><circle vector-effect="non-scaling-stroke" cx="14.999701311638216" cy="43.9994626938185" r="1" fill="rgb(115,131,191)"/><circle vector-effect="non-scaling-stroke" cx="17.999701311638216" cy="34.9994626938185" r="1" fill="rgb(115,131,191)"/><circle vector-effect="non-scaling-stroke" cx="23.999701311638216" cy="34.9994626938185" r="1" fill="rgb(115,131,191)"/><circle vector-effect="non-scaling-stroke" cx="17.999701311638216" cy="40.9994626938185" r="1" fill="rgb(115,131,191)"/><circle vector-effect="non-scaling-stroke" cx="23.999701311638216" cy="40.9994626938185" r="1" fill="rgb(115,131,191)"/><circle vector-effect="non-scaling-stroke" cx="20.999701311638216" cy="37.9994626938185" r="1" fill="rgb(115,131,191)"/><circle vector-effect="non-scaling-stroke" cx="26.999701311638216" cy="37.9994626938185" r="1" fill="rgb(115,131,191)"/><circle vector-effect="non-scaling-stroke" cx="20.999701311638216" cy="43.9994626938185" r="1" fill="rgb(115,131,191)"/><circle vector-effect="non-scaling-stroke" cx="26.999701311638216" cy="43.9994626938185" r="1" fill="rgb(115,131,191)"/><circle vector-effect="non-scaling-stroke" cx="2.9997013116382156" cy="49.9994626938185" r="1" fill="rgb(115,131,191)"/><circle vector-effect="non-scaling-stroke" cx="5.999701311638216" cy="46.9994626938185" r="1" fill="rgb(115,131,191)"/><circle vector-effect="non-scaling-stroke" cx="11.999701311638216" cy="46.9994626938185" r="1" fill="rgb(115,131,191)"/><circle vector-effect="non-scaling-stroke" cx="5.999701311638216" cy="52.99946269381851" r="1" fill="rgb(115,131,191)"/><circle vector-effect="non-scaling-stroke" cx="11.999701311638216" cy="52.99946269381851" r="1" fill="rgb(115,131,191)"/><circle vector-effect="non-scaling-stroke" cx="8.999701311638216" cy="49.9994626938185" r="1" fill="rgb(115,131,191)"/><circle vector-effect="non-scaling-stroke" cx="14.999701311638216" cy="49.9994626938185" r="1" fill="rgb(115,131,191)"/><circle vector-effect="non-scaling-stroke" cx="17.999701311638216" cy="46.9994626938185" r="1" fill="rgb(115,131,191)"/><circle vector-effect="non-scaling-stroke" cx="23.999701311638216" cy="46.9994626938185" r="1" fill="rgb(115,131,191)"/><circle vector-effect="non-scaling-stroke" cx="17.999701311638216" cy="52.99946269381851" r="1" fill="rgb(115,131,191)"/><circle vector-effect="non-scaling-stroke" cx="23.999701311638216" cy="52.99946269381851" r="1" fill="rgb(115,131,191)"/><circle vector-effect="non-scaling-stroke" cx="20.999701311638216" cy="49.9994626938185" r="1" fill="rgb(115,131,191)"/><circle vector-effect="non-scaling-stroke" cx="26.999701311638216" cy="49.9994626938185" r="1" fill="rgb(115,131,191)"/></g><path d=" M 34.496 14.103 L -3.134 8.814 L -2.655 5.404 C -2.458 4.006 -1.166 3.031 0.233 3.228 L 32.799 7.805 C 34.197 8.002 35.172 9.294 34.975 10.693 L 34.496 14.103 Z " fill="rgb(255,153,0)"/><mask id="_mask_9XpReomYnRZknWmrAFBEYmzssEwUDVmb" x="-200%" y="-200%" width="400%" height="400%"><rect x="-200%" y="-200%" width="400%" height="400%" style="fill:white;"/><path d=" M 10.574 4.682 L 11.131 0.721 C 11.284 -0.368 12.301 -1.134 13.39 -0.981 L 21.312 0.132 C 22.401 0.285 23.167 1.302 23.014 2.391 L 22.457 6.352 L 10.574 4.682 Z " fill="black" stroke="none"/></mask><path d=" M 10.574 4.682 L 11.131 0.721 C 11.284 -0.368 12.301 -1.134 13.39 -0.981 L 21.312 0.132 C 22.401 0.285 23.167 1.302 23.014 2.391 L 22.457 6.352 L 10.574 4.682 Z " fill="rgb(255,255,255)" mask="url(#_mask_9XpReomYnRZknWmrAFBEYmzssEwUDVmb)" vector-effect="non-scaling-stroke" stroke-width="4" stroke="rgb(74,134,232)" stroke-linejoin="miter" stroke-linecap="round" stroke-miterlimit="10"/><path d=" M 10.574 4.682 L 11.131 0.721 C 11.284 -0.368 12.301 -1.134 13.39 -0.981 L 21.312 0.132 C 22.401 0.285 23.167 1.302 23.014 2.391 L 22.457 6.352 L 10.574 4.682 Z " fill="rgb(255,255,255)"/><path d=" M -0.97 17.999 L 9.657 17.999 L 10 17.656 L 4.343 11.999 L -1.058 17.4 C -1.199 17.541 -1.199 17.77 -1.058 17.911 L -0.97 17.999 Z " fill="rgb(0,150,136)"/><rect x="11" y="14.999" width="8" height="3" transform="matrix(1,0,0,1,0,0)" fill="rgb(221,53,46)"/><rect x="22" y="14.999" width="5" height="3" transform="matrix(1,0,0,1,0,0)" fill="rgb(0,0,255)"/><path d=" M 29.271 56.999 L 0.73 56.999 C -0.777 56.999 -1.999 55.777 -1.999 54.27 L -1.999 17.999 L 32.001 17.999 L 32.001 54.27 C 32 55.777 30.778 56.999 29.271 56.999 Z " fill="rgb(255,153,0)"/><g><circle vector-effect="non-scaling-stroke" cx="2.9997013116382156" cy="25.9994626938185" r="1" fill="rgb(74,134,232)"/><circle vector-effect="non-scaling-stroke" cx="2.9997013116382156" cy="31.9994626938185" r="1" fill="rgb(74,134,232)"/><circle vector-effect="non-scaling-stroke" cx="5.999701311638216" cy="22.9994626938185" r="1" fill="rgb(74,134,232)"/><circle vector-effect="non-scaling-stroke" cx="11.999701311638216" cy="22.9994626938185" r="1" fill="rgb(74,134,232)"/><circle vector-effect="non-scaling-stroke" cx="5.999701311638216" cy="28.9994626938185" r="1" fill="rgb(74,134,232)"/><circle vector-effect="non-scaling-stroke" cx="11.999701311638216" cy="28.9994626938185" r="1" fill="rgb(74,134,232)"/><circle vector-effect="non-scaling-stroke" cx="8.999701311638216" cy="25.9994626938185" r="1" fill="rgb(74,134,232)"/><circle vector-effect="non-scaling-stroke" cx="14.999701311638216" cy="25.9994626938185" r="1" fill="rgb(74,134,232)"/><circle vector-effect="non-scaling-stroke" cx="8.999701311638216" cy="31.9994626938185" r="1" fill="rgb(74,134,232)"/><circle vector-effect="non-scaling-stroke" cx="14.999701311638216" cy="31.9994626938185" r="1" fill="rgb(74,134,232)"/><circle vector-effect="non-scaling-stroke" cx="17.999701311638216" cy="22.9994626938185" r="1" fill="rgb(74,134,232)"/><circle vector-effect="non-scaling-stroke" cx="23.999701311638216" cy="22.9994626938185" r="1" fill="rgb(74,134,232)"/><circle vector-effect="non-scaling-stroke" cx="17.999701311638216" cy="28.9994626938185" r="1" fill="rgb(74,134,232)"/><circle vector-effect="non-scaling-stroke" cx="23.999701311638216" cy="28.9994626938185" r="1" fill="rgb(74,134,232)"/><circle vector-effect="non-scaling-stroke" cx="20.999701311638216" cy="25.9994626938185" r="1" fill="rgb(74,134,232)"/><circle vector-effect="non-scaling-stroke" cx="26.999701311638216" cy="25.9994626938185" r="1" fill="rgb(74,134,232)"/><circle vector-effect="non-scaling-stroke" cx="20.999701311638216" cy="31.9994626938185" r="1" fill="rgb(74,134,232)"/><circle vector-effect="non-scaling-stroke" cx="26.999701311638216" cy="31.9994626938185" r="1" fill="rgb(74,134,232)"/><circle vector-effect="non-scaling-stroke" cx="2.9997013116382156" cy="37.9994626938185" r="1" fill="rgb(74,134,232)"/><circle vector-effect="non-scaling-stroke" cx="2.9997013116382156" cy="43.9994626938185" r="1" fill="rgb(74,134,232)"/><circle vector-effect="non-scaling-stroke" cx="5.999701311638216" cy="34.9994626938185" r="1" fill="rgb(74,134,232)"/><circle vector-effect="non-scaling-stroke" cx="11.999701311638216" cy="34.9994626938185" r="1" fill="rgb(74,134,232)"/><circle vector-effect="non-scaling-stroke" cx="5.999701311638216" cy="40.9994626938185" r="1" fill="rgb(74,134,232)"/><circle vector-effect="non-scaling-stroke" cx="11.999701311638216" cy="40.9994626938185" r="1" fill="rgb(74,134,232)"/><circle vector-effect="non-scaling-stroke" cx="8.999701311638216" cy="37.9994626938185" r="1" fill="rgb(74,134,232)"/><circle vector-effect="non-scaling-stroke" cx="14.999701311638216" cy="37.9994626938185" r="1" fill="rgb(74,134,232)"/><circle vector-effect="non-scaling-stroke" cx="8.999701311638216" cy="43.9994626938185" r="1" fill="rgb(74,134,232)"/><circle vector-effect="non-scaling-stroke" cx="14.999701311638216" cy="43.9994626938185" r="1" fill="rgb(74,134,232)"/><circle vector-effect="non-scaling-stroke" cx="17.999701311638216" cy="34.9994626938185" r="1" fill="rgb(74,134,232)"/><circle vector-effect="non-scaling-stroke" cx="23.999701311638216" cy="34.9994626938185" r="1" fill="rgb(74,134,232)"/><circle vector-effect="non-scaling-stroke" cx="17.999701311638216" cy="40.9994626938185" r="1" fill="rgb(74,134,232)"/><circle vector-effect="non-scaling-stroke" cx="23.999701311638216" cy="40.9994626938185" r="1" fill="rgb(74,134,232)"/><circle vector-effect="non-scaling-stroke" cx="20.999701311638216" cy="37.9994626938185" r="1" fill="rgb(74,134,232)"/><circle vector-effect="non-scaling-stroke" cx="26.999701311638216" cy="37.9994626938185" r="1" fill="rgb(74,134,232)"/><circle vector-effect="non-scaling-stroke" cx="20.999701311638216" cy="43.9994626938185" r="1" fill="rgb(74,134,232)"/><circle vector-effect="non-scaling-stroke" cx="26.999701311638216" cy="43.9994626938185" r="1" fill="rgb(74,134,232)"/><circle vector-effect="non-scaling-stroke" cx="2.9997013116382156" cy="49.9994626938185" r="1" fill="rgb(74,134,232)"/><circle vector-effect="non-scaling-stroke" cx="5.999701311638216" cy="46.9994626938185" r="1" fill="rgb(74,134,232)"/><circle vector-effect="non-scaling-stroke" cx="11.999701311638216" cy="46.9994626938185" r="1" fill="rgb(74,134,232)"/><circle vector-effect="non-scaling-stroke" cx="5.999701311638216" cy="52.99946269381851" r="1" fill="rgb(74,134,232)"/><circle vector-effect="non-scaling-stroke" cx="11.999701311638216" cy="52.99946269381851" r="1" fill="rgb(74,134,232)"/><circle vector-effect="non-scaling-stroke" cx="8.999701311638216" cy="49.9994626938185" r="1" fill="rgb(74,134,232)"/><circle vector-effect="non-scaling-stroke" cx="14.999701311638216" cy="49.9994626938185" r="1" fill="rgb(74,134,232)"/><circle vector-effect="non-scaling-stroke" cx="17.999701311638216" cy="46.9994626938185" r="1" fill="rgb(74,134,232)"/><circle vector-effect="non-scaling-stroke" cx="23.999701311638216" cy="46.9994626938185" r="1" fill="rgb(74,134,232)"/><circle vector-effect="non-scaling-stroke" cx="17.999701311638216" cy="52.99946269381851" r="1" fill="rgb(74,134,232)"/><circle vector-effect="non-scaling-stroke" cx="23.999701311638216" cy="52.99946269381851" r="1" fill="rgb(74,134,232)"/><circle vector-effect="non-scaling-stroke" cx="20.999701311638216" cy="49.9994626938185" r="1" fill="rgb(74,134,232)"/><circle vector-effect="non-scaling-stroke" cx="26.999701311638216" cy="49.9994626938185" r="1" fill="rgb(74,134,232)"/></g></g></g></svg>