<?xml version="1.0" encoding="UTF-8" standalone="no"?><!-- Generator: Gravit.io --><svg xmlns="http://www.w3.org/2000/svg" xmlns:xlink="http://www.w3.org/1999/xlink" style="isolation:isolate" viewBox="346.999 245 58.001 77" width="58.001pt" height="77pt"><defs><clipPath id="_clipPath_FVdk6DLRXdiMrNBVvWK6M0uMJ06BJlge"><rect x="346.999" y="245" width="58.001" height="77"/></clipPath></defs><g clip-path="url(#_clipPath_FVdk6DLRXdiMrNBVvWK6M0uMJ06BJlge)"><g><path d=" M 397 271 L 395.044 318 C 395.044 318 394.959 322 391.136 322 L 376.54 322 L 376.481 322 L 362.864 322 C 359.041 322 358.956 318 358.956 318 L 357 271" fill="rgb(255,153,0)"/><mask id="_mask_8IVFV0qO8jVkoT4Qcd704N6HLdUs41oS" x="-200%" y="-200%" width="400%" height="400%"><rect x="-200%" y="-200%" width="400%" height="400%" style="fill:white;"/><path d=" M 384.999 271 C 384.999 271 385.155 265 380.999 265 L 375.938 265 L 376.06 265 L 371 265 C 366.844 265 367 271 367 271" fill="black" stroke="none"/></mask><path d=" M 384.999 271 C 384.999 271 385.155 265 380.999 265 L 375.938 265 L 376.06 265 L 371 265 C 366.844 265 367 271 367 271" fill="none" mask="url(#_mask_8IVFV0qO8jVkoT4Qcd704N6HLdUs41oS)" vector-effect="non-scaling-stroke" stroke-width="4" stroke="rgb(74,134,232)" stroke-linejoin="miter" stroke-linecap="butt" stroke-miterlimit="10"/><path d=" M 384.999 271 C 384.999 271 385.155 265 380.999 265 L 375.938 265 L 376.06 265 L 371 265 C 366.844 265 367 271 367 271" fill="none"/><line x1="377" y1="281" x2="377" y2="314" vector-effect="non-scaling-stroke" stroke-width="2" stroke="rgb(74,134,232)" stroke-linejoin="round" stroke-linecap="round" stroke-miterlimit="10"/><line x1="367" y1="281" x2="367" y2="314" vector-effect="non-scaling-stroke" stroke-width="2" stroke="rgb(74,134,232)" stroke-linejoin="round" stroke-linecap="round" stroke-miterlimit="10"/><line x1="387" y1="281" x2="387" y2="314" vector-effect="non-scaling-stroke" stroke-width="2" stroke="rgb(74,134,232)" stroke-linejoin="round" stroke-linecap="round" stroke-miterlimit="10"/><line x1="354" y1="271" x2="400" y2="271" vector-effect="non-scaling-stroke" stroke-width="2" stroke="rgb(74,134,232)" stroke-linejoin="round" stroke-linecap="round" stroke-miterlimit="10"/></g></g></svg>