<?xml version="1.0" encoding="UTF-8" standalone="no"?><!-- Generator: Gravit.io --><svg xmlns="http://www.w3.org/2000/svg" xmlns:xlink="http://www.w3.org/1999/xlink" style="isolation:isolate" viewBox="-7 -20 52 71" width="52pt" height="71pt"><defs><clipPath id="_clipPath_prLDQcujY6ZHO8uNQ8DEjqQkg1hoTRc0"><rect x="-7" y="-20" width="52" height="71"/></clipPath></defs><g clip-path="url(#_clipPath_prLDQcujY6ZHO8uNQ8DEjqQkg1hoTRc0)"><rect x="-7" y="-20" width="52" height="71" style="fill:rgb(0,0,0)" fill-opacity="0"/><g><path d=" M 33.271 51 L 4.729 51 C 3.222 51 2 49.778 2 48.271 L 2 12 L 36 12 L 36 48.271 C 36 49.778 34.778 51 33.271 51 Z " fill="rgb(209,209,209)"/><path d=" M 38 12 L 0 12 L 0 8.557 C 0 7.145 1.145 6 2.557 6 L 35.443 6 C 36.855 6 38 7.145 38 8.557 L 38 12 Z " fill="rgb(139,139,139)"/><mask id="_mask_ZDTTRBcwBYsLWRTh5az28ixSVUhciGh7" x="-200%" y="-200%" width="400%" height="400%"><rect x="-200%" y="-200%" width="400%" height="400%" style="fill:white;"/><path d=" M 13 6 L 13 2 C 13 0.9 13.9 0 15 0 L 23 0 C 24.1 0 25 0.9 25 2 L 25 6 L 13 6 Z " fill="black" stroke="none"/></mask><path d=" M 13 6 L 13 2 C 13 0.9 13.9 0 15 0 L 23 0 C 24.1 0 25 0.9 25 2 L 25 6 L 13 6 Z " fill="rgb(255,255,255)" mask="url(#_mask_ZDTTRBcwBYsLWRTh5az28ixSVUhciGh7)" vector-effect="non-scaling-stroke" stroke-width="4" stroke="rgb(70,70,70)" stroke-linejoin="miter" stroke-linecap="round" stroke-miterlimit="10"/><path d=" M 13 6 L 13 2 C 13 0.9 13.9 0 15 0 L 23 0 C 24.1 0 25 0.9 25 2 L 25 6 L 13 6 Z " fill="rgb(255,255,255)"/><g><circle vector-effect="non-scaling-stroke" cx="7" cy="20" r="1" fill="rgb(232,232,232)"/><circle vector-effect="non-scaling-stroke" cx="7" cy="25.999999999999996" r="1" fill="rgb(232,232,232)"/><circle vector-effect="non-scaling-stroke" cx="10" cy="17" r="1" fill="rgb(232,232,232)"/><circle vector-effect="non-scaling-stroke" cx="16" cy="17" r="1" fill="rgb(232,232,232)"/><circle vector-effect="non-scaling-stroke" cx="10" cy="22.999999999999996" r="1" fill="rgb(232,232,232)"/><circle vector-effect="non-scaling-stroke" cx="16" cy="22.999999999999996" r="1" fill="rgb(232,232,232)"/><circle vector-effect="non-scaling-stroke" cx="13" cy="20" r="1" fill="rgb(232,232,232)"/><circle vector-effect="non-scaling-stroke" cx="19" cy="20" r="1" fill="rgb(232,232,232)"/><circle vector-effect="non-scaling-stroke" cx="13" cy="25.999999999999996" r="1" fill="rgb(232,232,232)"/><circle vector-effect="non-scaling-stroke" cx="19" cy="25.999999999999996" r="1" fill="rgb(232,232,232)"/><circle vector-effect="non-scaling-stroke" cx="22" cy="17" r="1" fill="rgb(232,232,232)"/><circle vector-effect="non-scaling-stroke" cx="28" cy="17" r="1" fill="rgb(232,232,232)"/><circle vector-effect="non-scaling-stroke" cx="22" cy="22.999999999999996" r="1" fill="rgb(232,232,232)"/><circle vector-effect="non-scaling-stroke" cx="28" cy="22.999999999999996" r="1" fill="rgb(232,232,232)"/><circle vector-effect="non-scaling-stroke" cx="25" cy="20" r="1" fill="rgb(232,232,232)"/><circle vector-effect="non-scaling-stroke" cx="31" cy="20" r="1" fill="rgb(232,232,232)"/><circle vector-effect="non-scaling-stroke" cx="25" cy="25.999999999999996" r="1" fill="rgb(232,232,232)"/><circle vector-effect="non-scaling-stroke" cx="31" cy="25.999999999999996" r="1" fill="rgb(232,232,232)"/><circle vector-effect="non-scaling-stroke" cx="7" cy="32" r="1" fill="rgb(232,232,232)"/><circle vector-effect="non-scaling-stroke" cx="7" cy="38" r="1" fill="rgb(232,232,232)"/><circle vector-effect="non-scaling-stroke" cx="10" cy="28.999999999999996" r="1" fill="rgb(232,232,232)"/><circle vector-effect="non-scaling-stroke" cx="16" cy="28.999999999999996" r="1" fill="rgb(232,232,232)"/><circle vector-effect="non-scaling-stroke" cx="10" cy="35" r="1" fill="rgb(232,232,232)"/><circle vector-effect="non-scaling-stroke" cx="16" cy="35" r="1" fill="rgb(232,232,232)"/><circle vector-effect="non-scaling-stroke" cx="13" cy="32" r="1" fill="rgb(232,232,232)"/><circle vector-effect="non-scaling-stroke" cx="19" cy="32" r="1" fill="rgb(232,232,232)"/><circle vector-effect="non-scaling-stroke" cx="13" cy="38" r="1" fill="rgb(232,232,232)"/><circle vector-effect="non-scaling-stroke" cx="19" cy="38" r="1" fill="rgb(232,232,232)"/><circle vector-effect="non-scaling-stroke" cx="22" cy="28.999999999999996" r="1" fill="rgb(232,232,232)"/><circle vector-effect="non-scaling-stroke" cx="28" cy="28.999999999999996" r="1" fill="rgb(232,232,232)"/><circle vector-effect="non-scaling-stroke" cx="22" cy="35" r="1" fill="rgb(232,232,232)"/><circle vector-effect="non-scaling-stroke" cx="28" cy="35" r="1" fill="rgb(232,232,232)"/><circle vector-effect="non-scaling-stroke" cx="25" cy="32" r="1" fill="rgb(232,232,232)"/><circle vector-effect="non-scaling-stroke" cx="31" cy="32" r="1" fill="rgb(232,232,232)"/><circle vector-effect="non-scaling-stroke" cx="25" cy="38" r="1" fill="rgb(232,232,232)"/><circle vector-effect="non-scaling-stroke" cx="31" cy="38" r="1" fill="rgb(232,232,232)"/><circle vector-effect="non-scaling-stroke" cx="7" cy="44" r="1" fill="rgb(232,232,232)"/><circle vector-effect="non-scaling-stroke" cx="10" cy="41" r="1" fill="rgb(232,232,232)"/><circle vector-effect="non-scaling-stroke" cx="16" cy="41" r="1" fill="rgb(232,232,232)"/><circle vector-effect="non-scaling-stroke" cx="10" cy="47" r="1" fill="rgb(232,232,232)"/><circle vector-effect="non-scaling-stroke" cx="16" cy="47" r="1" fill="rgb(232,232,232)"/><circle vector-effect="non-scaling-stroke" cx="13" cy="44" r="1" fill="rgb(232,232,232)"/><circle vector-effect="non-scaling-stroke" cx="19" cy="44" r="1" fill="rgb(232,232,232)"/><circle vector-effect="non-scaling-stroke" cx="22" cy="41" r="1" fill="rgb(232,232,232)"/><circle vector-effect="non-scaling-stroke" cx="28" cy="41" r="1" fill="rgb(232,232,232)"/><circle vector-effect="non-scaling-stroke" cx="22" cy="47" r="1" fill="rgb(232,232,232)"/><circle vector-effect="non-scaling-stroke" cx="28" cy="47" r="1" fill="rgb(232,232,232)"/><circle vector-effect="non-scaling-stroke" cx="25" cy="44" r="1" fill="rgb(232,232,232)"/><circle vector-effect="non-scaling-stroke" cx="31" cy="44" r="1" fill="rgb(232,232,232)"/></g></g></g></svg>