<?xml version="1.0" encoding="UTF-8" standalone="no"?><!-- Generator: Gravit.io --><svg xmlns="http://www.w3.org/2000/svg" xmlns:xlink="http://www.w3.org/1999/xlink" style="isolation:isolate" viewBox="0 0 60 60" width="60pt" height="60pt"><defs><clipPath id="_clipPath_gICMc9irGxzXuM10CHvuNyu4lywmPIZo"><rect width="60" height="60"/></clipPath></defs><g clip-path="url(#_clipPath_gICMc9irGxzXuM10CHvuNyu4lywmPIZo)"><rect width="60" height="60" style="fill:rgb(0,0,0)" fill-opacity="0"/><g><rect x="2.5" y="14.502" width="55" height="12" transform="matrix(1,0,0,1,0,0)" fill="rgb(74,134,232)"/><rect x="7.5" y="26.502" width="46" height="30" transform="matrix(1,0,0,1,0,0)" fill="rgb(46,111,217)"/><path d=" M 57.5 13.502 L 43.241 13.502 C 44.056 12.337 44.5 10.953 44.5 9.495 C 44.5 7.62 43.774 5.862 42.457 4.545 C 39.728 1.816 35.287 1.816 32.558 4.545 L 29.729 7.374 L 26.901 4.545 C 24.172 1.816 19.731 1.816 17.002 4.545 C 15.685 5.862 14.959 7.62 14.959 9.495 C 14.959 10.953 15.403 12.337 16.218 13.502 L 2.5 13.502 C 1.948 13.502 1.5 13.949 1.5 14.502 C 1.5 15.055 1.948 15.502 2.5 15.502 L 29.5 15.502 L 29.5 39.502 L 7.5 39.502 C 6.948 39.502 6.5 39.949 6.5 40.502 C 6.5 41.055 6.948 41.502 7.5 41.502 L 29.5 41.502 L 29.5 56.502 C 29.5 57.055 29.948 57.502 30.5 57.502 C 31.052 57.502 31.5 57.055 31.5 56.502 L 31.5 41.502 L 53.5 41.502 C 54.052 41.502 54.5 41.055 54.5 40.502 C 54.5 39.949 54.052 39.502 53.5 39.502 L 31.5 39.502 L 31.5 15.502 L 57.5 15.502 C 58.052 15.502 58.5 15.055 58.5 14.502 C 58.5 13.949 58.052 13.502 57.5 13.502 Z  M 33.972 5.959 C 35.922 4.01 39.094 4.01 41.043 5.959 C 41.982 6.899 42.5 8.154 42.5 9.495 C 42.5 10.835 41.982 12.091 41.043 13.03 L 40.571 13.502 L 26.429 13.502 L 30.435 9.496 L 30.436 9.495 L 30.437 9.494 L 33.972 5.959 Z  M 18.416 13.03 C 17.477 12.091 16.959 10.835 16.959 9.495 C 16.959 8.154 17.477 6.899 18.416 5.959 C 20.366 4.01 23.538 4.01 25.487 5.959 L 28.315 8.788 L 24.779 12.324 C 24.448 12.655 24.157 13.059 23.881 13.503 L 18.887 13.503 L 18.416 13.03 Z " fill="rgb(255,153,0)"/></g></g></svg>