<?xml version="1.0" encoding="UTF-8" standalone="no"?><!-- Generator: Gravit.io --><svg xmlns="http://www.w3.org/2000/svg" xmlns:xlink="http://www.w3.org/1999/xlink" style="isolation:isolate" viewBox="0 0 60 60" width="60pt" height="60pt"><defs><clipPath id="_clipPath_brIRzlahJLBuXiRK8UxwBF3KK3bytJE1"><rect width="60" height="60"/></clipPath></defs><g clip-path="url(#_clipPath_brIRzlahJLBuXiRK8UxwBF3KK3bytJE1)"><rect width="60" height="60" style="fill:rgb(0,0,0)" fill-opacity="0"/><g><g><g><path d=" M 19.609 5 L 19.109 5 C 18.557 5 18.109 4.553 18.109 4 C 18.109 3.447 18.557 3 19.109 3 L 19.609 3 C 20.161 3 20.609 3.447 20.609 4 C 20.609 4.553 20.162 5 19.609 5 Z " fill="rgb(0,157,255)"/><path d=" M 4 16.188 C 3.448 16.188 3 15.741 3 15.188 L 3 14.211 C 3 13.658 3.448 13.211 4 13.211 C 4.552 13.211 5 13.658 5 14.211 L 5 15.188 C 5 15.741 4.552 16.188 4 16.188 Z  M 4 11.304 C 3.448 11.304 3 10.857 3 10.304 L 3 9.326 C 3 8.773 3.448 8.326 4 8.326 C 4.552 8.326 5 8.773 5 9.326 L 5 10.304 C 5 10.856 4.552 11.304 4 11.304 Z  M 4.958 6.639 C 4.738 6.639 4.517 6.567 4.332 6.418 C 3.901 6.072 3.833 5.442 4.179 5.012 C 4.43 4.699 4.715 4.416 5.025 4.168 C 5.456 3.824 6.086 3.895 6.43 4.327 C 6.774 4.759 6.703 5.388 6.271 5.732 C 6.076 5.888 5.896 6.067 5.737 6.266 C 5.54 6.511 5.25 6.639 4.958 6.639 Z  M 15.201 5 L 14.224 5 C 13.672 5 13.224 4.553 13.224 4 C 13.224 3.447 13.672 3 14.224 3 L 15.201 3 C 15.753 3 16.201 3.447 16.201 4 C 16.201 4.553 15.753 5 15.201 5 Z  M 10.316 5 L 9.339 5 C 8.787 5 8.339 4.553 8.339 4 C 8.339 3.447 8.787 3 9.339 3 L 10.316 3 C 10.868 3 11.316 3.447 11.316 4 C 11.316 4.553 10.868 5 10.316 5 Z " fill="rgb(0,157,255)"/><path d=" M 4 20.609 C 3.448 20.609 3 20.162 3 19.609 L 3 19.109 C 3 18.556 3.448 18.109 4 18.109 C 4.552 18.109 5 18.556 5 19.109 L 5 19.609 C 5 20.162 4.552 20.609 4 20.609 Z " fill="rgb(0,157,255)"/></g><g><path d=" M 56 20.609 C 55.448 20.609 55 20.162 55 19.609 L 55 19.109 C 55 18.556 55.448 18.109 56 18.109 C 56.552 18.109 57 18.556 57 19.109 L 57 19.609 C 57 20.162 56.552 20.609 56 20.609 Z " fill="rgb(0,157,255)"/><path d=" M 56 16.201 C 55.448 16.201 55 15.754 55 15.201 L 55 14.224 C 55 13.671 55.448 13.224 56 13.224 C 56.552 13.224 57 13.671 57 14.224 L 57 15.201 C 57 15.754 56.552 16.201 56 16.201 Z  M 56 11.316 C 55.448 11.316 55 10.869 55 10.316 L 55 9.339 C 55 8.786 55.448 8.339 56 8.339 C 56.552 8.339 57 8.786 57 9.339 L 57 10.317 C 57 10.869 56.552 11.316 56 11.316 Z  M 55.05 6.648 C 54.756 6.648 54.465 6.519 54.267 6.271 C 54.111 6.075 53.932 5.895 53.735 5.738 C 53.304 5.392 53.235 4.762 53.581 4.332 C 53.927 3.901 54.557 3.834 54.987 4.178 C 55.299 4.429 55.583 4.714 55.832 5.026 C 56.176 5.458 56.105 6.087 55.673 6.431 C 55.489 6.577 55.269 6.648 55.05 6.648 Z  M 50.673 5 L 49.696 5 C 49.144 5 48.696 4.553 48.696 4 C 48.696 3.447 49.144 3 49.696 3 L 50.673 3 C 51.225 3 51.673 3.447 51.673 4 C 51.673 4.553 51.226 5 50.673 5 Z  M 45.789 5 L 44.812 5 C 44.26 5 43.812 4.553 43.812 4 C 43.812 3.447 44.26 3 44.812 3 L 45.789 3 C 46.341 3 46.789 3.447 46.789 4 C 46.789 4.553 46.341 5 45.789 5 Z " fill="rgb(0,157,255)"/><path d=" M 40.891 5 L 40.391 5 C 39.839 5 39.391 4.553 39.391 4 C 39.391 3.447 39.839 3 40.391 3 L 40.891 3 C 41.443 3 41.891 3.447 41.891 4 C 41.891 4.553 41.443 5 40.891 5 Z " fill="rgb(0,157,255)"/></g><g><path d=" M 40.891 57 L 40.391 57 C 39.839 57 39.391 56.553 39.391 56 C 39.391 55.447 39.839 55 40.391 55 L 40.891 55 C 41.443 55 41.891 55.447 41.891 56 C 41.891 56.553 41.443 57 40.891 57 Z " fill="rgb(0,157,255)"/><path d=" M 50.661 57 L 49.684 57 C 49.132 57 48.684 56.553 48.684 56 C 48.684 55.447 49.132 55 49.684 55 L 50.661 55 C 51.213 55 51.661 55.447 51.661 56 C 51.661 56.553 51.213 57 50.661 57 Z  M 45.776 57 L 44.799 57 C 44.247 57 43.799 56.553 43.799 56 C 43.799 55.447 44.247 55 44.799 55 L 45.776 55 C 46.328 55 46.776 55.447 46.776 56 C 46.776 56.553 46.328 57 45.776 57 Z  M 54.352 56.05 C 54.058 56.05 53.767 55.921 53.569 55.673 C 53.225 55.241 53.296 54.612 53.728 54.268 C 53.923 54.113 54.103 53.933 54.262 53.735 C 54.608 53.306 55.239 53.238 55.668 53.583 C 56.099 53.929 56.167 54.559 55.821 54.989 C 55.57 55.302 55.285 55.585 54.974 55.833 C 54.791 55.979 54.571 56.05 54.352 56.05 Z  M 56 51.674 C 55.448 51.674 55 51.227 55 50.674 L 55 49.696 C 55 49.143 55.448 48.696 56 48.696 C 56.552 48.696 57 49.143 57 49.696 L 57 50.674 C 57 51.227 56.552 51.674 56 51.674 Z  M 56 46.788 C 55.448 46.788 55 46.341 55 45.788 L 55 44.811 C 55 44.258 55.448 43.811 56 43.811 C 56.552 43.811 57 44.258 57 44.811 L 57 45.788 C 57 46.341 56.552 46.788 56 46.788 Z " fill="rgb(0,157,255)"/><path d=" M 56 41.891 C 55.448 41.891 55 41.444 55 40.891 L 55 40.391 C 55 39.838 55.448 39.391 56 39.391 C 56.552 39.391 57 39.838 57 40.391 L 57 40.891 C 57 41.443 56.552 41.891 56 41.891 Z " fill="rgb(0,157,255)"/></g><g><path d=" M 4 41.891 C 3.448 41.891 3 41.444 3 40.891 L 3 40.391 C 3 39.838 3.448 39.391 4 39.391 C 4.552 39.391 5 39.838 5 40.391 L 5 40.891 C 5 41.443 4.552 41.891 4 41.891 Z " fill="rgb(0,157,255)"/><path d=" M 15.188 57 L 14.211 57 C 13.659 57 13.211 56.553 13.211 56 C 13.211 55.447 13.659 55 14.211 55 L 15.188 55 C 15.74 55 16.188 55.447 16.188 56 C 16.188 56.553 15.741 57 15.188 57 Z  M 10.304 57 L 9.327 57 C 8.775 57 8.327 56.553 8.327 56 C 8.327 55.447 8.775 55 9.327 55 L 10.304 55 C 10.856 55 11.304 55.447 11.304 56 C 11.304 56.553 10.856 57 10.304 57 Z  M 5.638 56.042 C 5.418 56.042 5.197 55.97 5.013 55.822 C 4.701 55.571 4.417 55.286 4.168 54.974 C 3.824 54.542 3.895 53.913 4.327 53.569 C 4.758 53.226 5.388 53.296 5.732 53.728 C 5.888 53.924 6.067 54.104 6.264 54.261 C 6.695 54.607 6.764 55.237 6.418 55.667 C 6.221 55.914 5.931 56.042 5.638 56.042 Z  M 4 51.661 C 3.448 51.661 3 51.214 3 50.661 L 3 49.683 C 3 49.13 3.448 48.683 4 48.683 C 4.552 48.683 5 49.13 5 49.683 L 5 50.661 C 5 51.214 4.552 51.661 4 51.661 Z  M 4 46.775 C 3.448 46.775 3 46.328 3 45.775 L 3 44.798 C 3 44.245 3.448 43.798 4 43.798 C 4.552 43.798 5 44.245 5 44.798 L 5 45.775 C 5 46.328 4.552 46.775 4 46.775 Z " fill="rgb(0,157,255)"/><path d=" M 19.609 57 L 19.109 57 C 18.557 57 18.109 56.553 18.109 56 C 18.109 55.447 18.557 55 19.109 55 L 19.609 55 C 20.161 55 20.609 55.447 20.609 56 C 20.609 56.553 20.162 57 19.609 57 Z " fill="rgb(115,131,191)"/></g></g><path d=" M 30 2 C 14.536 2 2 14.536 2 30 C 2 45.464 14.536 58 30 58 C 45.464 58 58 45.464 58 30 C 58 14.536 45.464 2 30 2 Z  M 30 44.56 C 21.959 44.56 15.44 38.041 15.44 30 C 15.44 21.959 21.959 15.44 30 15.44 C 38.041 15.44 44.56 21.959 44.56 30 C 44.56 38.041 38.041 44.56 30 44.56 Z " fill="rgb(255,153,0)"/><g><path d=" M 23.392 2.805 C 23.258 2.269 22.714 1.945 22.179 2.077 C 21.643 2.211 21.318 2.754 21.451 3.289 L 24.712 16.334 C 24.826 16.789 25.233 17.092 25.681 17.092 C 25.762 17.092 25.843 17.082 25.925 17.062 C 26.461 16.928 26.786 16.385 26.653 15.85 L 23.392 2.805 Z " fill="rgb(74,134,232)"/><path d=" M 37.821 2.077 C 37.288 1.944 36.742 2.268 36.608 2.805 L 33.347 15.85 C 33.213 16.385 33.539 16.928 34.075 17.062 C 34.157 17.083 34.238 17.092 34.319 17.092 C 34.767 17.092 35.174 16.789 35.288 16.334 L 38.549 3.289 C 38.683 2.754 38.357 2.211 37.821 2.077 Z " fill="rgb(74,134,232)"/><path d=" M 35.288 43.666 C 35.154 43.129 34.609 42.808 34.075 42.938 C 33.539 43.072 33.214 43.615 33.347 44.15 L 36.608 57.195 C 36.722 57.65 37.129 57.953 37.577 57.953 C 37.658 57.953 37.739 57.943 37.821 57.923 C 38.357 57.789 38.682 57.246 38.549 56.711 L 35.288 43.666 Z " fill="rgb(74,134,232)"/><path d=" M 25.925 42.938 C 25.39 42.807 24.847 43.128 24.712 43.666 L 21.451 56.711 C 21.317 57.246 21.643 57.789 22.179 57.923 C 22.261 57.944 22.342 57.953 22.423 57.953 C 22.871 57.953 23.278 57.65 23.392 57.195 L 26.653 44.15 C 26.787 43.615 26.461 43.072 25.925 42.938 Z " fill="rgb(74,134,232)"/><path d=" M 43.908 26.683 C 43.989 26.683 44.07 26.673 44.152 26.653 L 57.197 23.392 C 57.733 23.258 58.058 22.715 57.925 22.18 C 57.791 21.643 57.247 21.317 56.712 21.452 L 43.667 24.713 C 43.131 24.847 42.806 25.39 42.939 25.925 C 43.052 26.38 43.46 26.683 43.908 26.683 Z " fill="rgb(74,134,232)"/><path d=" M 57.196 36.608 L 44.151 33.347 C 43.618 33.214 43.073 33.538 42.938 34.075 C 42.804 34.61 43.13 35.153 43.666 35.287 L 56.711 38.548 C 56.793 38.569 56.874 38.578 56.955 38.578 C 57.403 38.578 57.81 38.275 57.924 37.82 C 58.058 37.285 57.732 36.742 57.196 36.608 Z " fill="rgb(74,134,232)"/><path d=" M 15.849 33.348 L 2.804 36.608 C 2.268 36.742 1.943 37.285 2.076 37.82 C 2.19 38.275 2.597 38.578 3.045 38.578 C 3.126 38.578 3.207 38.568 3.289 38.548 L 16.334 35.287 C 16.87 35.153 17.195 34.61 17.062 34.075 C 16.927 33.539 16.383 33.215 15.849 33.348 Z " fill="rgb(74,134,232)"/><path d=" M 16.334 24.713 L 3.289 21.452 C 2.756 21.316 2.21 21.642 2.076 22.18 C 1.942 22.715 2.268 23.258 2.804 23.392 L 15.849 26.653 C 15.931 26.674 16.012 26.683 16.093 26.683 C 16.541 26.683 16.948 26.38 17.062 25.925 C 17.195 25.39 16.87 24.847 16.334 24.713 Z " fill="rgb(74,134,232)"/></g></g></g></svg>