<?xml version="1.0" encoding="UTF-8" standalone="no"?><!-- Generator: Gravit.io --><svg xmlns="http://www.w3.org/2000/svg" xmlns:xlink="http://www.w3.org/1999/xlink" style="isolation:isolate" viewBox="0 0 60 60" width="60pt" height="60pt"><defs><clipPath id="_clipPath_ZtXJz6NcymDXRLskwXUcbSH1SW2lKeax"><rect width="60" height="60"/></clipPath></defs><g clip-path="url(#_clipPath_ZtXJz6NcymDXRLskwXUcbSH1SW2lKeax)"><rect width="60" height="60" style="fill:rgb(0,0,0)" fill-opacity="0"/><g><path d=" M 32.264 11.467 L 32.264 26.967 C 32.264 27.795 31.592 28.467 30.764 28.467 L 30.764 28.467 C 29.936 28.467 29.264 27.795 29.264 26.967 L 29.264 4.467 C 29.264 2.81 27.921 1.467 26.264 1.467 L 26.264 1.467 C 24.607 1.467 23.264 2.81 23.264 4.467 L 23.264 26.967 C 23.264 27.795 22.592 28.467 21.764 28.467 L 21.764 28.467 C 20.936 28.467 20.264 27.795 20.264 26.967 L 20.264 8.967 C 20.264 7.586 19.145 6.467 17.764 6.467 L 17.764 6.467 C 16.383 6.467 15.264 7.586 15.264 8.967 L 15.264 28.967 C 15.264 29.795 14.592 30.467 13.764 30.467 L 13.764 30.467 C 12.936 30.467 12.264 29.795 12.264 28.967 L 12.264 16.467 C 12.264 15.086 11.145 13.967 9.764 13.967 L 9.754 13.967 C 8.373 13.967 7.254 15.086 7.254 16.467 L 7.254 43.595 C 8.09 55.675 14.714 58.533 24.064 58.533 C 30.731 58.533 36.48 55.124 39.241 50.182 C 40.402 48.308 47.435 37.357 48.039 36.213 C 48.743 34.879 49.774 33.273 51.074 32.211 C 51.767 31.645 52.228 30.893 52.655 30.106 C 52.764 29.904 53.081 27.46 51.264 27.467 C 49.688 27.473 47.889 28.137 46.584 29.019 C 45.121 30.008 43.222 31.715 41.6 34.55 C 41.073 35.472 40.129 36.114 39.068 36.138 C 38.067 36.161 38.326 35.67 38.264 33.602 L 38.264 33.602 L 38.264 30.614 L 38.264 11.467 C 38.264 9.81 36.921 8.467 35.264 8.467 L 35.264 8.467 C 33.607 8.467 32.264 9.81 32.264 11.467 Z " fill="rgb(255,153,0)"/></g></g></svg>