<?xml version="1.0" encoding="UTF-8" standalone="no"?><!-- Generator: Gravit.io --><svg xmlns="http://www.w3.org/2000/svg" xmlns:xlink="http://www.w3.org/1999/xlink" style="isolation:isolate" viewBox="252.394 351.946 76 66" width="76pt" height="66pt"><defs><clipPath id="_clipPath_KyFwrg7cWQUNlaDBlfdzfFCV5VfYTc9v"><rect x="252.394" y="351.946" width="76" height="66"/></clipPath></defs><g clip-path="url(#_clipPath_KyFwrg7cWQUNlaDBlfdzfFCV5VfYTc9v)"><g><path d=" M 290.394 361.946 L 267.394 383.303 L 267.394 387.946 L 267.394 417.946 L 313.394 417.946 L 313.394 387.946 L 313.394 383.303 L 290.394 361.946 Z " fill="rgb(231,236,237)"/><rect x="275.394" y="382.946" width="12" height="12" transform="matrix(1,0,0,1,0,0)" fill="rgb(74,134,232)"/><rect x="293.394" y="382.946" width="12" height="12" transform="matrix(1,0,0,1,0,0)" fill="rgb(74,134,232)"/><rect x="275.394" y="400.946" width="12" height="12" transform="matrix(1,0,0,1,0,0)" fill="rgb(74,134,232)"/><rect x="293.394" y="400.946" width="12" height="12" transform="matrix(1,0,0,1,0,0)" fill="rgb(74,134,232)"/><path d=" M 262.394 387.946 L 290.394 361.946 L 318.394 387.946" fill="none" vector-effect="non-scaling-stroke" stroke-width="2" stroke="rgb(255,153,0)" stroke-linejoin="miter" stroke-linecap="round" stroke-miterlimit="10"/></g></g></svg>