<?xml version="1.0" encoding="UTF-8" standalone="no"?><!-- Generator: Gravit.io --><svg xmlns="http://www.w3.org/2000/svg" xmlns:xlink="http://www.w3.org/1999/xlink" style="isolation:isolate" viewBox="252.514 331.668 76 66" width="76pt" height="66pt"><defs><clipPath id="_clipPath_ySpehnzbpEZIiRPmj2yXMG7l1R51H3er"><rect x="252.514" y="331.668" width="76" height="66"/></clipPath></defs><g clip-path="url(#_clipPath_ySpehnzbpEZIiRPmj2yXMG7l1R51H3er)"><g><path d=" M 290.514 341.668 L 267.514 363.025 L 267.514 367.668 L 267.514 397.668 L 313.514 397.668 L 313.514 367.668 L 313.514 363.025 L 290.514 341.668 Z " fill="rgb(255,153,0)"/><path d=" M 297.514 397.668 L 283.514 397.668 L 283.514 375.605 C 283.514 374.535 284.381 373.668 285.451 373.668 L 295.577 373.668 C 296.647 373.668 297.514 374.535 297.514 375.605 L 297.514 397.668 Z " fill="rgb(74,134,232)"/><path d=" M 309.514 359.311 L 309.514 346.668 L 301.514 346.668 L 301.514 351.883 L 309.514 359.311 Z " fill="rgb(255,153,0)"/><path d=" M 262.514 367.668 L 290.514 341.668 L 318.514 367.668" fill="none" vector-effect="non-scaling-stroke" stroke-width="2" stroke="rgb(74,134,232)" stroke-linejoin="miter" stroke-linecap="round" stroke-miterlimit="10"/></g></g></svg>