<?xml version="1.0" encoding="UTF-8" standalone="no"?><!-- Generator: Gravit.io --><svg xmlns="http://www.w3.org/2000/svg" xmlns:xlink="http://www.w3.org/1999/xlink" style="isolation:isolate" viewBox="0 0 60 60" width="60pt" height="60pt"><defs><clipPath id="_clipPath_Yqi70PPQEFK1p53dZj4clm3dSe86HjRt"><rect width="60" height="60"/></clipPath></defs><g clip-path="url(#_clipPath_Yqi70PPQEFK1p53dZj4clm3dSe86HjRt)"><rect width="60" height="60" style="fill:rgb(0,0,0)" fill-opacity="0"/><g><path d=" M 40.857 22.096 C 42.82 20.786 44 18.582 44 16.222 L 44 5 L 14 5 L 14 16.222 C 14 18.582 15.18 20.786 17.143 22.096 L 26.462 28.939 C 26.8 29.187 27 29.581 27 30 L 27 30 C 27 30.419 26.8 30.813 26.463 31.061 L 17.144 37.904 C 15.18 39.214 14 41.418 14 43.778 L 14 55 L 44 55 L 44 43.778 C 44 41.418 42.82 39.214 40.857 37.904 L 31.538 31.061 C 31.2 30.813 31 30.419 31 30 L 31 30 C 31 29.581 31.2 29.187 31.537 28.939 L 40.857 22.096 Z " fill="rgb(232,228,228)"/><rect x="9" y="55" width="40" height="4" transform="matrix(1,0,0,1,0,0)" fill="rgb(183,113,10)"/><rect x="9" y="1" width="40" height="4" transform="matrix(1,0,0,1,0,0)" fill="rgb(183,113,10)"/><g><path d=" M 53 58 L 49 58 L 5 58 C 4.448 58 4 58.447 4 59 C 4 59.553 4.448 60 5 60 L 49 60 L 53 60 C 53.552 60 54 59.553 54 59 C 54 58.447 53.552 58 53 58 Z " fill="rgb(255,153,0)"/><path d=" M 5 2 L 49 2 L 53 2 C 53.552 2 54 1.553 54 1 C 54 0.447 53.552 0 53 0 L 49 0 L 5 0 C 4.448 0 4 0.447 4 1 C 4 1.553 4.448 2 5 2 Z " fill="rgb(255,153,0)"/></g><path d=" M 39.192 19.6 C 40.324 18.845 41 17.582 41 16.223 L 41 16.223 C 41 14.917 40.111 13.778 38.844 13.461 L 23.791 9.698 C 20.342 8.835 17 11.444 17 15 L 17 16.223 C 17 17.582 17.676 18.845 18.808 19.6 L 28 26.346 L 28 42.223 C 28 45.853 24.236 48.259 20.942 46.734 L 20.942 46.734 C 19.168 45.913 17.02 47.128 17.001 49.083 C 17.001 49.097 17.001 49.11 17.001 49.124 L 17.001 55 L 41.001 55 L 41.001 43.777 C 41.001 43.763 41.001 43.75 41.001 43.736 C 40.982 41.805 39.112 40.414 37.21 40.745 L 35.161 41.102 C 32.466 41.571 30 39.497 30 36.763 L 30 26.346 L 39.192 19.6 Z " fill="rgb(235,186,22)"/></g></g></svg>