<?xml version="1.0" encoding="UTF-8" standalone="no"?><!-- Generator: Gravit.io --><svg xmlns="http://www.w3.org/2000/svg" xmlns:xlink="http://www.w3.org/1999/xlink" style="isolation:isolate" viewBox="0 0 60 60" width="60pt" height="60pt"><defs><clipPath id="_clipPath_JqURg15YTDQ3RrLVOly4Ecrgy6MxN5gd"><rect width="60" height="60"/></clipPath></defs><g clip-path="url(#_clipPath_JqURg15YTDQ3RrLVOly4Ecrgy6MxN5gd)"><rect width="60" height="60" style="fill:rgb(0,0,0)" fill-opacity="0"/><g><path d=" M 41.857 22.096 C 43.82 20.786 45 18.582 45 16.222 L 45 5 L 15 5 L 15 16.222 C 15 18.582 16.18 20.786 18.143 22.096 L 28 28.667 L 28 31.334 L 18.143 37.905 C 16.18 39.214 15 41.418 15 43.778 L 15 55 L 45 55 L 45 43.778 C 45 41.418 43.82 39.214 41.857 37.904 L 32 31.333 L 32 28.666 L 41.857 22.096 Z " fill="rgb(209,209,209)"/><path d=" M 40.192 19.6 C 41.324 18.845 42 17.582 42 16.223 L 42 16.223 C 42 14.917 41.111 13.778 39.844 13.461 L 24.791 9.698 C 21.342 8.835 18 11.444 18 15 L 18 16.223 C 18 17.582 18.676 18.845 19.808 19.6 L 29 26.346 L 29 42.223 C 29 45.853 25.236 48.259 21.942 46.734 L 21.942 46.734 C 20.168 45.913 18.02 47.128 18.001 49.083 C 18.001 49.097 18.001 49.11 18.001 49.124 L 18.001 55 L 42.001 55 L 42.001 43.777 C 42.001 43.763 42.001 43.75 42.001 43.736 C 41.982 41.805 40.112 40.414 38.21 40.745 L 36.161 41.102 C 33.466 41.571 31 39.497 31 36.763 L 31 26.346 L 40.192 19.6 Z " fill="rgb(74,134,232)"/><rect x="10" y="55" width="40" height="4" transform="matrix(1,0,0,1,0,0)" fill="rgb(74,134,232)"/><path d=" M 54 58 L 51 58 L 51 54 L 9 54 L 9 58 L 6 58 C 5.448 58 5 58.447 5 59 C 5 59.553 5.448 60 6 60 L 9 60 L 10 60 L 50 60 L 51 60 L 54 60 C 54.552 60 55 59.553 55 59 C 55 58.447 54.552 58 54 58 Z  M 11 56 L 49 56 L 49 58 L 11 58 L 11 56 Z " fill="rgb(255,153,0)"/><rect x="10" y="1" width="40" height="4" transform="matrix(1,0,0,1,0,0)" fill="rgb(74,134,232)"/><path d=" M 54 0 L 51 0 L 50 0 L 10 0 L 9 0 L 6 0 C 5.448 0 5 0.447 5 1 C 5 1.553 5.448 2 6 2 L 9 2 L 9 6 L 51 6 L 51 2 L 54 2 C 54.552 2 55 1.553 55 1 C 55 0.447 54.552 0 54 0 Z  M 49 4 L 11 4 L 11 2 L 49 2 L 49 4 Z " fill="rgb(255,153,0)"/><path d=" M 24.999 24 C 24.809 24 24.616 23.945 24.445 23.832 L 19.807 20.74 C 18.676 19.986 18 18.724 18 17.362 L 18 15.14 C 18 14.587 18.448 14.14 19 14.14 C 19.552 14.14 20 14.587 20 15.14 L 20 17.362 C 20 18.052 20.343 18.693 20.917 19.076 L 25.555 22.168 C 26.014 22.475 26.138 23.095 25.832 23.555 C 25.639 23.844 25.322 24 24.999 24 Z " fill="rgb(120,162,230)"/><path d=" M 41 46 C 40.448 46 40 45.553 40 45 L 40 42.778 C 40 42.088 39.657 41.447 39.083 41.064 L 34.445 37.972 C 33.986 37.665 33.862 37.045 34.168 36.585 C 34.475 36.125 35.094 36.001 35.555 36.308 L 40.193 39.4 C 41.324 40.154 42 41.417 42 42.778 L 42 45 C 42 45.553 41.552 46 41 46 Z " fill="rgb(120,162,230)"/></g></g></svg>