<?xml version="1.0" encoding="UTF-8" standalone="no"?><!-- Generator: Gravit.io --><svg xmlns="http://www.w3.org/2000/svg" xmlns:xlink="http://www.w3.org/1999/xlink" style="isolation:isolate" viewBox="0 0 60 60" width="60pt" height="60pt"><defs><clipPath id="_clipPath_9dLXYuhFG4pMQfDfGYSXWgaOYlYzBhQn"><rect width="60" height="60"/></clipPath></defs><g clip-path="url(#_clipPath_9dLXYuhFG4pMQfDfGYSXWgaOYlYzBhQn)"><rect width="60" height="60" style="fill:rgb(0,0,0)" fill-opacity="0"/><g><path d=" M 50 5 L 10 5 C 8.895 5 8 4.105 8 3 L 8 3 C 8 1.895 8.895 1 10 1 L 50 1 C 51.105 1 52 1.895 52 3 L 52 3 C 52 4.105 51.105 5 50 5 Z " fill="rgb(255,153,0)"/><path d=" M 50 59 L 10 59 C 8.895 59 8 58.105 8 57 L 8 57 C 8 55.895 8.895 55 10 55 L 50 55 C 51.105 55 52 55.895 52 57 L 52 57 C 52 58.105 51.105 59 50 59 Z " fill="rgb(255,153,0)"/><path d=" M 44 12 L 44 5 L 16 5 L 16 12 C 16 18.979 19.72 25.351 25.628 28.817 C 26.528 29.345 26.528 30.655 25.628 31.183 C 19.72 34.649 16 41.021 16 48 L 16 55 L 44 55 L 44 48 C 44 41.021 40.28 34.649 34.372 31.183 C 33.472 30.655 33.472 29.345 34.372 28.817 C 40.28 25.351 44 18.979 44 12 Z " fill="rgb(74,134,232)"/><path d=" M 30 55 L 44 55 L 44 48 C 44 41.021 40.28 34.649 34.372 31.183 C 33.472 30.655 33.472 29.345 34.372 28.817 C 40.28 25.351 44 18.979 44 12 L 44 5 L 30 5 L 30 55 Z " fill="rgb(43,111,221)"/><g><circle vector-effect="non-scaling-stroke" cx="18" cy="53.99999999999999" r="1" fill="rgb(231,236,237)"/><circle vector-effect="non-scaling-stroke" cx="22" cy="53.99999999999999" r="1" fill="rgb(231,236,237)"/><circle vector-effect="non-scaling-stroke" cx="26" cy="53.99999999999999" r="1" fill="rgb(231,236,237)"/><circle vector-effect="non-scaling-stroke" cx="30" cy="53.99999999999999" r="1" fill="rgb(231,236,237)"/><circle vector-effect="non-scaling-stroke" cx="34" cy="53.99999999999999" r="1" fill="rgb(231,236,237)"/><circle vector-effect="non-scaling-stroke" cx="38" cy="53.99999999999999" r="1" fill="rgb(231,236,237)"/><circle vector-effect="non-scaling-stroke" cx="42" cy="53.99999999999999" r="1" fill="rgb(231,236,237)"/><circle vector-effect="non-scaling-stroke" cx="20" cy="51.99999999999999" r="1" fill="rgb(231,236,237)"/><circle vector-effect="non-scaling-stroke" cx="24" cy="51.99999999999999" r="1" fill="rgb(231,236,237)"/><circle vector-effect="non-scaling-stroke" cx="28" cy="51.99999999999999" r="1" fill="rgb(231,236,237)"/><circle vector-effect="non-scaling-stroke" cx="32" cy="51.99999999999999" r="1" fill="rgb(231,236,237)"/><circle vector-effect="non-scaling-stroke" cx="36" cy="51.99999999999999" r="1" fill="rgb(231,236,237)"/><circle vector-effect="non-scaling-stroke" cx="40" cy="51.99999999999999" r="1" fill="rgb(231,236,237)"/><circle vector-effect="non-scaling-stroke" cx="22" cy="49.99999999999999" r="1" fill="rgb(231,236,237)"/><circle vector-effect="non-scaling-stroke" cx="26" cy="49.99999999999999" r="1" fill="rgb(231,236,237)"/><circle vector-effect="non-scaling-stroke" cx="30" cy="32.99999999999999" r="1" fill="rgb(231,236,237)"/><circle vector-effect="non-scaling-stroke" cx="24" cy="22" r="1" fill="rgb(231,236,237)"/><circle vector-effect="non-scaling-stroke" cx="28" cy="22" r="1" fill="rgb(231,236,237)"/><circle vector-effect="non-scaling-stroke" cx="32" cy="22" r="1" fill="rgb(231,236,237)"/><circle vector-effect="non-scaling-stroke" cx="36" cy="22" r="1" fill="rgb(231,236,237)"/><circle vector-effect="non-scaling-stroke" cx="34" cy="20" r="1" fill="rgb(231,236,237)"/><circle vector-effect="non-scaling-stroke" cx="36" cy="18" r="1" fill="rgb(231,236,237)"/><circle vector-effect="non-scaling-stroke" cx="26" cy="20" r="1" fill="rgb(231,236,237)"/><circle vector-effect="non-scaling-stroke" cx="30" cy="20" r="1" fill="rgb(231,236,237)"/><circle vector-effect="non-scaling-stroke" cx="24" cy="18" r="1" fill="rgb(231,236,237)"/><circle vector-effect="non-scaling-stroke" cx="26" cy="24" r="1" fill="rgb(231,236,237)"/><circle vector-effect="non-scaling-stroke" cx="28" cy="26" r="1" fill="rgb(231,236,237)"/><circle vector-effect="non-scaling-stroke" cx="32" cy="26" r="1" fill="rgb(231,236,237)"/><circle vector-effect="non-scaling-stroke" cx="30" cy="24" r="1" fill="rgb(231,236,237)"/><circle vector-effect="non-scaling-stroke" cx="34" cy="24" r="1" fill="rgb(231,236,237)"/><circle vector-effect="non-scaling-stroke" cx="30" cy="35.99999999999999" r="1" fill="rgb(231,236,237)"/><circle vector-effect="non-scaling-stroke" cx="30" cy="38.99999999999999" r="1" fill="rgb(231,236,237)"/><circle vector-effect="non-scaling-stroke" cx="30" cy="41.99999999999999" r="1" fill="rgb(231,236,237)"/><circle vector-effect="non-scaling-stroke" cx="30" cy="44.99999999999999" r="1" fill="rgb(231,236,237)"/><circle vector-effect="non-scaling-stroke" cx="30" cy="47.99999999999999" r="1" fill="rgb(231,236,237)"/><circle vector-effect="non-scaling-stroke" cx="34" cy="49.99999999999999" r="1" fill="rgb(231,236,237)"/><circle vector-effect="non-scaling-stroke" cx="38" cy="49.99999999999999" r="1" fill="rgb(231,236,237)"/></g></g></g></svg>