<?xml version="1.0" encoding="UTF-8" standalone="no"?><!-- Generator: Gravit.io --><svg xmlns="http://www.w3.org/2000/svg" xmlns:xlink="http://www.w3.org/1999/xlink" style="isolation:isolate" viewBox="242.394 341.946 96 78" width="96pt" height="78pt"><defs><clipPath id="_clipPath_EJ0dnQki5TS79T7aTjkj6Wc2UY1AgSyj"><rect x="242.394" y="341.946" width="96" height="78"/></clipPath></defs><g clip-path="url(#_clipPath_EJ0dnQki5TS79T7aTjkj6Wc2UY1AgSyj)"><g><path d=" M 316.186 388.474 L 292.394 370.134 L 268.602 388.474 C 267.374 389.42 265.628 389.275 264.574 388.139 L 264.574 388.139 C 263.379 386.852 263.541 384.819 264.924 383.737 L 290.354 363.842 L 292.394 361.946 L 294.435 363.842 L 319.865 383.737 C 321.248 384.819 321.41 386.852 320.215 388.139 L 320.215 388.139 C 319.16 389.275 317.414 389.42 316.186 388.474 Z " fill="rgb(176,39,33)"/><path d=" M 316.186 388.474 L 292.394 370.134 L 268.602 388.474 C 267.374 389.42 265.628 389.275 264.574 388.139 L 264.574 388.139 C 263.379 386.852 263.541 384.819 264.924 383.737 L 290.354 363.842 L 292.394 361.946 L 294.435 363.842 L 319.865 383.737 C 321.248 384.819 321.41 386.852 320.215 388.139 L 320.215 388.139 C 319.16 389.275 317.414 389.42 316.186 388.474 Z " fill="rgb(255,153,0)"/><path d=" M 292.394 370.134 L 269.394 387.863 L 269.394 387.946 L 269.394 417.946 L 315.394 417.946 L 315.394 387.946 L 315.394 387.863 L 292.394 370.134 Z " fill="rgb(224,225,226)"/><g><path d=" M 321.394 407.946 C 320.841 407.946 320.394 408.394 320.394 408.946 L 320.394 409.946 L 319.394 409.946 L 319.394 408.946 C 319.394 408.394 318.947 407.946 318.394 407.946 C 317.841 407.946 317.394 408.394 317.394 408.946 L 317.394 409.946 L 315.394 409.946 C 314.841 409.946 314.394 410.394 314.394 410.946 C 314.394 411.498 314.841 411.946 315.394 411.946 L 317.394 411.946 L 317.394 414.946 L 315.394 414.946 C 314.841 414.946 314.394 415.394 314.394 415.946 C 314.394 416.498 314.841 416.946 315.394 416.946 L 317.394 416.946 L 317.394 417.946 C 317.394 418.498 317.841 418.946 318.394 418.946 C 318.947 418.946 319.394 418.498 319.394 417.946 L 319.394 416.946 L 320.394 416.946 L 320.394 417.946 C 320.394 418.498 320.841 418.946 321.394 418.946 C 321.947 418.946 322.394 418.498 322.394 417.946 L 322.394 408.946 C 322.394 408.394 321.947 407.946 321.394 407.946 Z  M 319.394 414.946 L 319.394 411.946 L 320.394 411.946 L 320.394 414.946 L 319.394 414.946 Z " fill="rgb(255,153,0)"/><path d=" M 269.394 411.946 C 269.947 411.946 270.394 411.498 270.394 410.946 C 270.394 410.394 269.947 409.946 269.394 409.946 L 267.394 409.946 L 267.394 408.946 C 267.394 408.394 266.947 407.946 266.394 407.946 C 265.841 407.946 265.394 408.394 265.394 408.946 L 265.394 409.946 L 264.394 409.946 L 264.394 408.946 C 264.394 408.394 263.947 407.946 263.394 407.946 C 262.841 407.946 262.394 408.394 262.394 408.946 L 262.394 417.946 C 262.394 418.498 262.841 418.946 263.394 418.946 C 263.947 418.946 264.394 418.498 264.394 417.946 L 264.394 416.946 L 265.394 416.946 L 265.394 417.946 C 265.394 418.498 265.841 418.946 266.394 418.946 C 266.947 418.946 267.394 418.498 267.394 417.946 L 267.394 416.946 L 269.394 416.946 C 269.947 416.946 270.394 416.498 270.394 415.946 C 270.394 415.394 269.947 414.946 269.394 414.946 L 267.394 414.946 L 267.394 411.946 L 269.394 411.946 Z  M 265.394 414.946 L 264.394 414.946 L 264.394 411.946 L 265.394 411.946 L 265.394 414.946 Z " fill="rgb(255,153,0)"/></g><rect x="277.394" y="386.946" width="12" height="8" transform="matrix(1,0,0,1,0,0)" fill="rgb(74,134,232)"/><rect x="277.394" y="400.946" width="12" height="10" transform="matrix(1,0,0,1,0,0)" fill="rgb(74,134,232)"/><rect x="295.394" y="386.946" width="12" height="8" transform="matrix(1,0,0,1,0,0)" fill="rgb(74,134,232)"/><rect x="295.394" y="400.946" width="12" height="17" transform="matrix(1,0,0,1,0,0)" fill="rgb(74,134,232)"/><rect x="295.394" y="386.946" width="12" height="6" transform="matrix(1,0,0,1,0,0)" fill="rgb(116,116,116)"/><rect x="277.394" y="386.946" width="12" height="2.765" transform="matrix(1,0,0,1,0,0)" fill="rgb(116,116,116)"/><path d=" M 284.394 404.946 L 284.394 400.946 L 282.394 400.946 L 282.394 404.946 L 277.394 404.946 L 277.394 406.946 L 282.394 406.946 L 282.394 410.946 L 284.394 410.946 L 284.394 406.946 L 289.394 406.946 L 289.394 404.946 L 284.394 404.946 Z " fill="rgb(116,116,116)"/></g></g></svg>