<?xml version="1.0" encoding="UTF-8" standalone="no"?><!-- Generator: Gravit.io --><svg xmlns="http://www.w3.org/2000/svg" xmlns:xlink="http://www.w3.org/1999/xlink" style="isolation:isolate" viewBox="0 0 60 60" width="60pt" height="60pt"><defs><clipPath id="_clipPath_w3l45LH9NQpD6CcNL4aaXS8Z2EehjZTL"><rect width="60" height="60"/></clipPath></defs><g clip-path="url(#_clipPath_w3l45LH9NQpD6CcNL4aaXS8Z2EehjZTL)"><rect width="60" height="60" style="fill:rgb(0,0,0)" fill-opacity="0"/><g><path d=" M 55.783 51 L 4.217 51 C 2.44 51 1 49.56 1 47.783 L 1 12.217 C 1 10.44 2.44 9 4.217 9 L 55.783 9 C 57.56 9 59 10.44 59 12.217 L 59 47.783 C 59 49.56 57.56 51 55.783 51 Z " fill="rgb(255,153,0)"/><rect x="34" y="26" width="20" height="20" transform="matrix(1,0,0,1,0,0)" fill="rgb(74,134,232)"/><path d=" M 48.791 43.092 L 46.28 41.809 C 46.108 41.722 46 41.545 46 41.353 L 46 40.584 C 47.289 40.029 48.03 38.95 48.39 37.601 C 48.933 37.433 49.333 36.93 49.333 36.333 L 49.333 35.666 C 49.333 35.155 49.039 34.715 48.615 34.491 C 48.321 31.984 46.664 30.97 44 30.97 C 43.874 30.97 43.75 30.975 43.629 30.985 C 42.724 31.057 41.808 30.887 41.055 30.379 C 40.742 30.168 40.478 29.944 40.293 29.709 C 40.209 29.602 40.039 29.67 40.055 29.806 C 40.082 30.039 40.121 30.311 40.18 30.609 C 40.4 31.716 40.269 31.554 39.841 32.599 C 39.604 33.176 39.452 33.817 39.381 34.496 C 38.959 34.721 38.667 35.16 38.667 35.669 L 38.667 36.336 C 38.667 36.933 39.067 37.435 39.61 37.604 C 39.97 38.953 40.711 40.032 42 40.587 L 42 41.35 C 42 41.545 41.889 41.724 41.714 41.81 L 39.14 43.078 C 38.437 43.461 38 44.198 38 44.998 L 38 45.609 C 38 45.609 38 45.788 38 45.882 C 38 45.924 38.011 45.964 38.028 46.003 L 49.973 46.003 C 49.989 45.961 50 45.92 50 45.879 C 50 45.785 50 45.606 50 45.606 L 50 45.049 C 50 44.22 49.532 43.463 48.791 43.092 Z " fill="rgb(255,255,255)"/><rect x="1" y="14" width="58" height="8" transform="matrix(1,0,0,1,0,0)" fill="rgb(70,70,70)"/><g><path d=" M 15 27 L 6 27 C 5.447 27 5 27.447 5 28 C 5 28.553 5.447 29 6 29 L 15 29 C 15.553 29 16 28.553 16 28 C 16 27.447 15.553 27 15 27 Z " fill="rgb(209,209,209)"/><path d=" M 29 28 C 29 27.447 28.553 27 28 27 L 19 27 C 18.447 27 18 27.447 18 28 C 18 28.553 18.447 29 19 29 L 28 29 C 28.553 29 29 28.553 29 28 Z " fill="rgb(209,209,209)"/><path d=" M 7 32 L 6 32 C 5.447 32 5 32.447 5 33 C 5 33.553 5.447 34 6 34 L 7 34 C 7.553 34 8 33.553 8 33 C 8 32.447 7.553 32 7 32 Z " fill="rgb(209,209,209)"/><path d=" M 13 32 L 11 32 C 10.447 32 10 32.447 10 33 C 10 33.553 10.447 34 11 34 L 13 34 C 13.553 34 14 33.553 14 33 C 14 32.447 13.553 32 13 32 Z " fill="rgb(209,209,209)"/><path d=" M 18 32 L 17 32 C 16.447 32 16 32.447 16 33 C 16 33.553 16.447 34 17 34 L 18 34 C 18.553 34 19 33.553 19 33 C 19 32.447 18.553 32 18 32 Z " fill="rgb(209,209,209)"/><path d=" M 24 32 L 22 32 C 21.447 32 21 32.447 21 33 C 21 33.553 21.447 34 22 34 L 24 34 C 24.553 34 25 33.553 25 33 C 25 32.447 24.553 32 24 32 Z " fill="rgb(209,209,209)"/><path d=" M 27.29 32.29 C 27.109 32.479 27 32.729 27 33 C 27 33.27 27.109 33.52 27.29 33.71 C 27.479 33.89 27.74 34 28 34 C 28.26 34 28.52 33.89 28.71 33.71 C 28.89 33.52 29 33.26 29 33 C 29 32.74 28.89 32.479 28.71 32.29 C 28.34 31.92 27.66 31.92 27.29 32.29 Z " fill="rgb(209,209,209)"/></g><g><path d=" M 11.651 37.4 C 9.46 38.54 8.723 40.72 8.455 42.982 C 8.041 42.636 7.628 42.289 7.214 41.942 C 6.233 41.12 4.81 42.527 5.8 43.356 C 6.735 44.139 7.671 44.923 8.606 45.707 C 9.267 46.262 10.282 45.918 10.313 45 C 10.386 42.833 10.49 40.257 12.661 39.127 C 13.805 38.532 12.794 36.806 11.651 37.4 Z " fill="rgb(74,134,232)"/><path d=" M 26.814 41.513 C 26.391 40.934 25.955 40.45 25.182 40.392 C 23.725 40.282 21.224 42.367 20.19 40.524 C 19.928 40.056 19.28 39.884 18.822 40.165 C 17.406 41.034 15.555 42.284 14.066 40.665 C 13.191 39.714 11.78 41.132 12.652 42.079 C 14.523 44.112 16.936 43.489 19.059 42.338 C 19.507 42.819 20.043 43.148 20.756 43.405 C 21.665 43.733 24.843 42.185 25.089 42.522 C 25.839 43.553 27.576 42.557 26.814 41.513 Z " fill="rgb(74,134,232)"/></g></g></g></svg>