<?xml version="1.0" encoding="UTF-8" standalone="no"?><!-- Generator: Gravit.io --><svg xmlns="http://www.w3.org/2000/svg" xmlns:xlink="http://www.w3.org/1999/xlink" style="isolation:isolate" viewBox="0 0 60 60" width="60pt" height="60pt"><defs><clipPath id="_clipPath_9FhijmNEvXfowX4U4GPX4hAjpg72Yvaj"><rect width="60" height="60"/></clipPath></defs><g clip-path="url(#_clipPath_9FhijmNEvXfowX4U4GPX4hAjpg72Yvaj)"><rect width="60" height="60" style="fill:rgb(0,0,0)" fill-opacity="0"/><g><path d=" M 31.999 6 C 31.79 6 31.58 5.934 31.4 5.8 C 30.958 5.469 30.868 4.842 31.2 4.401 L 34.2 0.401 C 34.531 -0.041 35.158 -0.13 35.599 0.201 C 36.041 0.532 36.131 1.159 35.799 1.6 L 32.799 5.6 C 32.603 5.862 32.304 6 31.999 6 Z " fill="rgb(74,134,232)"/><path d=" M 46 5 L 12 5 C 10.9 5 10 5.9 10 7 L 10 57 C 10 58.1 10.9 59 12 59 L 46 59 C 47.1 59 48 58.1 48 57 L 48 7 C 48 5.9 47.1 5 46 5 Z  M 29 14 C 27.343 14 26 12.657 26 11 C 26 9.343 27.343 8 29 8 C 30.657 8 32 9.343 32 11 C 32 12.657 30.657 14 29 14 Z " fill="rgb(255,153,0)"/><path d=" M 10 41 L 10 57 C 10 58.1 10.9 59 12 59 L 46 59 C 47.1 59 48 58.1 48 57 L 48 41 L 10 41 Z " fill="rgb(70,70,70)"/><g><path d=" M 20 51 L 38 51 C 38.553 51 39 50.553 39 50 C 39 49.447 38.553 49 38 49 L 20 49 C 19.447 49 19 49.447 19 50 C 19 50.553 19.447 51 20 51 Z " fill="rgb(255,255,255)"/><path d=" M 24 47 L 34 47 C 34.553 47 35 46.553 35 46 C 35 45.447 34.553 45 34 45 L 24 45 C 23.447 45 23 45.447 23 46 C 23 46.553 23.447 47 24 47 Z " fill="rgb(255,255,255)"/><path d=" M 21 53 L 20 53 C 19.447 53 19 53.447 19 54 C 19 54.553 19.447 55 20 55 L 21 55 C 21.553 55 22 54.553 22 54 C 22 53.447 21.553 53 21 53 Z " fill="rgb(255,255,255)"/><path d=" M 27 53 L 25 53 C 24.447 53 24 53.447 24 54 C 24 54.553 24.447 55 25 55 L 27 55 C 27.553 55 28 54.553 28 54 C 28 53.447 27.553 53 27 53 Z " fill="rgb(255,255,255)"/><path d=" M 32 53 L 31 53 C 30.447 53 30 53.447 30 54 C 30 54.553 30.447 55 31 55 L 32 55 C 32.553 55 33 54.553 33 54 C 33 53.447 32.553 53 32 53 Z " fill="rgb(255,255,255)"/><path d=" M 38 53 L 36 53 C 35.447 53 35 53.447 35 54 C 35 54.553 35.447 55 36 55 L 38 55 C 38.553 55 39 54.553 39 54 C 39 53.447 38.553 53 38 53 Z " fill="rgb(255,255,255)"/></g><path d=" M 37.995 41 C 37.968 39.786 37.276 38.683 36.186 38.138 L 32.419 36.214 C 32.162 36.083 32 35.818 32 35.529 L 32 34.376 C 33.933 33.543 35.044 31.925 35.585 29.901 C 36.4 29.649 37 28.895 37 28 L 37 27 C 37 26.234 36.559 25.573 35.922 25.237 C 35.481 21.476 32.995 19.954 29 19.954 C 28.811 19.954 28.625 19.961 28.443 19.976 C 27.085 20.084 25.711 19.829 24.581 19.067 C 24.111 18.751 23.716 18.414 23.438 18.061 C 23.311 17.9 23.058 18.003 23.081 18.206 C 23.121 18.556 23.181 18.964 23.269 19.41 C 23.599 21.07 23.402 20.828 22.76 22.394 C 22.405 23.26 22.176 24.221 22.07 25.239 C 21.438 25.578 21 26.237 21 27 L 21 28 C 21 28.895 21.6 29.649 22.415 29.902 C 22.956 31.925 24.066 33.544 26 34.377 L 26 35.522 C 26 35.815 25.834 36.082 25.571 36.212 L 21.71 38.113 C 20.656 38.688 20 39.793 20 40.993 L 20 41 L 37.995 41 Z " fill="rgb(74,134,232)"/><path d=" M 29.001 12 C 28.634 12 28.281 11.798 28.105 11.447 L 23.105 1.447 C 22.858 0.953 23.058 0.352 23.552 0.105 C 24.046 -0.14 24.647 0.058 24.894 0.552 L 29.894 10.552 C 30.141 11.046 29.941 11.647 29.447 11.894 C 29.304 11.966 29.151 12 29.001 12 Z " fill="rgb(74,134,232)"/></g></g></svg>