<?xml version="1.0" encoding="UTF-8" standalone="no"?><!-- Generator: Gravit.io --><svg xmlns="http://www.w3.org/2000/svg" xmlns:xlink="http://www.w3.org/1999/xlink" style="isolation:isolate" viewBox="0 0 60 60" width="60pt" height="60pt"><defs><clipPath id="_clipPath_0xBkUYA4XUHtDzLtVGSUAJT0QnoRpROB"><rect width="60" height="60"/></clipPath></defs><g clip-path="url(#_clipPath_0xBkUYA4XUHtDzLtVGSUAJT0QnoRpROB)"><rect width="60" height="60" style="fill:rgb(0,0,0)" fill-opacity="0"/><g><path d=" M 36.464 44.926 C 37.169 42.575 38.579 40.46 40.46 38.814 C 43.985 35.876 46.218 31.41 46.218 26.474 C 46.218 17.307 38.579 9.786 29.177 10.256 C 20.833 10.609 14.017 17.66 13.782 26.004 C 13.664 31.175 15.897 35.759 19.54 38.814 C 21.538 40.46 22.949 42.575 23.654 44.926 L 36.464 44.926 L 36.464 44.926 Z " fill="rgb(255,153,0)"/><path d=" M 28.472 45.161 L 29.53 45.161 L 24.829 27.65 C 24.946 27.65 25.064 27.65 25.181 27.65 C 25.769 27.65 26.357 27.415 26.827 26.944 C 27.062 26.709 27.297 26.592 27.649 26.592 C 28.002 26.592 28.237 26.709 28.472 26.944 C 29.295 27.885 30.705 27.885 31.528 26.944 C 31.763 26.709 31.998 26.592 32.35 26.592 C 32.585 26.592 32.938 26.709 33.173 26.944 C 33.643 27.415 34.113 27.65 34.818 27.65 C 34.936 27.65 35.053 27.65 35.171 27.65 L 30.588 45.161 L 31.645 45.161 L 36.464 26.827 C 36.464 26.592 36.464 26.357 36.229 26.239 C 35.994 26.122 35.759 26.239 35.641 26.357 C 35.406 26.592 35.171 26.709 34.936 26.709 C 34.583 26.709 34.348 26.592 33.996 26.357 C 33.526 25.887 33.056 25.652 32.468 25.652 C 31.88 25.652 31.41 25.887 30.94 26.357 C 30.47 26.827 29.765 26.827 29.295 26.357 C 28.942 25.887 28.355 25.652 27.767 25.652 L 27.767 25.652 C 27.179 25.652 26.592 25.887 26.239 26.357 C 26.004 26.592 25.652 26.709 25.299 26.709 C 25.064 26.709 24.711 26.592 24.594 26.357 C 24.476 26.239 24.241 26.122 24.006 26.239 C 23.771 26.357 23.654 26.592 23.771 26.827 L 28.472 45.161 Z " fill="rgb(255,255,0)"/><g><path d=" M 26.357 55.738 C 26.944 57.148 28.355 58.206 30 58.206 C 31.645 58.206 33.056 57.148 33.643 55.738 L 26.357 55.738 Z " fill="rgb(70,70,70)"/><path d=" M 34.348 55.855 L 31.503 55.855 L 25.769 55.855 C 24.594 55.855 23.654 54.915 23.654 53.74 L 23.654 44.808 L 36.464 44.808 L 36.464 53.74 C 36.464 54.915 35.524 55.855 34.348 55.855 Z " fill="rgb(139,139,139)"/></g><g><path d=" M 36.346 49.274 L 23.654 49.274 C 22.949 49.274 22.361 48.686 22.361 47.981 L 22.361 47.981 C 22.361 47.276 22.949 46.688 23.654 46.688 L 36.346 46.688 C 37.051 46.688 37.639 47.276 37.639 47.981 L 37.639 47.981 C 37.639 48.686 37.051 49.274 36.346 49.274 Z " fill="rgb(70,70,70)"/><path d=" M 36.346 53.387 L 23.654 53.387 C 22.949 53.387 22.361 52.8 22.361 52.095 L 22.361 52.095 C 22.361 51.389 22.949 50.802 23.654 50.802 L 36.346 50.802 C 37.051 50.802 37.639 51.389 37.639 52.095 L 37.639 52.095 C 37.639 52.8 37.051 53.387 36.346 53.387 Z " fill="rgb(70,70,70)"/></g><g><path d=" M 30 1.794 C 29.412 1.794 28.825 2.264 28.825 2.97 L 28.825 6.965 C 28.825 7.553 29.295 8.141 30 8.141 C 30.705 8.141 31.175 7.671 31.175 6.965 L 31.175 2.97 C 31.175 2.264 30.588 1.794 30 1.794 Z " fill="rgb(255,209,92)"/><path d=" M 14.252 8.963 C 13.782 8.493 13.077 8.493 12.607 8.963 C 12.137 9.433 12.136 10.139 12.607 10.609 L 15.427 13.429 C 15.897 13.899 16.602 13.899 17.072 13.429 C 17.542 12.959 17.543 12.254 17.072 11.784 L 14.252 8.963 Z " fill="rgb(255,209,92)"/><path d=" M 10.609 25.182 L 6.613 25.182 C 6.025 25.182 5.437 25.652 5.437 26.357 L 5.437 26.357 C 5.437 26.944 5.908 27.532 6.613 27.532 L 10.609 27.532 C 11.196 27.532 11.784 27.062 11.784 26.357 L 11.784 26.357 C 11.784 25.769 11.196 25.182 10.609 25.182 Z " fill="rgb(255,209,92)"/><path d=" M 15.427 39.284 L 12.606 42.105 C 12.136 42.575 12.136 43.28 12.606 43.75 C 13.077 44.22 13.782 44.22 14.252 43.75 L 17.072 40.93 C 17.542 40.46 17.542 39.754 17.072 39.284 C 16.602 38.814 15.897 38.814 15.427 39.284 Z " fill="rgb(255,209,92)"/><path d=" M 44.573 39.284 C 44.103 38.814 43.398 38.814 42.928 39.284 C 42.457 39.755 42.457 40.46 42.928 40.93 L 45.748 43.75 C 46.218 44.22 46.923 44.22 47.393 43.75 C 47.863 43.28 47.864 42.575 47.393 42.105 L 44.573 39.284 Z " fill="rgb(255,209,92)"/><path d=" M 53.387 25.182 L 49.391 25.182 C 48.804 25.182 48.216 25.652 48.216 26.357 L 48.216 26.357 C 48.216 26.944 48.686 27.532 49.391 27.532 L 53.387 27.532 C 53.975 27.532 54.563 27.062 54.563 26.357 L 54.563 26.357 C 54.562 25.769 54.092 25.182 53.387 25.182 Z " fill="rgb(255,209,92)"/><path d=" M 45.748 8.963 L 42.928 11.784 C 42.457 12.254 42.457 12.959 42.928 13.429 C 43.398 13.899 44.103 13.899 44.573 13.429 L 47.393 10.609 C 47.864 10.138 47.864 9.433 47.393 8.963 C 46.923 8.493 46.218 8.493 45.748 8.963 Z " fill="rgb(255,209,92)"/></g></g></g></svg>