<?xml version="1.0" encoding="UTF-8" standalone="no"?><!-- Generator: Gravit.io --><svg xmlns="http://www.w3.org/2000/svg" xmlns:xlink="http://www.w3.org/1999/xlink" style="isolation:isolate" viewBox="0 0 60 60" width="60pt" height="60pt"><defs><clipPath id="_clipPath_IoaNIgayTzpiw4NzkuGvXNQjbgPJSY38"><rect width="60" height="60"/></clipPath></defs><g clip-path="url(#_clipPath_IoaNIgayTzpiw4NzkuGvXNQjbgPJSY38)"><rect width="60" height="60" style="fill:rgb(0,0,0)" fill-opacity="0"/><g><path d=" M 30 31.5 C 30 38.956 23.956 45 16.5 45 C 9.044 45 3 38.956 3 31.5 C 3 24.044 9.044 18 16.5 18 C 19.277 18 21.86 18.839 24.006 20.277 C 24.747 20.774 25.436 21.341 26.064 21.972" fill="none" vector-effect="non-scaling-stroke" stroke-width="4" stroke="rgb(255,153,0)" stroke-linejoin="miter" stroke-linecap="round" stroke-miterlimit="10"/><path d=" M 30 31.5 C 30 24.044 36.044 18 43.5 18 C 50.956 18 57 24.044 57 31.5 C 57 38.956 50.956 45 43.5 45 C 39.773 45 36.399 43.49 33.956 41.048" fill="none" vector-effect="non-scaling-stroke" stroke-width="4" stroke="rgb(74,134,232)" stroke-linejoin="miter" stroke-linecap="round" stroke-miterlimit="10"/></g></g></svg>