<?xml version="1.0" encoding="UTF-8" standalone="no"?><!-- Generator: Gravit.io --><svg xmlns="http://www.w3.org/2000/svg" xmlns:xlink="http://www.w3.org/1999/xlink" style="isolation:isolate" viewBox="0 0 60 60" width="60pt" height="60pt"><defs><clipPath id="_clipPath_xwPz0oeONQYn2ILOX6us2uLJNbc3ontx"><rect width="60" height="60"/></clipPath></defs><g clip-path="url(#_clipPath_xwPz0oeONQYn2ILOX6us2uLJNbc3ontx)"><rect width="60" height="60" style="fill:rgb(0,0,0)" fill-opacity="0"/><g><circle vector-effect="non-scaling-stroke" cx="30" cy="30" r="28" fill="rgb(74,134,232)" stroke-width="2" stroke="rgb(255,153,0)" stroke-linejoin="miter" stroke-linecap="round" stroke-miterlimit="10"/><line x1="30" y1="58" x2="30" y2="2" vector-effect="non-scaling-stroke" stroke-width="2" stroke="rgb(255,153,0)" stroke-linejoin="miter" stroke-linecap="round" stroke-miterlimit="10"/><path d=" M 30 2 C 29.786 2 29.574 2.011 29.361 2.016 C 21.213 8.616 16 18.697 16 30 C 16 41.303 21.213 51.384 29.361 57.984 C 29.574 57.989 29.786 58 30 58" fill="none" vector-effect="non-scaling-stroke" stroke-width="2" stroke="rgb(255,153,0)" stroke-linejoin="miter" stroke-linecap="round" stroke-miterlimit="10"/><path d=" M 9.698 10.728 C 15.478 14.683 22.468 17 30 17 C 37.532 17 44.522 14.683 50.302 10.728" fill="none" vector-effect="non-scaling-stroke" stroke-width="2" stroke="rgb(255,153,0)" stroke-linejoin="miter" stroke-linecap="round" stroke-miterlimit="10"/><path d=" M 50.862 48.67 C 44.975 44.475 37.779 42 30 42 C 22.221 42 15.025 44.475 9.138 48.67" fill="none" vector-effect="non-scaling-stroke" stroke-width="2" stroke="rgb(255,153,0)" stroke-linejoin="miter" stroke-linecap="round" stroke-miterlimit="10"/><path d=" M 30 58 C 30.214 58 30.426 57.989 30.639 57.984 C 38.787 51.384 44 41.303 44 30 C 44 18.697 38.787 8.616 30.639 2.016 C 30.426 2.011 30.214 2 30 2" fill="none" vector-effect="non-scaling-stroke" stroke-width="2" stroke="rgb(255,153,0)" stroke-linejoin="miter" stroke-linecap="round" stroke-miterlimit="10"/><line x1="2" y1="30" x2="58" y2="30" vector-effect="non-scaling-stroke" stroke-width="2" stroke="rgb(255,153,0)" stroke-linejoin="miter" stroke-linecap="round" stroke-miterlimit="10"/></g></g></svg>