<?xml version="1.0" encoding="UTF-8" standalone="no"?><!-- Generator: Gravit.io --><svg xmlns="http://www.w3.org/2000/svg" xmlns:xlink="http://www.w3.org/1999/xlink" style="isolation:isolate" viewBox="0 0 60 60" width="60pt" height="60pt"><defs><clipPath id="_clipPath_piNNf1TTn4zrb5914ADjHOpcx5BXxQF1"><rect width="60" height="60"/></clipPath></defs><g clip-path="url(#_clipPath_piNNf1TTn4zrb5914ADjHOpcx5BXxQF1)"><rect width="60" height="60" style="fill:rgb(0,0,0)" fill-opacity="0"/><g><path d=" M 42 1 C 32.626 1 25 8.626 25 18 C 25 21.195 25.902 24.175 27.441 26.731 L 1.586 52.586 C 0.805 53.367 0.805 54.633 1.586 55.414 C 1.977 55.805 2.488 56 3 56 C 3.512 56 4.023 55.805 4.414 55.414 L 8 51.828 L 14.586 58.414 C 14.977 58.805 15.488 59 16 59 C 16.512 59 17.023 58.805 17.414 58.414 C 18.195 57.633 18.195 56.367 17.414 55.586 L 10.828 49 L 13 46.828 L 17.586 51.414 C 17.977 51.805 18.488 52 19 52 C 19.512 52 20.023 51.805 20.414 51.414 C 21.195 50.633 21.195 49.367 20.414 48.586 L 15.828 44 L 18 41.828 L 24.586 48.414 C 24.977 48.805 25.488 49 26 49 C 26.512 49 27.023 48.805 27.414 48.414 C 28.195 47.633 28.195 46.367 27.414 45.586 L 20.828 39 L 29.903 29.925 C 32.988 33.054 37.269 35 42 35 C 51.374 35 59 27.374 59 18 C 59 8.626 51.374 1 42 1 Z  M 42 31 C 34.832 31 29 25.168 29 18 C 29 10.832 34.832 5 42 5 C 49.168 5 55 10.832 55 18 C 55 25.168 49.168 31 42 31 Z " fill="rgb(255,153,0)"/></g></g></svg>