<?xml version="1.0" encoding="UTF-8" standalone="no"?><!-- Generator: Gravit.io --><svg xmlns="http://www.w3.org/2000/svg" xmlns:xlink="http://www.w3.org/1999/xlink" style="isolation:isolate" viewBox="0 0 60 60" width="60pt" height="60pt"><defs><clipPath id="_clipPath_b7fuD1YH3L7cp5coVflUMwWywjis4DRj"><rect width="60" height="60"/></clipPath></defs><g clip-path="url(#_clipPath_b7fuD1YH3L7cp5coVflUMwWywjis4DRj)"><rect width="60" height="60" style="fill:rgb(0,0,0)" fill-opacity="0"/><g><path d=" M 29.851 17.126 C 31.869 12.343 36.479 9.001 41.841 9.001 C 49.064 9.001 54.266 15.18 54.92 22.544 C 54.92 22.544 55.273 24.372 54.496 27.663 C 53.438 32.145 50.951 36.127 47.598 39.166 L 29.851 55 L 12.403 39.165 C 9.05 36.127 6.563 32.144 5.505 27.662 C 4.728 24.371 5.081 22.543 5.081 22.543 C 5.735 15.179 10.937 9 18.16 9 C 23.523 9 27.833 12.343 29.851 17.126 Z " fill="rgb(215,90,74)"/></g><g><path d=" M 29.87 20.066 C 31.625 15.907 35.633 13.001 40.296 13.001 C 46.577 13.001 51.1 18.374 51.669 24.777 C 51.669 24.777 51.976 26.367 51.3 29.229 C 50.38 33.126 48.218 36.589 45.302 39.231 L 29.87 53 L 14.698 39.23 C 11.782 36.589 9.62 33.125 8.7 29.228 C 8.024 26.366 8.331 24.777 8.331 24.777 C 8.9 18.373 13.423 13 19.704 13 C 24.367 13 28.115 15.907 29.87 20.066 Z " fill="rgb(230,115,100)"/></g><g><path d=" M 29.886 23.183 C 31.422 19.544 34.929 17.001 39.009 17.001 C 44.505 17.001 48.463 21.702 48.96 27.305 C 48.96 27.305 49.229 28.696 48.638 31.2 C 47.833 34.61 45.941 37.64 43.389 39.952 L 29.886 52 L 16.611 39.952 C 14.059 37.64 12.167 34.61 11.362 31.199 C 10.771 28.695 11.04 27.304 11.04 27.304 C 11.537 21.701 15.495 17 20.991 17 C 25.071 17 28.351 19.544 29.886 23.183 Z " fill="rgb(215,90,74)"/></g></g></svg>