<?xml version="1.0" encoding="UTF-8" standalone="no"?><!-- Generator: Gravit.io --><svg xmlns="http://www.w3.org/2000/svg" xmlns:xlink="http://www.w3.org/1999/xlink" style="isolation:isolate" viewBox="0 0 60 60" width="60pt" height="60pt"><defs><clipPath id="_clipPath_xhzb4WlaeGcpVMPRUzhvaXVHW1huTnYs"><rect width="60" height="60"/></clipPath></defs><g clip-path="url(#_clipPath_xhzb4WlaeGcpVMPRUzhvaXVHW1huTnYs)"><rect width="60" height="60" style="fill:rgb(0,0,0)" fill-opacity="0"/><g><path d=" M 29.851 15.126 C 31.869 10.343 36.479 7.001 41.841 7.001 C 49.064 7.001 54.266 13.18 54.92 20.544 C 54.92 20.544 55.273 22.372 54.496 25.663 C 53.438 30.145 50.951 34.127 47.598 37.166 L 29.851 53 L 12.403 37.165 C 9.049 34.127 6.563 30.144 5.505 25.662 C 4.728 22.371 5.081 20.543 5.081 20.543 C 5.735 13.179 10.936 7 18.16 7 C 23.522 7 27.833 10.343 29.851 15.126 Z " fill="rgb(206,58,42)"/><path d=" M 11 23.078 C 10.448 23.078 10 22.631 10 22.078 C 10 16.564 14.487 12.078 20.001 12.078 C 20.554 12.078 21.001 12.525 21.001 13.078 C 21.001 13.631 20.554 14.078 20.001 14.078 C 15.59 14.078 12 17.667 12 22.078 C 12 22.631 11.554 23.078 11 23.078 Z " fill="rgb(232,232,232)"/></g></g></svg>