<?xml version="1.0" encoding="UTF-8" standalone="no"?><!-- Generator: Gravit.io --><svg xmlns="http://www.w3.org/2000/svg" xmlns:xlink="http://www.w3.org/1999/xlink" style="isolation:isolate" viewBox="325.531 261.946 95.654 95.655" width="95.654pt" height="95.655pt"><defs><clipPath id="_clipPath_MXcWBmf8grkREVZ1khHKJO2NUWzHNpAl"><rect x="325.531" y="261.946" width="95.654" height="95.655"/></clipPath></defs><g clip-path="url(#_clipPath_MXcWBmf8grkREVZ1khHKJO2NUWzHNpAl)"><g><mask id="_mask_QcDI6DLNgP0RX5Mb0535NYMC67nzVmPH" x="-200%" y="-200%" width="400%" height="400%"><rect x="-200%" y="-200%" width="400%" height="400%" style="fill:white;"/><path d=" M 373.358 309.774 L 373.358 309.774 C 369.082 305.498 369.082 298.501 373.358 294.224 L 382.429 285.153 C 386.705 280.877 393.702 280.877 397.978 285.153 L 397.978 285.153 C 402.254 289.429 402.254 296.426 397.978 300.702 L 388.907 309.773 C 384.632 314.05 377.634 314.05 373.358 309.774 Z " fill="black" stroke="none"/></mask><path d=" M 373.358 309.774 L 373.358 309.774 C 369.082 305.498 369.082 298.501 373.358 294.224 L 382.429 285.153 C 386.705 280.877 393.702 280.877 397.978 285.153 L 397.978 285.153 C 402.254 289.429 402.254 296.426 397.978 300.702 L 388.907 309.773 C 384.632 314.05 377.634 314.05 373.358 309.774 Z " fill="none" mask="url(#_mask_QcDI6DLNgP0RX5Mb0535NYMC67nzVmPH)" vector-effect="non-scaling-stroke" stroke-width="4" stroke="rgb(53,112,206)" stroke-linejoin="miter" stroke-linecap="round" stroke-miterlimit="10"/><path d=" M 373.358 309.774 L 373.358 309.774 C 369.082 305.498 369.082 298.501 373.358 294.224 L 382.429 285.153 C 386.705 280.877 393.702 280.877 397.978 285.153 L 397.978 285.153 C 402.254 289.429 402.254 296.426 397.978 300.702 L 388.907 309.773 C 384.632 314.05 377.634 314.05 373.358 309.774 Z " fill="none"/><mask id="_mask_CVdfQxltwwHahi0KtAoTUBBOHGruXivg" x="-200%" y="-200%" width="400%" height="400%"><rect x="-200%" y="-200%" width="400%" height="400%" style="fill:white;"/><path d=" M 348.738 334.394 L 348.738 334.394 C 344.462 330.118 344.462 323.121 348.738 318.844 L 357.809 309.773 C 362.085 305.497 369.082 305.497 373.358 309.773 L 373.358 309.773 C 377.634 314.049 377.634 321.046 373.358 325.322 L 364.287 334.393 C 360.011 338.67 353.014 338.67 348.738 334.394 Z " fill="black" stroke="none"/></mask><path d=" M 348.738 334.394 L 348.738 334.394 C 344.462 330.118 344.462 323.121 348.738 318.844 L 357.809 309.773 C 362.085 305.497 369.082 305.497 373.358 309.773 L 373.358 309.773 C 377.634 314.049 377.634 321.046 373.358 325.322 L 364.287 334.393 C 360.011 338.67 353.014 338.67 348.738 334.394 Z " fill="none" mask="url(#_mask_CVdfQxltwwHahi0KtAoTUBBOHGruXivg)" vector-effect="non-scaling-stroke" stroke-width="4" stroke="rgb(221,135,5)" stroke-linejoin="miter" stroke-linecap="round" stroke-miterlimit="10"/><path d=" M 348.738 334.394 L 348.738 334.394 C 344.462 330.118 344.462 323.121 348.738 318.844 L 357.809 309.773 C 362.085 305.497 369.082 305.497 373.358 309.773 L 373.358 309.773 C 377.634 314.049 377.634 321.046 373.358 325.322 L 364.287 334.393 C 360.011 338.67 353.014 338.67 348.738 334.394 Z " fill="none"/><mask id="_mask_Z4iqdO56pvztyUVD17LoirwQYxnbfWMr" x="-200%" y="-200%" width="400%" height="400%"><rect x="-200%" y="-200%" width="400%" height="400%" style="fill:white;"/><line x1="382.689" y1="300.443" x2="364.027" y2="319.105" fill="black" stroke="none"/></mask><line x1="382.689" y1="300.443" x2="364.027" y2="319.105" mask="url(#_mask_Z4iqdO56pvztyUVD17LoirwQYxnbfWMr)" vector-effect="non-scaling-stroke" stroke-width="4" stroke="rgb(37,174,136)" stroke-linejoin="miter" stroke-linecap="round" stroke-miterlimit="10"/><path d=" M 373.358 309.774 L 373.358 309.774 C 369.082 305.498 369.082 298.501 373.358 294.224 L 382.429 285.153 C 386.705 280.877 393.702 280.877 397.978 285.153 L 397.978 285.153 C 402.254 289.429 402.254 296.426 397.978 300.702 L 388.907 309.773 C 384.632 314.05 377.634 314.05 373.358 309.774 Z " fill="none" vector-effect="non-scaling-stroke" stroke-width="2" stroke="rgb(74,134,232)" stroke-linejoin="miter" stroke-linecap="round" stroke-miterlimit="10"/><path d=" M 348.738 334.394 L 348.738 334.394 C 344.462 330.118 344.462 323.121 348.738 318.844 L 357.809 309.773 C 362.085 305.497 369.082 305.497 373.358 309.773 L 373.358 309.773 C 377.634 314.049 377.634 321.046 373.358 325.322 L 364.287 334.393 C 360.011 338.67 353.014 338.67 348.738 334.394 Z " fill="none" vector-effect="non-scaling-stroke" stroke-width="2" stroke="rgb(255,153,0)" stroke-linejoin="miter" stroke-linecap="round" stroke-miterlimit="10"/><line x1="382.689" y1="300.443" x2="364.027" y2="319.105" vector-effect="non-scaling-stroke" stroke-width="2" stroke="rgb(36,204,156)" stroke-linejoin="miter" stroke-linecap="round" stroke-miterlimit="10"/></g></g></svg>