<?xml version="1.0" encoding="UTF-8" standalone="no"?><!-- Generator: Gravit.io --><svg xmlns="http://www.w3.org/2000/svg" xmlns:xlink="http://www.w3.org/1999/xlink" style="isolation:isolate" viewBox="325.531 252.635 95.654 105.526" width="95.654pt" height="105.526pt"><defs><clipPath id="_clipPath_n85u3pQ0F7QivyAUiVj8XxSIdqpGgmNO"><rect x="325.531" y="252.635" width="95.654" height="105.526"/></clipPath></defs><g clip-path="url(#_clipPath_n85u3pQ0F7QivyAUiVj8XxSIdqpGgmNO)"><g><rect x="333.9" y="252.635" width="58" height="58" transform="matrix(1,0,0,1,0,0)" fill="rgb(232,232,232)"/><path d=" M 347.829 262.635 L 349.043 265.095 L 351.758 265.49 L 349.794 267.405 L 350.257 270.109 L 347.829 268.832 L 345.401 270.109 L 345.865 267.405 L 343.9 265.49 L 346.615 265.095 L 347.829 262.635 Z " fill="rgb(255,153,0)"/><path d=" M 347.829 277.718 L 349.043 280.178 L 351.758 280.573 L 349.794 282.488 L 350.257 285.192 L 347.829 283.915 L 345.401 285.192 L 345.865 282.488 L 343.9 280.573 L 346.615 280.178 L 347.829 277.718 Z " fill="rgb(255,153,0)"/><path d=" M 347.829 293.161 L 349.043 295.622 L 351.758 296.016 L 349.794 297.931 L 350.257 300.635 L 347.829 299.358 L 345.401 300.635 L 345.865 297.931 L 343.9 296.016 L 346.615 295.622 L 347.829 293.161 Z " fill="rgb(255,153,0)"/><path d=" M 379.9 268.635 L 356.329 268.635 C 355.777 268.635 355.329 268.188 355.329 267.635 C 355.329 267.082 355.777 266.635 356.329 266.635 L 379.9 266.635 C 380.452 266.635 380.9 267.082 380.9 267.635 C 380.9 268.188 380.452 268.635 379.9 268.635 Z " fill="rgb(74,134,232)"/><path d=" M 379.9 283.635 L 356.329 283.635 C 355.777 283.635 355.329 283.188 355.329 282.635 C 355.329 282.082 355.777 281.635 356.329 281.635 L 379.9 281.635 C 380.452 281.635 380.9 282.082 380.9 282.635 C 380.9 283.188 380.452 283.635 379.9 283.635 Z " fill="rgb(74,134,232)"/><path d=" M 379.9 298.635 L 356.329 298.635 C 355.777 298.635 355.329 298.188 355.329 297.635 C 355.329 297.082 355.777 296.635 356.329 296.635 L 379.9 296.635 C 380.452 296.635 380.9 297.082 380.9 297.635 C 380.9 298.188 380.452 298.635 379.9 298.635 Z " fill="rgb(74,134,232)"/></g></g></svg>