<?xml version="1.0" encoding="UTF-8" standalone="no"?><!-- Generator: Gravit.io --><svg xmlns="http://www.w3.org/2000/svg" xmlns:xlink="http://www.w3.org/1999/xlink" style="isolation:isolate" viewBox="-1 6 45 58" width="45pt" height="58pt"><defs><clipPath id="_clipPath_RkWMjOFRvOA8kmcGxnpILnuL0kLN1CYi"><rect x="-1" y="6" width="45" height="58"/></clipPath></defs><g clip-path="url(#_clipPath_RkWMjOFRvOA8kmcGxnpILnuL0kLN1CYi)"><rect x="-1" y="6" width="45" height="58" style="fill:rgb(0,0,0)" fill-opacity="0"/><g><path d=" M 44 20 L 30 6 L -1 6 L -1 64 L 44 64 L 44 20 Z " fill="rgb(232,232,232)"/><path d=" M 30 6 L 30 20 L 44 20 L 30 6 Z " fill="rgb(185,185,185)"/><path d=" M 34 28 L 18 28 C 17.448 28 17 27.553 17 27 C 17 26.447 17.448 26 18 26 L 34 26 C 34.552 26 35 26.447 35 27 C 35 27.553 34.552 28 34 28 Z " fill="rgb(116,116,116)"/><path d=" M 10 29 C 9.743 29 9.486 28.901 9.292 28.707 L 7.292 26.707 C 6.901 26.316 6.901 25.684 7.292 25.293 C 7.683 24.902 8.315 24.902 8.706 25.293 L 10.073 26.66 L 14.374 23.219 C 14.804 22.874 15.435 22.944 15.779 23.375 C 16.124 23.807 16.054 24.436 15.623 24.781 L 10.623 28.781 C 10.441 28.928 10.22 29 10 29 Z " fill="rgb(74,134,232)"/><path d=" M 34 39 L 18 39 C 17.448 39 17 38.553 17 38 C 17 37.447 17.448 37 18 37 L 34 37 C 34.552 37 35 37.447 35 38 C 35 38.553 34.552 39 34 39 Z " fill="rgb(116,116,116)"/><path d=" M 10 40 C 9.743 40 9.486 39.901 9.292 39.707 L 7.292 37.707 C 6.901 37.316 6.901 36.684 7.292 36.293 C 7.683 35.902 8.315 35.902 8.706 36.293 L 10.073 37.66 L 14.374 34.219 C 14.804 33.874 15.435 33.944 15.779 34.375 C 16.124 34.807 16.054 35.436 15.623 35.781 L 10.623 39.781 C 10.441 39.928 10.22 40 10 40 Z " fill="rgb(74,134,232)"/><path d=" M 34 50 L 18 50 C 17.448 50 17 49.553 17 49 C 17 48.447 17.448 48 18 48 L 34 48 C 34.552 48 35 48.447 35 49 C 35 49.553 34.552 50 34 50 Z " fill="rgb(116,116,116)"/><path d=" M 10 51 C 9.743 51 9.486 50.901 9.292 50.707 L 7.292 48.707 C 6.901 48.316 6.901 47.684 7.292 47.293 C 7.683 46.902 8.315 46.902 8.706 47.293 L 10.073 48.66 L 14.374 45.219 C 14.804 44.874 15.435 44.944 15.779 45.375 C 16.124 45.807 16.054 46.436 15.623 46.781 L 10.623 50.781 C 10.441 50.928 10.22 51 10 51 Z " fill="rgb(74,134,232)"/></g></g></svg>