<?xml version="1.0" encoding="UTF-8" standalone="no"?><!-- Generator: Gravit.io --><svg xmlns="http://www.w3.org/2000/svg" xmlns:xlink="http://www.w3.org/1999/xlink" style="isolation:isolate" viewBox="248 368.375 38 58" width="38pt" height="58pt"><defs><clipPath id="_clipPath_WVajIIhaVM2lXy0jIFpN0JXQZvet84zI"><rect x="248" y="368.375" width="38" height="58"/></clipPath></defs><g clip-path="url(#_clipPath_WVajIIhaVM2lXy0jIFpN0JXQZvet84zI)"><g><path d=" M 277 391.241 L 277 379.594 C 277 374.524 272.5 370.375 267 370.375 C 261.5 370.375 257 374.524 257 379.594 L 257 391.241" fill="none" vector-effect="non-scaling-stroke" stroke-width="4" stroke="rgb(93,93,93)" stroke-linejoin="round" stroke-linecap="round" stroke-miterlimit="10"/><circle vector-effect="non-scaling-stroke" cx="267" cy="407.375" r="19" fill="rgb(255,153,0)"/><path d=" M 286 407.375 C 286 396.882 277.493 388.375 267 388.375 L 267 426.375 C 277.493 426.375 286 417.868 286 407.375 Z " fill="rgb(208,127,4)"/><circle vector-effect="non-scaling-stroke" cx="267" cy="407.375" r="8" fill="rgb(93,93,93)" stroke-width="2" stroke="rgb(74,134,232)" stroke-linejoin="round" stroke-linecap="round" stroke-miterlimit="10"/><line x1="267" y1="399.375" x2="267" y2="395.375" vector-effect="non-scaling-stroke" stroke-width="2" stroke="rgb(74,134,232)" stroke-linejoin="round" stroke-linecap="round" stroke-miterlimit="10"/><line x1="267" y1="419.375" x2="267" y2="415.375" vector-effect="non-scaling-stroke" stroke-width="2" stroke="rgb(74,134,232)" stroke-linejoin="round" stroke-linecap="round" stroke-miterlimit="10"/><line x1="272.657" y1="413.032" x2="275.485" y2="415.86" vector-effect="non-scaling-stroke" stroke-width="2" stroke="rgb(74,134,232)" stroke-linejoin="round" stroke-linecap="round" stroke-miterlimit="10"/><line x1="258.515" y1="415.86" x2="261.343" y2="413.032" vector-effect="non-scaling-stroke" stroke-width="2" stroke="rgb(74,134,232)" stroke-linejoin="round" stroke-linecap="round" stroke-miterlimit="10"/><line x1="272.657" y1="401.718" x2="275.485" y2="398.89" vector-effect="non-scaling-stroke" stroke-width="2" stroke="rgb(74,134,232)" stroke-linejoin="round" stroke-linecap="round" stroke-miterlimit="10"/><line x1="258.515" y1="398.89" x2="261.343" y2="401.718" vector-effect="non-scaling-stroke" stroke-width="2" stroke="rgb(74,134,232)" stroke-linejoin="round" stroke-linecap="round" stroke-miterlimit="10"/><line x1="275" y1="407.375" x2="279" y2="407.375" vector-effect="non-scaling-stroke" stroke-width="2" stroke="rgb(74,134,232)" stroke-linejoin="round" stroke-linecap="round" stroke-miterlimit="10"/><line x1="255" y1="407.375" x2="259" y2="407.375" vector-effect="non-scaling-stroke" stroke-width="2" stroke="rgb(74,134,232)" stroke-linejoin="round" stroke-linecap="round" stroke-miterlimit="10"/><circle vector-effect="non-scaling-stroke" cx="267" cy="407.375" r="4" fill="rgb(162,162,162)"/></g></g></svg>