<?xml version="1.0" encoding="UTF-8" standalone="no"?><!-- Generator: Gravit.io --><svg xmlns="http://www.w3.org/2000/svg" xmlns:xlink="http://www.w3.org/1999/xlink" style="isolation:isolate" viewBox="248 369.375 42 58" width="42pt" height="58pt"><defs><clipPath id="_clipPath_wkaAE0yzY6ky8Y9hjKUSYiwNwf2bqgVe"><rect x="248" y="369.375" width="42" height="58"/></clipPath></defs><g clip-path="url(#_clipPath_wkaAE0yzY6ky8Y9hjKUSYiwNwf2bqgVe)"><g><path d=" M 282 401.375 L 255 401.375 L 255 382.976 C 255 376.027 261.056 370.375 268.5 370.375 C 275.944 370.375 282 376.027 282 382.976 L 282 401.375 Z  M 259 397.375 L 278 397.375 L 278 382.976 C 278 378.233 273.738 374.375 268.5 374.375 C 263.262 374.375 259 378.233 259 382.976 L 259 397.375 Z " fill="rgb(116,116,116)" vector-effect="non-scaling-stroke" stroke-width="2" stroke="rgb(116,116,116)" stroke-linejoin="miter" stroke-linecap="butt" stroke-miterlimit="10"/><rect x="248" y="395.375" width="42" height="32" transform="matrix(1,0,0,1,0,0)" fill="rgb(255,153,0)"/><rect x="269" y="395.375" width="21" height="32" transform="matrix(1,0,0,1,0,0)" fill="rgb(221,134,4)"/><path d=" M 282.586 426.375 L 289 419.961 L 289 416.375 L 283.414 416.375 L 273.414 426.375 L 282.586 426.375 Z " fill="rgb(55,124,234)"/><path d=" M 249 416.375 L 249 423.961 L 256.586 416.375 L 249 416.375 Z " fill="rgb(116,116,116)"/><path d=" M 270.586 426.375 L 280.586 416.375 L 271.414 416.375 L 261.414 426.375 L 270.586 426.375 Z " fill="rgb(70,70,70)"/><path d=" M 268.586 416.375 L 259.414 416.375 L 249.707 426.082 C 249.512 426.277 249.256 426.375 249 426.375 L 258.586 426.375 L 268.586 416.375 Z " fill="rgb(74,134,232)"/><path d=" M 289 426.375 L 289 422.789 L 285.414 426.375 L 289 426.375 Z " fill="rgb(70,70,70)"/><path d=" M 269 418.789 L 261.414 426.375 L 269 426.375 L 269 418.789 Z " fill="rgb(116,116,116)"/></g></g></svg>