<?xml version="1.0" encoding="UTF-8" standalone="no"?><!-- Generator: Gravit.io --><svg xmlns="http://www.w3.org/2000/svg" xmlns:xlink="http://www.w3.org/1999/xlink" style="isolation:isolate" viewBox="217 330.375 103 106" width="103pt" height="106pt"><defs><clipPath id="_clipPath_J6XaV3VG57nAEcPSVd0xJooFZqdWy9SQ"><rect x="217" y="330.375" width="103" height="106"/></clipPath></defs><g clip-path="url(#_clipPath_J6XaV3VG57nAEcPSVd0xJooFZqdWy9SQ)"><g><mask id="_mask_IWfuib1LX66AJFfeNE9vA7HEhhgITdoo" x="-200%" y="-200%" width="400%" height="400%"><rect x="-200%" y="-200%" width="400%" height="400%" style="fill:white;"/><path d=" M 257 396.375 L 257 380.976 C 257 375.145 262.175 370.375 268.5 370.375 L 268.5 370.375 C 274.825 370.375 280 375.145 280 380.976 L 280 396.375 L 257 396.375 Z " fill="black" stroke="none"/></mask><path d=" M 257 396.375 L 257 380.976 C 257 375.145 262.175 370.375 268.5 370.375 L 268.5 370.375 C 274.825 370.375 280 375.145 280 380.976 L 280 396.375 L 257 396.375 Z " fill="none" mask="url(#_mask_IWfuib1LX66AJFfeNE9vA7HEhhgITdoo)" vector-effect="non-scaling-stroke" stroke-width="8" stroke="rgb(93,93,93)" stroke-linejoin="miter" stroke-linecap="round" stroke-miterlimit="10"/><path d=" M 257 396.375 L 257 380.976 C 257 375.145 262.175 370.375 268.5 370.375 L 268.5 370.375 C 274.825 370.375 280 375.145 280 380.976 L 280 396.375 L 257 396.375 Z " fill="none"/><rect x="248" y="393.375" width="42" height="32" transform="matrix(1,0,0,1,0,0)" fill="rgb(255,153,0)"/><path d=" M 269 413.375 L 269 413.375 C 267.35 413.375 266 412.025 266 410.375 L 266 404.375 C 266 402.725 267.35 401.375 269 401.375 L 269 401.375 C 270.65 401.375 272 402.725 272 404.375 L 272 410.375 C 272 412.025 270.65 413.375 269 413.375 Z " fill="rgb(74,134,232)"/><rect x="248" y="419.375" width="42" height="6" transform="matrix(1,0,0,1,0,0)" fill="rgb(93,93,93)"/></g></g></svg>