<?xml version="1.0" encoding="UTF-8" standalone="no"?><!-- Generator: Gravit.io --><svg xmlns="http://www.w3.org/2000/svg" xmlns:xlink="http://www.w3.org/1999/xlink" style="isolation:isolate" viewBox="0 0 60 60" width="60pt" height="60pt"><defs><clipPath id="_clipPath_2M3xkY8Ozy1HbIISxVbuzWq3JAYO5YsS"><rect width="60" height="60"/></clipPath></defs><g clip-path="url(#_clipPath_2M3xkY8Ozy1HbIISxVbuzWq3JAYO5YsS)"><rect width="60" height="60" style="fill:rgb(0,0,0)" fill-opacity="0"/><g><rect x="-4.441" y="33.708" width="57.051" height="6" transform="matrix(0.707,-0.707,0.707,0.707,-18.902,27.782)" fill="rgb(70,70,70)"/><path d=" M 42.207 11.402 C 41.655 11.402 41.207 10.955 41.207 10.402 L 41.207 3.402 C 41.207 2.849 41.655 2.402 42.207 2.402 C 42.759 2.402 43.207 2.849 43.207 3.402 L 43.207 10.402 C 43.207 10.955 42.759 11.402 42.207 11.402 Z " fill="rgb(255,255,0)"/><path d=" M 42.207 34.402 C 41.655 34.402 41.207 33.955 41.207 33.402 L 41.207 26.402 C 41.207 25.849 41.655 25.402 42.207 25.402 C 42.759 25.402 43.207 25.849 43.207 26.402 L 43.207 33.402 C 43.207 33.955 42.759 34.402 42.207 34.402 Z " fill="rgb(255,255,0)"/><path d=" M 57.207 19.402 L 50.207 19.402 C 49.655 19.402 49.207 18.955 49.207 18.402 C 49.207 17.849 49.655 17.402 50.207 17.402 L 57.207 17.402 C 57.759 17.402 58.207 17.849 58.207 18.402 C 58.207 18.955 57.759 19.402 57.207 19.402 Z " fill="rgb(255,255,0)"/><path d=" M 34.207 19.402 L 27.207 19.402 C 26.655 19.402 26.207 18.955 26.207 18.402 C 26.207 17.849 26.655 17.402 27.207 17.402 L 34.207 17.402 C 34.759 17.402 35.207 17.849 35.207 18.402 C 35.207 18.955 34.759 19.402 34.207 19.402 Z " fill="rgb(255,255,0)"/><path d=" M 48.207 13.402 C 47.951 13.402 47.695 13.304 47.5 13.109 C 47.109 12.718 47.109 12.086 47.5 11.695 L 52.45 6.745 C 52.841 6.354 53.473 6.354 53.864 6.745 C 54.255 7.136 54.255 7.768 53.864 8.159 L 48.914 13.109 C 48.719 13.304 48.463 13.402 48.207 13.402 Z " fill="rgb(235,186,22)"/><path d=" M 53.157 30.352 C 52.901 30.352 52.645 30.254 52.45 30.059 L 47.5 25.109 C 47.109 24.718 47.109 24.086 47.5 23.695 C 47.891 23.304 48.523 23.304 48.914 23.695 L 53.864 28.645 C 54.255 29.036 54.255 29.668 53.864 30.059 C 53.668 30.255 53.412 30.352 53.157 30.352 Z " fill="rgb(235,186,22)"/><path d=" M 36.207 13.402 C 35.951 13.402 35.695 13.304 35.5 13.109 L 30.55 8.159 C 30.159 7.768 30.159 7.136 30.55 6.745 C 30.941 6.354 31.573 6.354 31.964 6.745 L 36.914 11.695 C 37.305 12.086 37.305 12.718 36.914 13.109 C 36.719 13.304 36.463 13.402 36.207 13.402 Z " fill="rgb(235,186,22)"/><rect x="32.028" y="18.577" width="14.376" height="5.999" transform="matrix(-0.707,0.707,-0.707,-0.707,82.203,9.103)" fill="rgb(232,232,232)"/></g></g></svg>