<?xml version="1.0" encoding="UTF-8" standalone="no"?><!-- Generator: Gravit.io --><svg xmlns="http://www.w3.org/2000/svg" xmlns:xlink="http://www.w3.org/1999/xlink" style="isolation:isolate" viewBox="0 0 60 60" width="60pt" height="60pt"><defs><clipPath id="_clipPath_56gvGjRUz9RDgjonIPEsxx405mAO2c23"><rect width="60" height="60"/></clipPath></defs><g clip-path="url(#_clipPath_56gvGjRUz9RDgjonIPEsxx405mAO2c23)"><rect width="60" height="60" style="fill:rgb(0,0,0)" fill-opacity="0"/><g><path d=" M 58 43 L 26 43 C 19.373 43 14 37.627 14 31 L 14 31 C 14 24.373 19.373 19 26 19 L 58 19 L 58 5 L 26 5 C 11.641 5 0 16.641 0 31 L 0 31 C 0 45.359 11.641 57 26 57 L 58 57 L 58 43 Z " fill="rgb(70,70,70)"/><rect x="44" y="5" width="14" height="14" transform="matrix(1,0,0,1,0,0)" fill="rgb(255,153,0)"/><rect x="44" y="43" width="14" height="14" transform="matrix(1,0,0,1,0,0)" fill="rgb(74,134,232)"/><path d=" M 54 13 L 48 13 C 47.447 13 47 12.553 47 12 C 47 11.447 47.447 11 48 11 L 54 11 C 54.553 11 55 11.447 55 12 C 55 12.553 54.553 13 54 13 Z " fill="rgb(255,255,255)"/><path d=" M 51 16 C 50.447 16 50 15.553 50 15 L 50 9 C 50 8.447 50.447 8 51 8 C 51.553 8 52 8.447 52 9 L 52 15 C 52 15.553 51.553 16 51 16 Z " fill="rgb(255,255,255)"/><path d=" M 54 51 L 48 51 C 47.447 51 47 50.553 47 50 C 47 49.447 47.447 49 48 49 L 54 49 C 54.553 49 55 49.447 55 50 C 55 50.553 54.553 51 54 51 Z " fill="rgb(255,255,255)"/></g></g></svg>