<?xml version="1.0" encoding="UTF-8" standalone="no"?><!-- Generator: Gravit.io --><svg xmlns="http://www.w3.org/2000/svg" xmlns:xlink="http://www.w3.org/1999/xlink" style="isolation:isolate" viewBox="0 0 60 60" width="60pt" height="60pt"><defs><clipPath id="_clipPath_6NyKNXNsLCiKPlGRtrH4kbOU1q9Scw2F"><rect width="60" height="60"/></clipPath></defs><g clip-path="url(#_clipPath_6NyKNXNsLCiKPlGRtrH4kbOU1q9Scw2F)"><rect width="60" height="60" style="fill:rgb(0,0,0)" fill-opacity="0"/><g><path d=" M 47 42 L 27 42 C 20.373 42 15 36.627 15 30 L 15 30 C 15 23.373 20.373 18 27 18 L 47 18 L 47 4 L 27 4 C 12.641 4 1 15.641 1 30 L 1 30 C 1 44.359 12.641 56 27 56 L 47 56 L 47 42 Z " fill="rgb(93,93,93)"/><g><path d=" M 54 8 L 55 8 C 55.552 8 56 7.553 56 7 C 56 6.447 55.552 6 55 6 L 54 6 C 53.448 6 53 6.447 53 7 C 53 7.553 53.448 8 54 8 Z " fill="rgb(255,153,0)"/><path d=" M 50 8 L 51 8 C 51.552 8 52 7.553 52 7 C 52 6.447 51.552 6 51 6 L 50 6 C 49.448 6 49 6.447 49 7 C 49 7.553 49.448 8 50 8 Z " fill="rgb(255,153,0)"/><path d=" M 58 8 L 59 8 C 59.552 8 60 7.553 60 7 C 60 6.447 59.552 6 59 6 L 58 6 C 57.448 6 57 6.447 57 7 C 57 7.553 57.448 8 58 8 Z " fill="rgb(255,153,0)"/><path d=" M 55 14 L 54 14 C 53.448 14 53 14.447 53 15 C 53 15.553 53.448 16 54 16 L 55 16 C 55.552 16 56 15.553 56 15 C 56 14.447 55.552 14 55 14 Z " fill="rgb(255,153,0)"/><path d=" M 50 16 L 51 16 C 51.552 16 52 15.553 52 15 C 52 14.447 51.552 14 51 14 L 50 14 C 49.448 14 49 14.447 49 15 C 49 15.553 49.448 16 50 16 Z " fill="rgb(255,153,0)"/><path d=" M 59 14 L 58 14 C 57.448 14 57 14.447 57 15 C 57 15.553 57.448 16 58 16 L 59 16 C 59.552 16 60 15.553 60 15 C 60 14.447 59.552 14 59 14 Z " fill="rgb(255,153,0)"/><path d=" M 51 11 C 51 11.553 51.448 12 52 12 L 53 12 C 53.552 12 54 11.553 54 11 C 54 10.447 53.552 10 53 10 L 52 10 C 51.448 10 51 10.447 51 11 Z " fill="rgb(255,153,0)"/><path d=" M 55 11 C 55 11.553 55.448 12 56 12 L 57 12 C 57.552 12 58 11.553 58 11 C 58 10.447 57.552 10 57 10 L 56 10 C 55.448 10 55 10.447 55 11 Z " fill="rgb(255,153,0)"/><path d=" M 55 45 L 54 45 C 53.448 45 53 45.447 53 46 C 53 46.553 53.448 47 54 47 L 55 47 C 55.552 47 56 46.553 56 46 C 56 45.447 55.552 45 55 45 Z " fill="rgb(74,134,232)"/><path d=" M 50 47 L 51 47 C 51.552 47 52 46.553 52 46 C 52 45.447 51.552 45 51 45 L 50 45 C 49.448 45 49 45.447 49 46 C 49 46.553 49.448 47 50 47 Z " fill="rgb(74,134,232)"/><path d=" M 59 45 L 58 45 C 57.448 45 57 45.447 57 46 C 57 46.553 57.448 47 58 47 L 59 47 C 59.552 47 60 46.553 60 46 C 60 45.447 59.552 45 59 45 Z " fill="rgb(74,134,232)"/><path d=" M 55 53 L 54 53 C 53.448 53 53 53.447 53 54 C 53 54.553 53.448 55 54 55 L 55 55 C 55.552 55 56 54.553 56 54 C 56 53.447 55.552 53 55 53 Z " fill="rgb(74,134,232)"/><path d=" M 51 53 L 50 53 C 49.448 53 49 53.447 49 54 C 49 54.553 49.448 55 50 55 L 51 55 C 51.552 55 52 54.553 52 54 C 52 53.447 51.552 53 51 53 Z " fill="rgb(74,134,232)"/><path d=" M 59 53 L 58 53 C 57.448 53 57 53.447 57 54 C 57 54.553 57.448 55 58 55 L 59 55 C 59.552 55 60 54.553 60 54 C 60 53.447 59.552 53 59 53 Z " fill="rgb(74,134,232)"/><path d=" M 54 50 C 54 49.447 53.552 49 53 49 L 52 49 C 51.448 49 51 49.447 51 50 C 51 50.553 51.448 51 52 51 L 53 51 C 53.552 51 54 50.553 54 50 Z " fill="rgb(74,134,232)"/><path d=" M 58 50 C 58 49.447 57.552 49 57 49 L 56 49 C 55.448 49 55 49.447 55 50 C 55 50.553 55.448 51 56 51 L 57 51 C 57.552 51 58 50.553 58 50 Z " fill="rgb(74,134,232)"/></g><rect x="33" y="4" width="14" height="14" transform="matrix(1,0,0,1,0,0)" fill="rgb(255,153,0)"/><rect x="33" y="42" width="14" height="14" transform="matrix(1,0,0,1,0,0)" fill="rgb(74,134,232)"/></g></g></svg>