<?xml version="1.0" encoding="UTF-8" standalone="no"?><!-- Generator: Gravit.io --><svg xmlns="http://www.w3.org/2000/svg" xmlns:xlink="http://www.w3.org/1999/xlink" style="isolation:isolate" viewBox="254.525 346.363 59.51 54.01" width="59.51pt" height="54.01pt"><defs><clipPath id="_clipPath_QONYjfGoMBclDrE5oNuWAnATDnw7Iv8r"><rect x="254.525" y="346.363" width="59.51" height="54.01"/></clipPath></defs><g clip-path="url(#_clipPath_QONYjfGoMBclDrE5oNuWAnATDnw7Iv8r)"><g><path d=" M 307.582 368.373 L 297.582 368.373 L 271.582 368.373 L 261.582 368.373 L 257.927 397.373 L 310.696 397.373 L 307.582 368.373 Z " fill="rgb(255,255,255)"/><path d=" M 307.582 368.373 L 310.696 397.373 L 257.927 397.373 L 261.582 368.373 L 271.582 368.373 L 297.582 368.373 L 307.582 368.373 Z  M 310.277 365.373 L 307.582 365.373 L 297.582 365.373 L 271.582 365.373 L 261.582 365.373 L 258.936 365.373 L 258.605 367.998 L 254.95 396.998 L 254.525 400.373 L 257.927 400.373 L 310.696 400.373 L 314.035 400.373 L 313.678 397.053 L 310.564 368.053 L 310.277 365.373 L 310.277 365.373 Z " fill="rgb(255,153,0)"/><path d=" M 268.209 393.373 C 267.952 393.373 267.696 393.357 267.44 393.326 C 267.222 393.3 267.002 393.259 266.787 393.202 C 266.252 393.064 265.931 392.518 266.069 391.984 C 266.207 391.449 266.752 391.124 267.287 391.266 C 267.419 391.299 267.551 391.325 267.683 391.341 C 268.086 391.391 268.494 391.378 268.898 391.326 C 269.45 391.261 269.947 391.645 270.015 392.193 C 270.084 392.741 269.696 393.241 269.148 393.31 C 268.835 393.351 268.52 393.373 268.209 393.373 Z  M 272.859 392.215 C 272.458 392.215 272.08 391.972 271.926 391.575 C 271.727 391.059 271.984 390.48 272.498 390.282 C 273.09 390.053 273.686 389.799 274.272 389.523 C 274.775 389.288 275.368 389.504 275.602 390.003 C 275.836 390.503 275.622 391.099 275.122 391.333 C 274.494 391.628 273.853 391.901 273.219 392.146 C 273.101 392.194 272.979 392.215 272.859 392.215 Z  M 264.512 390.483 C 264.005 390.483 263.571 390.099 263.518 389.585 C 263.498 389.388 263.49 389.19 263.49 388.993 C 263.49 388.877 263.493 388.761 263.499 388.646 C 263.522 388.177 263.598 387.704 263.724 387.24 C 263.868 386.705 264.421 386.387 264.95 386.536 C 265.483 386.68 265.799 387.228 265.654 387.762 C 265.566 388.088 265.513 388.419 265.498 388.745 C 265.494 388.827 265.491 388.91 265.491 388.993 C 265.491 389.122 265.496 389.253 265.51 389.382 C 265.566 389.932 265.165 390.422 264.616 390.479 C 264.58 390.481 264.546 390.483 264.512 390.483 Z  M 278.191 389.484 C 277.864 389.484 277.543 389.324 277.351 389.029 C 277.05 388.565 277.182 387.946 277.645 387.645 C 278.18 387.298 278.711 386.925 279.225 386.538 C 279.669 386.206 280.293 386.297 280.626 386.734 C 280.958 387.175 280.87 387.802 280.43 388.135 C 279.878 388.55 279.308 388.95 278.735 389.323 C 278.566 389.432 278.378 389.484 278.191 389.484 Z  M 282.95 385.834 C 282.641 385.834 282.337 385.691 282.14 385.423 C 281.815 384.977 281.913 384.351 282.36 384.026 C 282.569 383.875 282.782 383.726 283.001 383.585 C 283.378 383.34 283.782 383.108 284.201 382.897 C 284.697 382.65 285.296 382.849 285.544 383.341 C 285.792 383.834 285.593 384.436 285.1 384.684 C 284.746 384.862 284.407 385.056 284.09 385.261 C 283.902 385.384 283.718 385.511 283.538 385.643 C 283.36 385.772 283.154 385.834 282.95 385.834 Z  M 266.994 385.361 C 266.639 385.361 266.295 385.172 266.114 384.838 C 265.85 384.353 266.031 383.746 266.516 383.483 C 267.034 383.202 267.587 383.027 268.16 382.963 C 268.45 382.93 268.753 382.931 269.051 382.971 C 269.598 383.043 269.984 383.545 269.911 384.093 C 269.839 384.639 269.35 385.024 268.789 384.953 C 268.656 384.935 268.518 384.935 268.383 384.951 C 268.067 384.985 267.76 385.083 267.47 385.24 C 267.318 385.322 267.155 385.361 266.994 385.361 Z  M 288.428 383.509 C 287.966 383.509 287.551 383.188 287.451 382.718 C 287.336 382.177 287.68 381.646 288.22 381.531 C 288.863 381.393 289.555 381.279 290.278 381.189 C 290.831 381.108 291.325 381.509 291.393 382.058 C 291.461 382.606 291.072 383.106 290.524 383.173 C 289.859 383.256 289.224 383.361 288.638 383.486 C 288.567 383.502 288.497 383.509 288.428 383.509 Z  M 294.388 382.892 C 293.855 382.892 293.411 382.471 293.39 381.933 C 293.368 381.381 293.796 380.915 294.348 380.893 L 296.341 380.811 C 296.891 380.761 297.361 381.212 297.386 381.765 C 297.411 382.316 296.984 382.784 296.432 382.809 L 294.43 382.891 C 294.417 382.892 294.402 382.892 294.388 382.892 Z  M 300.367 382.449 C 299.902 382.449 299.486 382.124 299.388 381.651 C 299.277 381.11 299.624 380.581 300.165 380.469 C 300.743 380.35 301.171 380.183 301.512 379.944 C 301.949 379.603 302.614 379.659 302.95 380.093 C 303.289 380.53 303.246 381.132 302.81 381.471 C 302.755 381.513 302.7 381.554 302.641 381.593 C 302.097 381.977 301.412 382.254 300.569 382.428 C 300.502 382.442 300.433 382.449 300.367 382.449 Z  M 304.436 378.419 C 304.338 378.419 304.239 378.404 304.14 378.374 C 303.613 378.211 303.317 377.65 303.481 377.123 C 303.534 376.952 303.567 376.782 303.578 376.617 L 303.582 376.501 C 303.582 376.272 303.538 376.039 303.452 375.807 C 303.26 375.289 303.523 374.714 304.042 374.522 C 304.556 374.331 305.136 374.593 305.327 375.112 C 305.496 375.567 305.582 376.035 305.582 376.502 C 305.582 376.586 305.579 376.669 305.574 376.752 C 305.552 377.076 305.49 377.398 305.391 377.716 C 305.259 378.144 304.863 378.419 304.436 378.419 Z  M 299.376 374.312 C 298.94 374.312 298.539 374.025 298.415 373.583 C 298.265 373.052 298.573 372.499 299.105 372.35 C 299.884 372.13 300.702 372.064 301.491 372.17 C 302.038 372.244 302.422 372.747 302.348 373.295 C 302.275 373.842 301.782 374.226 301.223 374.152 C 300.702 374.083 300.165 374.129 299.648 374.273 C 299.557 374.3 299.467 374.312 299.376 374.312 Z " fill="rgb(70,70,70)"/><path d=" M 295.369 355.544 C 294.845 351.545 292.755 346.363 284.547 346.363 C 276.34 346.363 274.249 351.545 273.725 355.544 C 273.438 357.736 273.599 359.963 274.055 362.126 C 276.564 374.019 282.765 381.148 284.232 382.703 C 284.404 382.885 284.69 382.885 284.862 382.703 C 286.329 381.148 292.53 374.019 295.039 362.126 C 295.496 359.963 295.657 357.736 295.369 355.544 Z  M 284.547 363.285 C 281.042 363.285 278.201 360.444 278.201 356.939 C 278.201 353.434 281.042 350.594 284.547 350.594 C 288.052 350.594 290.893 353.435 290.893 356.939 C 290.893 360.444 288.052 363.285 284.547 363.285 Z " fill="rgb(74,134,232)"/><g><path d=" M 284.548 349.594 C 280.497 349.594 277.202 352.889 277.202 356.939 C 277.202 360.99 280.497 364.285 284.548 364.285 C 288.599 364.285 291.894 360.99 291.894 356.939 C 291.893 352.889 288.598 349.594 284.548 349.594 Z  M 284.548 362.285 C 281.601 362.285 279.202 359.887 279.202 356.939 C 279.202 353.991 281.6 351.594 284.548 351.594 C 287.496 351.594 289.894 353.991 289.894 356.939 C 289.894 359.887 287.495 362.285 284.548 362.285 Z " fill="rgb(119,165,238)"/></g></g></g></svg>