<?xml version="1.0" encoding="UTF-8" standalone="no"?><!-- Generator: Gravit.io --><svg xmlns="http://www.w3.org/2000/svg" xmlns:xlink="http://www.w3.org/1999/xlink" style="isolation:isolate" viewBox="0 0 60 60" width="60pt" height="60pt"><defs><clipPath id="_clipPath_kxbQIK0NHvNKAOo3W7gU03pjHAFP37p6"><rect width="60" height="60"/></clipPath></defs><g clip-path="url(#_clipPath_kxbQIK0NHvNKAOo3W7gU03pjHAFP37p6)"><rect width="60" height="60" style="fill:rgb(0,0,0)" fill-opacity="0"/><g><path d=" M 21.5 26.743 L 5.756 10.999 L 3.5 11.5 L 3.5 54.5 L 5.599 54.034 L 21.5 38.132 L 21.5 26.743 Z " fill="rgb(67,176,92)"/><path d=" M 12.872 52.417 L 21.5 50.5 L 21.5 43.789 L 12.872 52.417 Z " fill="rgb(74,134,232)"/><path d=" M 21.5 7.5 L 10.384 9.97 L 21.5 21.086 L 21.5 7.5 Z " fill="rgb(67,176,92)"/><path d=" M 52.949 6.684 L 38.5 11.5 L 38.5 21.132 L 52.949 6.684 Z " fill="rgb(67,176,92)"/><path d=" M 38.5 26.789 L 38.5 53.5 L 56.5 46.5 L 56.5 8.789 L 38.5 26.789 Z " fill="rgb(74,134,232)"/><path d=" M 30.023 29.609 L 38.5 21.132 L 38.5 11.5 L 21.5 7.5 L 21.5 21.086 L 30.023 29.609 Z " fill="rgb(61,153,79)"/><path d=" M 21.5 26.743 L 21.5 38.132 L 27.195 32.438 L 21.5 26.743 Z " fill="rgb(61,153,79)"/><path d=" M 21.5 43.789 L 21.5 50.5 L 38.5 53.5 L 38.5 26.789 L 21.5 43.789 Z " fill="rgb(56,112,202)"/><path d=" M 21.5 21.086 L 10.384 9.97 L 5.756 10.999 L 21.5 26.743 L 21.5 21.086 Z " fill="rgb(93,93,93)"/><path d=" M 21.5 38.132 L 5.599 54.034 L 12.872 52.417 L 21.5 43.789 L 21.5 38.132 Z " fill="rgb(93,93,93)"/><path d=" M 38.5 26.789 L 56.5 8.789 L 56.5 5.5 L 52.949 6.684 L 38.5 21.132 L 38.5 26.789 Z " fill="rgb(93,93,93)"/><path d=" M 30.023 29.609 L 21.5 21.086 L 21.5 26.743 L 27.195 32.438 L 21.5 38.132 L 21.5 43.789 L 38.5 26.789 L 38.5 21.132 L 30.023 29.609 Z " fill="rgb(70,70,70)"/></g></g></svg>