<?xml version="1.0" encoding="UTF-8" standalone="no"?><!-- Generator: Gravit.io --><svg xmlns="http://www.w3.org/2000/svg" xmlns:xlink="http://www.w3.org/1999/xlink" style="isolation:isolate" viewBox="0 0 60 60" width="60pt" height="60pt"><defs><clipPath id="_clipPath_vKgRG2QCEt5C7K8AxDPlIHijio7pRQsJ"><rect width="60" height="60"/></clipPath></defs><g clip-path="url(#_clipPath_vKgRG2QCEt5C7K8AxDPlIHijio7pRQsJ)"><rect width="60" height="60" style="fill:rgb(0,0,0)" fill-opacity="0"/><g><path d=" M 22 48 L 4 54 L 4 11 L 22 5 L 22 48 Z " fill="rgb(74,134,232)"/><path d=" M 56 46 L 39 55 L 39 14 L 56 5 L 56 46 Z " fill="rgb(70,70,70)"/><line x1="14" y1="21" x2="14" y2="24" vector-effect="non-scaling-stroke" stroke-width="2" stroke="rgb(232,232,232)" stroke-linejoin="round" stroke-linecap="round" stroke-miterlimit="10"/><circle vector-effect="non-scaling-stroke" cx="14" cy="17" r="4" fill="rgb(215,90,74)"/><path d=" M 35.418 37.497 C 34.876 37.393 34.522 36.867 34.626 36.325 C 34.73 35.783 35.254 35.427 35.798 35.534 C 36.917 35.75 37.963 35.837 39 35.8 L 39 14 L 22 5 L 22 33.228 C 22.625 33.152 23.263 33.101 23.918 33.087 C 23.925 33.087 23.933 33.087 23.94 33.087 C 24.482 33.087 24.928 33.521 24.94 34.066 C 24.952 34.619 24.514 35.076 23.961 35.087 C 23.287 35.101 22.633 35.155 22 35.242 L 22 48 L 39 55 L 39 37.799 C 38.86 37.803 38.718 37.815 38.579 37.815 C 37.571 37.815 36.508 37.708 35.418 37.497 Z  M 32.708 35.74 C 32.547 36.124 32.176 36.354 31.785 36.354 C 31.657 36.354 31.526 36.33 31.4 36.277 C 31.043 36.128 30.786 36.007 30.652 35.943 C 29.668 35.693 28.701 35.495 27.775 35.353 C 27.229 35.27 26.854 34.759 26.937 34.213 C 27.02 33.667 27.531 33.29 28.077 33.376 C 29.1 33.532 30.167 33.752 31.25 34.03 C 31.321 34.049 31.39 34.075 31.455 34.108 C 31.472 34.117 31.73 34.246 32.171 34.43 C 32.68 34.645 32.92 35.23 32.708 35.74 Z " fill="rgb(255,153,0)"/><path d=" M 19.736 33.653 C 19.202 33.795 18.884 34.342 19.026 34.876 C 19.145 35.324 19.549 35.62 19.992 35.62 C 20.076 35.62 20.163 35.609 20.249 35.587 C 20.809 35.439 21.395 35.325 22 35.242 L 22 33.228 C 21.217 33.323 20.459 33.462 19.736 33.653 Z " fill="rgb(209,209,209)"/><path d=" M 15.805 35.342 C 14.598 36.099 13.51 37.047 12.57 38.162 C 12.214 38.584 12.268 39.215 12.69 39.571 C 12.878 39.729 13.107 39.806 13.334 39.806 C 13.619 39.806 13.901 39.685 14.099 39.451 C 14.905 38.495 15.836 37.682 16.867 37.037 C 17.335 36.743 17.476 36.126 17.183 35.658 C 16.89 35.19 16.272 35.048 15.805 35.342 Z " fill="rgb(209,209,209)"/><path d=" M 11.627 41.276 C 11.125 41.046 10.531 41.263 10.3 41.765 C 9.274 43.991 9.02 45.788 9.009 45.864 C 8.934 46.411 9.316 46.914 9.863 46.989 C 9.909 46.996 9.956 46.999 10.001 46.999 C 10.492 46.999 10.92 46.637 10.991 46.138 C 10.993 46.122 11.222 44.541 12.116 42.604 C 12.347 42.102 12.128 41.508 11.627 41.276 Z " fill="rgb(209,209,209)"/><path d=" M 51.068 17.919 C 51.058 17.366 50.578 16.946 50.05 16.937 C 49.498 16.947 49.058 17.403 49.068 17.955 C 49.074 18.302 49.078 18.643 49.078 18.977 C 49.078 19.977 49.048 20.95 48.989 21.87 C 48.954 22.421 49.372 22.896 49.923 22.932 C 49.945 22.933 49.966 22.934 49.988 22.934 C 50.511 22.934 50.951 22.528 50.985 21.997 C 51.047 21.036 51.078 20.019 51.078 18.977 C 51.078 18.63 51.075 18.277 51.068 17.919 Z " fill="rgb(232,232,232)"/><path d=" M 49.69 24.914 C 49.144 24.824 48.625 25.171 48.523 25.714 C 48.271 27.062 47.928 28.294 47.504 29.377 C 47.303 29.891 47.556 30.471 48.07 30.673 C 48.19 30.72 48.313 30.741 48.434 30.741 C 48.834 30.741 49.211 30.5 49.366 30.105 C 49.836 28.906 50.213 27.552 50.489 26.081 C 50.59 25.539 50.233 25.017 49.69 24.914 Z " fill="rgb(232,232,232)"/><path d=" M 45.702 32.582 C 44.926 33.549 44.006 34.308 42.967 34.839 C 42.475 35.091 42.28 35.693 42.532 36.185 C 42.709 36.531 43.059 36.73 43.423 36.73 C 43.576 36.73 43.732 36.695 43.877 36.621 C 45.169 35.96 46.308 35.022 47.261 33.835 C 47.607 33.404 47.538 32.774 47.107 32.429 C 46.678 32.085 46.048 32.151 45.702 32.582 Z " fill="rgb(232,232,232)"/><path d=" M 39.512 35.779 C 39.342 35.792 39.171 35.794 39 35.8 L 39 37.799 C 39.222 37.792 39.443 37.79 39.667 37.773 C 40.217 37.73 40.629 37.25 40.586 36.699 C 40.544 36.148 40.061 35.729 39.512 35.779 Z " fill="rgb(232,232,232)"/><path d=" M 32.17 34.432 C 31.729 34.247 31.471 34.119 31.454 34.11 C 31.389 34.077 31.32 34.05 31.249 34.032 C 30.166 33.754 29.099 33.534 28.076 33.378 C 27.531 33.292 27.02 33.669 26.936 34.215 C 26.853 34.761 27.228 35.272 27.774 35.355 C 28.7 35.497 29.667 35.695 30.651 35.945 C 30.785 36.009 31.041 36.13 31.399 36.279 C 31.525 36.332 31.656 36.356 31.784 36.356 C 32.175 36.356 32.547 36.126 32.707 35.742 C 32.92 35.23 32.68 34.645 32.17 34.432 Z " fill="rgb(162,162,162)"/><path d=" M 35.799 35.534 C 35.255 35.427 34.732 35.783 34.627 36.325 C 34.522 36.867 34.877 37.392 35.419 37.497 C 36.508 37.708 37.572 37.815 38.579 37.815 C 38.718 37.815 38.86 37.803 39 37.799 L 39 35.8 C 37.963 35.837 36.917 35.75 35.799 35.534 Z " fill="rgb(162,162,162)"/><path d=" M 24.94 34.065 C 24.928 33.52 24.483 33.086 23.94 33.086 C 23.933 33.086 23.925 33.086 23.918 33.086 C 23.263 33.1 22.624 33.151 22 33.227 L 22 35.241 C 22.633 35.154 23.288 35.101 23.961 35.086 C 24.514 35.075 24.952 34.618 24.94 34.065 Z " fill="rgb(162,162,162)"/><line x1="12" y1="27" x2="16" y2="31" vector-effect="non-scaling-stroke" stroke-width="2" stroke="rgb(215,90,74)" stroke-linejoin="round" stroke-linecap="round" stroke-miterlimit="10"/><line x1="12" y1="31" x2="16" y2="27" vector-effect="non-scaling-stroke" stroke-width="2" stroke="rgb(215,90,74)" stroke-linejoin="round" stroke-linecap="round" stroke-miterlimit="10"/></g></g></svg>