<?xml version="1.0" encoding="UTF-8" standalone="no"?><!-- Generator: Gravit.io --><svg xmlns="http://www.w3.org/2000/svg" xmlns:xlink="http://www.w3.org/1999/xlink" style="isolation:isolate" viewBox="0 0 60 60" width="60pt" height="60pt"><defs><clipPath id="_clipPath_kUpLnndqhtlzUEKqVyA5hzgbu9HArnq7"><rect width="60" height="60"/></clipPath></defs><g clip-path="url(#_clipPath_kUpLnndqhtlzUEKqVyA5hzgbu9HArnq7)"><rect width="60" height="60" style="fill:rgb(0,0,0)" fill-opacity="0"/><g><circle vector-effect="non-scaling-stroke" cx="30.000000000000004" cy="30" r="27" fill="rgb(255,153,0)"/><mask id="_mask_8uh4Ipyr3E6vEFqvsqHFFogxlrqmmygN" x="-200%" y="-200%" width="400%" height="400%"><rect x="-200%" y="-200%" width="400%" height="400%" style="fill:white;"/><line x1="17" y1="18" x2="43" y2="18" fill="black" stroke="none"/></mask><line x1="17" y1="18" x2="43" y2="18" mask="url(#_mask_8uh4Ipyr3E6vEFqvsqHFFogxlrqmmygN)" vector-effect="non-scaling-stroke" stroke-width="4" stroke="rgb(74,134,232)" stroke-linejoin="miter" stroke-linecap="round" stroke-miterlimit="10"/><mask id="_mask_SqsZoafJAcFYnVKqCJMsBmhjod2vRJEa" x="-200%" y="-200%" width="400%" height="400%"><rect x="-200%" y="-200%" width="400%" height="400%" style="fill:white;"/><line x1="13" y1="34" x2="47" y2="34" fill="black" stroke="none"/></mask><line x1="13" y1="34" x2="47" y2="34" mask="url(#_mask_SqsZoafJAcFYnVKqCJMsBmhjod2vRJEa)" vector-effect="non-scaling-stroke" stroke-width="4" stroke="rgb(74,134,232)" stroke-linejoin="miter" stroke-linecap="round" stroke-miterlimit="10"/><mask id="_mask_2ULP4VxIVkVroJ7BEwT35Vq0rhqVdVX6" x="-200%" y="-200%" width="400%" height="400%"><rect x="-200%" y="-200%" width="400%" height="400%" style="fill:white;"/><line x1="13" y1="26" x2="47" y2="26" fill="black" stroke="none"/></mask><line x1="13" y1="26" x2="47" y2="26" mask="url(#_mask_2ULP4VxIVkVroJ7BEwT35Vq0rhqVdVX6)" vector-effect="non-scaling-stroke" stroke-width="4" stroke="rgb(74,134,232)" stroke-linejoin="miter" stroke-linecap="round" stroke-miterlimit="10"/><mask id="_mask_lG0yatgu5fyqwQYqX44yzTd0UUPTiLpo" x="-200%" y="-200%" width="400%" height="400%"><rect x="-200%" y="-200%" width="400%" height="400%" style="fill:white;"/><line x1="17" y1="42" x2="43" y2="42" fill="black" stroke="none"/></mask><line x1="17" y1="42" x2="43" y2="42" mask="url(#_mask_lG0yatgu5fyqwQYqX44yzTd0UUPTiLpo)" vector-effect="non-scaling-stroke" stroke-width="4" stroke="rgb(74,134,232)" stroke-linejoin="miter" stroke-linecap="round" stroke-miterlimit="10"/></g></g></svg>