<?xml version="1.0" encoding="UTF-8" standalone="no"?><!-- Generator: Gravit.io --><svg xmlns="http://www.w3.org/2000/svg" xmlns:xlink="http://www.w3.org/1999/xlink" style="isolation:isolate" viewBox="252.514 341.668 50 66" width="50pt" height="66pt"><defs><clipPath id="_clipPath_9ckSQ01dqUx6fiP6JiIF5O81ITFiJA92"><rect x="252.514" y="341.668" width="50" height="66"/></clipPath></defs><g clip-path="url(#_clipPath_9ckSQ01dqUx6fiP6JiIF5O81ITFiJA92)"><g><path d=" M 292.514 369.668 L 292.514 375.668 C 292.514 383.939 285.785 390.668 277.514 390.668 C 269.243 390.668 262.514 383.939 262.514 375.668 L 262.514 369.668" fill="none" vector-effect="non-scaling-stroke" stroke-width="2" stroke="rgb(74,134,232)" stroke-linejoin="miter" stroke-linecap="round" stroke-miterlimit="10"/><path d=" M 277.514 385.668 L 277.514 385.668 C 272.014 385.668 267.514 381.168 267.514 375.668 L 267.514 351.668 C 267.514 346.168 272.014 341.668 277.514 341.668 L 277.514 341.668 C 283.014 341.668 287.514 346.168 287.514 351.668 L 287.514 375.668 C 287.514 381.168 283.014 385.668 277.514 385.668 Z " fill="rgb(93,93,93)"/><line x1="277.514" y1="390.668" x2="277.514" y2="397.668" vector-effect="non-scaling-stroke" stroke-width="2" stroke="rgb(74,134,232)" stroke-linejoin="miter" stroke-linecap="round" stroke-miterlimit="10"/><path d=" M 283.514 397.668 L 277.514 397.668 L 271.514 397.668" fill="none" vector-effect="non-scaling-stroke" stroke-width="2" stroke="rgb(74,134,232)" stroke-linejoin="miter" stroke-linecap="round" stroke-miterlimit="10"/><path d=" M 287.514 375.668 L 287.514 351.668 C 287.514 346.168 283.014 341.668 277.514 341.668 L 277.514 356.193 L 277.514 385.668 C 283.014 385.668 287.514 381.168 287.514 375.668 Z " fill="rgb(70,70,70)"/></g></g></svg>