<?xml version="1.0" encoding="UTF-8" standalone="no"?><!-- Generator: Gravit.io --><svg xmlns="http://www.w3.org/2000/svg" xmlns:xlink="http://www.w3.org/1999/xlink" style="isolation:isolate" viewBox="0 0 60 60" width="60pt" height="60pt"><defs><clipPath id="_clipPath_USTYcyykERrFL9JRTHOaWQa9hSNxRH1H"><rect width="60" height="60"/></clipPath></defs><g clip-path="url(#_clipPath_USTYcyykERrFL9JRTHOaWQa9hSNxRH1H)"><rect width="60" height="60" style="fill:rgb(0,0,0)" fill-opacity="0"/><g><rect x="9" y="6" width="50" height="50" transform="matrix(1,0,0,1,0,0)" fill="rgb(255,153,0)"/><rect x="1" y="6" width="8" height="50" transform="matrix(1,0,0,1,0,0)" fill="rgb(74,134,232)"/><mask id="_mask_TUFYsdPp4NeBG06jPbRekIu6p114wRS1" x="-200%" y="-200%" width="400%" height="400%"><rect x="-200%" y="-200%" width="400%" height="400%" style="fill:white;"/><path d=" M 46 21 L 27 24 L 27 18 L 46 15 L 46 21 Z " fill="black" stroke="none"/></mask><path d=" M 46 21 L 27 24 L 27 18 L 46 15 L 46 21 Z " fill="rgb(255,195,105)" mask="url(#_mask_TUFYsdPp4NeBG06jPbRekIu6p114wRS1)" vector-effect="non-scaling-stroke" stroke-width="4" stroke="rgb(255,255,255)" stroke-linejoin="round" stroke-linecap="round" stroke-miterlimit="10"/><path d=" M 46 21 L 27 24 L 27 18 L 46 15 L 46 21 Z " fill="rgb(255,195,105)"/><line x1="26" y1="42.102" x2="26" y2="21.286" vector-effect="non-scaling-stroke" stroke-width="2" stroke="rgb(255,255,255)" stroke-linejoin="round" stroke-linecap="round" stroke-miterlimit="10"/><line x1="47" y1="36" x2="47" y2="16" vector-effect="non-scaling-stroke" stroke-width="2" stroke="rgb(255,255,255)" stroke-linejoin="round" stroke-linecap="round" stroke-miterlimit="10"/><ellipse vector-effect="non-scaling-stroke" cx="41.49999999999999" cy="35.99999999999999" rx="5.5" ry="5" fill="rgb(255,195,105)" stroke-width="2" stroke="rgb(255,255,255)" stroke-linejoin="round" stroke-linecap="round" stroke-miterlimit="10"/><ellipse vector-effect="non-scaling-stroke" cx="20.5" cy="42" rx="5.5" ry="5" fill="rgb(255,195,105)" stroke-width="2" stroke="rgb(255,255,255)" stroke-linejoin="round" stroke-linecap="round" stroke-miterlimit="10"/></g></g></svg>