<?xml version="1.0" encoding="UTF-8" standalone="no"?><!-- Generator: Gravit.io --><svg xmlns="http://www.w3.org/2000/svg" xmlns:xlink="http://www.w3.org/1999/xlink" style="isolation:isolate" viewBox="0 0 60 60" width="60pt" height="60pt"><defs><clipPath id="_clipPath_WpkLR2ld7TLd3IkEl0zmCic1xn7txz1j"><rect width="60" height="60"/></clipPath></defs><g clip-path="url(#_clipPath_WpkLR2ld7TLd3IkEl0zmCic1xn7txz1j)"><rect width="60" height="60" style="fill:rgb(0,0,0)" fill-opacity="0"/><g><rect x="9" y="7" width="42" height="46" transform="matrix(1,0,0,1,0,0)" fill="rgb(255,153,0)"/><g><rect x="51" y="11" width="4" height="38" transform="matrix(1,0,0,1,0,0)" fill="rgb(242,179,84)"/><rect x="5" y="11" width="4" height="38" transform="matrix(1,0,0,1,0,0)" fill="rgb(242,179,84)"/></g><g><rect x="55" y="15" width="4" height="30" transform="matrix(1,0,0,1,0,0)" fill="rgb(230,195,143)"/><rect x="1" y="15" width="4" height="30" transform="matrix(1,0,0,1,0,0)" fill="rgb(230,195,143)"/></g><path d=" M 44.649 13.24 C 44.427 13.05 44.134 12.967 43.844 13.012 L 24.844 16.012 C 24.358 16.089 24 16.508 24 17 L 24 20.286 L 24 23 L 24 36.68 C 22.831 35.642 21.246 35 19.5 35 C 15.916 35 13 37.691 13 41 C 13 44.309 15.916 47 19.5 47 C 23.033 47 25.911 44.383 25.992 41.139 C 25.993 41.126 26 41.115 26 41.102 L 26 23.854 L 43 21.17 L 43 30.681 C 41.831 29.642 40.246 29 38.5 29 C 34.916 29 32 31.691 32 35 C 32 38.309 34.916 41 38.5 41 C 42.084 41 45 38.309 45 35 L 45 20 L 45 15 L 45 14 C 45 13.708 44.872 13.43 44.649 13.24 Z " fill="rgb(74,134,232)"/></g></g></svg>