<?xml version="1.0" encoding="UTF-8" standalone="no"?><!-- Generator: Gravit.io --><svg xmlns="http://www.w3.org/2000/svg" xmlns:xlink="http://www.w3.org/1999/xlink" style="isolation:isolate" viewBox="0 0 60 60" width="60pt" height="60pt"><defs><clipPath id="_clipPath_SOkbM4cyPPUFbGFsdj8mJRXirlEWyb3h"><rect width="60" height="60"/></clipPath></defs><g clip-path="url(#_clipPath_SOkbM4cyPPUFbGFsdj8mJRXirlEWyb3h)"><rect width="60" height="60" style="fill:rgb(0,0,0)" fill-opacity="0"/><g><path d=" M 52.66 2.805 C 52.444 2.616 52.159 2.53 51.871 2.564 L 20.871 6.575 C 20.372 6.64 19.999 7.064 19.999 7.567 L 19.999 13.584 L 19.999 17.796 L 19.999 43.831 C 18.262 41.841 15.553 40.556 12.5 40.556 C 7.253 40.556 3 44.337 3 49 C 3 53.663 7.253 57.444 12.5 57.444 C 17.747 57.444 22 53.663 22 49 C 22 48.668 21.973 48.342 21.931 48.019 C 21.971 47.911 22 47.798 22 47.676 L 22 18.674 L 51 14.921 L 51 33.83 C 49.262 31.841 46.553 30.556 43.5 30.556 C 38.253 30.556 34 34.337 34 39 C 34 43.663 38.253 47.444 43.5 47.444 C 48.747 47.444 53 43.663 53 39 C 53 38.908 52.988 38.819 52.985 38.728 C 52.987 38.701 53 38.678 53 38.651 L 53 13.783 L 53 9.572 L 53 3.556 C 53 3.268 52.876 2.994 52.66 2.805 Z " fill="rgb(74,134,232)"/></g></g></svg>