<?xml version="1.0" encoding="UTF-8" standalone="no"?><!-- Generator: Gravit.io --><svg xmlns="http://www.w3.org/2000/svg" xmlns:xlink="http://www.w3.org/1999/xlink" style="isolation:isolate" viewBox="0 0 60 60" width="60pt" height="60pt"><defs><clipPath id="_clipPath_ds3Q0h1C2WX0A5WnvOA6iA5Gh4tvYfZM"><rect width="60" height="60"/></clipPath></defs><g clip-path="url(#_clipPath_ds3Q0h1C2WX0A5WnvOA6iA5Gh4tvYfZM)"><rect width="60" height="60" style="fill:rgb(0,0,0)" fill-opacity="0"/><g><path d=" M 44.824 57 L 15.176 57 C 9.003 57 4 51.997 4 45.824 L 4 16.176 C 4 10.003 9.003 5 15.176 5 L 44.825 5 C 50.997 5 56 10.003 56 16.176 L 56 45.825 C 56 51.997 50.997 57 44.824 57 Z " fill="rgb(255,153,0)"/><path d=" M 46.66 13.106 C 46.443 12.917 46.154 12.827 45.871 12.866 L 23.871 15.722 C 23.373 15.787 23 16.211 23 16.714 L 23 21 L 23 24 L 23 40.737 C 21.629 39.409 19.674 38.572 17.5 38.572 C 13.364 38.572 10 41.585 10 45.287 C 10 48.989 13.364 52 17.5 52 C 21.636 52 25 48.988 25 45.286 L 25 24.878 L 45 22.28 L 45 34.289 C 43.643 32.972 41.715 32.143 39.571 32.143 C 35.475 32.143 32.143 35.156 32.143 38.858 C 32.143 42.56 35.476 45.572 39.571 45.572 C 43.667 45.572 47 42.56 47 38.858 L 47 21.143 L 47 18.143 L 47 13.857 C 47 13.569 46.876 13.296 46.66 13.106 Z " fill="rgb(74,134,232)"/></g></g></svg>