<?xml version="1.0" encoding="UTF-8" standalone="no"?><!-- Generator: Gravit.io --><svg xmlns="http://www.w3.org/2000/svg" xmlns:xlink="http://www.w3.org/1999/xlink" style="isolation:isolate" viewBox="260.514 341.668 50 66" width="50pt" height="66pt"><defs><clipPath id="_clipPath_r5FrbxgSczms7AJOKTSyQZSa3KyDOc2B"><rect x="260.514" y="341.668" width="50" height="66"/></clipPath></defs><g clip-path="url(#_clipPath_r5FrbxgSczms7AJOKTSyQZSa3KyDOc2B)"><g><path d=" M 300.514 369.668 L 300.514 375.668 C 300.514 383.939 293.785 390.668 285.514 390.668 C 277.243 390.668 270.514 383.939 270.514 375.668 L 270.514 369.668" fill="none" vector-effect="non-scaling-stroke" stroke-width="2" stroke="rgb(74,134,232)" stroke-linejoin="miter" stroke-linecap="round" stroke-miterlimit="10"/><line x1="285.514" y1="390.668" x2="285.514" y2="397.668" vector-effect="non-scaling-stroke" stroke-width="2" stroke="rgb(74,134,232)" stroke-linejoin="miter" stroke-linecap="round" stroke-miterlimit="10"/><path d=" M 291.514 397.668 L 285.514 397.668 L 279.514 397.668" fill="none" vector-effect="non-scaling-stroke" stroke-width="2" stroke="rgb(74,134,232)" stroke-linejoin="miter" stroke-linecap="round" stroke-miterlimit="10"/><path d=" M 285.514 385.668 L 285.514 385.668 C 280.014 385.668 275.514 381.168 275.514 375.668 L 275.514 351.668 C 275.514 346.168 280.014 341.668 285.514 341.668 L 285.514 341.668 C 291.014 341.668 295.514 346.168 295.514 351.668 L 295.514 375.668 C 295.514 381.168 291.014 385.668 285.514 385.668 Z " fill="rgb(93,93,93)"/><path d=" M 295.514 375.668 L 295.514 351.668 C 295.514 346.168 291.014 341.668 285.514 341.668 L 285.514 385.668 C 291.014 385.668 295.514 381.168 295.514 375.668 Z " fill="rgb(70,70,70)"/><line x1="262.514" y1="390.668" x2="307.514" y2="345.668" vector-effect="non-scaling-stroke" stroke-width="2" stroke="rgb(255,153,0)" stroke-linejoin="miter" stroke-linecap="round" stroke-miterlimit="10"/></g></g></svg>