<?xml version="1.0" encoding="UTF-8" standalone="no"?><!-- Generator: Gravit.io --><svg xmlns="http://www.w3.org/2000/svg" xmlns:xlink="http://www.w3.org/1999/xlink" style="isolation:isolate" viewBox="333.9 252.635 55.99 58" width="55.99pt" height="58pt"><defs><clipPath id="_clipPath_ICxkqFAjoU5RC09jooV3BeC1DQSEzgfM"><rect x="333.9" y="252.635" width="55.99" height="58"/></clipPath></defs><g clip-path="url(#_clipPath_ICxkqFAjoU5RC09jooV3BeC1DQSEzgfM)"><g><path d=" M 338.9 310.635 L 338.9 310.635 C 336.15 310.635 333.9 308.385 333.9 305.635 L 333.9 282.635 L 343.9 282.635 L 343.9 305.635 C 343.9 308.385 341.65 310.635 338.9 310.635 Z " fill="rgb(209,209,209)"/><rect x="343.9" y="252.635" width="45.99" height="11" transform="matrix(1,0,0,1,0,0)" fill="rgb(209,209,209)"/><path d=" M 343.9 287.635 L 343.9 294.635 L 343.9 305.635 C 343.9 308.385 341.65 310.635 338.9 310.635 L 343.9 310.635 L 349.9 310.635 L 384.9 310.635 C 387.656 310.635 389.89 308.401 389.89 305.645 L 389.89 265.635 L 343.9 265.635 L 343.9 287.635 Z " fill="rgb(232,232,232)"/><rect x="343.9" y="263.635" width="45.99" height="2" transform="matrix(1,0,0,1,0,0)" fill="rgb(244,243,237)"/><rect x="349.9" y="268.635" width="12" height="12" transform="matrix(1,0,0,1,0,0)" fill="rgb(255,153,0)"/><path d=" M 383.9 269.635 L 367.9 269.635 C 367.347 269.635 366.9 269.188 366.9 268.635 C 366.9 268.082 367.347 267.635 367.9 267.635 L 383.9 267.635 C 384.453 267.635 384.9 268.082 384.9 268.635 C 384.9 269.188 384.453 269.635 383.9 269.635 Z " fill="rgb(93,93,93)"/><path d=" M 383.9 275.635 L 367.9 275.635 C 367.347 275.635 366.9 275.188 366.9 274.635 C 366.9 274.082 367.347 273.635 367.9 273.635 L 383.9 273.635 C 384.453 273.635 384.9 274.082 384.9 274.635 C 384.9 275.188 384.453 275.635 383.9 275.635 Z " fill="rgb(93,93,93)"/><path d=" M 383.9 281.635 L 367.9 281.635 C 367.347 281.635 366.9 281.188 366.9 280.635 C 366.9 280.082 367.347 279.635 367.9 279.635 L 383.9 279.635 C 384.453 279.635 384.9 280.082 384.9 280.635 C 384.9 281.188 384.453 281.635 383.9 281.635 Z " fill="rgb(93,93,93)"/><path d=" M 383.9 287.635 L 350.9 287.635 C 350.347 287.635 349.9 287.188 349.9 286.635 C 349.9 286.082 350.347 285.635 350.9 285.635 L 383.9 285.635 C 384.453 285.635 384.9 286.082 384.9 286.635 C 384.9 287.188 384.453 287.635 383.9 287.635 Z " fill="rgb(93,93,93)"/><path d=" M 365.9 293.635 L 350.9 293.635 C 350.347 293.635 349.9 293.188 349.9 292.635 C 349.9 292.082 350.347 291.635 350.9 291.635 L 365.9 291.635 C 366.453 291.635 366.9 292.082 366.9 292.635 C 366.9 293.188 366.453 293.635 365.9 293.635 Z " fill="rgb(93,93,93)"/><path d=" M 365.9 299.635 L 350.9 299.635 C 350.347 299.635 349.9 299.188 349.9 298.635 C 349.9 298.082 350.347 297.635 350.9 297.635 L 365.9 297.635 C 366.453 297.635 366.9 298.082 366.9 298.635 C 366.9 299.188 366.453 299.635 365.9 299.635 Z " fill="rgb(93,93,93)"/><path d=" M 365.9 305.635 L 350.9 305.635 C 350.347 305.635 349.9 305.188 349.9 304.635 C 349.9 304.082 350.347 303.635 350.9 303.635 L 365.9 303.635 C 366.453 303.635 366.9 304.082 366.9 304.635 C 366.9 305.188 366.453 305.635 365.9 305.635 Z " fill="rgb(93,93,93)"/><rect x="371.9" y="292.635" width="12" height="12" transform="matrix(1,0,0,1,0,0)" fill="rgb(74,134,232)"/><rect x="355.9" y="256.635" width="22" height="4" transform="matrix(1,0,0,1,0,0)" fill="rgb(116,116,116)"/></g></g></svg>