<?xml version="1.0" encoding="UTF-8" standalone="no"?><!-- Generator: Gravit.io --><svg xmlns="http://www.w3.org/2000/svg" xmlns:xlink="http://www.w3.org/1999/xlink" style="isolation:isolate" viewBox="-3 2 48 59" width="48pt" height="59pt"><defs><clipPath id="_clipPath_j34u1GUURUm5Mn47Grw3Ocqky6tUCwS0"><rect x="-3" y="2" width="48" height="59"/></clipPath></defs><g clip-path="url(#_clipPath_j34u1GUURUm5Mn47Grw3Ocqky6tUCwS0)"><rect x="-3" y="2" width="48" height="59" style="fill:rgb(0,0,0)" fill-opacity="0"/><g><rect x="16" y="2" width="9" height="5" transform="matrix(1,0,0,1,0,0)" fill="rgb(46,46,46)"/><path d=" M 29 4 L 25 4 L 25 7 L 16 7 L 16 4 L 12 4 L -3 4 L -3 60 L 44 60 L 44 4 L 29 4 Z " fill="rgb(74,134,232)"/><path d=" M 32 7 L 32 10 L 9 10 L 9 7 L 0 7 L 0 57 L 41 57 L 41 7 L 32 7 Z " fill="rgb(232,232,232)"/><g><path d=" M 7 19 L 16 19 C 16.553 19 17 18.553 17 18 C 17 17.447 16.553 17 16 17 L 7 17 C 6.447 17 6 17.447 6 18 C 6 18.553 6.447 19 7 19 Z " fill="rgb(93,93,93)"/><path d=" M 7 27 L 12 27 C 12.553 27 13 26.553 13 26 C 13 25.447 12.553 25 12 25 L 7 25 C 6.447 25 6 25.447 6 26 C 6 26.553 6.447 27 7 27 Z " fill="rgb(93,93,93)"/><path d=" M 29 25 L 22 25 C 21.447 25 21 25.447 21 26 C 21 26.553 21.447 27 22 27 L 29 27 C 29.553 27 30 26.553 30 26 C 30 25.447 29.553 25 29 25 Z " fill="rgb(93,93,93)"/><path d=" M 16.29 25.29 C 16.1 25.479 16 25.729 16 26 C 16 26.27 16.109 26.52 16.29 26.71 C 16.479 26.89 16.729 27 17 27 C 17.27 27 17.52 26.899 17.71 26.71 C 17.89 26.52 18 26.26 18 26 C 18 25.739 17.89 25.479 17.71 25.29 C 17.33 24.92 16.67 24.92 16.29 25.29 Z " fill="rgb(93,93,93)"/><path d=" M 34.71 25.29 C 34.34 24.92 33.67 24.92 33.29 25.29 C 33.1 25.479 33 25.729 33 26 C 33 26.27 33.109 26.52 33.29 26.71 C 33.479 26.89 33.729 27 34 27 C 34.27 27 34.52 26.89 34.71 26.71 C 34.89 26.52 35 26.26 35 26 C 35 25.739 34.89 25.479 34.71 25.29 Z " fill="rgb(93,93,93)"/><path d=" M 19 33 L 12 33 C 11.447 33 11 33.447 11 34 C 11 34.553 11.447 35 12 35 L 19 35 C 19.553 35 20 34.553 20 34 C 20 33.447 19.553 33 19 33 Z " fill="rgb(93,93,93)"/><path d=" M 6.29 33.29 C 6.109 33.479 6 33.729 6 34 C 6 34.27 6.109 34.52 6.29 34.71 C 6.479 34.89 6.729 35 7 35 C 7.27 35 7.52 34.89 7.71 34.71 C 7.89 34.52 8 34.26 8 34 C 8 33.739 7.89 33.479 7.71 33.29 C 7.34 32.92 6.66 32.92 6.29 33.29 Z " fill="rgb(93,93,93)"/></g><g><path d=" M 10.145 42.166 C 7.954 43.307 7.217 45.487 6.949 47.748 C 6.535 47.401 6.121 47.055 5.708 46.708 C 4.727 45.886 3.304 47.293 4.294 48.123 C 5.229 48.906 6.165 49.69 7.1 50.474 C 7.762 51.029 8.776 50.685 8.807 49.767 C 8.88 47.6 8.984 45.024 11.155 43.894 C 12.299 43.298 11.287 41.572 10.145 42.166 Z " fill="rgb(0,150,136)"/><path d=" M 19.483 47.25 C 18.963 46.32 17.841 45.859 16.795 46.155 C 15.43 46.541 13.814 48.197 12.859 46.261 C 12.288 45.104 10.564 46.118 11.132 47.27 C 11.646 48.312 12.632 49.068 13.801 49.202 C 14.408 49.271 14.918 49.189 15.489 48.976 C 15.895 48.824 17.412 47.644 17.756 48.259 C 18.385 49.385 20.113 48.376 19.483 47.25 Z " fill="rgb(0,150,136)"/></g><line x1="44" y1="40" x2="24" y2="60" vector-effect="non-scaling-stroke" stroke-width="2" stroke="rgb(255,153,0)" stroke-linejoin="miter" stroke-linecap="round" stroke-miterlimit="10"/><path d=" M 25 4 L 25 7 L 16 7 L 16 4 L 9 4 L 9 10 L 32 10 L 32 4 L 25 4 Z " fill="rgb(255,153,0)"/></g></g></svg>