<?xml version="1.0" encoding="UTF-8" standalone="no"?><!-- Generator: Gravit.io --><svg xmlns="http://www.w3.org/2000/svg" xmlns:xlink="http://www.w3.org/1999/xlink" style="isolation:isolate" viewBox="353.285 299.16 58 58.06" width="58pt" height="58.06pt"><defs><clipPath id="_clipPath_iOxQ81uhIHZmxbv15iOCe3PHZS1oAaHd"><rect x="353.285" y="299.16" width="58" height="58.06"/></clipPath></defs><g clip-path="url(#_clipPath_iOxQ81uhIHZmxbv15iOCe3PHZS1oAaHd)"><g><rect x="353.285" y="299.16" width="44" height="58" transform="matrix(1,0,0,1,0,0)" fill="rgb(74,134,232)"/><rect x="353.285" y="299.16" width="8" height="58" transform="matrix(1,0,0,1,0,0)" fill="rgb(162,162,162)"/><rect x="368.285" y="309.16" width="22" height="12" transform="matrix(1,0,0,1,0,0)" fill="rgb(232,232,232)"/><rect x="372.285" y="312.16" width="14" height="2" transform="matrix(1,0,0,1,0,0)" fill="rgb(116,116,116)"/><rect x="372.285" y="316.16" width="14" height="2" transform="matrix(1,0,0,1,0,0)" fill="rgb(116,116,116)"/><rect x="403.285" y="306.16" width="4" height="4" transform="matrix(1,0,0,1,0,0)" fill="rgb(224,225,226)"/><path d=" M 407.285 299.16 L 405.27 299.16 C 404.996 299.16 404.735 299.216 404.497 299.316 C 404.378 299.366 404.265 299.427 404.16 299.499 C 403.632 299.856 403.285 300.46 403.285 301.145 L 403.285 306.16 L 407.285 306.16 L 407.285 299.16 Z " fill="rgb(215,90,74)"/><path d=" M 409.3 299.16 L 409.3 299.16 C 409.574 299.16 409.835 299.216 410.073 299.316 C 409.835 299.216 409.574 299.16 409.3 299.16 Z " fill="rgb(215,90,74)"/><rect x="407.285" y="310.16" width="4" height="38" transform="matrix(1,0,0,1,0,0)" fill="rgb(74,134,232)"/><rect x="407.285" y="306.16" width="4" height="4" transform="matrix(1,0,0,1,0,0)" fill="rgb(196,196,196)"/><path d=" M 411.285 301.145 L 411.285 301.145 C 411.285 300.46 410.938 299.856 410.41 299.499 C 410.938 299.856 411.285 300.46 411.285 301.145 Z " fill="rgb(215,90,74)"/><path d=" M 411.285 306.16 L 411.285 301.145 C 411.285 300.46 410.938 299.856 410.41 299.499 C 410.305 299.428 410.191 299.366 410.073 299.316 C 409.835 299.216 409.574 299.16 409.3 299.16 L 407.285 299.16 L 407.285 306.16 L 411.285 306.16 Z " fill="rgb(183,76,68)"/><path d=" M 411.285 348.16 L 403.285 348.16 L 407.285 355.16 L 411.285 348.16 Z " fill="rgb(235,214,189)"/><path d=" M 407.285 357.16 Q 407.285 357.713 408.285 353.16 L 406.285 353.16 L 407.285 357.16 Z " fill="rgb(76,76,76)"/><rect x="403.285" y="310.16" width="4" height="38" transform="matrix(1,0,0,1,0,0)" fill="rgb(255,153,0)"/></g></g></svg>