<?xml version="1.0" encoding="UTF-8" standalone="no"?><!-- Generator: Gravit.io --><svg xmlns="http://www.w3.org/2000/svg" xmlns:xlink="http://www.w3.org/1999/xlink" style="isolation:isolate" viewBox="353.285 299.16 56 58.06" width="56pt" height="58.06pt"><defs><clipPath id="_clipPath_6ZKurXKn0dcvOCFTOOk0fertDqW1Dx7i"><rect x="353.285" y="299.16" width="56" height="58.06"/></clipPath></defs><g clip-path="url(#_clipPath_6ZKurXKn0dcvOCFTOOk0fertDqW1Dx7i)"><g><path d=" M 391.288 351.16 L 353.285 351.16 L 353.285 299.163 L 391.288 299.163 C 392.943 299.163 394.285 300.505 394.285 302.16 L 394.285 348.163 C 394.285 349.818 392.943 351.16 391.288 351.16 Z " fill="rgb(74,134,232)"/><rect x="383.285" y="299.163" width="5" height="51.997" transform="matrix(1,0,0,1,0,0)" fill="rgb(215,90,74)"/><g><rect x="353.285" y="316.17" width="30" height="18" transform="matrix(1,0,0,1,0,0)" fill="rgb(255,153,0)"/><rect x="388.285" y="316.17" width="6" height="18" transform="matrix(1,0,0,1,0,0)" fill="rgb(255,153,0)"/></g><path d=" M 363.285 356.16 L 360.285 354.16 L 357.285 356.16 L 357.285 351.16 L 363.285 351.16 L 363.285 356.16 Z " fill="rgb(255,153,0)"/><rect x="401.285" y="306.16" width="4" height="4" transform="matrix(1,0,0,1,0,0)" fill="rgb(224,225,226)"/><path d=" M 405.285 299.16 L 403.27 299.16 C 402.996 299.16 402.735 299.216 402.497 299.316 C 402.378 299.366 402.265 299.427 402.16 299.499 C 401.632 299.856 401.285 300.46 401.285 301.145 L 401.285 306.16 L 405.285 306.16 L 405.285 299.16 Z " fill="rgb(215,90,74)"/><path d=" M 407.3 299.16 L 407.3 299.16 C 407.574 299.16 407.835 299.216 408.073 299.316 C 407.835 299.216 407.574 299.16 407.3 299.16 Z " fill="rgb(215,90,74)"/><rect x="405.285" y="310.16" width="4" height="38" transform="matrix(1,0,0,1,0,0)" fill="rgb(74,134,232)"/><rect x="405.285" y="306.16" width="4" height="4" transform="matrix(1,0,0,1,0,0)" fill="rgb(196,196,196)"/><path d=" M 409.285 301.145 L 409.285 301.145 C 409.285 300.46 408.938 299.856 408.41 299.499 C 408.938 299.856 409.285 300.46 409.285 301.145 Z " fill="rgb(215,90,74)"/><path d=" M 409.285 306.16 L 409.285 301.145 C 409.285 300.46 408.938 299.856 408.41 299.499 C 408.305 299.428 408.191 299.366 408.073 299.316 C 407.835 299.216 407.574 299.16 407.3 299.16 L 405.285 299.16 L 405.285 306.16 L 409.285 306.16 Z " fill="rgb(183,76,68)"/><path d=" M 409.285 348.16 L 401.285 348.16 L 405.285 355.16 L 409.285 348.16 Z " fill="rgb(235,214,189)"/><path d=" M 405.285 357.16 Q 405.285 357.713 406.285 353.16 L 404.285 353.16 L 405.285 357.16 Z " fill="rgb(76,76,76)"/><rect x="401.285" y="310.16" width="4" height="38" transform="matrix(1,0,0,1,0,0)" fill="rgb(237,138,25)"/></g></g></svg>