<?xml version="1.0" encoding="UTF-8" standalone="no"?><!-- Generator: Gravit.io --><svg xmlns="http://www.w3.org/2000/svg" xmlns:xlink="http://www.w3.org/1999/xlink" style="isolation:isolate" viewBox="353 265 54 58.06" width="54pt" height="58.06pt"><defs><clipPath id="_clipPath_BCjzR1uVTJQyCjSXE0a9LrENYwdTpB3f"><rect x="353" y="265" width="54" height="58.06"/></clipPath></defs><g clip-path="url(#_clipPath_BCjzR1uVTJQyCjSXE0a9LrENYwdTpB3f)"><g><path d=" M 400.985 265 C 400.711 265 400.45 265.056 400.212 265.156 C 400.45 265.056 400.711 265 400.985 265 L 400.985 265 Z " fill="rgb(237,138,25)"/><rect x="399" y="272" width="4" height="4" transform="matrix(1,0,0,1,0,0)" fill="rgb(224,225,226)"/><path d=" M 399.875 265.339 C 399.347 265.696 399 266.3 399 266.985 L 399 266.985 C 399 266.3 399.347 265.696 399.875 265.339 Z " fill="rgb(215,90,74)"/><path d=" M 403 265 L 400.985 265 C 400.711 265 400.45 265.056 400.212 265.156 C 400.093 265.206 399.98 265.267 399.875 265.339 C 399.347 265.696 399 266.3 399 266.985 L 399 272 L 403 272 L 403 265 Z " fill="rgb(215,90,74)"/><rect x="403" y="276" width="4" height="38" transform="matrix(1,0,0,1,0,0)" fill="rgb(219,123,27)"/><rect x="403" y="272" width="4" height="4" transform="matrix(1,0,0,1,0,0)" fill="rgb(196,196,196)"/><path d=" M 407 272 L 407 266.985 C 407 266.3 406.653 265.696 406.125 265.339 C 406.02 265.268 405.906 265.206 405.788 265.156 C 405.55 265.056 405.289 265 405.015 265 L 403 265 L 403 272 L 407 272 Z " fill="rgb(183,76,68)"/><rect x="372" y="265" width="9" height="5" transform="matrix(1,0,0,1,0,0)" fill="rgb(48,54,68)"/><path d=" M 399 314 L 399 267 L 385 267 L 381 267 L 381 270 L 372 270 L 372 267 L 368 267 L 353 267 L 353 323 L 400 323 L 400 315.75 L 399 314 Z " fill="rgb(255,153,0)"/><path d=" M 381 267 L 381 270 L 372 270 L 372 267 L 365 267 L 365 273 L 388 273 L 388 267 L 381 267 Z " fill="rgb(74,134,232)"/><path d=" M 388 272 L 388 273 L 365 273 L 365 272 L 358 272 L 358 318 L 395 318 L 395 272 L 388 272 Z " fill="rgb(237,234,218)"/><g><path d=" M 365 283 L 374 283 C 374.553 283 375 282.553 375 282 C 375 281.447 374.553 281 374 281 L 365 281 C 364.447 281 364 281.447 364 282 C 364 282.553 364.447 283 365 283 Z " fill="rgb(76,76,76)"/><path d=" M 365 290 L 370 290 C 370.553 290 371 289.553 371 289 C 371 288.447 370.553 288 370 288 L 365 288 C 364.447 288 364 288.447 364 289 C 364 289.553 364.447 290 365 290 Z " fill="rgb(76,76,76)"/><path d=" M 385 288 L 378 288 C 377.447 288 377 288.447 377 289 C 377 289.553 377.447 290 378 290 L 385 290 C 385.553 290 386 289.553 386 289 C 386 288.447 385.553 288 385 288 Z " fill="rgb(76,76,76)"/><path d=" M 373.29 288.29 C 373.109 288.479 373 288.739 373 289 C 373 289.26 373.109 289.52 373.29 289.71 C 373.479 289.899 373.729 290 374 290 C 374.26 290 374.52 289.89 374.71 289.71 C 374.89 289.52 375 289.26 375 289 C 375 288.739 374.89 288.479 374.71 288.29 C 374.33 287.92 373.67 287.92 373.29 288.29 Z " fill="rgb(76,76,76)"/><path d=" M 389.71 288.29 C 389.33 287.92 388.67 287.92 388.29 288.29 C 388.109 288.479 388 288.739 388 289 C 388 289.26 388.109 289.52 388.29 289.71 C 388.479 289.899 388.729 290 389 290 C 389.27 290 389.52 289.89 389.71 289.71 C 389.89 289.52 390 289.26 390 289 C 390 288.739 389.89 288.479 389.71 288.29 Z " fill="rgb(76,76,76)"/><path d=" M 376 295 L 369 295 C 368.447 295 368 295.447 368 296 C 368 296.553 368.447 297 369 297 L 376 297 C 376.553 297 377 296.553 377 296 C 377 295.447 376.553 295 376 295 Z " fill="rgb(76,76,76)"/><path d=" M 364.29 295.29 C 364.1 295.479 364 295.729 364 296 C 364 296.26 364.109 296.52 364.29 296.71 C 364.479 296.89 364.74 297 365 297 C 365.26 297 365.52 296.89 365.71 296.71 C 365.899 296.52 366 296.26 366 296 C 366 295.739 365.899 295.479 365.71 295.29 C 365.33 294.92 364.67 294.92 364.29 295.29 Z " fill="rgb(76,76,76)"/></g><g><path d=" M 370.525 301.137 C 368.334 302.277 367.597 304.457 367.329 306.719 C 366.915 306.372 366.502 306.026 366.088 305.679 C 365.107 304.857 363.684 306.264 364.674 307.094 C 365.609 307.877 366.545 308.661 367.48 309.445 C 368.142 310 369.156 309.656 369.187 308.738 C 369.26 306.571 369.364 303.995 371.535 302.865 C 372.679 302.268 371.667 300.542 370.525 301.137 Z " fill="rgb(0,150,136)"/><path d=" M 379.864 306.22 C 379.344 305.29 378.222 304.829 377.176 305.125 C 375.811 305.511 374.195 307.167 373.24 305.231 C 372.669 304.074 370.945 305.088 371.513 306.24 C 372.027 307.282 373.013 308.038 374.182 308.172 C 374.789 308.241 375.299 308.159 375.87 307.946 C 376.276 307.794 377.793 306.614 378.137 307.229 C 378.766 308.355 380.493 307.347 379.864 306.22 Z " fill="rgb(0,150,136)"/></g><path d=" M 407 314 L 399 314 L 403 321 L 407 314 Z " fill="rgb(235,214,189)"/><path d=" M 403 323 Q 403 323.553 404 319 L 402 319 L 403 323 Z " fill="rgb(76,76,76)"/><rect x="399" y="276" width="4" height="38" transform="matrix(1,0,0,1,0,0)" fill="rgb(74,134,232)"/></g></g></svg>