<?xml version="1.0" encoding="UTF-8" standalone="no"?><!-- Generator: Gravit.io --><svg xmlns="http://www.w3.org/2000/svg" xmlns:xlink="http://www.w3.org/1999/xlink" style="isolation:isolate" viewBox="258.546 299.61 53 54" width="53pt" height="54pt"><defs><clipPath id="_clipPath_B5shIUPe5IrCMzRysHXpbrsidmiZAMDe"><rect x="258.546" y="299.61" width="53" height="54"/></clipPath></defs><g clip-path="url(#_clipPath_B5shIUPe5IrCMzRysHXpbrsidmiZAMDe)"><g><path d=" M 301.546 318.61 C 296.575 318.61 292.546 314.581 292.546 309.61 C 292.546 308.922 292.63 308.254 292.777 307.61 L 262.781 307.61 C 260.442 307.61 258.546 309.506 258.546 311.845 L 258.546 349.375 C 258.546 351.714 260.442 353.61 262.781 353.61 L 300.311 353.61 C 302.65 353.61 304.546 351.714 304.546 349.375 L 304.546 318.087 C 303.606 318.42 302.6 318.61 301.546 318.61 Z " fill="rgb(74,134,232)"/><path d=" M 264.148 311 L 298.852 311 C 300.037 311 301 311.963 301 313.148 L 301 348.852 C 301 350.037 300.037 351 298.852 351 L 264.148 351 C 262.963 351 262 350.037 262 348.852 L 262 313.148 C 262 311.963 262.963 311 264.148 311 Z " fill="rgb(255,153,0)"/><circle vector-effect="non-scaling-stroke" cx="301.545811387245" cy="309.61039030894864" r="9" fill="rgb(221,53,46)" stroke-width="2" stroke="rgb(255,255,255)" stroke-linejoin="miter" stroke-linecap="round" stroke-miterlimit="10"/></g></g></svg>