<?xml version="1.0" encoding="UTF-8" standalone="no"?><!-- Generator: Gravit.io --><svg xmlns="http://www.w3.org/2000/svg" xmlns:xlink="http://www.w3.org/1999/xlink" style="isolation:isolate" viewBox="0 0 60 60" width="60pt" height="60pt"><defs><clipPath id="_clipPath_10QzR4Lt8Y3RaTDaYqqKKj0cR9BmarMv"><rect width="60" height="60"/></clipPath></defs><g clip-path="url(#_clipPath_10QzR4Lt8Y3RaTDaYqqKKj0cR9BmarMv)"><rect width="60" height="60" style="fill:rgb(0,0,0)" fill-opacity="0"/><g><circle vector-effect="non-scaling-stroke" cx="30.000000000000007" cy="30.000000000000004" r="29" fill="rgb(255,153,0)"/><g><rect x="34" y="15" width="6" height="30" transform="matrix(1,0,0,1,0,0)" fill="rgb(74,134,232)"/><path d=" M 41 46 L 33 46 L 33 14 L 41 14 L 41 46 Z  M 35 44 L 39 44 L 39 16 L 35 16 L 35 44 Z " fill="rgb(74,134,232)"/></g><g><rect x="20" y="15" width="6" height="30" transform="matrix(1,0,0,1,0,0)" fill="rgb(74,134,232)"/><path d=" M 27 46 L 19 46 L 19 14 L 27 14 L 27 46 Z  M 21 44 L 25 44 L 25 16 L 21 16 L 21 44 Z " fill="rgb(74,134,232)"/></g></g></g></svg>