<?xml version="1.0" encoding="UTF-8" standalone="no"?><!-- Generator: Gravit.io --><svg xmlns="http://www.w3.org/2000/svg" xmlns:xlink="http://www.w3.org/1999/xlink" style="isolation:isolate" viewBox="0 0 60 60" width="60pt" height="60pt"><defs><clipPath id="_clipPath_ugCUwl1X4zJWF3yrTV3Ko0wMlYBTefEa"><rect width="60" height="60"/></clipPath></defs><g clip-path="url(#_clipPath_ugCUwl1X4zJWF3yrTV3Ko0wMlYBTefEa)"><g><path d=" M 46.001 16 L 42.001 6 L 18.001 6 L 14.001 16 L 4.8 16 C 2.702 16 1.001 17.701 1.001 19.799 L 1.001 49.167 C 1.001 51.284 2.717 53 4.834 53 L 55.167 53 C 57.284 53 59 51.284 59 49.167 L 59 19.799 C 59 17.701 57.299 16 55.201 16 L 46.001 16 Z " fill="rgb(116,116,116)"/><circle vector-effect="non-scaling-stroke" cx="30.001000000000005" cy="32.00000000000001" r="17" fill="rgb(70,70,70)" stroke-width="2" stroke="rgb(46,46,46)" stroke-linejoin="miter" stroke-linecap="round" stroke-miterlimit="10"/><circle vector-effect="non-scaling-stroke" cx="30.001000000000005" cy="31.999999999999986" r="11" fill="rgb(162,162,162)"/><rect x="7.001" y="11" width="4" height="5" transform="matrix(1,0,0,1,0,0)" fill="rgb(46,46,46)"/><circle vector-effect="non-scaling-stroke" cx="52.001000000000005" cy="23" r="3" fill="rgb(255,255,0)"/><path d=" M 33.001 32 C 33.001 35.595 34.419 38.778 36.601 40.785 C 39.268 38.778 41.001 35.595 41.001 32 C 41.001 28.405 39.268 25.222 36.601 23.215 C 34.419 25.222 33.001 28.405 33.001 32 Z " fill="rgb(185,185,185)"/><path d=" M 19.001 32 C 19.001 35.595 20.734 38.778 23.401 40.785 C 25.583 38.778 27.001 35.595 27.001 32 C 27.001 28.405 25.583 25.222 23.401 23.215 C 20.734 25.222 19.001 28.405 19.001 32 Z " fill="rgb(185,185,185)"/><path d=" M 30.001 44 C 23.384 44 18.001 38.617 18.001 32 C 18.001 25.383 23.384 20 30.001 20 C 36.618 20 42.001 25.383 42.001 32 C 42.001 38.617 36.618 44 30.001 44 Z  M 30.001 22 C 24.487 22 20.001 26.486 20.001 32 C 20.001 37.514 24.487 42 30.001 42 C 35.515 42 40.001 37.514 40.001 32 C 40.001 26.486 35.515 22 30.001 22 Z " fill="rgb(116,116,116)"/><circle vector-effect="non-scaling-stroke" cx="31.501000000000012" cy="28.5" r="3.5" fill="rgb(242,229,110)"/><circle vector-effect="non-scaling-stroke" cx="29.001000000000005" cy="30" r="2" fill="rgb(255,204,128)"/><circle vector-effect="non-scaling-stroke" cx="26.001000000000005" cy="28" r="2" fill="rgb(227,150,150)"/></g></g></svg>