<?xml version="1.0" encoding="UTF-8" standalone="no"?><!-- Generator: Gravit.io --><svg xmlns="http://www.w3.org/2000/svg" xmlns:xlink="http://www.w3.org/1999/xlink" style="isolation:isolate" viewBox="0 0 60 60" width="60pt" height="60pt"><defs><clipPath id="_clipPath_hCvhqCfcL0AKLOdZrM6xluuSKRUT63gd"><rect width="60" height="60"/></clipPath></defs><g clip-path="url(#_clipPath_hCvhqCfcL0AKLOdZrM6xluuSKRUT63gd)"><rect width="60" height="60" style="fill:rgb(0,0,0)" fill-opacity="0"/><g><rect x="21" y="8" width="19" height="4" transform="matrix(1,0,0,1,0,0)" fill="rgb(46,46,46)"/><path d=" M 55.63 52 L 4.37 52 C 3.061 52 2 50.939 2 49.63 L 2 14.37 C 2 13.061 3.061 12 4.37 12 L 55.63 12 C 56.939 12 58 13.061 58 14.37 L 58 49.63 C 58 50.939 56.939 52 55.63 52 Z " fill="rgb(70,70,70)"/><circle vector-effect="non-scaling-stroke" cx="31" cy="32" r="16" fill="rgb(46,46,46)"/><circle vector-effect="non-scaling-stroke" cx="31" cy="32" r="14" fill="rgb(116,116,116)"/><path d=" M 34.818 32 C 34.818 36.576 36.622 40.626 39.4 43.181 C 42.795 40.626 45 36.576 45 32 C 45 27.424 42.795 23.374 39.4 20.819 C 36.622 23.374 34.818 27.424 34.818 32 Z " fill="rgb(185,185,185)"/><path d=" M 17 32 C 17 36.576 19.205 40.626 22.6 43.181 C 25.378 40.626 27.182 36.576 27.182 32 C 27.182 27.424 25.378 23.374 22.6 20.819 C 19.205 23.374 17 27.424 17 32 Z " fill="rgb(185,185,185)"/><circle vector-effect="non-scaling-stroke" cx="25.909" cy="26.909" r="2.5450000000000017" fill="rgb(209,209,209)"/></g></g></svg>