<?xml version="1.0" encoding="UTF-8" standalone="no"?><!-- Generator: Gravit.io --><svg xmlns="http://www.w3.org/2000/svg" xmlns:xlink="http://www.w3.org/1999/xlink" style="isolation:isolate" viewBox="0 0 60 60" width="60pt" height="60pt"><defs><clipPath id="_clipPath_Zkuxc5cckExRXHBBdl7TWRgf9cwxsYFD"><rect width="60" height="60"/></clipPath></defs><g clip-path="url(#_clipPath_Zkuxc5cckExRXHBBdl7TWRgf9cwxsYFD)"><g><mask id="_mask_Cuws5BKlLXjtSXj6ZMUwDglzsnR8gfUI" x="-200%" y="-200%" width="400%" height="400%"><rect x="-200%" y="-200%" width="400%" height="400%" style="fill:white;"/><path d=" M 28.021 4.354 C 22.164 8.042 11 18 11 18 L 51 18 C 51 18 39.836 8.042 33.979 4.354" fill="black" stroke="none"/></mask><path d=" M 28.021 4.354 C 22.164 8.042 11 18 11 18 L 51 18 C 51 18 39.836 8.042 33.979 4.354" fill="none" mask="url(#_mask_Cuws5BKlLXjtSXj6ZMUwDglzsnR8gfUI)" vector-effect="non-scaling-stroke" stroke-width="4" stroke="rgb(70,70,70)" stroke-linejoin="round" stroke-linecap="butt" stroke-miterlimit="10"/><path d=" M 28.021 4.354 C 22.164 8.042 11 18 11 18 L 51 18 C 51 18 39.836 8.042 33.979 4.354" fill="none"/><circle vector-effect="non-scaling-stroke" cx="31" cy="7" r="4" fill="rgb(116,116,116)" stroke-width="2" stroke="rgb(185,185,185)" stroke-linejoin="round" stroke-linecap="butt" stroke-miterlimit="10"/><rect x="4" y="18" width="53" height="40" transform="matrix(1,0,0,1,0,0)" fill="rgb(231,236,237)" vector-effect="non-scaling-stroke" stroke-width="2" stroke="rgb(70,70,70)" stroke-linejoin="miter" stroke-linecap="butt" stroke-miterlimit="2"/><rect x="8" y="22" width="45" height="32" transform="matrix(1,0,0,1,0,0)" fill="rgb(111,185,244)" vector-effect="non-scaling-stroke" stroke-width="2" stroke="rgb(231,236,237)" stroke-linejoin="miter" stroke-linecap="butt" stroke-miterlimit="2"/><circle vector-effect="non-scaling-stroke" cx="17" cy="29.569000000000003" r="4.568999999999999" fill="rgb(255,166,0)"/><path d=" M 52 44.111 L 51 43 L 39 32 L 28.5 43.5 L 33.983 48.983 L 38 53 L 52 53 L 52 44.111 Z " fill="rgb(0,150,136)"/><path d=" M 9 53 L 38 53 L 33.983 48.983 L 23.017 38.017 L 9 50.359 L 9 53 Z " fill="rgb(25,117,108)"/></g></g></svg>