<?xml version="1.0" encoding="UTF-8" standalone="no"?><!-- Generator: Gravit.io --><svg xmlns="http://www.w3.org/2000/svg" xmlns:xlink="http://www.w3.org/1999/xlink" style="isolation:isolate" viewBox="0 0 60 60" width="60pt" height="60pt"><defs><clipPath id="_clipPath_kcvniLi5KTcwjcIBOYl4StQEdVPv7ZHm"><rect width="60" height="60"/></clipPath></defs><g clip-path="url(#_clipPath_kcvniLi5KTcwjcIBOYl4StQEdVPv7ZHm)"><rect width="60" height="60" style="fill:rgb(0,0,0)" fill-opacity="0"/><g><rect x="2" y="8" width="56" height="44" transform="matrix(1,0,0,1,0,0)" fill="rgb(195,225,237)" vector-effect="non-scaling-stroke" stroke-width="2" stroke="rgb(93,93,93)" stroke-linejoin="miter" stroke-linecap="butt" stroke-miterlimit="2"/><circle vector-effect="non-scaling-stroke" cx="16.999999999999993" cy="18.568999999999996" r="6.568999999999999" fill="rgb(242,109,56)"/><path d=" M 57 37.111 L 56 36 L 44 25 L 33.5 36.5 L 38.983 41.983 L 43 46 L 57 46 L 57 37.111 Z " fill="rgb(6,123,112)"/><path d=" M 3 50 L 27 50 L 22.983 45.983 L 12.017 35.017 L 3 42.956 L 3 50 Z " fill="rgb(26,145,114)"/><rect x="3" y="46" width="54" height="5" transform="matrix(1,0,0,1,0,0)" fill="rgb(72,58,43)"/><path d=" M 38.983 41.983 L 28.017 31.017 L 11 46 L 43 46 L 38.983 41.983 Z " fill="rgb(0,150,136)"/></g></g></svg>