<?xml version="1.0" encoding="UTF-8" standalone="no"?><!-- Generator: Gravit.io --><svg xmlns="http://www.w3.org/2000/svg" xmlns:xlink="http://www.w3.org/1999/xlink" style="isolation:isolate" viewBox="0 0 60 60" width="60pt" height="60pt"><defs><clipPath id="_clipPath_BvQZOoME2JRUrvr8SAtCJ3JcZwYQRfDj"><rect width="60" height="60"/></clipPath></defs><g clip-path="url(#_clipPath_BvQZOoME2JRUrvr8SAtCJ3JcZwYQRfDj)"><rect width="60" height="60" style="fill:rgb(0,0,0)" fill-opacity="0"/><g><path d=" M 49 38 L 40.564 38 L 30.177 53 L 19.79 38 L 11 38 L 1 59 L 59 59 L 49 38 Z " fill="rgb(29,179,29)"/><path d=" M 43.03 6.324 L 43.03 6.324 C 35.932 -0.774 24.423 -0.774 17.324 6.324 L 17.324 6.324 C 10.928 12.72 10.208 24.763 15.636 32 L 30.177 53 L 44.718 32 C 50.146 24.763 49.426 12.72 43.03 6.324 Z  M 30.354 25 C 27.04 25 24.354 22.314 24.354 19 C 24.354 15.686 27.04 13 30.354 13 C 33.668 13 36.354 15.686 36.354 19 C 36.354 22.314 33.667 25 30.354 25 Z " fill="rgb(232,94,94)"/></g></g></svg>