<?xml version="1.0" encoding="UTF-8" standalone="no"?><!-- Generator: Gravit.io --><svg xmlns="http://www.w3.org/2000/svg" xmlns:xlink="http://www.w3.org/1999/xlink" style="isolation:isolate" viewBox="0 0 60 60" width="60pt" height="60pt"><defs><clipPath id="_clipPath_AI13Fn245hmS1Y0JKGbWkE7Gd9pfYTXG"><rect width="60" height="60"/></clipPath></defs><g clip-path="url(#_clipPath_AI13Fn245hmS1Y0JKGbWkE7Gd9pfYTXG)"><rect width="60" height="60" style="fill:rgb(0,0,0)" fill-opacity="0"/><g><rect x="0" y="42" width="60" height="18" transform="matrix(1,0,0,1,0,0)" fill="rgb(70,70,70)"/><path d=" M 56 52 L 52 52 L 52 50 L 56 50 L 56 52 Z  M 48 52 L 44 52 L 44 50 L 48 50 L 48 52 Z  M 40 52 L 36 52 L 36 50 L 40 50 L 40 52 Z  M 32 52 L 28 52 L 28 50 L 32 50 L 32 52 Z  M 24 52 L 20 52 L 20 50 L 24 50 L 24 52 Z  M 16 52 L 12 52 L 12 50 L 16 50 L 16 52 Z  M 8 52 L 4 52 L 4 50 L 8 50 L 8 52 Z " fill="rgb(255,255,255)"/><path d=" M 44.03 6.324 L 44.03 6.324 C 36.932 -0.774 25.423 -0.774 18.324 6.324 L 18.324 6.324 C 11.928 12.72 11.208 24.764 16.636 32 L 31.177 53 L 45.718 32 C 51.146 24.763 50.426 12.72 44.03 6.324 Z  M 31.354 25 C 28.04 25 25.354 22.314 25.354 19 C 25.354 15.686 28.04 13 31.354 13 C 34.668 13 37.354 15.686 37.354 19 C 37.354 22.314 34.667 25 31.354 25 Z " fill="rgb(236,92,92)"/></g></g></svg>