<?xml version="1.0" encoding="UTF-8" standalone="no"?><!-- Generator: Gravit.io --><svg xmlns="http://www.w3.org/2000/svg" xmlns:xlink="http://www.w3.org/1999/xlink" style="isolation:isolate" viewBox="0 0 60 60" width="60pt" height="60pt"><defs><clipPath id="_clipPath_T2BEXidfdnraAEW8gAcUmwDghfPVIGui"><rect width="60" height="60"/></clipPath></defs><g clip-path="url(#_clipPath_T2BEXidfdnraAEW8gAcUmwDghfPVIGui)"><rect width="60" height="60" style="fill:rgb(0,0,0)" fill-opacity="0"/><g><ellipse vector-effect="non-scaling-stroke" cx="30" cy="50.999750000000006" rx="29" ry="8" fill="rgb(31,195,86)"/><path d=" M 42.676 6.324 L 42.676 6.324 C 35.578 -0.774 24.069 -0.774 16.97 6.324 L 16.97 6.324 C 10.574 12.72 9.855 24.763 15.282 32 L 29.823 53 L 44.364 32 C 49.792 24.763 49.072 12.72 42.676 6.324 Z  M 30 25 C 26.686 25 24 22.314 24 19 C 24 15.686 26.686 13 30 13 C 33.314 13 36 15.686 36 19 C 36 22.314 33.314 25 30 25 Z " fill="rgb(253,87,87)"/></g></g></svg>