<?xml version="1.0" encoding="UTF-8" standalone="no"?><!-- Generator: Gravit.io --><svg xmlns="http://www.w3.org/2000/svg" xmlns:xlink="http://www.w3.org/1999/xlink" style="isolation:isolate" viewBox="0 0 60 60" width="60pt" height="60pt"><defs><clipPath id="_clipPath_oZTdZugSotiz0z9fRQoLAEsT3h3KDvsU"><rect width="60" height="60"/></clipPath></defs><g clip-path="url(#_clipPath_oZTdZugSotiz0z9fRQoLAEsT3h3KDvsU)"><rect width="60" height="60" style="fill:rgb(0,0,0)" fill-opacity="0"/><g><circle vector-effect="non-scaling-stroke" cx="30" cy="29.999999999999996" r="29" fill="rgb(255,153,0)"/><g><path d=" M 45 30 L 23 45 L 23 30.273 L 23 15 L 45 30 Z " fill="rgb(74,134,232)"/><path d=" M 23 46 C 22.84 46 22.679 45.962 22.533 45.884 C 22.205 45.711 22 45.371 22 45 L 22 15 C 22 14.629 22.205 14.289 22.533 14.116 C 22.861 13.942 23.257 13.966 23.564 14.174 L 45.564 29.174 C 45.836 29.36 46 29.669 46 30 C 46 30.331 45.836 30.64 45.563 30.826 L 23.563 45.826 C 23.394 45.941 23.197 46 23 46 Z  M 24 16.893 L 24 43.108 L 43.225 30 L 24 16.893 Z " fill="rgb(74,134,232)"/></g></g></g></svg>