<?xml version="1.0" encoding="UTF-8" standalone="no"?><!-- Generator: Gravit.io --><svg xmlns="http://www.w3.org/2000/svg" xmlns:xlink="http://www.w3.org/1999/xlink" style="isolation:isolate" viewBox="0 0 60 60" width="60pt" height="60pt"><defs><clipPath id="_clipPath_kA80D4oSHKzYbAfDyQPrKXSdiTT1YwVv"><rect width="60" height="60"/></clipPath></defs><g clip-path="url(#_clipPath_kA80D4oSHKzYbAfDyQPrKXSdiTT1YwVv)"><rect width="60" height="60" style="fill:rgb(0,0,0)" fill-opacity="0"/><g><circle vector-effect="non-scaling-stroke" cx="30" cy="30.000000000000007" r="29" fill="rgb(255,153,0)"/><g><path d=" M 23 30 L 45 45 L 45 30.273 L 45 15 L 23 30 Z " fill="rgb(74,134,232)"/><path d=" M 45 46 C 44.803 46 44.606 45.941 44.437 45.826 L 22.437 30.826 C 22.164 30.64 22 30.331 22 30 C 22 29.669 22.164 29.36 22.437 29.174 L 44.437 14.174 C 44.745 13.966 45.142 13.943 45.468 14.116 C 45.795 14.289 46 14.629 46 15 L 46 45 C 46 45.371 45.795 45.711 45.467 45.884 C 45.321 45.962 45.16 46 45 46 Z  M 24.775 30 L 44 43.107 L 44 16.893 L 24.775 30 Z " fill="rgb(74,134,232)"/></g><g><rect x="14" y="15" width="5" height="30" transform="matrix(1,0,0,1,0,0)" fill="rgb(74,134,232)"/><path d=" M 20 46 L 13 46 L 13 14 L 20 14 L 20 46 Z  M 15 44 L 18 44 L 18 16 L 15 16 L 15 44 Z " fill="rgb(74,134,232)"/></g></g></g></svg>