<?xml version="1.0" encoding="UTF-8" standalone="no"?><!-- Generator: Gravit.io --><svg xmlns="http://www.w3.org/2000/svg" xmlns:xlink="http://www.w3.org/1999/xlink" style="isolation:isolate" viewBox="258.546 300.61 55.568 54" width="55.568pt" height="54pt"><defs><clipPath id="_clipPath_h5iwauhwPNekCtTwP9wzqR0rSdA9nrVX"><rect x="258.546" y="300.61" width="55.568" height="54"/></clipPath></defs><g clip-path="url(#_clipPath_h5iwauhwPNekCtTwP9wzqR0rSdA9nrVX)"><g><path d=" M 303.018 300.61 L 289.84 300.61 L 265.394 324.977 L 289.128 348.762 L 313.546 324.425 L 313.546 311.114 L 303.018 300.61 Z  M 301.561 315.48 C 299.94 315.48 298.626 314.166 298.626 312.545 C 298.626 310.924 299.94 309.61 301.561 309.61 C 303.182 309.61 304.496 310.924 304.496 312.545 C 304.496 314.166 303.182 315.48 301.561 315.48 Z " fill="rgb(255,153,0)"/><path d=" M 265.423 324.964 L 259.546 330.825 L 283.28 354.61 L 289.183 348.724 L 265.423 324.964 Z " fill="rgb(74,134,232)"/><path d=" M 301.561 309.61 C 303.182 309.61 304.496 310.924 304.496 312.545 C 304.496 314.166 303.182 315.48 301.561 315.48 C 299.94 315.48 298.626 314.166 298.626 312.545 C 298.626 310.924 299.94 309.61 301.561 309.61 Z  M 301.561 305.61 C 297.737 305.61 294.626 308.721 294.626 312.545 C 294.626 316.369 297.737 319.48 301.561 319.48 C 305.385 319.48 308.496 316.369 308.496 312.545 C 308.496 308.721 305.385 305.61 301.561 305.61 L 301.561 305.61 Z " fill="rgb(74,134,232)"/><path d=" M 312.412 326.11 C 312.342 325.989 312.251 325.89 312.146 325.811 L 310.734 327.209 C 311.26 328.192 314.954 335.787 307.839 342.903 C 305.098 345.642 298.711 346.798 293.927 344.075 C 289.115 341.337 287.549 335.578 289.515 327.857 C 289.652 327.322 289.328 326.777 288.793 326.641 C 288.256 326.498 287.714 326.828 287.577 327.363 C 284.597 339.066 289.656 343.946 292.937 345.813 C 295.08 347.032 297.632 347.622 300.152 347.621 C 303.653 347.621 307.087 346.483 309.253 344.317 C 317.821 335.749 312.467 326.206 312.412 326.11 Z " fill="rgb(70,70,70)"/><path d=" M 302.31 315.372 C 303.008 315.187 303.609 314.762 304 314.177 L 301.146 311.81 C 280.797 296.548 259.182 311.642 258.965 311.797 C 258.516 312.117 258.411 312.742 258.733 313.192 C 259.055 313.642 259.679 313.746 260.128 313.424 C 260.331 313.279 280.755 299.015 299.908 313.38 L 302.31 315.372 Z " fill="rgb(70,70,70)"/></g></g></svg>