<?xml version="1.0" encoding="UTF-8" standalone="no"?><!-- Generator: Gravit.io --><svg xmlns="http://www.w3.org/2000/svg" xmlns:xlink="http://www.w3.org/1999/xlink" style="isolation:isolate" viewBox="0 0 60 60" width="60pt" height="60pt"><defs><clipPath id="_clipPath_ABB7ykSWFLdhPot5Egne3N8QFaHh5koh"><rect width="60" height="60"/></clipPath></defs><g clip-path="url(#_clipPath_ABB7ykSWFLdhPot5Egne3N8QFaHh5koh)"><rect width="60" height="60" style="fill:rgb(0,0,0)" fill-opacity="0"/><g><path d=" M 50 36 L 50 53 L 53 53 L 53 50 L 59 50 L 59 18 L 1 18 L 1 50 L 7 50 L 7 53 L 10 53 L 10 36 L 50 36 Z " fill="rgb(139,139,139)"/><path d=" M 59 36 L 59 18 L 1 18 L 1 36 L 10 36 L 50 36 L 59 36 Z " fill="rgb(70,70,70)"/><rect x="7" y="36" width="46" height="17" transform="matrix(1,0,0,1,0,0)" fill="rgb(93,93,93)"/><path d=" M 50 1 L 50 8 L 50 18 L 10 18 L 10 1 L 50 1 Z " fill="rgb(232,232,232)"/><path d=" M 50 36 L 50 59 L 10 59 L 10 36" fill="rgb(232,232,232)"/><path d=" M 42 45 L 18 45 C 17.447 45 17 44.553 17 44 C 17 43.447 17.447 43 18 43 L 42 43 C 42.553 43 43 43.447 43 44 C 43 44.553 42.553 45 42 45 Z " fill="rgb(162,162,162)"/><path d=" M 42 50 L 18 50 C 17.447 50 17 49.553 17 49 C 17 48.447 17.447 48 18 48 L 42 48 C 42.553 48 43 48.447 43 49 C 43 49.553 42.553 50 42 50 Z " fill="rgb(162,162,162)"/><circle vector-effect="non-scaling-stroke" cx="50" cy="26.999999999999996" r="4" fill="rgb(38,198,38)"/></g></g></svg>