<?xml version="1.0" encoding="UTF-8" standalone="no"?><!-- Generator: Gravit.io --><svg xmlns="http://www.w3.org/2000/svg" xmlns:xlink="http://www.w3.org/1999/xlink" style="isolation:isolate" viewBox="0 0 60 60" width="60pt" height="60pt"><defs><clipPath id="_clipPath_olbR24YYYUvXBBmFKZtb1g6FjCBHmStT"><rect width="60" height="60"/></clipPath></defs><g clip-path="url(#_clipPath_olbR24YYYUvXBBmFKZtb1g6FjCBHmStT)"><rect width="60" height="60" style="fill:rgb(0,0,0)" fill-opacity="0"/><g><line x1="38.899" y1="41.7" x2="53.176" y2="55.978" vector-effect="non-scaling-stroke" stroke-width="2" stroke="rgb(209,209,209)" stroke-linejoin="round" stroke-linecap="round" stroke-miterlimit="10"/><path d=" M 38.17 42.429 L 23.622 56.978 C 20.037 47.975 24.157 38.828 24.157 38.828 L 10.697 23.005 C 10.697 23.005 6.311 23.709 3.175 21.22 L 18.43 5.966 C 18.43 5.966 20.938 9.083 20.198 13.573 L 35.983 27.003 C 35.983 27.003 44.476 22.618 54.133 26.466 L 38.17 42.429 Z " fill="rgb(74,134,232)"/><path d=" M 24.157 38.827 C 24.157 38.827 24.121 38.911 24.071 39.032 L 36.207 26.896 C 36.074 26.958 35.982 27.003 35.982 27.003 L 20.249 13.617 L 10.773 23.093 L 24.157 38.827 Z " fill="rgb(255,153,0)"/></g></g></svg>