<?xml version="1.0" encoding="UTF-8" standalone="no"?><!-- Generator: Gravit.io --><svg xmlns="http://www.w3.org/2000/svg" xmlns:xlink="http://www.w3.org/1999/xlink" style="isolation:isolate" viewBox="0 0 60 60" width="60pt" height="60pt"><defs><clipPath id="_clipPath_ppj70M5zCC9uS9L5y3nl2s0zLILd7MBZ"><rect width="60" height="60"/></clipPath></defs><g clip-path="url(#_clipPath_ppj70M5zCC9uS9L5y3nl2s0zLILd7MBZ)"><rect width="60" height="60" style="fill:rgb(0,0,0)" fill-opacity="0"/><g><path d=" M 56.902 46.601 L 34.902 46.601 C 33.252 46.601 30.902 48.351 30.902 50.601 L 30.902 4.601 C 30.902 2.951 32.252 1.601 33.902 1.601 L 56.902 1.601 C 58.552 1.601 59.902 2.951 59.902 4.601 L 59.902 43.601 C 59.902 45.251 58.552 46.601 56.902 46.601 Z " fill="rgb(74,134,232)"/><path d=" M 4.902 46.601 L 26.902 46.601 C 28.552 46.601 30.902 48.351 30.902 50.601 L 30.902 4.601 C 30.902 2.951 29.552 1.601 27.902 1.601 L 4.902 1.601 C 3.252 1.601 1.902 2.951 1.902 4.601 L 1.902 43.601 C 1.902 45.251 3.252 46.601 4.902 46.601 Z " fill="rgb(255,153,0)"/><path d="M 5.523 7 L 27.477 7 C 27.766 7 28 7.224 28 7.5 L 28 7.5 C 28 7.776 27.766 8 27.477 8 L 5.523 8 C 5.234 8 5 7.776 5 7.5 L 5 7.5 C 5 7.224 5.234 7 5.523 7 Z" style="stroke:none;fill:#EBEBEB;stroke-miterlimit:10;"/><path d="M 5.523 20 L 27.477 20 C 27.766 20 28 20.224 28 20.5 L 28 20.5 C 28 20.776 27.766 21 27.477 21 L 5.523 21 C 5.234 21 5 20.776 5 20.5 L 5 20.5 C 5 20.224 5.234 20 5.523 20 Z" style="stroke:none;fill:#EBEBEB;stroke-miterlimit:10;"/><path d="M 5.523 34 L 27.477 34 C 27.766 34 28 34.224 28 34.5 L 28 34.5 C 28 34.776 27.766 35 27.477 35 L 5.523 35 C 5.234 35 5 34.776 5 34.5 L 5 34.5 C 5 34.224 5.234 34 5.523 34 Z" style="stroke:none;fill:#EBEBEB;stroke-miterlimit:10;"/><path d="M 5.45 11 L 21.55 11 C 21.798 11 22 11.202 22 11.45 L 22 11.55 C 22 11.798 21.798 12 21.55 12 L 5.45 12 C 5.202 12 5 11.798 5 11.55 L 5 11.45 C 5 11.202 5.202 11 5.45 11 Z" style="stroke:none;fill:#EBEBEB;stroke-miterlimit:10;"/><path d="M 5.476 15 L 23.524 15 C 23.787 15 24 15.213 24 15.476 L 24 15.524 C 24 15.787 23.787 16 23.524 16 L 5.476 16 C 5.213 16 5 15.787 5 15.524 L 5 15.476 C 5 15.213 5.213 15 5.476 15 Z" style="stroke:none;fill:#EBEBEB;stroke-miterlimit:10;"/><path d="M 5.476 29.5 L 23.524 29.5 C 23.787 29.5 24 29.713 24 29.976 L 24 30.024 C 24 30.287 23.787 30.5 23.524 30.5 L 5.476 30.5 C 5.213 30.5 5 30.287 5 30.024 L 5 29.976 C 5 29.713 5.213 29.5 5.476 29.5 Z" style="stroke:none;fill:#EBEBEB;stroke-miterlimit:10;"/><path d="M 5.476 43 L 23.524 43 C 23.787 43 24 43.213 24 43.476 L 24 43.524 C 24 43.787 23.787 44 23.524 44 L 5.476 44 C 5.213 44 5 43.787 5 43.524 L 5 43.476 C 5 43.213 5.213 43 5.476 43 Z" style="stroke:none;fill:#EBEBEB;stroke-miterlimit:10;"/><path d="M 5.45 25.101 L 21.55 25.101 C 21.798 25.101 22 25.303 22 25.551 L 22 25.651 C 22 25.9 21.798 26.101 21.55 26.101 L 5.45 26.101 C 5.202 26.101 5 25.9 5 25.651 L 5 25.551 C 5 25.303 5.202 25.101 5.45 25.101 Z" style="stroke:none;fill:#EBEBEB;stroke-miterlimit:10;"/><path d="M 5.45 39 L 21.55 39 C 21.798 39 22 39.202 22 39.45 L 22 39.55 C 22 39.798 21.798 40 21.55 40 L 5.45 40 C 5.202 40 5 39.798 5 39.55 L 5 39.45 C 5 39.202 5.202 39 5.45 39 Z" style="stroke:none;fill:#EBEBEB;stroke-miterlimit:10;"/><path d="M 34.523 7 L 56.477 7 C 56.766 7 57 7.224 57 7.5 L 57 7.5 C 57 7.776 56.766 8 56.477 8 L 34.523 8 C 34.234 8 34 7.776 34 7.5 L 34 7.5 C 34 7.224 34.234 7 34.523 7 Z" style="stroke:none;fill:#EBEBEB;stroke-miterlimit:10;"/><path d="M 34.523 20 L 56.477 20 C 56.766 20 57 20.224 57 20.5 L 57 20.5 C 57 20.776 56.766 21 56.477 21 L 34.523 21 C 34.234 21 34 20.776 34 20.5 L 34 20.5 C 34 20.224 34.234 20 34.523 20 Z" style="stroke:none;fill:#EBEBEB;stroke-miterlimit:10;"/><path d="M 34.523 34 L 56.477 34 C 56.766 34 57 34.224 57 34.5 L 57 34.5 C 57 34.776 56.766 35 56.477 35 L 34.523 35 C 34.234 35 34 34.776 34 34.5 L 34 34.5 C 34 34.224 34.234 34 34.523 34 Z" style="stroke:none;fill:#EBEBEB;stroke-miterlimit:10;"/><path d="M 34.45 11 L 50.55 11 C 50.798 11 51 11.202 51 11.45 L 51 11.55 C 51 11.798 50.798 12 50.55 12 L 34.45 12 C 34.202 12 34 11.798 34 11.55 L 34 11.45 C 34 11.202 34.202 11 34.45 11 Z" style="stroke:none;fill:#EBEBEB;stroke-miterlimit:10;"/><path d="M 34.476 15 L 52.524 15 C 52.787 15 53 15.213 53 15.476 L 53 15.524 C 53 15.787 52.787 16 52.524 16 L 34.476 16 C 34.213 16 34 15.787 34 15.524 L 34 15.476 C 34 15.213 34.213 15 34.476 15 Z" style="stroke:none;fill:#EBEBEB;stroke-miterlimit:10;"/><path d="M 34.476 29.5 L 52.524 29.5 C 52.787 29.5 53 29.713 53 29.976 L 53 30.024 C 53 30.287 52.787 30.5 52.524 30.5 L 34.476 30.5 C 34.213 30.5 34 30.287 34 30.024 L 34 29.976 C 34 29.713 34.213 29.5 34.476 29.5 Z" style="stroke:none;fill:#EBEBEB;stroke-miterlimit:10;"/><path d="M 34.476 43 L 52.524 43 C 52.787 43 53 43.213 53 43.476 L 53 43.524 C 53 43.787 52.787 44 52.524 44 L 34.476 44 C 34.213 44 34 43.787 34 43.524 L 34 43.476 C 34 43.213 34.213 43 34.476 43 Z" style="stroke:none;fill:#EBEBEB;stroke-miterlimit:10;"/><path d="M 34.45 25.101 L 50.55 25.101 C 50.798 25.101 51 25.303 51 25.551 L 51 25.651 C 51 25.9 50.798 26.101 50.55 26.101 L 34.45 26.101 C 34.202 26.101 34 25.9 34 25.651 L 34 25.551 C 34 25.303 34.202 25.101 34.45 25.101 Z" style="stroke:none;fill:#EBEBEB;stroke-miterlimit:10;"/><path d="M 34.45 39 L 50.55 39 C 50.798 39 51 39.202 51 39.45 L 51 39.55 C 51 39.798 50.798 40 50.55 40 L 34.45 40 C 34.202 40 34 39.798 34 39.55 L 34 39.45 C 34 39.202 34.202 39 34.45 39 Z" style="stroke:none;fill:#EBEBEB;stroke-miterlimit:10;"/></g></g></svg>