<?xml version="1.0" encoding="UTF-8" standalone="no"?><!-- Generator: Gravit.io --><svg xmlns="http://www.w3.org/2000/svg" xmlns:xlink="http://www.w3.org/1999/xlink" style="isolation:isolate" viewBox="0 0 60 60" width="60pt" height="60pt"><defs><clipPath id="_clipPath_0fM2Eq2ScjmrazH4yStZw4wxOfOlhk3I"><rect width="60" height="60"/></clipPath></defs><g clip-path="url(#_clipPath_0fM2Eq2ScjmrazH4yStZw4wxOfOlhk3I)"><g><g><circle vector-effect="non-scaling-stroke" cx="13" cy="29" r="12" fill="rgb(255,96,96)"/><path d=" M 13 42 C 5.832 42 0 36.168 0 29 C 0 21.832 5.832 16 13 16 C 20.168 16 26 21.832 26 29 C 26 36.168 20.168 42 13 42 Z  M 13 18 C 6.935 18 2 22.935 2 29 C 2 35.065 6.935 40 13 40 C 19.065 40 24 35.065 24 29 C 24 22.935 19.065 18 13 18 Z " fill="rgb(255,0,0)"/></g><g><circle vector-effect="non-scaling-stroke" cx="47" cy="29" r="12" fill="rgb(255,96,96)"/><path d=" M 47 42 C 39.832 42 34 36.168 34 29 C 34 21.832 39.832 16 47 16 C 54.168 16 60 21.832 60 29 C 60 36.168 54.168 42 47 42 Z  M 47 18 C 40.935 18 36 22.935 36 29 C 36 35.065 40.935 40 47 40 C 53.065 40 58 35.065 58 29 C 58 22.935 53.065 18 47 18 Z " fill="rgb(255,0,0)"/></g><path d=" M 47 42 L 13 42 C 12.447 42 12 41.552 12 41 C 12 40.448 12.447 40 13 40 L 47 40 C 47.553 40 48 40.448 48 41 C 48 41.552 47.553 42 47 42 Z " fill="rgb(255,0,0)"/></g></g></svg>