<?xml version="1.0" encoding="UTF-8" standalone="no"?><!-- Generator: Gravit.io --><svg xmlns="http://www.w3.org/2000/svg" xmlns:xlink="http://www.w3.org/1999/xlink" style="isolation:isolate" viewBox="0 0 60 60" width="60pt" height="60pt"><defs><clipPath id="_clipPath_KC9m4Jaoqyw9HlcugfZ7nklkKsZ7z0Zj"><rect width="60" height="60"/></clipPath></defs><g clip-path="url(#_clipPath_KC9m4Jaoqyw9HlcugfZ7nklkKsZ7z0Zj)"><rect width="60" height="60" style="fill:rgb(0,0,0)" fill-opacity="0"/><g><path d=" M 6 29.5 C 5.447 29.5 5 29.053 5 28.5 C 5 21.332 10.832 15.5 18 15.5 L 43 15.5 C 43.553 15.5 44 15.947 44 16.5 C 44 17.053 43.553 17.5 43 17.5 L 18 17.5 C 11.935 17.5 7 22.435 7 28.5 C 7 29.053 6.553 29.5 6 29.5 Z " fill="rgb(74,134,232)"/><path d=" M 43 24.5 L 54 16.5 L 43 8.5 L 43 24.5 Z " fill="rgb(74,134,232)"/><path d=" M 42 44.5 L 17 44.5 C 16.447 44.5 16 44.053 16 43.5 C 16 42.947 16.447 42.5 17 42.5 L 42 42.5 C 48.065 42.5 53 37.565 53 31.5 C 53 30.947 53.447 30.5 54 30.5 C 54.553 30.5 55 30.947 55 31.5 C 55 38.668 49.168 44.5 42 44.5 Z " fill="rgb(255,153,0)"/><path d=" M 17 35.5 L 6 43.5 L 17 51.5 L 17 35.5 Z " fill="rgb(255,153,0)"/></g></g></svg>