<?xml version="1.0" encoding="UTF-8" standalone="no"?><!-- Generator: Gravit.io --><svg xmlns="http://www.w3.org/2000/svg" xmlns:xlink="http://www.w3.org/1999/xlink" style="isolation:isolate" viewBox="0 0 60 60" width="60pt" height="60pt"><defs><clipPath id="_clipPath_QgZCcr1rnkPm4ModIyvThjBAsdWLyDg9"><rect width="60" height="60"/></clipPath></defs><g clip-path="url(#_clipPath_QgZCcr1rnkPm4ModIyvThjBAsdWLyDg9)"><rect width="60" height="60" style="fill:rgb(0,0,0)" fill-opacity="0"/><g><circle vector-effect="non-scaling-stroke" cx="30" cy="30" r="29" fill="rgb(255,153,0)"/><path d=" M 11 33 C 9.896 33 9 32.104 9 31 C 9 23.28 15.28 17 23 17 L 37 17 C 38.104 17 39 17.896 39 19 C 39 20.104 38.104 21 37 21 L 23 21 C 17.486 21 13 25.486 13 31 C 13 32.104 12.104 33 11 33 Z " fill="rgb(74,134,232)"/><path d=" M 27.002 29 C 26.384 29 25.774 28.715 25.383 28.177 C 24.733 27.283 24.931 26.032 25.823 25.383 L 34.6 19 L 25.824 12.617 C 24.931 11.968 24.733 10.717 25.384 9.823 C 26.032 8.931 27.283 8.732 28.178 9.383 L 41.4 19 L 28.176 28.617 C 27.821 28.876 27.409 29 27.002 29 Z " fill="rgb(74,134,232)"/><path d=" M 36 43 L 22 43 C 20.896 43 20 42.104 20 41 C 20 39.896 20.896 39 22 39 L 36 39 C 41.514 39 46 34.514 46 29 C 46 27.896 46.896 27 48 27 C 49.104 27 50 27.896 50 29 C 50 36.72 43.72 43 36 43 Z " fill="rgb(74,134,232)"/><path d=" M 31.998 51 C 31.591 51 31.179 50.876 30.823 50.617 L 17.6 41 L 30.824 31.383 C 31.719 30.731 32.968 30.931 33.618 31.823 C 34.268 32.717 34.07 33.968 33.178 34.617 L 24.4 41 L 33.176 47.383 C 34.069 48.032 34.267 49.283 33.616 50.177 C 33.227 50.715 32.616 51 31.998 51 Z " fill="rgb(74,134,232)"/></g></g></svg>