<?xml version="1.0" encoding="UTF-8" standalone="no"?><!-- Generator: Gravit.io --><svg xmlns="http://www.w3.org/2000/svg" xmlns:xlink="http://www.w3.org/1999/xlink" style="isolation:isolate" viewBox="2 7 45 58" width="45pt" height="58pt"><defs><clipPath id="_clipPath_3WNYxlZjZUYSTrPZ4p0VweCJ6PupNmcK"><rect x="2" y="7" width="45" height="58"/></clipPath></defs><g clip-path="url(#_clipPath_3WNYxlZjZUYSTrPZ4p0VweCJ6PupNmcK)"><rect x="2" y="7" width="45" height="58" style="fill:rgb(0,0,0)" fill-opacity="0"/><g><path d=" M 47 21 L 33 7 L 2 7 L 2 65 L 47 65 L 47 21 Z " fill="rgb(232,232,232)"/><path d=" M 33 7 L 33 21 L 47 21 L 33 7 Z " fill="rgb(185,185,185)"/><g><path d=" M 29 41 L 12 41 C 11.448 41 11 41.447 11 42 C 11 42.553 11.448 43 12 43 L 29 43 C 29.552 43 30 42.553 30 42 C 30 41.447 29.552 41 29 41 Z " fill="rgb(70,70,70)"/><path d=" M 40 37 C 40 36.447 39.552 36 39 36 L 32 36 C 31.448 36 31 36.447 31 37 C 31 37.553 31.448 38 32 38 L 39 38 C 39.552 38 40 37.553 40 37 Z " fill="rgb(70,70,70)"/><path d=" M 17 38 L 27 38 C 27.552 38 28 37.553 28 37 C 28 36.447 27.552 36 27 36 L 17 36 C 16.448 36 16 36.447 16 37 C 16 37.553 16.448 38 17 38 Z " fill="rgb(70,70,70)"/><path d=" M 12 38 C 12.27 38 12.52 37.89 12.71 37.71 C 12.89 37.52 13 37.26 13 37 C 13 36.739 12.89 36.479 12.71 36.29 C 12.34 35.92 11.65 35.93 11.29 36.29 C 11.11 36.479 11 36.739 11 37 C 11 37.26 11.11 37.52 11.29 37.7 C 11.47 37.89 11.73 38 12 38 Z " fill="rgb(70,70,70)"/><path d=" M 33.29 41.29 C 33.11 41.479 33 41.729 33 42 C 33 42.27 33.1 42.52 33.29 42.71 C 33.48 42.89 33.74 43 34 43 C 34.26 43 34.52 42.89 34.71 42.71 C 34.9 42.52 35 42.27 35 42 C 35 41.739 34.89 41.479 34.71 41.29 C 34.33 40.92 33.67 40.92 33.29 41.29 Z " fill="rgb(70,70,70)"/><path d=" M 38.29 41.29 C 38.11 41.479 38 41.729 38 42 C 38 42.27 38.1 42.52 38.29 42.71 C 38.48 42.89 38.74 43 39 43 C 39.26 43 39.52 42.89 39.71 42.7 C 39.9 42.51 40 42.26 40 42 C 40 41.739 39.89 41.479 39.71 41.29 C 39.33 40.92 38.67 40.92 38.29 41.29 Z " fill="rgb(70,70,70)"/></g><g><path d=" M 17.525 46.166 C 15.334 47.307 14.597 49.487 14.329 51.748 C 13.915 51.401 13.501 51.055 13.088 50.708 C 12.107 49.886 10.684 51.293 11.674 52.123 C 12.609 52.906 13.545 53.69 14.48 54.474 C 15.142 55.029 16.156 54.685 16.187 53.767 C 16.26 51.6 16.364 49.024 18.535 47.894 C 19.679 47.298 18.667 45.572 17.525 46.166 Z " fill="rgb(74,134,232)"/><path d=" M 32.863 51.25 C 32.44 50.67 32.004 50.187 31.231 50.129 C 29.774 50.019 27.273 52.104 26.239 50.261 C 25.977 49.793 25.329 49.621 24.871 49.902 C 23.455 50.771 21.604 52.021 20.115 50.402 C 19.24 49.451 17.829 50.869 18.701 51.816 C 20.572 53.85 22.985 53.227 25.108 52.075 C 25.556 52.556 26.092 52.885 26.805 53.142 C 27.714 53.47 30.892 51.922 31.138 52.259 C 31.889 53.289 33.626 52.293 32.863 51.25 Z " fill="rgb(74,134,232)"/></g><path d=" M 21.593 28.092 L 19.082 26.809 C 18.911 26.721 18.803 26.545 18.803 26.352 L 18.803 25.583 C 20.092 25.028 20.833 23.949 21.193 22.6 C 21.736 22.432 22.136 21.929 22.136 21.332 L 22.136 20.665 C 22.136 20.154 21.842 19.714 21.418 19.49 C 21.124 16.983 19.467 15.969 16.803 15.969 C 16.677 15.969 16.553 15.974 16.432 15.984 C 15.527 16.056 14.611 15.885 13.858 15.378 C 13.545 15.167 13.281 14.943 13.096 14.708 C 13.012 14.601 12.842 14.669 12.858 14.805 C 12.885 15.038 12.924 15.31 12.983 15.608 C 13.203 16.715 13.072 16.553 12.644 17.597 C 12.407 18.175 12.255 18.815 12.184 19.494 C 11.762 19.719 11.47 20.158 11.47 20.666 L 11.47 21.333 C 11.47 21.93 11.87 22.433 12.413 22.601 C 12.773 23.95 13.514 25.029 14.803 25.584 L 14.803 26.348 C 14.803 26.543 14.692 26.722 14.517 26.808 L 11.943 28.076 C 11.507 28.314 11.191 28.695 11.001 29.135 C 12.637 30.304 14.637 31 16.802 31 C 18.959 31 20.952 30.31 22.586 29.148 C 22.382 28.702 22.048 28.32 21.593 28.092 Z " fill="rgb(255,153,0)"/></g></g></svg>