<?xml version="1.0" encoding="UTF-8" standalone="no"?><!-- Generator: Gravit.io --><svg xmlns="http://www.w3.org/2000/svg" xmlns:xlink="http://www.w3.org/1999/xlink" style="isolation:isolate" viewBox="0 0 60 60" width="60pt" height="60pt"><defs><clipPath id="_clipPath_JBMNycXAdiuSRz0T2Y2iMnSGFn8kV2U5"><rect width="60" height="60"/></clipPath></defs><g clip-path="url(#_clipPath_JBMNycXAdiuSRz0T2Y2iMnSGFn8kV2U5)"><rect width="60" height="60" style="fill:rgb(0,0,0)" fill-opacity="0"/><g><circle vector-effect="non-scaling-stroke" cx="30" cy="30" r="29" fill="rgb(255,153,0)"/><g><path d=" M 5 30 L 27 45 L 27 30.273 L 27 15 L 5 30 Z " fill="rgb(74,134,232)"/><path d=" M 27 46 C 26.803 46 26.605 45.941 26.437 45.826 L 4.437 30.826 C 4.163 30.64 4 30.331 4 30 C 4 29.669 4.163 29.36 4.437 29.174 L 26.437 14.174 C 26.745 13.966 27.141 13.943 27.467 14.116 C 27.795 14.289 28 14.629 28 15 L 28 45 C 28 45.371 27.795 45.711 27.467 45.884 C 27.32 45.962 27.16 46 27 46 Z  M 6.775 30 L 26 43.107 L 26 16.893 L 6.775 30 Z " fill="rgb(74,134,232)"/></g><g><path d=" M 27 30 L 49 45 L 49 30.273 L 49 15 L 27 30 Z " fill="rgb(74,134,232)"/><path d=" M 49 46 C 48.803 46 48.605 45.941 48.437 45.826 L 26.437 30.826 C 26.163 30.64 26 30.331 26 30 C 26 29.669 26.163 29.36 26.437 29.174 L 48.437 14.174 C 48.744 13.966 49.141 13.943 49.467 14.116 C 49.795 14.289 50 14.629 50 15 L 50 45 C 50 45.371 49.795 45.711 49.467 45.884 C 49.32 45.962 49.16 46 49 46 Z  M 28.775 30 L 48 43.107 L 48 16.893 L 28.775 30 Z " fill="rgb(74,134,232)"/></g></g></g></svg>