<?xml version="1.0" encoding="UTF-8" standalone="no"?><!-- Generator: Gravit.io --><svg xmlns="http://www.w3.org/2000/svg" xmlns:xlink="http://www.w3.org/1999/xlink" style="isolation:isolate" viewBox="254.525 346.363 58 59" width="58pt" height="59pt"><defs><clipPath id="_clipPath_qfF0fUd5lvme4HgUZgoaOfz3lrVnUEi8"><rect x="254.525" y="346.363" width="58" height="59"/></clipPath></defs><g clip-path="url(#_clipPath_qfF0fUd5lvme4HgUZgoaOfz3lrVnUEi8)"><g><path d=" M 299.095 405.363 C 298.542 405.363 298.095 404.916 298.095 404.363 C 298.095 403.81 298.542 403.363 299.095 403.363 L 301.025 403.363 C 301.578 403.363 302.06 403.81 302.06 404.362 C 302.06 404.915 301.648 405.362 301.095 405.362 L 301.095 404.362 L 301.066 405.362 L 299.095 405.363 Z  M 295.095 405.363 L 293.095 405.363 C 292.542 405.363 292.095 404.916 292.095 404.363 C 292.095 403.81 292.542 403.363 293.095 403.363 L 295.095 403.363 C 295.648 403.363 296.095 403.81 296.095 404.363 C 296.095 404.916 295.648 405.363 295.095 405.363 Z  M 289.095 405.363 L 287.095 405.363 C 286.542 405.363 286.095 404.916 286.095 404.363 C 286.095 403.81 286.542 403.363 287.095 403.363 L 289.095 403.363 C 289.648 403.363 290.095 403.81 290.095 404.363 C 290.095 404.916 289.648 405.363 289.095 405.363 Z  M 283.095 405.363 L 281.095 405.363 C 280.542 405.363 280.095 404.916 280.095 404.363 C 280.095 403.81 280.542 403.363 281.095 403.363 L 283.095 403.363 C 283.648 403.363 284.095 403.81 284.095 404.363 C 284.095 404.916 283.648 405.363 283.095 405.363 Z  M 277.095 405.363 L 275.095 405.363 C 274.542 405.363 274.095 404.916 274.095 404.363 C 274.095 403.81 274.542 403.363 275.095 403.363 L 277.095 403.363 C 277.648 403.363 278.095 403.81 278.095 404.363 C 278.095 404.916 277.648 405.363 277.095 405.363 Z  M 271.095 405.363 L 269.095 405.363 C 268.542 405.363 268.095 404.916 268.095 404.363 C 268.095 403.81 268.542 403.363 269.095 403.363 L 271.095 403.363 C 271.648 403.363 272.095 403.81 272.095 404.363 C 272.095 404.916 271.648 405.363 271.095 405.363 Z  M 304.562 403.645 C 304.346 403.645 304.128 403.575 303.945 403.431 C 303.51 403.089 303.436 402.46 303.777 402.027 C 304.102 401.614 304.325 401.145 304.44 400.635 C 304.561 400.096 305.096 399.758 305.635 399.879 C 306.174 400 306.512 400.535 306.391 401.074 C 306.213 401.866 305.853 402.623 305.349 403.262 C 305.152 403.514 304.859 403.645 304.562 403.645 Z  M 304.563 398.082 C 304.266 398.082 303.973 397.951 303.776 397.7 C 303.456 397.293 303.042 396.956 302.579 396.726 C 302.085 396.48 301.883 395.88 302.129 395.385 C 302.375 394.891 302.973 394.688 303.47 394.935 C 304.197 395.296 304.846 395.825 305.349 396.463 C 305.69 396.897 305.616 397.526 305.181 397.867 C 304.998 398.011 304.779 398.082 304.563 398.082 Z  M 299.096 396.363 L 297.096 396.363 C 296.543 396.363 296.096 395.916 296.096 395.363 C 296.096 394.81 296.543 394.363 297.096 394.363 L 299.096 394.363 C 299.649 394.363 300.096 394.81 300.096 395.363 C 300.096 395.916 299.649 396.363 299.096 396.363 Z  M 293.096 396.363 L 291.096 396.363 C 290.543 396.363 290.096 395.916 290.096 395.363 C 290.096 394.81 290.543 394.363 291.096 394.363 L 293.096 394.363 C 293.649 394.363 294.096 394.81 294.096 395.363 C 294.096 395.916 293.649 396.363 293.096 396.363 Z  M 287.154 395.957 C 287.015 395.957 286.874 395.928 286.739 395.866 C 286.003 395.53 285.337 395.022 284.812 394.399 C 284.457 393.976 284.511 393.345 284.934 392.99 C 285.357 392.635 285.987 392.689 286.343 393.112 C 286.677 393.509 287.102 393.833 287.571 394.048 C 288.073 394.277 288.294 394.87 288.064 395.373 C 287.896 395.74 287.534 395.957 287.154 395.957 Z  M 284.605 391.013 C 284.542 391.013 284.479 391.007 284.416 390.995 C 283.873 390.891 283.519 390.366 283.622 389.824 C 283.777 389.015 284.105 388.268 284.595 387.602 C 284.923 387.157 285.548 387.063 285.993 387.389 C 286.438 387.717 286.533 388.343 286.206 388.787 C 285.893 389.211 285.685 389.686 285.587 390.2 C 285.494 390.68 285.075 391.013 284.605 391.013 Z  M 288.809 387.368 C 288.276 387.368 287.832 386.947 287.811 386.409 C 287.789 385.857 288.217 385.391 288.769 385.369 C 288.854 385.365 288.939 385.363 289.025 385.363 L 290.81 385.363 C 291.363 385.363 291.81 385.81 291.81 386.363 C 291.81 386.916 291.363 387.363 290.81 387.363 L 288.851 387.367 C 288.837 387.368 288.823 387.368 288.809 387.368 Z  M 307.025 387.363 L 306.81 387.363 C 306.257 387.363 305.81 386.916 305.81 386.363 C 305.81 385.81 306.257 385.363 306.81 385.363 L 307.025 385.363 C 307.494 385.363 307.948 385.272 308.377 385.092 C 308.882 384.877 309.472 385.117 309.686 385.627 C 309.9 386.136 309.661 386.722 309.151 386.936 C 308.476 387.219 307.761 387.363 307.025 387.363 Z  M 302.81 387.363 L 300.81 387.363 C 300.257 387.363 299.81 386.916 299.81 386.363 C 299.81 385.81 300.257 385.363 300.81 385.363 L 302.81 385.363 C 303.363 385.363 303.81 385.81 303.81 386.363 C 303.81 386.916 303.363 387.363 302.81 387.363 Z  M 296.81 387.363 L 294.81 387.363 C 294.257 387.363 293.81 386.916 293.81 386.363 C 293.81 385.81 294.257 385.363 294.81 385.363 L 296.81 385.363 C 297.363 385.363 297.81 385.81 297.81 386.363 C 297.81 386.916 297.363 387.363 296.81 387.363 Z  M 311.343 384.133 C 311.25 384.133 311.155 384.12 311.062 384.093 C 310.532 383.938 310.228 383.382 310.383 382.852 C 310.477 382.532 310.525 382.2 310.525 381.864 C 310.527 381.672 310.511 381.49 310.483 381.312 C 310.395 380.767 310.766 380.253 311.312 380.166 C 311.855 380.076 312.37 380.449 312.458 380.995 C 312.505 381.288 312.527 381.583 312.525 381.871 C 312.525 382.39 312.451 382.911 312.303 383.414 C 312.175 383.85 311.776 384.133 311.343 384.133 Z  M 309.275 378.967 C 309.105 378.967 308.932 378.924 308.774 378.832 C 308.321 378.569 307.827 378.415 307.304 378.374 C 306.753 378.331 306.342 377.85 306.385 377.299 C 306.428 376.747 306.911 376.34 307.46 376.38 C 308.283 376.444 309.064 376.688 309.777 377.102 C 310.255 377.379 310.418 377.992 310.14 378.469 C 309.956 378.788 309.62 378.967 309.275 378.967 Z  M 303.382 378.363 L 301.382 378.363 C 300.829 378.363 300.382 377.916 300.382 377.363 C 300.382 376.81 300.829 376.363 301.382 376.363 L 303.382 376.363 C 303.935 376.363 304.382 376.81 304.382 377.363 C 304.382 377.916 303.935 378.363 303.382 378.363 Z  M 297.382 378.363 L 295.382 378.363 C 294.829 378.363 294.382 377.916 294.382 377.363 C 294.382 376.81 294.829 376.363 295.382 376.363 L 297.382 376.363 C 297.935 376.363 298.382 376.81 298.382 377.363 C 298.382 377.916 297.935 378.363 297.382 378.363 Z  M 291.382 378.363 L 289.382 378.363 C 288.829 378.363 288.382 377.916 288.382 377.363 C 288.382 376.81 288.829 376.363 289.382 376.363 L 291.382 376.363 C 291.935 376.363 292.382 376.81 292.382 377.363 C 292.382 377.916 291.935 378.363 291.382 378.363 Z  M 285.382 378.363 L 285.025 378.363 C 284.347 378.362 283.688 378.24 283.062 378.002 C 282.546 377.805 282.288 377.227 282.484 376.711 C 282.682 376.194 283.263 375.938 283.775 376.133 C 284.173 376.285 284.594 376.362 285.027 376.363 L 285.382 376.363 C 285.935 376.363 286.382 376.81 286.382 377.363 C 286.382 377.916 285.935 378.363 285.382 378.363 Z  M 280.749 375.268 C 280.329 375.268 279.937 375.001 279.799 374.58 C 279.617 374.028 279.526 373.45 279.526 372.862 C 279.527 372.624 279.542 372.393 279.57 372.168 C 279.638 371.622 280.122 371.237 280.687 371.301 C 281.235 371.369 281.624 371.87 281.554 372.418 C 281.535 372.565 281.527 372.716 281.526 372.867 C 281.526 373.237 281.585 373.604 281.7 373.955 C 281.872 374.479 281.587 375.045 281.062 375.218 C 280.958 375.253 280.852 375.268 280.749 375.268 Z  M 282.653 370.039 C 282.319 370.039 281.993 369.872 281.803 369.568 C 281.511 369.099 281.654 368.482 282.122 368.19 C 282.822 367.753 283.594 367.487 284.416 367.396 C 284.969 367.339 285.459 367.732 285.52 368.281 C 285.581 368.83 285.184 369.324 284.635 369.385 C 284.114 369.443 283.624 369.612 283.181 369.888 C 283.016 369.99 282.834 370.039 282.653 370.039 Z  M 296.525 369.363 L 294.525 369.363 C 293.972 369.363 293.525 368.916 293.525 368.363 C 293.525 367.81 293.972 367.363 294.525 367.363 L 296.525 367.363 C 297.078 367.363 297.525 367.81 297.525 368.363 C 297.525 368.916 297.078 369.363 296.525 369.363 Z  M 290.525 369.363 L 288.525 369.363 C 287.972 369.363 287.525 368.916 287.525 368.363 C 287.525 367.81 287.972 367.363 288.525 367.363 L 290.525 367.363 C 291.078 367.363 291.525 367.81 291.525 368.363 C 291.525 368.916 291.078 369.363 290.525 369.363 Z " fill="rgb(70,70,70)"/><path d=" M 307.495 349.032 L 307.495 349.032 C 304.338 345.473 299.219 345.473 296.062 349.032 L 296.062 349.032 C 292.905 352.591 292.905 358.36 296.062 361.919 L 301.778 368.363 L 307.494 361.919 C 310.652 358.361 310.652 352.591 307.495 349.032 Z  M 302.025 359.363 C 299.54 359.363 297.525 357.348 297.525 354.863 C 297.525 352.378 299.54 350.363 302.025 350.363 C 304.51 350.363 306.525 352.378 306.525 354.863 C 306.525 357.348 304.51 359.363 302.025 359.363 Z " fill="rgb(74,134,232)"/><path d=" M 273.303 375.003 C 269.007 370.15 262.042 370.15 257.747 375.003 L 257.747 375.003 C 253.451 379.856 253.451 387.724 257.747 392.576 L 265.525 401.363 L 273.303 392.576 C 277.599 387.723 277.599 379.855 273.303 375.003 Z  M 265.525 387.363 C 262.764 387.363 260.525 385.124 260.525 382.363 C 260.525 379.602 262.764 377.363 265.525 377.363 C 268.286 377.363 270.525 379.602 270.525 382.363 C 270.525 385.124 268.286 387.363 265.525 387.363 Z " fill="rgb(255,153,0)"/></g></g></svg>