<?xml version="1.0" encoding="UTF-8" standalone="no"?><!-- Generator: Gravit.io --><svg xmlns="http://www.w3.org/2000/svg" xmlns:xlink="http://www.w3.org/1999/xlink" style="isolation:isolate" viewBox="0 0 60 60" width="60pt" height="60pt"><defs><clipPath id="_clipPath_iSvoLWheWUIy6mp4rgwQH0r7jcDH4MEb"><rect width="60" height="60"/></clipPath></defs><g clip-path="url(#_clipPath_iSvoLWheWUIy6mp4rgwQH0r7jcDH4MEb)"><rect width="60" height="60" style="fill:rgb(0,0,0)" fill-opacity="0"/><g><path d=" M 53 14.5 L 53 53.5 L 7 53.5 L 7 6.5 L 45 6.5 L 53 14.5 Z " fill="rgb(70,70,70)"/><rect x="14" y="32.5" width="31" height="21" transform="matrix(1,0,0,1,0,0)" fill="rgb(231,236,237)"/><rect x="14" y="32.5" width="31" height="12.037" transform="matrix(1,0,0,1,0,0)" fill="rgb(255,153,0)"/><rect x="16" y="6.5" width="26" height="16" transform="matrix(1,0,0,1,0,0)" fill="rgb(185,185,185)"/><g><path d=" M 19 37.5 L 26 37.5 C 26.553 37.5 27 37.053 27 36.5 C 27 35.947 26.553 35.5 26 35.5 L 19 35.5 C 18.447 35.5 18 35.947 18 36.5 C 18 37.053 18.447 37.5 19 37.5 Z " fill="rgb(255,255,255)"/><path d=" M 29 39.5 L 19 39.5 C 18.447 39.5 18 39.947 18 40.5 C 18 41.053 18.447 41.5 19 41.5 L 29 41.5 C 29.553 41.5 30 41.053 30 40.5 C 30 39.947 29.553 39.5 29 39.5 Z " fill="rgb(255,255,255)"/><path d=" M 32.71 39.79 C 32.34 39.42 31.67 39.42 31.3 39.79 C 31.11 39.979 31 40.229 31 40.5 C 31 40.77 31.109 41.02 31.29 41.21 C 31.479 41.39 31.729 41.5 32 41.5 C 32.27 41.5 32.52 41.39 32.71 41.21 C 32.89 41.02 33 40.76 33 40.5 C 33 40.24 32.89 39.979 32.71 39.79 Z " fill="rgb(255,255,255)"/></g><rect x="34" y="10.5" width="4" height="8" transform="matrix(1,0,0,1,0,0)" fill="none" vector-effect="non-scaling-stroke" stroke-width="2" stroke="rgb(70,70,70)" stroke-linejoin="miter" stroke-linecap="round" stroke-miterlimit="2"/><path d=" M 31 22.5 L 16 22.5 L 16 6.5 L 23 6.5 L 31 22.5 Z " fill="rgb(231,236,237)"/></g></g></svg>