<?xml version="1.0" encoding="UTF-8" standalone="no"?><!-- Generator: Gravit.io --><svg xmlns="http://www.w3.org/2000/svg" xmlns:xlink="http://www.w3.org/1999/xlink" style="isolation:isolate" viewBox="247.622 311.085 51.25 53.216" width="51.25pt" height="53.216pt"><defs><clipPath id="_clipPath_yi7Kdta6HVTROKHg1RCzBlAgnf4I9SS4"><rect x="247.622" y="311.085" width="51.25" height="53.216"/></clipPath></defs><g clip-path="url(#_clipPath_yi7Kdta6HVTROKHg1RCzBlAgnf4I9SS4)"><g><circle vector-effect="non-scaling-stroke" cx="268.8718219221055" cy="332.3349827627518" r="20" fill="rgb(74,134,232)"/><line x1="282.326" y1="347.133" x2="297.872" y2="363.301" vector-effect="non-scaling-stroke" stroke-width="2" stroke="rgb(255,153,0)" stroke-linejoin="miter" stroke-linecap="round" stroke-miterlimit="10"/><path d=" M 249.891 338.588 C 250.739 341.17 252.131 343.606 254.058 345.734 L 282.271 317.521 C 280.142 315.593 277.707 314.202 275.125 313.354 L 249.891 338.588 Z " fill="rgb(106,154,232)"/><path d=" M 268.872 353.335 C 257.292 353.335 247.872 343.915 247.872 332.335 C 247.872 320.755 257.292 311.335 268.872 311.335 C 280.452 311.335 289.872 320.755 289.872 332.335 C 289.872 343.915 280.451 353.335 268.872 353.335 Z  M 268.872 313.335 C 258.395 313.335 249.872 321.858 249.872 332.335 C 249.872 342.812 258.395 351.335 268.872 351.335 C 279.349 351.335 287.872 342.812 287.872 332.335 C 287.872 321.858 279.348 313.335 268.872 313.335 Z " fill="rgb(255,153,0)" vector-effect="non-scaling-stroke" stroke-width="0.5" stroke="rgb(255,153,0)" stroke-linejoin="miter" stroke-linecap="butt" stroke-miterlimit="4"/></g></g></svg>