<?xml version="1.0" encoding="UTF-8" standalone="no"?><!-- Generator: Gravit.io --><svg xmlns="http://www.w3.org/2000/svg" xmlns:xlink="http://www.w3.org/1999/xlink" style="isolation:isolate" viewBox="0 0 60 60" width="60pt" height="60pt"><defs><clipPath id="_clipPath_pAyWeHq8HgJMZwOoct2OfGDM26fQ6dUB"><rect width="60" height="60"/></clipPath></defs><g clip-path="url(#_clipPath_pAyWeHq8HgJMZwOoct2OfGDM26fQ6dUB)"><rect width="60" height="60" style="fill:rgb(0,0,0)" fill-opacity="0"/><g><path d=" M 55.392 20.5 L 4.608 20.5 C 2.616 20.5 1 18.884 1 16.892 L 1 5.108 C 1 3.116 2.616 1.5 4.608 1.5 L 55.391 1.5 C 57.384 1.5 59 3.116 59 5.108 L 59 16.891 C 59 18.884 57.384 20.5 55.392 20.5 Z " fill="rgb(255,153,0)"/><path d=" M 55.392 39.5 L 4.608 39.5 C 2.616 39.5 1 37.884 1 35.892 L 1 24.108 C 1 22.116 2.616 20.5 4.608 20.5 L 55.391 20.5 C 57.384 20.5 58.999 22.116 58.999 24.108 L 58.999 35.891 C 59 37.884 57.384 39.5 55.392 39.5 Z " fill="rgb(74,134,232)"/><path d=" M 55.392 58.5 L 4.608 58.5 C 2.616 58.5 1 56.884 1 54.892 L 1 43.108 C 1 41.116 2.616 39.5 4.608 39.5 L 55.391 39.5 C 57.384 39.5 58.999 41.116 58.999 43.108 L 58.999 54.891 C 59 56.884 57.384 58.5 55.392 58.5 Z " fill="rgb(255,153,0)"/><circle vector-effect="non-scaling-stroke" cx="10.5" cy="11" r="3.5" fill="rgb(74,134,232)"/><circle vector-effect="non-scaling-stroke" cx="50" cy="9.5" r="1" fill="rgb(74,134,232)"/><circle vector-effect="non-scaling-stroke" cx="46" cy="9.5" r="1" fill="rgb(74,134,232)"/><circle vector-effect="non-scaling-stroke" cx="52" cy="12.5" r="1" fill="rgb(74,134,232)"/><circle vector-effect="non-scaling-stroke" cx="48" cy="12.5" r="1" fill="rgb(74,134,232)"/><circle vector-effect="non-scaling-stroke" cx="42" cy="9.5" r="1" fill="rgb(74,134,232)"/><circle vector-effect="non-scaling-stroke" cx="44" cy="12.5" r="1" fill="rgb(74,134,232)"/><circle vector-effect="non-scaling-stroke" cx="38" cy="9.5" r="1" fill="rgb(74,134,232)"/><circle vector-effect="non-scaling-stroke" cx="40" cy="12.5" r="1" fill="rgb(74,134,232)"/><circle vector-effect="non-scaling-stroke" cx="34" cy="9.5" r="1" fill="rgb(74,134,232)"/><circle vector-effect="non-scaling-stroke" cx="36" cy="12.5" r="1" fill="rgb(74,134,232)"/><circle vector-effect="non-scaling-stroke" cx="10.5" cy="30" r="3.5" fill="rgb(255,153,0)"/><circle vector-effect="non-scaling-stroke" cx="50" cy="28.500000000000004" r="1" fill="rgb(255,153,0)"/><circle vector-effect="non-scaling-stroke" cx="46" cy="28.500000000000004" r="1" fill="rgb(255,153,0)"/><circle vector-effect="non-scaling-stroke" cx="52" cy="31.5" r="1" fill="rgb(255,153,0)"/><circle vector-effect="non-scaling-stroke" cx="48" cy="31.5" r="1" fill="rgb(255,153,0)"/><circle vector-effect="non-scaling-stroke" cx="42" cy="28.500000000000004" r="1" fill="rgb(255,153,0)"/><circle vector-effect="non-scaling-stroke" cx="44" cy="31.5" r="1" fill="rgb(255,153,0)"/><circle vector-effect="non-scaling-stroke" cx="38" cy="28.500000000000004" r="1" fill="rgb(255,153,0)"/><circle vector-effect="non-scaling-stroke" cx="40" cy="31.5" r="1" fill="rgb(255,153,0)"/><circle vector-effect="non-scaling-stroke" cx="34" cy="28.500000000000004" r="1" fill="rgb(255,153,0)"/><circle vector-effect="non-scaling-stroke" cx="36" cy="31.5" r="1" fill="rgb(255,153,0)"/><circle vector-effect="non-scaling-stroke" cx="10.5" cy="49.00000000000001" r="3.5" fill="rgb(74,134,232)"/><circle vector-effect="non-scaling-stroke" cx="50" cy="47.5" r="1" fill="rgb(74,134,232)"/><circle vector-effect="non-scaling-stroke" cx="46" cy="47.5" r="1" fill="rgb(74,134,232)"/><circle vector-effect="non-scaling-stroke" cx="52" cy="50.5" r="1" fill="rgb(74,134,232)"/><circle vector-effect="non-scaling-stroke" cx="48" cy="50.5" r="1" fill="rgb(74,134,232)"/><circle vector-effect="non-scaling-stroke" cx="42" cy="47.5" r="1" fill="rgb(74,134,232)"/><circle vector-effect="non-scaling-stroke" cx="44" cy="50.5" r="1" fill="rgb(74,134,232)"/><circle vector-effect="non-scaling-stroke" cx="38" cy="47.5" r="1" fill="rgb(74,134,232)"/><circle vector-effect="non-scaling-stroke" cx="40" cy="50.5" r="1" fill="rgb(74,134,232)"/><circle vector-effect="non-scaling-stroke" cx="34" cy="47.5" r="1" fill="rgb(74,134,232)"/><circle vector-effect="non-scaling-stroke" cx="36" cy="50.5" r="1" fill="rgb(74,134,232)"/></g></g></svg>