<?xml version="1.0" encoding="UTF-8" standalone="no"?><!-- Generator: Gravit.io --><svg xmlns="http://www.w3.org/2000/svg" xmlns:xlink="http://www.w3.org/1999/xlink" style="isolation:isolate" viewBox="0 0 60 60" width="60pt" height="60pt"><defs><clipPath id="_clipPath_s5hhufzrU25x4UuCoXMXuTJd0UA8wmOf"><rect width="60" height="60"/></clipPath></defs><g clip-path="url(#_clipPath_s5hhufzrU25x4UuCoXMXuTJd0UA8wmOf)"><rect width="60" height="60" style="fill:rgb(0,0,0)" fill-opacity="0"/><g><path d=" M 59 31 C 59.553 31 60 30.553 60 30 C 60 29.447 59.553 29 59 29 L 55.96 29 C 55.897 27.373 55.693 25.782 55.342 24.245 L 58.27 23.46 C 58.803 23.317 59.12 22.769 58.977 22.235 C 58.835 21.702 58.287 21.387 57.752 21.528 L 54.822 22.313 C 54.788 22.204 54.764 22.091 54.728 21.982 C 54.726 21.976 54.728 21.971 54.726 21.965 C 54.724 21.959 54.719 21.955 54.716 21.948 C 54.255 20.535 53.666 19.181 52.98 17.885 L 55.612 16.365 C 56.091 16.089 56.255 15.477 55.978 14.999 C 55.701 14.52 55.087 14.355 54.612 14.633 L 51.978 16.154 C 51.121 14.798 50.137 13.532 49.051 12.36 L 51.21 10.201 C 51.601 9.81 51.601 9.178 51.21 8.787 C 50.819 8.396 50.187 8.396 49.796 8.787 L 47.637 10.946 C 46.465 9.86 45.204 8.87 43.847 8.011 L 45.363 5.385 C 45.643 4.907 45.479 4.296 45 4.02 C 44.522 3.744 43.91 3.906 43.634 4.386 L 42.119 7.009 C 40.714 6.265 39.229 5.657 37.686 5.178 L 38.471 2.248 C 38.614 1.715 38.297 1.166 37.764 1.023 C 37.233 0.882 36.682 1.197 36.539 1.73 L 35.754 4.659 C 34.217 4.309 32.628 4.103 31 4.041 L 31 1 C 31 0.447 30.553 0 30 0 C 29.447 0 29 0.447 29 1 L 29 4.041 C 27.372 4.103 25.783 4.309 24.245 4.659 L 23.46 1.729 C 23.317 1.195 22.77 0.88 22.235 1.022 C 21.702 1.165 21.385 1.713 21.528 2.247 L 22.313 5.177 C 20.771 5.656 19.286 6.264 17.88 7.008 L 16.365 4.385 C 16.089 3.905 15.476 3.743 15 4.02 C 14.521 4.296 14.357 4.908 14.634 5.386 L 16.15 8.012 C 14.794 8.87 13.532 9.86 12.36 10.946 L 10.201 8.787 C 9.81 8.396 9.178 8.396 8.787 8.787 C 8.396 9.178 8.396 9.81 8.787 10.201 L 10.946 12.36 C 9.861 13.532 8.876 14.798 8.019 16.154 L 5.385 14.633 C 4.908 14.356 4.296 14.521 4.02 15 C 3.744 15.479 3.908 16.09 4.386 16.366 L 7.018 17.886 C 6.332 19.182 5.744 20.536 5.282 21.949 C 5.28 21.955 5.275 21.959 5.272 21.966 C 5.27 21.972 5.272 21.977 5.27 21.983 C 5.235 22.091 5.21 22.204 5.176 22.314 L 2.246 21.529 C 1.715 21.389 1.164 21.703 1.021 22.236 C 0.878 22.769 1.195 23.318 1.728 23.461 L 4.656 24.246 C 4.307 25.782 4.103 27.373 4.04 29 L 1 29 C 0.447 29 0 29.447 0 30 C 0 30.553 0.447 31 1 31 L 4.031 31 C 4.093 32.628 4.304 34.218 4.654 35.757 L 1.729 36.54 C 1.196 36.683 0.879 37.231 1.022 37.765 C 1.141 38.212 1.545 38.506 1.987 38.506 C 2.073 38.506 2.16 38.495 2.247 38.472 L 5.163 37.691 C 5.642 39.234 6.265 40.714 7.009 42.119 L 4.385 43.634 C 3.907 43.91 3.743 44.521 4.02 45 C 4.206 45.321 4.541 45.5 4.887 45.5 C 5.057 45.5 5.229 45.457 5.386 45.366 L 8.018 43.846 C 8.876 45.202 9.854 46.473 10.94 47.646 L 8.787 49.799 C 8.396 50.19 8.396 50.822 8.787 51.213 C 8.982 51.408 9.238 51.506 9.494 51.506 C 9.75 51.506 10.006 51.408 10.201 51.213 L 12.348 49.067 C 13.084 49.749 13.859 50.389 14.67 50.983 C 14.688 50.998 14.698 51.02 14.718 51.035 C 14.746 51.055 14.778 51.063 14.807 51.08 C 15.245 51.396 15.699 51.69 16.156 51.979 L 14.634 54.614 C 14.358 55.093 14.522 55.704 15 55.98 C 15.157 56.071 15.329 56.114 15.499 56.114 C 15.845 56.114 16.181 55.935 16.366 55.614 L 17.886 52.982 C 19.291 53.726 20.771 54.343 22.314 54.822 L 21.529 57.752 C 21.386 58.285 21.703 58.834 22.236 58.977 C 22.323 59 22.41 59.011 22.496 59.011 C 22.937 59.011 23.342 58.717 23.461 58.27 L 24.246 55.342 C 25.784 55.692 27.374 55.897 29.001 55.959 L 29.001 59 C 29.001 59.553 29.448 60 30.001 60 C 30.554 60 31.001 59.553 31.001 59 L 31.001 55.96 C 32.629 55.898 34.219 55.693 35.757 55.343 L 36.541 58.271 C 36.66 58.718 37.064 59.012 37.506 59.012 C 37.592 59.012 37.679 59.001 37.766 58.978 C 38.299 58.835 38.616 58.287 38.473 57.753 L 37.688 54.823 C 39.23 54.343 40.711 53.727 42.116 52.983 L 43.635 55.614 C 43.821 55.935 44.156 56.114 44.502 56.114 C 44.672 56.114 44.844 56.071 45.001 55.98 C 45.48 55.704 45.644 55.092 45.367 54.614 L 43.845 51.979 C 44.302 51.689 44.757 51.396 45.194 51.079 C 45.223 51.062 45.255 51.054 45.282 51.034 C 45.302 51.02 45.311 50.998 45.33 50.982 C 46.141 50.388 46.916 49.748 47.652 49.066 L 49.799 51.212 C 49.994 51.407 50.25 51.505 50.506 51.505 C 50.762 51.505 51.018 51.407 51.213 51.212 C 51.604 50.821 51.604 50.189 51.213 49.798 L 49.06 47.645 C 50.146 46.473 51.124 45.202 51.982 43.845 L 54.614 45.365 C 54.771 45.456 54.943 45.499 55.113 45.499 C 55.459 45.499 55.795 45.32 55.98 44.999 C 56.256 44.52 56.092 43.909 55.614 43.633 L 52.99 42.118 C 53.735 40.712 54.357 39.233 54.836 37.69 L 57.752 38.471 C 57.839 38.494 57.926 38.505 58.012 38.505 C 58.453 38.505 58.858 38.211 58.977 37.764 C 59.12 37.231 58.803 36.682 58.27 36.539 L 55.346 35.756 C 55.696 34.217 55.907 32.628 55.969 30.999 L 59 30.999 L 59 31 Z  M 30 54 C 25.093 54 20.526 52.517 16.721 49.979 L 24.379 39.438 C 26.026 40.423 27.945 41 30 41 C 32.055 41 33.974 40.423 35.622 39.438 L 43.28 49.979 C 39.474 52.517 34.907 54 30 54 Z  M 30 28 C 31.103 28 32 28.897 32 30 C 32 31.103 31.103 32 30 32 C 28.897 32 28 31.103 28 30 C 28 28.897 28.897 28 30 28 Z  M 31 19.051 L 31 6.025 C 40.861 6.432 49.204 12.813 52.495 21.639 L 40.107 25.665 C 38.546 22.042 35.094 19.422 31 19.051 Z  M 29 19.051 C 24.906 19.422 21.454 22.042 19.893 25.665 L 7.505 21.639 C 10.796 12.813 19.139 6.432 29 6.025 L 29 19.051 Z  M 6 30 C 6 27.763 6.314 25.599 6.89 23.542 L 19.28 27.568 C 19.102 28.352 19 29.164 19 30 C 19 33.293 20.462 36.244 22.761 38.262 L 15.106 48.799 C 9.564 44.399 6 37.61 6 30 Z  M 44.893 48.799 L 37.238 38.262 C 39.538 36.244 41 33.293 41 30 C 41 29.164 40.898 28.352 40.72 27.569 L 53.11 23.543 C 53.686 25.599 54 27.763 54 30 C 54 37.61 50.436 44.399 44.893 48.799 Z " fill="rgb(255,153,0)"/></g></g></svg>