<?xml version="1.0" encoding="UTF-8" standalone="no"?><!-- Generator: Gravit.io --><svg xmlns="http://www.w3.org/2000/svg" xmlns:xlink="http://www.w3.org/1999/xlink" style="isolation:isolate" viewBox="0 0 60 60" width="60pt" height="60pt"><defs><clipPath id="_clipPath_xRPtaKapIM6FSUfJvinPdZzAdLgJ2JCw"><rect width="60" height="60"/></clipPath></defs><g clip-path="url(#_clipPath_xRPtaKapIM6FSUfJvinPdZzAdLgJ2JCw)"><rect width="60" height="60" style="fill:rgb(0,0,0)" fill-opacity="0"/><g><path d=" M 52.872 26.898 C 48.229 26.005 46.1 20.58 48.896 16.768 L 50.86 14.09 L 46.617 9.847 L 43.979 11.634 C 40.065 14.286 34.723 11.955 34.005 7.283 L 33.5 4 L 27.5 4 L 26.723 8.041 C 25.85 12.581 20.618 14.749 16.79 12.156 L 13.383 9.847 L 9.14 14.09 L 11.104 16.768 C 13.9 20.58 11.77 26.005 7.128 26.898 L 4 27.5 L 4 33.5 L 7.283 34.005 C 11.956 34.724 14.286 40.066 11.634 43.98 L 9.847 46.617 L 14.09 50.86 L 16.768 48.896 C 20.58 46.1 26.005 48.229 26.898 52.872 L 27.5 56 L 33.5 56 L 33.855 53.691 C 34.59 48.915 40.129 46.62 44.026 49.478 L 45.91 50.86 L 50.153 46.617 L 48.366 43.98 C 45.715 40.066 48.045 34.724 52.717 34.005 L 56 33.5 L 56 27.5 L 52.872 26.898 Z  M 30.5 35 C 28.015 35 26 32.985 26 30.5 C 26 28.015 28.015 26 30.5 26 C 32.985 26 35 28.015 35 30.5 C 35 32.985 32.985 35 30.5 35 Z " fill="rgb(255,153,0)"/><path d=" M 30.5 21 C 25.253 21 21 25.253 21 30.5 C 21 35.747 25.253 40 30.5 40 C 35.747 40 40 35.747 40 30.5 C 40 25.253 35.747 21 30.5 21 Z  M 30.5 35 C 28.015 35 26 32.985 26 30.5 C 26 28.015 28.015 26 30.5 26 C 32.985 26 35 28.015 35 30.5 C 35 32.985 32.985 35 30.5 35 Z " fill="rgb(74,134,232)"/></g></g></svg>