<?xml version="1.0" encoding="UTF-8" standalone="no"?><!-- Generator: Gravit.io --><svg xmlns="http://www.w3.org/2000/svg" xmlns:xlink="http://www.w3.org/1999/xlink" style="isolation:isolate" viewBox="0 0 60 60" width="60pt" height="60pt"><defs><clipPath id="_clipPath_uEsXesXw36n108rgVsC2vhd7Y8lImAqh"><rect width="60" height="60"/></clipPath></defs><g clip-path="url(#_clipPath_uEsXesXw36n108rgVsC2vhd7Y8lImAqh)"><rect width="60" height="60" style="fill:rgb(0,0,0)" fill-opacity="0"/><g><path d=" M 54.219 25 L 51.422 25 C 50.87 22.625 49.936 20.398 48.683 18.387 L 50.661 16.409 C 51.356 15.714 51.356 14.586 50.661 13.891 L 46.108 9.338 C 45.413 8.643 44.285 8.643 43.59 9.338 L 41.612 11.316 C 39.602 10.064 37.375 9.13 35 8.578 L 35 5.781 C 35 4.797 34.203 4 33.219 4 L 26.78 4 C 25.797 4 25 4.797 25 5.781 L 25 8.578 C 22.625 9.13 20.398 10.064 18.387 11.317 L 16.41 9.339 C 15.715 8.644 14.587 8.644 13.892 9.339 L 9.339 13.892 C 8.644 14.587 8.644 15.715 9.339 16.41 L 11.317 18.388 C 10.064 20.398 9.13 22.625 8.578 25 L 5.781 25 C 4.797 25 4 25.797 4 26.781 L 4 33.22 C 4 34.203 4.797 35 5.781 35 L 8.578 35 C 9.13 37.375 10.064 39.602 11.317 41.613 L 9.339 43.59 C 8.644 44.286 8.644 45.413 9.339 46.108 L 13.892 50.661 C 14.587 51.356 15.715 51.356 16.41 50.661 L 18.388 48.683 C 20.399 49.935 22.626 50.87 25.001 51.422 L 25.001 54.219 C 25 55.203 25.797 56 26.781 56 L 33.22 56 C 34.203 56 35 55.203 35 54.219 L 35 51.422 C 37.375 50.87 39.602 49.936 41.613 48.683 L 43.591 50.661 C 44.286 51.356 45.414 51.356 46.109 50.661 L 50.662 46.108 C 51.357 45.413 51.357 44.285 50.662 43.59 L 48.684 41.612 C 49.936 39.602 50.87 37.374 51.423 34.999 L 54.22 34.999 C 55.203 35 56 34.203 56 33.219 L 56 26.78 C 56 25.797 55.203 25 54.219 25 Z  M 30 39 C 25.029 39 21 34.97 21 30 C 21 25.029 25.029 21 30 21 C 34.971 21 39 25.029 39 30 C 39 34.97 34.971 39 30 39 Z " fill="rgb(255,153,0)"/><path d=" M 30 17 C 22.82 17 17 22.82 17 30 C 17 37.18 22.82 43 30 43 C 37.18 43 43 37.18 43 30 C 43 22.82 37.18 17 30 17 Z  M 30 39 C 25.029 39 21 34.97 21 30 C 21 25.029 25.029 21 30 21 C 34.971 21 39 25.029 39 30 C 39 34.97 34.971 39 30 39 Z " fill="rgb(74,134,232)"/></g></g></svg>