<?xml version="1.0" encoding="UTF-8" standalone="no"?><!-- Generator: Gravit.io --><svg xmlns="http://www.w3.org/2000/svg" xmlns:xlink="http://www.w3.org/1999/xlink" style="isolation:isolate" viewBox="0 0 60 60" width="60pt" height="60pt"><defs><clipPath id="_clipPath_Ub5f86dUkjvXdT3tHu00GKHC21AubqtB"><rect width="60" height="60"/></clipPath></defs><g clip-path="url(#_clipPath_Ub5f86dUkjvXdT3tHu00GKHC21AubqtB)"><rect width="60" height="60" style="fill:rgb(0,0,0)" fill-opacity="0"/><g><path d=" M 54.219 25 L 49.168 25 C 46.549 25 45.238 21.833 47.089 19.982 L 50.661 16.41 C 51.356 15.715 51.356 14.587 50.661 13.892 L 46.108 9.339 C 45.413 8.644 44.285 8.644 43.59 9.339 L 40.018 12.911 C 38.166 14.762 35 13.451 35 10.832 L 35 5.781 C 35 4.797 34.203 4 33.219 4 L 26.78 4 C 25.797 4 25 4.797 25 5.781 L 25 10.833 C 25 13.452 21.834 14.763 19.982 12.912 L 16.41 9.339 C 15.715 8.644 14.587 8.644 13.892 9.339 L 9.339 13.892 C 8.644 14.587 8.644 15.715 9.339 16.41 L 12.911 19.982 C 14.763 21.833 13.451 25 10.832 25 L 5.781 25 C 4.797 25 4 25.797 4 26.781 L 4 33.22 C 4 34.203 4.797 35 5.781 35 L 10.832 35 C 13.451 35 14.762 38.167 12.911 40.018 L 9.339 43.59 C 8.644 44.286 8.644 45.413 9.339 46.108 L 13.892 50.661 C 14.587 51.356 15.715 51.356 16.41 50.661 L 19.982 47.089 C 21.834 45.237 25 46.549 25 49.168 L 25 54.219 C 25 55.203 25.797 56 26.781 56 L 33.22 56 C 34.203 56 35 55.203 35 54.219 L 35 49.168 C 35 46.549 38.166 45.237 40.018 47.089 L 43.59 50.661 C 44.285 51.356 45.413 51.356 46.108 50.661 L 50.661 46.108 C 51.356 45.413 51.356 44.285 50.661 43.59 L 47.089 40.018 C 45.237 38.167 46.549 35 49.168 35 L 54.219 35 C 55.203 35 56 34.203 56 33.219 L 56 26.78 C 56 25.797 55.203 25 54.219 25 Z  M 30 38 C 25.582 38 22 34.418 22 30 C 22 25.582 25.582 22 30 22 C 34.418 22 38 25.582 38 30 C 38 34.418 34.418 38 30 38 Z " fill="rgb(255,153,0)" vector-effect="non-scaling-stroke" stroke-width="1" stroke="rgb(74,134,232)" stroke-linejoin="miter" stroke-linecap="butt" stroke-miterlimit="4"/></g></g></svg>