<?xml version="1.0" encoding="UTF-8" standalone="no"?><!-- Generator: Gravit.io --><svg xmlns="http://www.w3.org/2000/svg" xmlns:xlink="http://www.w3.org/1999/xlink" style="isolation:isolate" viewBox="0 0 60 60" width="60pt" height="60pt"><defs><clipPath id="_clipPath_LGc9S8wfpef8COeK5rexyYT3PvDuWMFA"><rect width="60" height="60"/></clipPath></defs><g clip-path="url(#_clipPath_LGc9S8wfpef8COeK5rexyYT3PvDuWMFA)"><rect width="60" height="60" style="fill:rgb(0,0,0)" fill-opacity="0"/><g><rect x="0" y="0" width="60" height="60" transform="matrix(1,0,0,1,0,0)" fill="rgb(70,70,70)"/><g><path d=" M 55.01 35.725 L 54.541 35.614 C 54.661 36.257 54.901 36.833 55.228 37.339 C 55.437 37.223 55.604 37.033 55.663 36.782 C 55.776 36.311 55.483 35.837 55.01 35.725 Z " fill="rgb(55,62,73)"/><path d=" M 44.001 53.025 C 44.289 52.744 44.368 52.302 44.148 51.945 L 44.091 51.853 C 44.037 52.229 44 52.609 44 53 C 44 53.008 44.001 53.016 44.001 53.025 Z " fill="rgb(55,62,73)"/><path d=" M 36.464 49.191 L 32.593 36.302 C 34.019 35.636 35.144 34.442 35.723 32.979 L 49.02 36.118 C 49.026 36.088 49.037 36.061 49.043 36.031 L 49.358 34.392 L 36.126 31.267 C 36.147 31.028 36.158 30.786 36.151 30.54 C 36.11 29.161 35.61 27.905 34.809 26.901 L 45.083 15.993 C 48.655 19.647 50.922 24.595 51.087 30.093 C 51.117 31.079 51.068 32.048 50.963 33.001 L 52.734 33.001 C 52.802 32.315 52.842 31.621 52.848 30.919 L 55.506 30.839 C 55.991 30.824 56.373 30.42 56.358 29.934 C 56.343 29.448 55.938 29.067 55.453 29.082 L 52.795 29.162 C 52.698 27.733 52.468 26.342 52.121 24.998 L 54.667 24.234 C 55.132 24.095 55.396 23.604 55.256 23.139 C 55.116 22.674 54.627 22.407 54.161 22.55 L 51.621 23.313 C 51.16 21.97 50.574 20.686 49.883 19.47 L 52.147 18.071 C 52.56 17.815 52.688 17.274 52.433 16.861 C 52.177 16.448 51.635 16.319 51.223 16.575 L 48.955 17.977 C 48.166 16.807 47.273 15.714 46.288 14.713 L 48.117 12.771 C 48.45 12.417 48.433 11.861 48.08 11.529 C 47.727 11.196 47.171 11.213 46.838 11.566 L 45.009 13.508 C 43.95 12.584 42.806 11.759 41.591 11.041 L 42.854 8.694 C 43.084 8.267 42.924 7.734 42.496 7.504 C 42.068 7.273 41.535 7.434 41.305 7.862 L 40.044 10.206 C 38.789 9.589 37.473 9.081 36.104 8.701 L 36.713 6.12 C 36.825 5.648 36.532 5.174 36.06 5.063 C 35.585 4.952 35.114 5.244 35.003 5.716 L 34.391 8.3 C 33.029 8.033 31.627 7.888 30.195 7.876 L 30.115 5.218 C 30.1 4.732 29.695 4.351 29.21 4.366 C 28.725 4.381 28.343 4.785 28.358 5.271 L 28.438 7.929 C 27.009 8.026 25.618 8.256 24.275 8.604 L 23.51 6.057 C 23.371 5.592 22.88 5.327 22.415 5.468 C 21.95 5.607 21.686 6.098 21.826 6.562 L 22.589 9.102 C 21.246 9.563 19.962 10.149 18.746 10.841 L 17.347 8.577 C 17.091 8.164 16.549 8.035 16.137 8.291 C 15.724 8.546 15.596 9.088 15.851 9.501 L 17.252 11.768 C 16.082 12.557 14.989 13.45 13.988 14.435 L 12.046 12.606 C 11.693 12.273 11.137 12.29 10.804 12.643 C 10.471 12.997 10.488 13.553 10.841 13.885 L 12.783 15.714 C 11.859 16.773 11.034 17.917 10.316 19.132 L 7.968 17.869 C 7.539 17.638 7.007 17.799 6.777 18.227 C 6.547 18.654 6.707 19.187 7.135 19.418 L 9.48 20.68 C 8.863 21.935 8.355 23.252 7.975 24.62 L 5.394 24.011 C 4.919 23.895 4.448 24.192 4.337 24.664 C 4.225 25.136 4.518 25.61 4.99 25.721 L 7.577 26.332 C 7.31 27.694 7.165 29.096 7.153 30.528 L 4.495 30.608 C 4.01 30.623 3.628 31.027 3.643 31.513 C 3.658 31.999 4.063 32.38 4.548 32.365 L 7.206 32.285 C 7.222 32.527 7.263 32.761 7.287 33 L 9.042 33 C 8.983 32.456 8.93 31.911 8.914 31.355 C 8.867 29.774 9.001 28.229 9.288 26.736 L 23.875 30.18 C 23.854 30.42 23.843 30.661 23.85 30.908 C 23.891 32.287 24.391 33.543 25.192 34.547 L 21.764 38.187 L 23.008 39.43 L 26.472 35.752 C 27.522 36.491 28.806 36.915 30.185 36.873 C 30.431 36.866 30.672 36.84 30.91 36.804 L 34.883 50.033 C 35.479 49.849 36.009 49.558 36.464 49.191 Z  M 29.368 9.637 C 34.866 9.472 39.941 11.439 43.802 14.786 L 33.529 25.695 C 32.479 24.956 31.195 24.532 29.816 24.574 C 29.57 24.581 29.329 24.607 29.091 24.642 L 24.78 10.287 C 26.253 9.911 27.787 9.685 29.368 9.637 Z  M 24.277 28.469 L 9.688 25.024 C 11.552 18.395 16.59 13.046 23.096 10.788 L 27.408 25.145 C 25.981 25.811 24.856 27.006 24.277 28.469 Z  M 30.132 35.116 C 27.71 35.189 25.68 33.277 25.607 30.855 C 25.534 28.433 27.446 26.403 29.868 26.33 C 32.29 26.257 34.32 28.169 34.393 30.591 C 34.466 33.014 32.554 35.044 30.132 35.116 Z " fill="rgb(55,63,77)"/></g><path d=" M 59 32 C 59.552 32 60 31.553 60 31 C 60 30.447 59.552 30 59 30 L 55.975 30 C 55.913 28.371 55.699 26.782 55.35 25.242 L 58.271 24.46 C 58.805 24.317 59.121 23.769 58.978 23.235 C 58.835 22.701 58.288 22.381 57.753 22.528 L 54.838 23.309 C 54.359 21.766 53.736 20.286 52.992 18.88 L 55.614 17.366 C 56.093 17.09 56.256 16.478 55.98 16 C 55.703 15.521 55.091 15.356 54.614 15.634 L 51.987 17.151 C 51.129 15.794 50.152 14.521 49.065 13.348 L 51.211 11.202 C 51.602 10.811 51.602 10.179 51.211 9.788 C 50.82 9.397 50.188 9.397 49.797 9.788 L 47.651 11.934 C 46.479 10.848 45.205 9.87 43.848 9.012 L 45.364 6.386 C 45.642 5.907 45.479 5.296 45 5.02 C 44.521 4.743 43.91 4.908 43.634 5.386 L 42.12 8.008 C 40.714 7.264 39.234 6.641 37.691 6.162 L 38.472 3.247 C 38.615 2.714 38.299 2.165 37.765 2.022 C 37.229 1.879 36.683 2.196 36.54 2.729 L 35.757 5.65 C 34.218 5.301 32.629 5.087 31 5.025 L 31 2 C 31 1.447 30.552 1 30 1 C 29.448 1 29 1.447 29 2 L 29 5.025 C 27.371 5.087 25.782 5.3 24.243 5.65 L 23.46 2.729 C 23.317 2.196 22.769 1.877 22.235 2.022 C 21.701 2.165 21.385 2.713 21.528 3.247 L 22.309 6.162 C 20.766 6.641 19.286 7.264 17.88 8.008 L 16.366 5.386 C 16.089 4.907 15.478 4.742 15 5.02 C 14.521 5.296 14.358 5.908 14.634 6.386 L 16.15 9.012 C 14.793 9.87 13.52 10.847 12.347 11.934 L 10.201 9.788 C 9.81 9.397 9.178 9.397 8.787 9.788 C 8.396 10.179 8.396 10.811 8.787 11.202 L 10.933 13.348 C 9.847 14.52 8.87 15.793 8.012 17.15 L 5.385 15.633 C 4.906 15.356 4.295 15.521 4.019 16 C 3.743 16.479 3.907 17.09 4.385 17.366 L 7.007 18.88 C 6.263 20.286 5.64 21.766 5.161 23.309 L 2.246 22.528 C 1.71 22.381 1.164 22.702 1.021 23.235 C 0.878 23.768 1.194 24.317 1.728 24.46 L 4.649 25.242 C 4.301 26.782 4.087 28.371 4.025 30 L 1 30 C 0.448 30 0 30.447 0 31 C 0 31.553 0.448 32 1 32 L 4.025 32 C 4.087 33.629 4.301 35.218 4.65 36.758 L 1.729 37.54 C 1.195 37.683 0.879 38.231 1.022 38.765 C 1.142 39.212 1.545 39.506 1.987 39.506 C 2.072 39.506 2.159 39.495 2.246 39.472 L 5.161 38.691 C 5.64 40.234 6.263 41.714 7.007 43.12 L 4.385 44.634 C 3.907 44.91 3.743 45.521 4.019 46 C 4.205 46.321 4.54 46.5 4.886 46.5 C 5.055 46.5 5.228 46.457 5.385 46.366 L 8.012 44.849 C 8.545 45.692 9.139 46.489 9.762 47.263 C 11.659 47.845 13.155 49.341 13.737 51.238 C 14.511 51.861 15.308 52.455 16.151 52.988 L 14.635 55.614 C 14.359 56.093 14.523 56.704 15.001 56.98 C 15.158 57.071 15.331 57.114 15.5 57.114 C 15.846 57.114 16.182 56.935 16.367 56.614 L 17.881 53.992 C 19.287 54.736 20.767 55.359 22.31 55.838 L 21.529 58.753 C 21.507 58.836 21.514 58.918 21.513 59 L 23.533 59 L 24.243 56.35 C 25.782 56.7 27.372 56.913 29 56.975 L 29 59 L 31 59 L 31 56.975 C 32.629 56.913 34.218 56.7 35.757 56.35 L 36.467 59 L 38.487 59 C 38.486 58.918 38.494 58.836 38.471 58.753 L 37.69 55.838 C 39.233 55.359 40.713 54.736 42.119 53.992 L 43.633 56.614 C 43.819 56.935 44.154 57.114 44.5 57.114 C 44.669 57.114 44.842 57.071 44.999 56.98 C 45.478 56.704 45.641 56.092 45.365 55.614 L 43.849 52.988 C 44.692 52.455 45.489 51.861 46.263 51.238 C 46.845 49.341 48.341 47.845 50.238 47.263 C 50.861 46.489 51.455 45.691 51.988 44.849 L 54.615 46.366 C 54.772 46.457 54.945 46.5 55.114 46.5 C 55.46 46.5 55.796 46.321 55.981 46 C 56.257 45.521 56.093 44.91 55.615 44.634 L 52.993 43.12 C 53.737 41.714 54.36 40.234 54.839 38.691 L 57.754 39.472 C 57.841 39.495 57.928 39.506 58.013 39.506 C 58.455 39.506 58.859 39.211 58.978 38.765 C 59.121 38.232 58.805 37.683 58.271 37.54 L 55.35 36.758 C 55.699 35.219 55.913 33.629 55.975 32 L 59 32 Z  M 30 7 C 36.258 7 41.962 9.41 46.239 13.347 L 34.184 25.402 C 33.015 24.526 31.57 24 30 24 C 29.72 24 29.445 24.021 29.174 24.053 L 24.76 7.583 C 26.448 7.206 28.2 7 30 7 Z  M 35 31 C 35 33.757 32.757 36 30 36 C 27.243 36 25 33.757 25 31 C 25 28.243 27.243 26 30 26 C 32.757 26 35 28.243 35 31 Z  M 22.827 8.096 L 27.241 24.569 C 25.596 25.277 24.276 26.598 23.568 28.242 L 7.096 23.827 C 9.442 16.353 15.353 10.441 22.827 8.096 Z  M 6 31 C 6 29.2 6.206 27.448 6.583 25.76 L 23.053 30.174 C 23.021 30.445 23 30.72 23 31 C 23 32.57 23.526 34.015 24.402 35.184 L 12.347 47.239 C 8.41 42.962 6 37.258 6 31 Z  M 30 55 C 23.742 55 18.038 52.59 13.761 48.653 L 25.815 36.599 C 26.985 37.474 28.43 38 30 38 C 30.28 38 30.555 37.979 30.826 37.947 L 35.239 54.417 C 33.552 54.794 31.8 55 30 55 Z  M 37.173 53.904 L 32.759 37.431 C 34.404 36.723 35.724 35.402 36.432 33.758 L 52.905 38.172 C 50.558 45.647 44.647 51.559 37.173 53.904 Z  M 53.417 36.24 L 36.947 31.826 C 36.979 31.555 37 31.28 37 31 C 37 29.43 36.474 27.985 35.598 26.816 L 47.652 14.762 C 51.59 19.038 54 24.742 54 31 C 54 32.8 53.794 34.552 53.417 36.24 Z " fill="rgb(74,134,232)"/><g><path d=" M 59 59 L 59 56.87 C 58.553 57.677 57.967 58.395 57.279 59 L 59 59 Z " fill="rgb(255,153,0)"/><path d=" M 54.504 35.462 L 54.125 33 L 49.625 33 L 49.042 36.03 C 48.387 39.435 44.463 41.061 41.592 39.116 L 39.037 37.385 L 35.855 40.567 L 37.328 42.576 C 39.425 45.435 37.828 49.504 34.346 50.173 L 32 50.625 L 32 55.125 L 34.462 55.504 C 36.473 55.813 37.9 57.265 38.38 59 L 46.72 59 C 45.056 57.534 44 55.393 44 53 C 44 48.582 47.582 45 52 45 C 55.014 45 57.636 46.668 59 49.13 L 59 39.549 C 56.849 39.419 54.871 37.85 54.504 35.462 Z " fill="rgb(255,153,0)"/></g><g><path d=" M 1 59 L 2.721 59 C 2.033 58.395 1.447 57.677 1 56.87 L 1 59 Z " fill="rgb(255,153,0)"/><path d=" M 25.654 50.174 C 22.172 49.504 20.575 45.436 22.672 42.577 L 24.145 40.568 L 20.963 37.386 L 18.408 39.117 C 15.537 41.062 11.613 39.436 10.958 36.031 L 10.375 33 L 5.875 33 L 5.496 35.462 C 5.129 37.85 3.151 39.419 1 39.549 L 1 49.13 C 2.364 46.668 4.986 45 8 45 C 12.418 45 16 48.582 16 53 C 16 55.393 14.944 57.534 13.279 59 L 21.619 59 C 22.099 57.265 23.527 55.813 25.537 55.504 L 28 55.125 L 28 50.625 L 25.654 50.174 Z " fill="rgb(255,153,0)"/></g><path d=" M 8 45 C 4.986 45 2.364 46.668 1 49.13 L 1 56.87 C 1.447 57.677 2.033 58.395 2.721 59 L 13.279 59 C 14.944 57.534 16 55.393 16 53 C 16 48.582 12.418 45 8 45 Z  M 8 57 C 5.791 57 4 55.209 4 53 C 4 50.791 5.791 49 8 49 C 10.209 49 12 50.791 12 53 C 12 55.209 10.209 57 8 57 Z " fill="rgb(255,255,255)"/><path d=" M 59 49.13 C 57.636 46.668 55.014 45 52 45 C 47.582 45 44 48.582 44 53 C 44 55.393 45.056 57.534 46.721 59 L 57.279 59 C 57.967 58.395 58.552 57.677 59 56.87 L 59 49.13 Z  M 52 57 C 49.791 57 48 55.209 48 53 C 48 50.791 49.791 49 52 49 C 54.209 49 56 50.791 56 53 C 56 55.209 54.209 57 52 57 Z " fill="rgb(255,255,255)"/></g></g></svg>