<?xml version="1.0" encoding="UTF-8" standalone="no"?><!-- Generator: Gravit.io --><svg xmlns="http://www.w3.org/2000/svg" xmlns:xlink="http://www.w3.org/1999/xlink" style="isolation:isolate" viewBox="0 0 60 60" width="60pt" height="60pt"><defs><clipPath id="_clipPath_IU5XHBksvkVVEjiwMHvSdPfVYs3FEJYm"><rect width="60" height="60"/></clipPath></defs><g clip-path="url(#_clipPath_IU5XHBksvkVVEjiwMHvSdPfVYs3FEJYm)"><rect width="60" height="60" style="fill:rgb(0,0,0)" fill-opacity="0"/><g><line x1="30" y1="7" x2="30" y2="3" vector-effect="non-scaling-stroke" stroke-width="2" stroke="rgb(74,134,232)" stroke-linejoin="miter" stroke-linecap="round" stroke-miterlimit="10"/><line x1="30" y1="57" x2="30" y2="53" vector-effect="non-scaling-stroke" stroke-width="2" stroke="rgb(74,134,232)" stroke-linejoin="miter" stroke-linecap="round" stroke-miterlimit="10"/><line x1="53" y1="30" x2="57" y2="30" vector-effect="non-scaling-stroke" stroke-width="2" stroke="rgb(74,134,232)" stroke-linejoin="miter" stroke-linecap="round" stroke-miterlimit="10"/><line x1="3" y1="30" x2="7" y2="30" vector-effect="non-scaling-stroke" stroke-width="2" stroke="rgb(74,134,232)" stroke-linejoin="miter" stroke-linecap="round" stroke-miterlimit="10"/><line x1="46.263" y1="13.737" x2="49.092" y2="10.908" vector-effect="non-scaling-stroke" stroke-width="2" stroke="rgb(74,134,232)" stroke-linejoin="miter" stroke-linecap="round" stroke-miterlimit="10"/><line x1="10.908" y1="49.092" x2="13.737" y2="46.263" vector-effect="non-scaling-stroke" stroke-width="2" stroke="rgb(74,134,232)" stroke-linejoin="miter" stroke-linecap="round" stroke-miterlimit="10"/><line x1="46.263" y1="46.263" x2="49.092" y2="49.092" vector-effect="non-scaling-stroke" stroke-width="2" stroke="rgb(74,134,232)" stroke-linejoin="miter" stroke-linecap="round" stroke-miterlimit="10"/><line x1="10.908" y1="10.908" x2="13.737" y2="13.737" vector-effect="non-scaling-stroke" stroke-width="2" stroke="rgb(74,134,232)" stroke-linejoin="miter" stroke-linecap="round" stroke-miterlimit="10"/><path d=" M 30 7 C 17.297 7 7 17.297 7 30 C 7 42.703 17.297 53 30 53 C 42.703 53 53 42.703 53 30 C 53 17.297 42.703 7 30 7 Z  M 30 34 C 27.791 34 26 32.209 26 30 C 26 27.791 27.791 26 30 26 C 32.209 26 34 27.791 34 30 C 34 32.209 32.209 34 30 34 Z " fill="rgb(255,153,0)" vector-effect="non-scaling-stroke" stroke-width="2" stroke="rgb(74,134,232)" stroke-linejoin="miter" stroke-linecap="round" stroke-miterlimit="10"/></g></g></svg>