<?xml version="1.0" encoding="UTF-8" standalone="no"?><!-- Generator: Gravit.io --><svg xmlns="http://www.w3.org/2000/svg" xmlns:xlink="http://www.w3.org/1999/xlink" style="isolation:isolate" viewBox="0 0 60 60" width="60pt" height="60pt"><defs><clipPath id="_clipPath_xgitc5uPYrjWB6ZJKfbQV92Ue2zSocWl"><rect width="60" height="60"/></clipPath></defs><g clip-path="url(#_clipPath_xgitc5uPYrjWB6ZJKfbQV92Ue2zSocWl)"><rect width="60" height="60" style="fill:rgb(0,0,0)" fill-opacity="0"/><g><circle vector-effect="non-scaling-stroke" cx="30" cy="30" r="29" fill="rgb(70,70,70)"/><path d=" M 54.148 22.529 C 54.005 21.995 53.456 21.676 52.923 21.822 L 50.654 22.43 C 50.285 21.262 49.817 20.128 49.254 19.037 L 51.284 17.865 C 51.763 17.589 51.926 16.977 51.65 16.499 C 51.374 16.02 50.761 15.855 50.284 16.133 L 48.239 17.314 C 47.569 16.267 46.833 15.285 46.02 14.393 L 47.677 12.736 C 48.068 12.345 48.068 11.713 47.677 11.322 C 47.286 10.931 46.654 10.931 46.263 11.322 L 44.61 12.975 C 43.697 12.143 42.716 11.407 41.689 10.752 L 42.865 8.716 C 43.141 8.237 42.978 7.626 42.499 7.35 C 42.02 7.073 41.408 7.237 41.133 7.716 L 39.954 9.758 C 38.863 9.196 37.729 8.735 36.563 8.365 L 37.176 6.077 C 37.319 5.544 37.002 4.995 36.469 4.852 C 35.932 4.705 35.387 5.026 35.244 5.559 L 34.631 7.847 C 33.439 7.584 32.226 7.417 31 7.358 L 31 5 C 31 4.447 30.552 4 30 4 C 29.448 4 29 4.447 29 5 L 29 7.352 C 27.783 7.406 26.566 7.553 25.359 7.817 L 24.754 5.559 C 24.611 5.026 24.066 4.705 23.529 4.852 C 22.996 4.995 22.679 5.543 22.822 6.077 L 23.428 8.34 C 22.277 8.706 21.15 9.189 20.045 9.76 L 18.865 7.716 C 18.589 7.236 17.978 7.072 17.5 7.35 C 17.021 7.626 16.858 8.238 17.134 8.716 L 18.306 10.745 C 17.266 11.412 16.294 12.16 15.396 12.982 L 13.736 11.322 C 13.345 10.931 12.713 10.931 12.322 11.322 C 11.931 11.713 11.931 12.345 12.322 12.736 L 13.986 14.4 C 13.161 15.309 12.416 16.283 11.758 17.313 L 9.715 16.134 C 9.235 15.857 8.625 16.021 8.349 16.5 C 8.073 16.979 8.237 17.59 8.715 17.866 L 10.76 19.047 C 10.2 20.132 9.73 21.265 9.357 22.434 L 7.076 21.822 C 6.545 21.677 5.994 21.996 5.851 22.529 C 5.708 23.062 6.024 23.611 6.558 23.754 L 8.839 24.366 C 8.501 25.901 8.318 27.481 8.323 29.087 C 8.324 29.639 8.772 30.084 9.323 30.084 C 9.324 30.084 9.325 30.084 9.326 30.084 C 9.878 30.082 10.325 29.633 10.323 29.081 C 10.308 24.117 12.175 19.401 15.399 15.814 L 22.969 23.384 C 22.204 24.341 21.633 25.451 21.306 26.671 C 20.683 28.992 21.003 31.418 22.204 33.499 C 23.81 36.275 26.798 38 30.007 38 C 31.578 38 33.132 37.582 34.499 36.793 C 36.581 35.592 38.069 33.651 38.691 31.329 C 39.314 29.008 38.994 26.582 37.793 24.501 C 37.565 24.107 37.303 23.74 37.023 23.39 L 44.607 15.806 C 45.519 16.816 46.344 17.931 47.051 19.156 C 48.783 22.156 49.689 25.588 49.671 29.08 C 49.668 29.632 50.114 30.082 50.666 30.085 C 50.667 30.085 50.669 30.085 50.671 30.085 C 51.221 30.085 51.668 29.641 51.671 29.09 C 51.679 27.493 51.502 25.91 51.167 24.365 L 53.44 23.755 C 53.975 23.611 54.291 23.063 54.148 22.529 Z  M 29.993 20 C 28.422 20 26.868 20.418 25.501 21.207 C 25.106 21.435 24.741 21.697 24.39 21.975 L 16.811 14.396 C 17.828 13.474 18.943 12.648 20.156 11.948 C 27.729 7.575 37.024 8.83 43.193 14.393 L 35.608 21.978 C 34.033 20.725 32.062 20 29.993 20 Z  M 36.76 30.812 C 36.276 32.618 35.118 34.126 33.499 35.061 C 32.436 35.675 31.228 36 30.007 36 C 27.51 36 25.185 34.658 23.939 32.499 C 23.004 30.88 22.756 28.994 23.24 27.188 C 23.724 25.382 24.882 23.874 26.501 22.939 C 27.564 22.325 28.772 22 29.993 22 C 32.49 22 34.815 23.342 36.061 25.501 C 36.996 27.12 37.244 29.006 36.76 30.812 Z " fill="rgb(74,134,232)"/><path d=" M 27 47.5 L 24.793 47.5 C 24.777 47.5 24.764 47.508 24.749 47.509 C 24.629 45.804 24.193 44.101 23.408 42.486 C 23.42 42.479 23.434 42.477 23.446 42.47 L 25.357 41.366 C 25.836 41.09 25.999 40.478 25.723 40 C 25.446 39.521 24.833 39.357 24.357 39.634 L 22.446 40.738 C 22.431 40.747 22.422 40.762 22.408 40.772 C 21.402 39.284 20.149 38.053 18.733 37.095 C 18.742 37.081 18.755 37.07 18.763 37.056 L 19.867 35.145 C 20.143 34.666 19.979 34.055 19.501 33.779 C 19.021 33.503 18.411 33.666 18.135 34.145 L 17.031 36.056 C 17.025 36.067 17.025 36.08 17.019 36.091 C 15.445 35.329 13.737 34.872 11.993 34.744 C 11.993 34.731 12 34.721 12 34.708 L 12 32.5 C 12 31.947 11.552 31.5 11 31.5 C 10.448 31.5 10 31.947 10 32.5 L 10 34.707 C 10 34.724 10.009 34.738 10.01 34.756 C 7.992 34.9 5.974 35.475 4.104 36.555 C 3.386 36.97 2.73 37.448 2.117 37.963 C 2.967 40.943 4.284 43.725 5.979 46.23 C 6.438 45.213 7.202 44.322 8.243 43.721 C 10.882 42.197 14.256 43.102 15.78 45.741 C 17.304 48.38 16.399 51.754 13.761 53.278 C 13.557 53.396 13.348 53.494 13.136 53.583 C 15.598 55.348 18.344 56.74 21.298 57.669 C 23.337 55.379 24.525 52.488 24.747 49.49 C 24.764 49.491 24.778 49.5 24.795 49.5 L 27 49.5 C 27.552 49.5 28 49.053 28 48.5 C 28 47.947 27.552 47.5 27 47.5 Z " fill="rgb(255,153,0)"/><path d=" M 49.99 34.257 C 49.991 34.24 50 34.225 50 34.207 L 50 32 C 50 31.447 49.552 31 49 31 C 48.448 31 48 31.447 48 32 L 48 34.207 C 48 34.223 48.008 34.235 48.009 34.251 C 46.304 34.371 44.599 34.808 42.983 35.593 C 42.977 35.581 42.977 35.567 42.97 35.555 L 41.866 33.644 C 41.59 33.164 40.978 33 40.5 33.277 C 40.021 33.553 39.858 34.165 40.134 34.643 L 41.238 36.554 C 41.247 36.569 41.26 36.58 41.269 36.594 C 39.781 37.601 38.55 38.854 37.593 40.27 C 37.579 40.261 37.571 40.246 37.556 40.237 L 35.645 39.133 C 35.164 38.856 34.556 39.02 34.279 39.499 C 34.003 39.978 34.167 40.589 34.645 40.865 L 36.556 41.969 C 36.567 41.975 36.579 41.977 36.59 41.983 C 35.829 43.556 35.372 45.263 35.244 47.007 C 35.23 47.007 35.22 47 35.207 47 L 33 47 C 32.448 47 32 47.447 32 48 C 32 48.553 32.448 49 33 49 L 35.207 49 C 35.224 49 35.239 48.991 35.256 48.99 C 35.4 51.008 35.975 53.026 37.055 54.896 C 37.625 55.883 38.308 56.76 39.064 57.547 C 42.062 56.561 44.839 55.093 47.316 53.245 C 46.057 52.841 44.936 51.993 44.223 50.758 C 42.699 48.119 43.604 44.745 46.242 43.221 C 48.88 41.697 52.255 42.602 53.779 45.241 C 53.928 45.499 54.047 45.766 54.15 46.036 C 55.859 43.468 57.176 40.617 57.999 37.56 C 55.736 35.612 52.914 34.474 49.99 34.257 Z " fill="rgb(255,153,0)"/></g></g></svg>