<?xml version="1.0" encoding="UTF-8" standalone="no"?><!-- Generator: Gravit.io --><svg xmlns="http://www.w3.org/2000/svg" xmlns:xlink="http://www.w3.org/1999/xlink" style="isolation:isolate" viewBox="0 0 60 60" width="60pt" height="60pt"><defs><clipPath id="_clipPath_LU4whxKbeh1dxayMx7H2GVzZ2sfbutl6"><rect width="60" height="60"/></clipPath></defs><g clip-path="url(#_clipPath_LU4whxKbeh1dxayMx7H2GVzZ2sfbutl6)"><rect width="60" height="60" style="fill:rgb(0,0,0)" fill-opacity="0"/><g><circle vector-effect="non-scaling-stroke" cx="30" cy="30" r="29" fill="rgb(74,134,232)"/><g><path d=" M 26.556 6.568 C 24.413 6.156 23.431 3.652 24.721 1.893 L 25.063 1.427 C 22.184 1.921 19.453 2.844 16.93 4.119 C 18.688 4.541 20 6.112 20 8 C 20 10.209 18.209 12 16 12 C 13.791 12 12 10.209 12 8 C 12 7.729 12.028 7.464 12.08 7.208 C 13.19 6.334 9.913 8.806 7.705 11.457 C 8.162 12.367 8.17 13.498 7.523 14.451 L 6.698 15.668 L 8.656 17.626 L 9.892 16.72 C 11.652 15.43 14.155 16.412 14.567 18.555 L 14.846 20 L 17.615 20 L 17.779 18.934 C 18.118 16.73 20.675 15.671 22.473 16.99 L 23.342 17.627 L 25.3 15.669 L 24.475 14.452 C 23.251 12.645 24.327 10.18 26.483 9.848 L 28 9.615 L 28 6.846 L 26.556 6.568 Z " fill="rgb(255,153,0)"/></g><g><path d=" M 50 45.5 C 50 42.462 52.462 40 55.5 40 C 56.065 40 56.609 40.086 57.122 40.244 C 57.742 38.602 58.224 36.891 58.54 35.122 C 57.912 34.577 57.453 33.817 57.311 32.894 L 57.019 31 L 53.557 31 L 53.109 33.331 C 52.605 35.95 49.587 37.201 47.378 35.705 L 45.413 34.374 L 42.965 36.822 L 44.098 38.367 C 45.711 40.566 44.483 43.696 41.804 44.211 L 40 44.558 L 40 48.02 L 41.894 48.311 C 44.59 48.726 45.934 51.808 44.404 54.066 L 43.373 55.587 L 43.468 55.682 C 46.54 54.067 49.279 51.912 51.576 49.352 C 50.602 48.359 50 47 50 45.5 Z " fill="rgb(255,153,0)"/></g><path d=" M 53.899 24.485 C 53.888 24.474 53.873 24.471 53.861 24.46 C 55.254 22.837 56.256 20.869 56.715 18.699 C 53.78 11.77 48.229 6.219 41.3 3.284 C 39.13 3.742 37.162 4.745 35.539 6.138 C 35.529 6.127 35.525 6.112 35.514 6.1 L 34.1 4.686 C 33.709 4.295 33.077 4.295 32.686 4.686 C 32.295 5.077 32.295 5.709 32.686 6.1 L 34.1 7.514 C 34.112 7.526 34.129 7.53 34.141 7.541 C 32.389 9.58 31.258 12.164 31.043 15.008 C 31.028 15.008 31.015 15 31 15 L 29 15 C 28.448 15 28 15.447 28 16 C 28 16.553 28.448 17 29 17 L 31 17 C 31.018 17 31.032 16.991 31.05 16.99 C 31.265 19.834 32.389 22.419 34.141 24.459 C 34.129 24.47 34.113 24.474 34.101 24.486 L 32.687 25.9 C 32.296 26.291 32.296 26.923 32.687 27.314 C 32.882 27.509 33.138 27.607 33.394 27.607 C 33.65 27.607 33.906 27.509 34.101 27.314 L 35.515 25.9 C 35.527 25.888 35.531 25.872 35.542 25.86 C 37.581 27.611 40.167 28.736 43.011 28.951 C 43.009 28.968 43 28.982 43 29 L 43 31 C 43 31.553 43.448 32 44 32 C 44.552 32 45 31.553 45 31 L 45 29 C 45 28.984 44.992 28.972 44.991 28.956 C 47.835 28.741 50.419 27.61 52.458 25.858 C 52.469 25.87 52.473 25.887 52.485 25.899 L 53.899 27.313 C 54.094 27.508 54.35 27.606 54.606 27.606 C 54.862 27.606 55.118 27.508 55.313 27.313 C 55.704 26.922 55.704 26.29 55.313 25.899 L 53.899 24.485 Z  M 44 19 C 42.343 19 41 17.657 41 16 C 41 14.343 42.343 13 44 13 C 45.657 13 47 14.343 47 16 C 47 17.657 45.657 19 44 19 Z " fill="rgb(255,153,0)"/><circle vector-effect="non-scaling-stroke" cx="19" cy="41" r="3" fill="rgb(255,153,0)"/><path d=" M 37.406 48.086 L 34.933 46.987 C 34.926 46.984 34.919 46.985 34.913 46.983 C 35.615 45.123 36 43.107 36 41 C 36 39.177 35.706 37.424 35.175 35.778 C 35.182 35.776 35.188 35.777 35.195 35.774 L 37.362 34.931 C 37.877 34.731 38.132 34.152 37.932 33.637 C 37.732 33.122 37.155 32.865 36.638 33.068 L 34.471 33.911 C 34.461 33.915 34.455 33.923 34.445 33.927 C 32.861 30.474 30.162 27.646 26.799 25.905 C 26.804 25.895 26.811 25.889 26.816 25.879 L 27.915 23.406 C 28.139 22.901 27.912 22.31 27.407 22.086 C 26.902 21.863 26.312 22.09 26.087 22.594 L 24.988 25.067 C 24.983 25.079 24.985 25.091 24.98 25.103 C 23.117 24.401 21.108 24 19 24 C 17.175 24 15.426 24.303 13.78 24.835 C 13.777 24.825 13.779 24.815 13.775 24.805 L 12.932 22.637 C 12.732 22.122 12.151 21.866 11.638 22.068 C 11.123 22.267 10.868 22.847 11.068 23.362 L 11.911 25.53 C 11.914 25.539 11.921 25.545 11.925 25.554 C 8.457 27.15 5.628 29.88 3.894 33.271 C 3.879 33.264 3.87 33.25 3.854 33.243 L 1.725 32.306 C 1.518 32.215 1.301 32.217 1.096 32.265 C 1.149 32.954 1.22 33.638 1.321 34.313 L 3.048 35.073 C 3.062 35.079 3.078 35.077 3.092 35.082 C 2.703 36.129 2.404 37.219 2.226 38.352 L 2.226 38.353 C 2.569 39.495 2.982 40.606 3.457 41.684 C 3.479 41.733 3.501 41.781 3.523 41.83 C 3.74 42.316 3.971 42.794 4.214 43.266 C 4.24 43.316 4.265 43.367 4.291 43.417 C 5.095 44.955 6.034 46.412 7.091 47.772 C 7.132 47.824 7.173 47.877 7.215 47.929 C 7.544 48.346 7.883 48.755 8.234 49.153 C 8.258 49.18 8.281 49.208 8.305 49.235 C 9.074 50.102 9.895 50.923 10.762 51.692 C 10.789 51.716 10.817 51.739 10.844 51.763 C 11.242 52.114 11.651 52.453 12.068 52.782 C 12.12 52.824 12.173 52.865 12.225 52.906 C 13.585 53.963 15.042 54.902 16.58 55.706 C 16.63 55.732 16.681 55.758 16.731 55.784 C 17.202 56.027 17.681 56.257 18.166 56.474 C 18.215 56.496 18.263 56.518 18.312 56.54 C 19.39 57.015 20.501 57.428 21.643 57.771 L 21.645 57.771 C 22.507 57.636 23.341 57.423 24.155 57.164 C 24.161 57.181 24.157 57.199 24.164 57.216 L 24.657 58.498 C 25.405 58.637 26.162 58.754 26.929 58.834 L 26.033 56.5 C 26.028 56.488 26.018 56.48 26.013 56.468 C 29.495 54.891 32.339 52.172 34.092 48.794 C 34.103 48.8 34.11 48.81 34.121 48.815 L 36.594 49.914 C 36.726 49.973 36.864 50 37 50 C 37.383 50 37.749 49.778 37.915 49.406 C 38.138 48.901 37.911 48.311 37.406 48.086 Z  M 19 48 C 15.134 48 12 44.866 12 41 C 12 37.134 15.134 34 19 34 C 22.866 34 26 37.134 26 41 C 26 44.866 22.866 48 19 48 Z " fill="rgb(255,153,0)"/></g></g></svg>