<?xml version="1.0" encoding="UTF-8" standalone="no"?><!-- Generator: Gravit.io --><svg xmlns="http://www.w3.org/2000/svg" xmlns:xlink="http://www.w3.org/1999/xlink" style="isolation:isolate" viewBox="0 0 60 60" width="60pt" height="60pt"><defs><clipPath id="_clipPath_3yASSRhXtuamki4K8QrHCjsORqOBqTim"><rect width="60" height="60"/></clipPath></defs><g clip-path="url(#_clipPath_3yASSRhXtuamki4K8QrHCjsORqOBqTim)"><rect width="60" height="60" style="fill:rgb(0,0,0)" fill-opacity="0"/><g><g><path d=" M 59 16 L 56.95 16 C 56.729 12.892 55.495 10.066 53.569 7.846 L 54.708 6.707 C 55.099 6.316 55.099 5.684 54.708 5.293 C 54.317 4.902 53.685 4.902 53.294 5.293 L 52.155 6.432 C 49.935 4.506 47.108 3.272 44.001 3.051 L 44.001 1 C 44.001 0.447 43.553 0 43.001 0 C 42.449 0 42.001 0.447 42.001 1 L 42.001 3.051 C 38.893 3.272 36.067 4.506 33.847 6.432 L 32.708 5.293 C 32.317 4.902 31.685 4.902 31.294 5.293 C 30.903 5.684 30.903 6.316 31.294 6.707 L 32.433 7.846 C 30.507 10.066 29.273 12.893 29.052 16 L 27 16 C 26.448 16 26 16.447 26 17 C 26 17.553 26.448 18 27 18 L 29.051 18 C 29.272 21.108 30.506 23.934 32.432 26.154 L 31.293 27.293 C 30.902 27.684 30.902 28.316 31.293 28.707 C 31.489 28.903 31.744 29 32 29 C 32.256 29 32.512 28.902 32.707 28.707 L 33.846 27.568 C 36.066 29.494 38.893 30.728 42 30.949 L 42 33 C 42 33.553 42.448 34 43 34 C 43.552 34 44 33.553 44 33 L 44 30.949 C 47.108 30.728 49.934 29.494 52.154 27.568 L 53.352 28.766 C 53.547 28.961 53.803 29.059 54.059 29.059 C 54.315 29.059 54.571 28.961 54.766 28.766 C 55.157 28.375 55.157 27.743 54.766 27.352 L 53.568 26.154 C 55.494 23.934 56.728 21.107 56.949 18 L 59 18 C 59.552 18 60 17.553 60 17 C 60 16.447 59.553 16 59 16 Z  M 43 29 C 36.383 29 31 23.617 31 17 C 31 10.383 36.384 5 43 5 C 49.616 5 55 10.383 55 17 C 55 23.617 49.617 29 43 29 Z " fill="rgb(255,153,0)"/><path d=" M 43 13 C 40.794 13 39 14.794 39 17 C 39 19.206 40.794 21 43 21 C 45.206 21 47 19.206 47 17 C 47 14.794 45.206 13 43 13 Z  M 43 19 C 41.897 19 41 18.103 41 17 C 41 15.897 41.897 15 43 15 C 44.103 15 45 15.897 45 17 C 45 18.103 44.103 19 43 19 Z " fill="rgb(237,138,25)"/></g><path d=" M 37.407 48.086 L 35.812 47.378 C 36.568 45.392 37 43.248 37 41 C 37 39.052 36.679 37.179 36.104 35.421 L 37.362 34.932 C 37.877 34.732 38.132 34.153 37.932 33.638 C 37.733 33.123 37.157 32.866 36.638 33.069 L 35.371 33.561 C 33.687 29.871 30.8 26.85 27.206 24.999 L 27.914 23.406 C 28.138 22.901 27.911 22.31 27.406 22.086 C 26.9 21.863 26.311 22.09 26.086 22.594 L 25.377 24.189 C 23.392 23.433 21.248 23 19 23 C 17.052 23 15.18 23.321 13.421 23.896 L 12.932 22.638 C 12.732 22.123 12.151 21.867 11.638 22.069 C 11.123 22.268 10.868 22.848 11.068 23.363 L 11.56 24.63 C 7.87 26.314 4.85 29.201 2.999 32.795 L 1.406 32.087 C 0.901 31.864 0.311 32.091 0.086 32.595 C -0.138 33.1 0.089 33.691 0.594 33.915 L 2.189 34.623 C 1.433 36.609 1 38.753 1 41 C 1 42.948 1.321 44.821 1.896 46.579 L 0.638 47.068 C 0.123 47.268 -0.132 47.847 0.068 48.362 C 0.222 48.758 0.6 49 1.001 49 C 1.121 49 1.244 48.979 1.363 48.932 L 2.63 48.44 C 4.314 52.13 7.201 55.151 10.795 57.002 L 10.087 58.595 C 9.863 59.1 10.09 59.691 10.595 59.915 C 10.726 59.973 10.864 60 11 60 C 11.383 60 11.749 59.778 11.915 59.406 L 12.624 57.811 C 14.609 58.568 16.753 59 19 59 C 20.948 59 22.82 58.679 24.579 58.104 L 25.068 59.362 C 25.222 59.758 25.6 60 26 60 C 26.121 60 26.243 59.979 26.362 59.932 C 26.877 59.733 27.132 59.153 26.932 58.638 L 26.44 57.371 C 30.13 55.687 33.15 52.8 35.001 49.206 L 36.594 49.914 C 36.726 49.973 36.864 50 37 50 C 37.383 50 37.749 49.778 37.915 49.406 C 38.139 48.902 37.911 48.311 37.407 48.086 Z  M 19 25 C 20.959 25 22.828 25.371 24.565 26.018 L 19.655 37.066 C 19.441 37.031 19.224 37 19 37 C 16.794 37 15 38.794 15 41 C 15 41.159 15.029 41.31 15.047 41.465 L 3.758 45.855 C 3.269 44.323 3 42.693 3 41 C 3 32.178 10.178 25 19 25 Z  M 17.144 41.732 C 17.143 41.729 17.144 41.726 17.142 41.723 C 17.141 41.722 17.14 41.721 17.139 41.719 C 17.053 41.495 17 41.254 17 41 C 17 39.897 17.897 39 19 39 C 19.279 39 19.544 39.058 19.786 39.162 C 19.795 39.166 19.801 39.175 19.81 39.179 C 19.814 39.181 19.818 39.18 19.822 39.181 C 20.515 39.496 21 40.191 21 41 C 21 42.103 20.103 43 19 43 C 18.156 43 17.437 42.473 17.144 41.732 Z  M 4.497 47.713 L 15.764 43.331 C 16.491 44.338 17.667 45 19 45 C 19.159 45 19.31 44.971 19.465 44.953 L 23.855 56.242 C 22.323 56.731 20.693 57 19 57 C 12.577 57 7.041 53.187 4.497 47.713 Z  M 25.714 55.504 L 21.332 44.237 C 22.338 43.509 23 42.334 23 41 C 23 39.735 22.398 38.619 21.479 37.885 L 26.395 26.825 C 31.502 29.501 35 34.846 35 41 C 35 47.423 31.188 52.959 25.714 55.504 Z " fill="rgb(74,134,232)"/></g></g></svg>