<?xml version="1.0" encoding="UTF-8" standalone="no"?><!-- Generator: Gravit.io --><svg xmlns="http://www.w3.org/2000/svg" xmlns:xlink="http://www.w3.org/1999/xlink" style="isolation:isolate" viewBox="0 0 60 60" width="60pt" height="60pt"><defs><clipPath id="_clipPath_CBXw68PGaUiiBcgjyb9Vquc9Uc6zf5QI"><rect width="60" height="60"/></clipPath></defs><g clip-path="url(#_clipPath_CBXw68PGaUiiBcgjyb9Vquc9Uc6zf5QI)"><rect width="60" height="60" style="fill:rgb(0,0,0)" fill-opacity="0"/><g><path d=" M 30.023 56.004 C 20.751 56.004 12.114 51.022 7.483 43 C 0.315 30.584 4.584 14.651 17 7.483 C 20.952 5.202 25.438 3.996 29.977 3.996 C 39.249 3.996 47.886 8.978 52.517 17 C 59.685 29.416 55.416 45.349 43 52.517 C 39.048 54.798 34.562 56.004 30.023 56.004 Z  M 29.977 5.996 C 25.789 5.996 21.649 7.109 18 9.216 C 12.448 12.421 8.478 17.597 6.818 23.788 C 5.159 29.98 6.011 36.448 9.216 42 C 13.49 49.404 21.464 54.004 30.024 54.004 C 34.212 54.004 38.352 52.891 42.001 50.784 C 47.553 47.579 51.523 42.403 53.183 36.212 C 54.842 30.02 53.991 23.552 50.786 18 C 46.51 10.596 38.536 5.996 29.977 5.996 Z " fill="rgb(255,153,0)"/><path d=" M 55.614 43.634 L 37.5 33.268 C 37.021 32.992 36.41 33.154 36.134 33.634 C 35.858 34.113 36.022 34.724 36.5 35 L 54.614 45.366 C 54.771 45.457 54.943 45.5 55.113 45.5 C 55.459 45.5 55.795 45.321 55.98 45 C 56.257 44.521 56.093 43.91 55.614 43.634 Z " fill="rgb(255,153,0)"/><path d=" M 23.866 33.634 C 23.59 33.154 22.978 32.991 22.5 33.268 L 4.386 43.634 L 5.386 45.366 L 23.5 35 C 23.978 34.724 24.142 34.112 23.866 33.634 Z " fill="rgb(255,153,0)"/><rect x="29" y="5" width="2" height="17" transform="matrix(1,0,0,1,0,0)" fill="rgb(255,153,0)"/><g><path d=" M 23.46 1.729 C 23.318 1.195 22.771 0.88 22.235 1.022 C 21.702 1.165 21.385 1.713 21.528 2.247 L 22.563 6.11 C 22.682 6.557 23.086 6.851 23.528 6.851 C 23.614 6.851 23.701 6.84 23.788 6.817 C 24.321 6.674 24.638 6.126 24.495 5.592 L 23.46 1.729 Z " fill="rgb(74,134,232)"/><path d=" M 37.437 53.89 C 37.294 53.356 36.746 53.04 36.212 53.183 C 35.678 53.326 35.362 53.874 35.505 54.408 L 36.54 58.271 C 36.659 58.718 37.063 59.012 37.505 59.012 C 37.591 59.012 37.678 59.001 37.765 58.978 C 38.298 58.835 38.615 58.287 38.472 57.753 L 37.437 53.89 Z " fill="rgb(74,134,232)"/><path d=" M 59 29 L 55 29 C 54.447 29 54 29.447 54 30 C 54 30.553 54.447 31 55 31 L 59 31 C 59.553 31 60 30.553 60 30 C 60 29.447 59.553 29 59 29 Z " fill="rgb(74,134,232)"/><path d=" M 5 31 C 5.553 31 6 30.553 6 30 C 6 29.447 5.553 29 5 29 L 1 29 C 0.447 29 0 29.447 0 30 C 0 30.553 0.447 31 1 31 L 5 31 Z " fill="rgb(74,134,232)"/><path d=" M 48.385 46.971 C 47.994 46.58 47.362 46.58 46.971 46.971 C 46.58 47.362 46.58 47.994 46.971 48.385 L 49.799 51.213 C 49.994 51.408 50.25 51.506 50.506 51.506 C 50.762 51.506 51.018 51.408 51.213 51.213 C 51.604 50.822 51.604 50.19 51.213 49.799 L 48.385 46.971 Z " fill="rgb(74,134,232)"/><path d=" M 10.201 8.787 C 9.81 8.396 9.178 8.396 8.787 8.787 C 8.396 9.178 8.396 9.81 8.787 10.201 L 11.615 13.029 C 11.81 13.224 12.066 13.322 12.322 13.322 C 12.578 13.322 12.834 13.224 13.029 13.029 C 13.42 12.638 13.42 12.006 13.029 11.615 L 10.201 8.787 Z " fill="rgb(74,134,232)"/><path d=" M 47.678 13.322 C 47.934 13.322 48.19 13.224 48.385 13.029 L 51.213 10.201 C 51.604 9.81 51.604 9.178 51.213 8.787 C 50.822 8.396 50.19 8.396 49.799 8.787 L 46.971 11.615 C 46.58 12.006 46.58 12.638 46.971 13.029 C 47.166 13.225 47.422 13.322 47.678 13.322 Z " fill="rgb(74,134,232)"/><path d=" M 11.615 46.971 L 8.787 49.799 C 8.396 50.19 8.396 50.822 8.787 51.213 C 8.982 51.408 9.238 51.506 9.494 51.506 C 9.75 51.506 10.006 51.408 10.201 51.213 L 13.029 48.385 C 13.42 47.994 13.42 47.362 13.029 46.971 C 12.638 46.58 12.006 46.58 11.615 46.971 Z " fill="rgb(74,134,232)"/><path d=" M 16.366 4.386 C 16.089 3.905 15.476 3.743 15 4.02 C 14.521 4.296 14.357 4.908 14.634 5.386 L 16.634 8.85 C 16.82 9.171 17.155 9.35 17.501 9.35 C 17.671 9.35 17.843 9.307 18 9.216 C 18.479 8.94 18.643 8.328 18.366 7.85 L 16.366 4.386 Z " fill="rgb(74,134,232)"/><path d=" M 43.366 51.15 C 43.09 50.67 42.476 50.506 42 50.784 C 41.521 51.06 41.357 51.672 41.634 52.15 L 43.634 55.614 C 43.82 55.935 44.155 56.114 44.501 56.114 C 44.671 56.114 44.843 56.071 45 55.98 C 45.479 55.704 45.643 55.092 45.366 54.614 L 43.366 51.15 Z " fill="rgb(74,134,232)"/><path d=" M 30 54 C 29.447 54 29 54.447 29 55 L 29 59 C 29 59.553 29.447 60 30 60 C 30.553 60 31 59.553 31 59 L 31 55 C 31 54.447 30.553 54 30 54 Z " fill="rgb(74,134,232)"/><path d=" M 30 0 C 29.447 0 29 0.447 29 1 L 29 5 C 29 5.553 29.447 6 30 6 C 30.553 6 31 5.553 31 5 L 31 1 C 31 0.447 30.553 0 30 0 Z " fill="rgb(74,134,232)"/><path d=" M 4.386 16.366 L 7.85 18.366 C 8.007 18.457 8.179 18.5 8.349 18.5 C 8.695 18.5 9.031 18.321 9.216 18 C 9.492 17.521 9.328 16.91 8.85 16.634 L 5.386 14.634 C 4.908 14.356 4.296 14.521 4.02 15 C 3.743 15.479 3.907 16.09 4.386 16.366 Z " fill="rgb(74,134,232)"/><path d=" M 55.614 43.634 L 52.15 41.634 C 51.671 41.358 51.06 41.52 50.784 42 C 50.508 42.479 50.672 43.09 51.15 43.366 L 54.614 45.366 C 54.771 45.457 54.943 45.5 55.113 45.5 C 55.459 45.5 55.795 45.321 55.98 45 C 56.257 44.521 56.093 43.91 55.614 43.634 Z " fill="rgb(74,134,232)"/><path d=" M 1.729 23.46 L 5.592 24.495 C 5.679 24.518 5.766 24.529 5.852 24.529 C 6.293 24.529 6.698 24.235 6.817 23.788 C 6.96 23.255 6.643 22.706 6.11 22.563 L 2.247 21.528 C 1.716 21.388 1.165 21.702 1.022 22.235 C 0.879 22.768 1.196 23.317 1.729 23.46 Z " fill="rgb(74,134,232)"/><path d=" M 58.271 36.54 L 54.408 35.505 C 53.876 35.363 53.326 35.678 53.183 36.212 C 53.04 36.745 53.357 37.294 53.89 37.437 L 57.753 38.472 C 57.84 38.495 57.927 38.506 58.013 38.506 C 58.454 38.506 58.859 38.212 58.978 37.765 C 59.12 37.231 58.804 36.683 58.271 36.54 Z " fill="rgb(74,134,232)"/><path d=" M 6.817 36.212 C 6.674 35.678 6.126 35.362 5.592 35.505 L 1.729 36.54 C 1.196 36.683 0.879 37.231 1.022 37.765 C 1.141 38.212 1.545 38.506 1.987 38.506 C 2.073 38.506 2.16 38.495 2.247 38.472 L 6.11 37.437 C 6.644 37.294 6.96 36.745 6.817 36.212 Z " fill="rgb(74,134,232)"/><path d=" M 53.183 23.788 C 53.302 24.235 53.706 24.529 54.148 24.529 C 54.234 24.529 54.321 24.518 54.408 24.495 L 58.271 23.46 C 58.804 23.317 59.121 22.769 58.978 22.235 C 58.835 21.701 58.289 21.387 57.753 21.528 L 53.89 22.563 C 53.356 22.706 53.04 23.255 53.183 23.788 Z " fill="rgb(74,134,232)"/><path d=" M 9.216 42 C 8.939 41.52 8.325 41.357 7.85 41.634 L 4.386 43.634 C 3.907 43.91 3.743 44.521 4.02 45 C 4.206 45.321 4.541 45.5 4.887 45.5 C 5.057 45.5 5.229 45.457 5.386 45.366 L 8.85 43.366 C 9.328 43.09 9.492 42.479 9.216 42 Z " fill="rgb(74,134,232)"/><path d=" M 50.784 18 C 50.97 18.321 51.305 18.5 51.651 18.5 C 51.821 18.5 51.993 18.457 52.15 18.366 L 55.614 16.366 C 56.093 16.09 56.257 15.478 55.98 15 C 55.703 14.521 55.089 14.356 54.614 14.634 L 51.15 16.634 C 50.672 16.91 50.508 17.521 50.784 18 Z " fill="rgb(74,134,232)"/><path d=" M 45 4.02 C 44.522 3.744 43.91 3.906 43.634 4.386 L 41.634 7.85 C 41.357 8.328 41.521 8.939 42 9.216 C 42.157 9.307 42.329 9.35 42.499 9.35 C 42.845 9.35 43.181 9.171 43.366 8.85 L 45.366 5.386 C 45.643 4.907 45.479 4.296 45 4.02 Z " fill="rgb(74,134,232)"/><path d=" M 18 50.784 C 17.522 50.507 16.91 50.67 16.634 51.15 L 14.634 54.614 C 14.358 55.093 14.522 55.704 15 55.98 C 15.157 56.071 15.329 56.114 15.499 56.114 C 15.845 56.114 16.181 55.935 16.366 55.614 L 18.366 52.15 C 18.643 51.672 18.479 51.061 18 50.784 Z " fill="rgb(74,134,232)"/><path d=" M 37.765 1.022 C 37.235 0.881 36.683 1.196 36.54 1.729 L 35.505 5.592 C 35.362 6.125 35.679 6.674 36.212 6.817 C 36.299 6.84 36.386 6.851 36.472 6.851 C 36.913 6.851 37.318 6.557 37.437 6.11 L 38.472 2.247 C 38.614 1.714 38.298 1.165 37.765 1.022 Z " fill="rgb(74,134,232)"/><path d=" M 23.788 53.183 C 23.257 53.041 22.706 53.356 22.563 53.89 L 21.528 57.753 C 21.385 58.286 21.702 58.835 22.235 58.978 C 22.322 59.001 22.409 59.012 22.495 59.012 C 22.936 59.012 23.341 58.718 23.46 58.271 L 24.495 54.408 C 24.638 53.874 24.321 53.325 23.788 53.183 Z " fill="rgb(74,134,232)"/></g><path d=" M 38.659 25.001 C 35.898 20.219 29.783 18.58 25.001 21.342 C 20.219 24.103 18.58 30.218 21.341 35 C 24.102 39.782 30.217 41.421 34.999 38.66 C 39.781 35.898 41.42 29.783 38.659 25.001 Z  M 32.5 34.329 C 30.109 35.71 27.052 34.89 25.671 32.499 C 24.29 30.108 25.11 27.051 27.501 25.67 C 29.892 24.289 32.949 25.109 34.33 27.5 C 35.71 29.892 34.891 32.949 32.5 34.329 Z " fill="rgb(74,134,232)"/></g></g></svg>