<?xml version="1.0" encoding="UTF-8" standalone="no"?><!-- Generator: Gravit.io --><svg xmlns="http://www.w3.org/2000/svg" xmlns:xlink="http://www.w3.org/1999/xlink" style="isolation:isolate" viewBox="0 0 60 60" width="60pt" height="60pt"><defs><clipPath id="_clipPath_c2KBOtR3mapVGF2z5BeovAcyWtNpKzsm"><rect width="60" height="60"/></clipPath></defs><g clip-path="url(#_clipPath_c2KBOtR3mapVGF2z5BeovAcyWtNpKzsm)"><rect width="60" height="60" style="fill:rgb(0,0,0)" fill-opacity="0"/><g><circle vector-effect="non-scaling-stroke" cx="30.000000000000004" cy="30" r="29" fill="rgb(255,153,0)"/><path d=" M 34.407 42.999 C 34.202 42.999 33.995 42.936 33.817 42.806 L 18.817 31.806 C 18.372 31.479 18.275 30.853 18.602 30.408 C 18.929 29.965 19.554 29.866 20 30.193 L 35 41.193 C 35.445 41.52 35.542 42.146 35.215 42.591 C 35.018 42.857 34.715 42.999 34.407 42.999 Z " fill="rgb(74,134,232)"/><path d=" M 19.41 26.999 C 19.102 26.999 18.799 26.857 18.602 26.591 C 18.276 26.146 18.372 25.52 18.817 25.193 L 33.817 14.193 C 34.263 13.866 34.888 13.964 35.215 14.408 C 35.541 14.853 35.445 15.479 35 15.806 L 20 26.806 C 19.822 26.937 19.615 26.999 19.41 26.999 Z " fill="rgb(74,134,232)"/><circle vector-effect="non-scaling-stroke" cx="16.000000000000004" cy="29" r="5" fill="rgb(74,134,232)"/><circle vector-effect="non-scaling-stroke" cx="39" cy="13.999999999999996" r="5" fill="rgb(74,134,232)"/><circle vector-effect="non-scaling-stroke" cx="39" cy="44" r="5" fill="rgb(74,134,232)"/></g></g></svg>