<?xml version="1.0" encoding="UTF-8" standalone="no"?><!-- Generator: Gravit.io --><svg xmlns="http://www.w3.org/2000/svg" xmlns:xlink="http://www.w3.org/1999/xlink" style="isolation:isolate" viewBox="0 0 60 60" width="60pt" height="60pt"><defs><clipPath id="_clipPath_VZDKEt6lSzV5igJP6MuMF4D6Prv6sWp9"><rect width="60" height="60"/></clipPath></defs><g clip-path="url(#_clipPath_VZDKEt6lSzV5igJP6MuMF4D6Prv6sWp9)"><rect width="60" height="60" style="fill:rgb(0,0,0)" fill-opacity="0"/><g><circle vector-effect="non-scaling-stroke" cx="12.5" cy="29.956000000000003" r="9" fill="rgb(255,153,0)"/><circle vector-effect="non-scaling-stroke" cx="47.50000000000001" cy="49.5" r="9" fill="rgb(255,153,0)"/><circle vector-effect="non-scaling-stroke" cx="47.50000000000001" cy="10.500000000000004" r="9" fill="rgb(255,153,0)"/><g><path d=" M 20.517 26.86 C 20.693 26.86 20.871 26.814 21.032 26.716 L 39.94 15.328 C 40.413 15.043 40.565 14.429 40.28 13.956 C 39.995 13.482 39.381 13.329 38.907 13.615 L 20 25.004 C 19.527 25.289 19.375 25.903 19.66 26.376 C 19.847 26.688 20.177 26.86 20.517 26.86 Z " fill="rgb(74,134,232)"/><path d=" M 39.942 44.671 L 21.035 33.194 C 20.563 32.907 19.948 33.056 19.661 33.53 C 19.374 34.002 19.525 34.617 19.997 34.903 L 38.904 46.38 C 39.066 46.479 39.245 46.526 39.422 46.526 C 39.76 46.526 40.089 46.355 40.278 46.045 C 40.565 45.572 40.415 44.957 39.942 44.671 Z " fill="rgb(74,134,232)"/></g></g></g></svg>