<?xml version="1.0" encoding="UTF-8" standalone="no"?><!-- Generator: Gravit.io --><svg xmlns="http://www.w3.org/2000/svg" xmlns:xlink="http://www.w3.org/1999/xlink" style="isolation:isolate" viewBox="0 0 60 60" width="60pt" height="60pt"><defs><clipPath id="_clipPath_ZqDteTCZlp1LqFSswr8lULcdETcVGYF9"><rect width="60" height="60"/></clipPath></defs><g clip-path="url(#_clipPath_ZqDteTCZlp1LqFSswr8lULcdETcVGYF9)"><rect width="60" height="60" style="fill:rgb(0,0,0)" fill-opacity="0"/><g><g><path d=" M 31.727 22.545 L 42.333 22.545 L 42.333 29.97 L 54 21.485 L 42.333 13 L 42.333 20.424 L 31.727 20.424 C 24.125 20.424 17.939 26.61 17.939 34.212 C 17.939 40.645 12.705 45.879 6.273 45.879 L 4.152 45.879 C 3.565 45.879 3.091 46.353 3.091 46.939 C 3.091 47.526 3.565 48 4.152 48 L 6.273 48 C 13.875 48 20.061 41.815 20.061 34.212 C 20.061 27.78 25.295 22.545 31.727 22.545 Z " fill="rgb(255,153,0)"/><path d=" M 5.339 21.374 L 7.713 21.374 C 10.934 21.374 14.026 22.554 16.422 24.697 C 16.649 24.9 16.933 25 17.214 25 C 17.539 25 17.865 24.867 18.098 24.605 C 18.535 24.116 18.494 23.365 18.006 22.928 C 15.174 20.395 11.519 19 7.713 19 L 5.339 19 C 4.682 19 4.152 19.531 4.152 20.187 C 4.152 20.844 4.682 21.374 5.339 21.374 Z " fill="rgb(74,134,232)"/><path d=" M 42.306 42.087 L 31.056 42.087 C 28.036 42.087 25.128 40.989 22.869 38.996 C 22.406 38.585 21.694 38.628 21.281 39.096 C 20.871 39.561 20.914 40.272 21.381 40.683 C 24.051 43.04 27.488 44.337 31.056 44.337 L 42.306 44.337 L 42.306 52.212 L 54.681 43.212 L 42.306 34.212 L 42.306 42.087 Z " fill="rgb(74,134,232)"/></g></g></g></svg>