<?xml version="1.0" encoding="UTF-8" standalone="no"?><!-- Generator: Gravit.io --><svg xmlns="http://www.w3.org/2000/svg" xmlns:xlink="http://www.w3.org/1999/xlink" style="isolation:isolate" viewBox="0 0 60 60" width="60pt" height="60pt"><defs><clipPath id="_clipPath_V6VWcHRmwUQ1FIfVckd1u5kTxAyfkoCo"><rect width="60" height="60"/></clipPath></defs><g clip-path="url(#_clipPath_V6VWcHRmwUQ1FIfVckd1u5kTxAyfkoCo)"><rect width="60" height="60" style="fill:rgb(0,0,0)" fill-opacity="0"/><g><circle vector-effect="non-scaling-stroke" cx="30" cy="30.000000000000004" r="29" fill="rgb(255,153,0)"/><path d=" M 13 44 C 11.896 44 11 43.104 11 42 C 11 40.896 11.896 40 13 40 C 18.514 40 23 35.514 23 30 C 23 28.896 23.896 28 25 28 C 26.104 28 27 28.896 27 30 C 27 37.72 20.72 44 13 44 Z " fill="rgb(74,134,232)"/><path d=" M 25 32 C 23.896 32 23 31.104 23 30 C 23 22.28 29.28 16 37 16 L 47 16 C 48.104 16 49 16.896 49 18 C 49 19.104 48.104 20 47 20 L 37 20 C 31.486 20 27 24.486 27 30 C 27 31.104 26.104 32 25 32 Z " fill="rgb(74,134,232)"/><path d=" M 47 44 L 37 44 C 33.584 44 30.294 42.758 27.737 40.502 C 26.909 39.771 26.83 38.507 27.56 37.679 C 28.29 36.851 29.556 36.772 30.383 37.502 C 32.209 39.113 34.56 40 37 40 L 47 40 C 48.104 40 49 40.896 49 42 C 49 43.104 48.104 44 47 44 Z " fill="rgb(74,134,232)"/><path d=" M 21.002 23.054 C 20.527 23.054 20.051 22.886 19.669 22.544 C 17.836 20.903 15.467 20 13 20 L 11 20 C 9.896 20 9 19.104 9 18 C 9 16.896 9.896 16 11 16 L 13 16 C 16.452 16 19.769 17.266 22.337 19.563 C 23.159 20.299 23.23 21.564 22.493 22.387 C 22.099 22.829 21.552 23.054 21.002 23.054 Z " fill="rgb(74,134,232)"/><path d=" M 13 44 L 11 44 C 9.896 44 9 43.104 9 42 C 9 40.896 9.896 40 11 40 L 13 40 C 14.104 40 15 40.896 15 42 C 15 43.104 14.104 44 13 44 Z " fill="rgb(74,134,232)"/><path d=" M 37.002 28 C 36.384 28 35.774 27.715 35.383 27.177 C 34.733 26.283 34.931 25.032 35.823 24.383 L 44.6 18 L 35.824 11.617 C 34.931 10.968 34.733 9.717 35.384 8.823 C 36.032 7.931 37.283 7.731 38.178 8.383 L 51.4 18 L 38.176 27.617 C 37.821 27.876 37.409 28 37.002 28 Z " fill="rgb(74,134,232)"/><path d=" M 37.002 52 C 36.384 52 35.774 51.715 35.383 51.177 C 34.733 50.283 34.931 49.032 35.823 48.383 L 44.6 42 L 35.824 35.617 C 34.931 34.968 34.733 33.717 35.384 32.823 C 36.032 31.93 37.283 31.732 38.178 32.383 L 51.4 42 L 38.176 51.617 C 37.821 51.876 37.409 52 37.002 52 Z " fill="rgb(74,134,232)"/></g></g></svg>