<?xml version="1.0" encoding="UTF-8" standalone="no"?><!-- Generator: Gravit.io --><svg xmlns="http://www.w3.org/2000/svg" xmlns:xlink="http://www.w3.org/1999/xlink" style="isolation:isolate" viewBox="254.525 344.363 55.88 76" width="55.88pt" height="76pt"><defs><clipPath id="_clipPath_4iTNNhMmCNd8CIxeczHOunOgSwzwA4p9"><rect x="254.525" y="344.363" width="55.88" height="76"/></clipPath></defs><g clip-path="url(#_clipPath_4iTNNhMmCNd8CIxeczHOunOgSwzwA4p9)"><g><mask id="_mask_z28Wl8yelfoiyJIEVavhArDpEbme2pPv" x="-200%" y="-200%" width="400%" height="400%"><rect x="-200%" y="-200%" width="400%" height="400%" style="fill:white;"/><line x1="278.525" y1="351.363" x2="278.525" y2="346.363" fill="black" stroke="none"/></mask><line x1="278.525" y1="351.363" x2="278.525" y2="346.363" mask="url(#_mask_z28Wl8yelfoiyJIEVavhArDpEbme2pPv)" vector-effect="non-scaling-stroke" stroke-width="4" stroke="rgb(74,134,232)" stroke-linejoin="miter" stroke-linecap="round" stroke-miterlimit="10"/><mask id="_mask_2iSi8HAMxngQhX4dTgPESz3Q6kxDDCPO" x="-200%" y="-200%" width="400%" height="400%"><rect x="-200%" y="-200%" width="400%" height="400%" style="fill:white;"/><path d=" M 278.525 400.363 L 278.525 390.081 L 278.525 369.363" fill="black" stroke="none"/></mask><path d=" M 278.525 400.363 L 278.525 390.081 L 278.525 369.363" fill="none" mask="url(#_mask_2iSi8HAMxngQhX4dTgPESz3Q6kxDDCPO)" vector-effect="non-scaling-stroke" stroke-width="4" stroke="rgb(74,134,232)" stroke-linejoin="miter" stroke-linecap="round" stroke-miterlimit="10"/><path d=" M 278.525 400.363 L 278.525 390.081 L 278.525 369.363" fill="none"/><path d=" M 300.525 369.363 L 254.525 369.363 L 254.525 351.363 L 300.525 351.363 L 310.325 360.183 C 310.432 360.279 310.432 360.446 310.325 360.542 L 300.525 369.363 Z " fill="rgb(255,153,0)"/></g></g></svg>