<?xml version="1.0" encoding="UTF-8" standalone="no"?><!-- Generator: Gravit.io --><svg xmlns="http://www.w3.org/2000/svg" xmlns:xlink="http://www.w3.org/1999/xlink" style="isolation:isolate" viewBox="254.525 344.363 54.671 62" width="54.671pt" height="62pt"><defs><clipPath id="_clipPath_PniezGcIdwMu5y1cGITzwPpl8RwY0r1b"><rect x="254.525" y="344.363" width="54.671" height="62"/></clipPath></defs><g clip-path="url(#_clipPath_PniezGcIdwMu5y1cGITzwPpl8RwY0r1b)"><g><mask id="_mask_UaanvzuemlWy6Jk7wgGahfKzG6oiaLiO" x="-200%" y="-200%" width="400%" height="400%"><rect x="-200%" y="-200%" width="400%" height="400%" style="fill:white;"/><line x1="280.524" y1="349.363" x2="280.524" y2="346.363" fill="black" stroke="none"/></mask><line x1="280.524" y1="349.363" x2="280.524" y2="346.363" mask="url(#_mask_UaanvzuemlWy6Jk7wgGahfKzG6oiaLiO)" vector-effect="non-scaling-stroke" stroke-width="4" stroke="rgb(70,70,70)" stroke-linejoin="miter" stroke-linecap="round" stroke-miterlimit="10"/><mask id="_mask_lAjaZWyWdO6lIQBkR9hG4WiO0ifNGiKo" x="-200%" y="-200%" width="400%" height="400%"><rect x="-200%" y="-200%" width="400%" height="400%" style="fill:white;"/><line x1="280.524" y1="404.363" x2="280.524" y2="385.363" fill="black" stroke="none"/></mask><line x1="280.524" y1="404.363" x2="280.524" y2="385.363" mask="url(#_mask_lAjaZWyWdO6lIQBkR9hG4WiO0ifNGiKo)" vector-effect="non-scaling-stroke" stroke-width="4" stroke="rgb(70,70,70)" stroke-linejoin="miter" stroke-linecap="round" stroke-miterlimit="10"/><mask id="_mask_37RIK1XQmDpRselp5jr8zmZ6ZheihQjo" x="-200%" y="-200%" width="400%" height="400%"><rect x="-200%" y="-200%" width="400%" height="400%" style="fill:white;"/><line x1="280.524" y1="365.363" x2="280.524" y2="369.363" fill="black" stroke="none"/></mask><line x1="280.524" y1="365.363" x2="280.524" y2="369.363" mask="url(#_mask_37RIK1XQmDpRselp5jr8zmZ6ZheihQjo)" vector-effect="non-scaling-stroke" stroke-width="4" stroke="rgb(70,70,70)" stroke-linejoin="miter" stroke-linecap="round" stroke-miterlimit="10"/><path d=" M 300.413 365.363 L 261.921 365.363 C 260.597 365.363 259.524 364.29 259.524 362.966 L 259.524 351.76 C 259.524 350.436 260.597 349.363 261.921 349.363 L 300.413 349.363 L 309.124 357.203 C 309.219 357.288 309.219 357.437 309.124 357.522 L 300.413 365.363 Z " fill="rgb(74,134,232)"/><path d=" M 263.307 385.363 L 302.128 385.363 C 303.452 385.363 304.525 384.29 304.525 382.966 L 304.525 371.76 C 304.525 370.436 303.452 369.363 302.128 369.363 L 263.307 369.363 L 254.596 377.203 C 254.501 377.288 254.501 377.437 254.596 377.522 L 263.307 385.363 Z " fill="rgb(255,153,0)"/></g></g></svg>