<?xml version="1.0" encoding="UTF-8" standalone="no"?><!-- Generator: Gravit.io --><svg xmlns="http://www.w3.org/2000/svg" xmlns:xlink="http://www.w3.org/1999/xlink" style="isolation:isolate" viewBox="0 0 60 60" width="60pt" height="60pt"><defs><clipPath id="_clipPath_MvwfS8m0Qb3Pxtyx8a04gDyQ9TEZG81s"><rect width="60" height="60"/></clipPath></defs><g clip-path="url(#_clipPath_MvwfS8m0Qb3Pxtyx8a04gDyQ9TEZG81s)"><rect width="60" height="60" style="fill:rgb(0,0,0)" fill-opacity="0"/><g><circle vector-effect="non-scaling-stroke" cx="30" cy="30.000000000000004" r="29" fill="rgb(255,153,0)"/><g><path d=" M 37 30 L 15 45 L 15 30.273 L 15 15 L 37 30 Z " fill="rgb(74,134,232)"/><path d=" M 15 46 C 14.84 46 14.679 45.962 14.533 45.884 C 14.205 45.711 14 45.371 14 45 L 14 15 C 14 14.629 14.205 14.289 14.533 14.116 C 14.86 13.942 15.257 13.966 15.564 14.174 L 37.564 29.174 C 37.836 29.36 38 29.669 38 30 C 38 30.331 37.836 30.64 37.563 30.826 L 15.563 45.826 C 15.394 45.941 15.197 46 15 46 Z  M 16 16.893 L 16 43.108 L 35.225 30 L 16 16.893 Z " fill="rgb(74,134,232)"/></g><g><rect x="41" y="15" width="5" height="30" transform="matrix(1,0,0,1,0,0)" fill="rgb(74,134,232)"/><path d=" M 47 46 L 40 46 L 40 14 L 47 14 L 47 46 Z  M 42 44 L 45 44 L 45 16 L 42 16 L 42 44 Z " fill="rgb(74,134,232)"/></g></g></g></svg>