<?xml version="1.0" encoding="UTF-8" standalone="no"?><!-- Generator: Gravit.io --><svg xmlns="http://www.w3.org/2000/svg" xmlns:xlink="http://www.w3.org/1999/xlink" style="isolation:isolate" viewBox="268.548 285.557 56 58" width="56pt" height="58pt"><defs><clipPath id="_clipPath_8VhOl5g4mphGOCgn4Z24t13pBCwaK7oZ"><rect x="268.548" y="285.557" width="56" height="58"/></clipPath></defs><g clip-path="url(#_clipPath_8VhOl5g4mphGOCgn4Z24t13pBCwaK7oZ)"><g><g><path d=" M 280.548 289.4 C 280.548 288.72 280.753 288.089 281.097 287.557 L 271.073 290.243 C 269.256 290.73 268.178 292.597 268.665 294.414 L 280.475 338.489 C 280.486 338.531 280.548 338.523 280.548 338.479 L 280.548 289.4 Z " fill="rgb(231,236,237)"/></g><g><path d=" M 312.548 288.4 C 312.548 287.72 312.343 287.089 311.999 286.557 L 322.023 289.243 C 323.84 289.73 324.918 291.597 324.431 293.414 L 312.621 337.489 C 312.61 337.531 312.548 337.523 312.548 337.479 L 312.548 288.4 Z " fill="rgb(231,236,237)"/></g><path d=" M 309.143 343.557 L 283.954 343.557 C 282.073 343.557 280.548 342.032 280.548 340.152 L 280.548 288.962 C 280.548 287.082 282.073 285.557 283.954 285.557 L 309.143 285.557 C 311.024 285.557 312.548 287.082 312.548 288.962 L 312.548 340.151 C 312.548 342.032 311.024 343.557 309.143 343.557 Z " fill="rgb(70,70,70)"/><rect x="280.548" y="291.557" width="32" height="40" transform="matrix(1,0,0,1,0,0)" fill="rgb(74,134,232)"/><circle vector-effect="non-scaling-stroke" cx="296.5477843121586" cy="337.55663092991864" r="3" fill="rgb(209,209,209)"/><path d=" M 296.548 289.557 L 292.548 289.557 C 291.995 289.557 291.548 289.11 291.548 288.557 C 291.548 288.004 291.995 287.557 292.548 287.557 L 296.548 287.557 C 297.101 287.557 297.548 288.004 297.548 288.557 C 297.548 289.11 297.101 289.557 296.548 289.557 Z " fill="rgb(0,0,0)"/><path d=" M 300.548 289.557 L 299.548 289.557 C 298.995 289.557 298.548 289.11 298.548 288.557 C 298.548 288.004 298.995 287.557 299.548 287.557 L 300.548 287.557 C 301.101 287.557 301.548 288.004 301.548 288.557 C 301.548 289.11 301.101 289.557 300.548 289.557 Z " fill="rgb(0,0,0)"/></g></g></svg>