<?xml version="1.0" encoding="UTF-8" standalone="no"?><!-- Generator: Gravit.io --><svg xmlns="http://www.w3.org/2000/svg" xmlns:xlink="http://www.w3.org/1999/xlink" style="isolation:isolate" viewBox="241.95 294.87 50 58" width="50pt" height="58pt"><defs><clipPath id="_clipPath_dK97Zuuk3GFVcXal27tqn3HCCaS8o6EM"><rect x="241.95" y="294.87" width="50" height="58"/></clipPath></defs><g clip-path="url(#_clipPath_dK97Zuuk3GFVcXal27tqn3HCCaS8o6EM)"><g><path d=" M 270.545 352.87 L 245.355 352.87 C 243.475 352.87 241.95 351.345 241.95 349.465 L 241.95 298.275 C 241.95 296.395 243.475 294.87 245.355 294.87 L 270.544 294.87 C 272.425 294.87 273.95 296.395 273.95 298.275 L 273.95 349.464 C 273.95 351.345 272.425 352.87 270.545 352.87 Z " fill="rgb(70,70,70)"/><rect x="241.95" y="300.87" width="32" height="40" transform="matrix(1,0,0,1,0,0)" fill="rgb(231,236,237)"/><circle vector-effect="non-scaling-stroke" cx="257.94961275560513" cy="346.8695668829097" r="3" fill="rgb(209,209,209)"/><path d=" M 257.95 298.87 L 253.95 298.87 C 253.397 298.87 252.95 298.423 252.95 297.87 C 252.95 297.317 253.397 296.87 253.95 296.87 L 257.95 296.87 C 258.503 296.87 258.95 297.317 258.95 297.87 C 258.95 298.423 258.503 298.87 257.95 298.87 Z " fill="rgb(23,23,23)"/><path d=" M 261.95 298.87 L 260.95 298.87 C 260.397 298.87 259.95 298.423 259.95 297.87 C 259.95 297.317 260.397 296.87 260.95 296.87 L 261.95 296.87 C 262.503 296.87 262.95 297.317 262.95 297.87 C 262.95 298.423 262.503 298.87 261.95 298.87 Z " fill="rgb(23,23,23)"/><path d=" M 291.95 306.87 L 255.95 306.87 L 255.95 325.87 L 259.95 325.87 L 259.95 331.87 L 267.95 325.87 L 291.95 325.87 L 291.95 306.87 Z " fill="rgb(255,153,0)"/><g><path d=" M 261.95 314.87 L 271.95 314.87 C 272.502 314.87 272.95 314.423 272.95 313.87 C 272.95 313.317 272.502 312.87 271.95 312.87 L 261.95 312.87 C 261.398 312.87 260.95 313.317 260.95 313.87 C 260.95 314.423 261.398 314.87 261.95 314.87 Z " fill="rgb(74,134,232)"/><path d=" M 285.95 317.87 L 261.95 317.87 C 261.398 317.87 260.95 318.317 260.95 318.87 C 260.95 319.423 261.398 319.87 261.95 319.87 L 285.95 319.87 C 286.502 319.87 286.95 319.423 286.95 318.87 C 286.95 318.317 286.502 317.87 285.95 317.87 Z " fill="rgb(74,134,232)"/></g></g></g></svg>