<?xml version="1.0" encoding="UTF-8" standalone="no"?><!-- Generator: Gravit.io --><svg xmlns="http://www.w3.org/2000/svg" xmlns:xlink="http://www.w3.org/1999/xlink" style="isolation:isolate" viewBox="268.5 285.557 32.048 58" width="32.048pt" height="58pt"><defs><clipPath id="_clipPath_vREkAQP344RoAmdRYBfSHdvvxK8h5isa"><rect x="268.5" y="285.557" width="32.048" height="58"/></clipPath></defs><g clip-path="url(#_clipPath_vREkAQP344RoAmdRYBfSHdvvxK8h5isa)"><g><path d=" M 297.143 343.557 L 271.953 343.557 C 270.073 343.557 268.548 342.032 268.548 340.152 L 268.548 288.962 C 268.548 287.082 270.073 285.557 271.953 285.557 L 297.142 285.557 C 299.023 285.557 300.548 287.082 300.548 288.962 L 300.548 340.151 C 300.548 342.032 299.023 343.557 297.143 343.557 Z " fill="rgb(70,70,70)"/><rect x="269" y="291.557" width="31" height="40" transform="matrix(1,0,0,1,0,0)" fill="rgb(231,236,237)" vector-effect="non-scaling-stroke" stroke-width="1" stroke="rgb(209,209,209)" stroke-linejoin="miter" stroke-linecap="butt" stroke-miterlimit="2"/><circle vector-effect="non-scaling-stroke" cx="284.54780475875737" cy="337.55663092991864" r="3" fill="rgb(232,232,232)"/><path d=" M 284.548 289.557 L 280.548 289.557 C 279.995 289.557 279.548 289.11 279.548 288.557 C 279.548 288.004 279.995 287.557 280.548 287.557 L 284.548 287.557 C 285.101 287.557 285.548 288.004 285.548 288.557 C 285.548 289.11 285.101 289.557 284.548 289.557 Z " fill="rgb(23,23,23)"/><path d=" M 288.548 289.557 L 287.548 289.557 C 286.995 289.557 286.548 289.11 286.548 288.557 C 286.548 288.004 286.995 287.557 287.548 287.557 L 288.548 287.557 C 289.101 287.557 289.548 288.004 289.548 288.557 C 289.548 289.11 289.101 289.557 288.548 289.557 Z " fill="rgb(23,23,23)"/><path d=" M 286.51 302.576 L 282.586 302.576 C 282.013 302.576 281.548 302.111 281.548 301.538 L 281.548 297.614 C 281.548 297.041 282.013 296.576 282.586 296.576 L 286.51 296.576 C 287.083 296.576 287.548 297.041 287.548 297.614 L 287.548 301.538 C 287.548 302.111 287.083 302.576 286.51 302.576 Z " fill="rgb(255,153,0)"/><path d=" M 277.51 302.576 L 273.586 302.576 C 273.013 302.576 272.548 302.111 272.548 301.538 L 272.548 297.614 C 272.548 297.041 273.013 296.576 273.586 296.576 L 277.51 296.576 C 278.083 296.576 278.548 297.041 278.548 297.614 L 278.548 301.538 C 278.548 302.111 278.083 302.576 277.51 302.576 Z " fill="rgb(255,0,0)"/><path d=" M 295.51 302.576 L 291.586 302.576 C 291.013 302.576 290.548 302.111 290.548 301.538 L 290.548 297.614 C 290.548 297.041 291.013 296.576 291.586 296.576 L 295.51 296.576 C 296.083 296.576 296.548 297.041 296.548 297.614 L 296.548 301.538 C 296.548 302.111 296.083 302.576 295.51 302.576 Z " fill="rgb(255,255,0)"/><path d=" M 286.51 311.557 L 282.586 311.557 C 282.013 311.557 281.548 311.092 281.548 310.519 L 281.548 306.595 C 281.548 306.022 282.013 305.557 282.586 305.557 L 286.51 305.557 C 287.083 305.557 287.548 306.022 287.548 306.595 L 287.548 310.519 C 287.548 311.092 287.083 311.557 286.51 311.557 Z " fill="rgb(74,134,232)"/><path d=" M 277.51 311.557 L 273.586 311.557 C 273.013 311.557 272.548 311.092 272.548 310.519 L 272.548 306.595 C 272.548 306.022 273.013 305.557 273.586 305.557 L 277.51 305.557 C 278.083 305.557 278.548 306.022 278.548 306.595 L 278.548 310.519 C 278.548 311.092 278.083 311.557 277.51 311.557 Z " fill="rgb(0,150,136)"/><path d=" M 295.51 311.557 L 291.586 311.557 C 291.013 311.557 290.548 311.092 290.548 310.519 L 290.548 306.595 C 290.548 306.022 291.013 305.557 291.586 305.557 L 295.51 305.557 C 296.083 305.557 296.548 306.022 296.548 306.595 L 296.548 310.519 C 296.548 311.092 296.083 311.557 295.51 311.557 Z " fill="rgb(0,0,255)"/><path d=" M 286.51 320.557 L 282.586 320.557 C 282.013 320.557 281.548 320.092 281.548 319.519 L 281.548 315.595 C 281.548 315.022 282.013 314.557 282.586 314.557 L 286.51 314.557 C 287.083 314.557 287.548 315.022 287.548 315.595 L 287.548 319.519 C 287.548 320.092 287.083 320.557 286.51 320.557 Z " fill="rgb(255,0,255)"/><path d=" M 277.51 320.557 L 273.586 320.557 C 273.013 320.557 272.548 320.092 272.548 319.519 L 272.548 315.595 C 272.548 315.022 273.013 314.557 273.586 314.557 L 277.51 314.557 C 278.083 314.557 278.548 315.022 278.548 315.595 L 278.548 319.519 C 278.548 320.092 278.083 320.557 277.51 320.557 Z " fill="rgb(153,0,255)"/><path d=" M 295.51 320.557 L 291.586 320.557 C 291.013 320.557 290.548 320.092 290.548 319.519 L 290.548 315.595 C 290.548 315.022 291.013 314.557 291.586 314.557 L 295.51 314.557 C 296.083 314.557 296.548 315.022 296.548 315.595 L 296.548 319.519 C 296.548 320.092 296.083 320.557 295.51 320.557 Z " fill="rgb(46,46,46)"/></g></g></svg>