<?xml version="1.0" encoding="UTF-8" standalone="no"?><!-- Generator: Gravit.io --><svg xmlns="http://www.w3.org/2000/svg" xmlns:xlink="http://www.w3.org/1999/xlink" style="isolation:isolate" viewBox="267 295 32 58" width="32pt" height="58pt"><defs><clipPath id="_clipPath_w0qCYhDY7IlhTsR4rgW7rjsYPcTxHh58"><rect x="267" y="295" width="32" height="58"/></clipPath></defs><g clip-path="url(#_clipPath_w0qCYhDY7IlhTsR4rgW7rjsYPcTxHh58)"><g><path d=" M 295.595 353 L 270.405 353 C 268.525 353 267 351.475 267 349.595 L 267 298.405 C 267 296.525 268.525 295 270.405 295 L 295.594 295 C 297.475 295 299 296.525 299 298.405 L 299 349.594 C 299 351.475 297.475 353 295.595 353 Z " fill="rgb(70,70,70)"/><rect x="268" y="301" width="30" height="40" transform="matrix(1,0,0,1,0,0)" fill="rgb(231,236,237)" vector-effect="non-scaling-stroke" stroke-width="1" stroke="rgb(70,70,70)" stroke-linejoin="miter" stroke-linecap="butt" stroke-miterlimit="2"/><circle vector-effect="non-scaling-stroke" cx="283" cy="347" r="3" fill="rgb(209,209,209)"/><path d=" M 283 299 L 279 299 C 278.447 299 278 298.553 278 298 C 278 297.447 278.447 297 279 297 L 283 297 C 283.553 297 284 297.447 284 298 C 284 298.553 283.553 299 283 299 Z " fill="rgb(46,46,46)"/><path d=" M 287 299 L 286 299 C 285.447 299 285 298.553 285 298 C 285 297.447 285.447 297 286 297 L 287 297 C 287.553 297 288 297.447 288 298 C 288 298.553 287.553 299 287 299 Z " fill="rgb(46,46,46)"/><path d=" M 291 306 L 275 306 C 272.791 306 271 307.791 271 310 L 271 312 L 271 314 L 271 318 L 275 314 L 291 314 C 293.209 314 295 312.209 295 310 L 295 310 C 295 307.791 293.209 306 291 306 Z " fill="rgb(255,153,0)"/><path d=" M 275 323 L 291 323 C 293.209 323 295 324.791 295 327 L 295 329 L 295 331 L 295 335 L 291 331 L 275 331 C 272.791 331 271 329.209 271 327 L 271 327 C 271 324.791 272.791 323 275 323 Z " fill="rgb(74,134,232)"/></g></g></svg>