<?xml version="1.0" encoding="UTF-8" standalone="no"?><!-- Generator: Gravit.io --><svg xmlns="http://www.w3.org/2000/svg" xmlns:xlink="http://www.w3.org/1999/xlink" style="isolation:isolate" viewBox="268.548 285.557 43.355 58" width="43.355pt" height="58pt"><defs><clipPath id="_clipPath_20XI1YLwEEGgsFBBWEPhsILAR2zbSHFM"><rect x="268.548" y="285.557" width="43.355" height="58"/></clipPath></defs><g clip-path="url(#_clipPath_20XI1YLwEEGgsFBBWEPhsILAR2zbSHFM)"><g><rect x="286.902" y="332.557" width="24" height="11" transform="matrix(1,0,0,1,0,0)" fill="rgb(200,210,214)"/><path d=" M 302.902 343.557 L 286.902 343.557 L 286.902 332.557 L 296.328 332.557 C 299.959 332.557 302.902 335.5 302.902 339.131 L 302.902 343.557 Z " fill="rgb(231,236,237)"/><circle vector-effect="non-scaling-stroke" cx="296.4018047587574" cy="338.05663092991864" r="2.5" fill="rgb(74,134,232)"/><path d=" M 294.806 296.259 C 296.039 295.717 296.902 294.489 296.902 293.057 C 296.902 291.124 295.335 289.557 293.402 289.557 C 291.969 289.557 290.741 290.42 290.2 291.653 L 294.806 296.259 Z " fill="rgb(230,168,76)"/><path d=" M 299.806 301.259 C 301.039 300.717 301.902 299.489 301.902 298.057 C 301.902 296.124 300.335 294.557 298.402 294.557 C 296.969 294.557 295.741 295.42 295.2 296.653 L 299.806 301.259 Z " fill="rgb(230,168,76)"/><path d=" M 304.806 306.259 C 306.039 305.717 306.902 304.489 306.902 303.057 C 306.902 301.124 305.335 299.557 303.402 299.557 C 301.969 299.557 300.741 300.42 300.2 301.653 L 304.806 306.259 Z " fill="rgb(230,168,76)"/><path d=" M 309.806 311.259 C 311.039 310.717 311.902 309.489 311.902 308.057 C 311.902 306.124 310.335 304.557 308.402 304.557 C 306.969 304.557 305.741 305.42 305.2 306.653 L 309.806 311.259 Z " fill="rgb(230,168,76)"/><path d=" M 289.402 318.557 L 279.402 318.557 C 277.477 318.557 275.902 316.982 275.902 315.057 L 275.902 315.057 C 275.902 313.132 277.477 311.557 279.402 311.557 L 289.402 311.557 C 291.327 311.557 292.902 313.132 292.902 315.057 L 292.902 315.057 C 292.902 316.982 291.327 318.557 289.402 318.557 Z " fill="rgb(230,168,76)"/><g><path d=" M 310.038 317.12 L 298.918 328.24 C 298.022 329.136 296.569 329.136 295.674 328.24 L 285.992 318.557 L 279.403 318.557 C 278.825 318.84 277.248 317.819 277.853 318.338 L 288.665 329.108 C 288.739 329.182 288.825 329.235 288.903 329.302 L 288.903 332.557 L 308.903 332.557 L 308.903 328.047 C 310.722 326.678 311.903 324.509 311.903 322.057 C 311.902 320.164 311.195 318.44 310.038 317.12 Z " fill="rgb(255,153,0)"/></g><path d=" M 286.994 288.446 L 271.437 304.003 L 279.029 311.595 C 279.154 311.582 279.275 311.557 279.402 311.557 L 289.402 311.557 C 291.327 311.557 292.902 313.132 292.902 315.057 C 292.902 316.982 291.327 318.557 289.402 318.557 L 285.991 318.557 L 292.346 324.912 L 307.902 309.355 L 286.994 288.446 Z " fill="rgb(70,70,70)"/><g><path d=" M 286.994 288.446 L 284.777 286.229 C 283.881 285.333 282.428 285.333 281.533 286.229 L 269.22 298.541 C 268.324 299.437 268.324 300.89 269.22 301.786 L 271.437 304.003 L 286.994 288.446 Z " fill="rgb(231,236,237)"/><path d=" M 311.23 312.683 L 307.902 309.355 L 292.346 324.912 L 295.673 328.239 C 296.569 329.135 298.022 329.135 298.917 328.239 L 311.229 315.927 C 312.126 315.032 312.126 313.579 311.23 312.683 Z " fill="rgb(231,236,237)"/></g><circle vector-effect="non-scaling-stroke" cx="302.4018047587574" cy="319.05663092991864" r="2" fill="rgb(255,255,255)" stroke-width="1" stroke="rgb(247,190,106)" stroke-linejoin="miter" stroke-linecap="butt" stroke-miterlimit="4"/><path d=" M 276.902 296.557 C 276.646 296.557 276.39 296.459 276.195 296.264 C 275.804 295.873 275.804 295.241 276.195 294.85 L 278.195 292.85 C 278.586 292.459 279.218 292.459 279.609 292.85 C 280 293.241 280 293.873 279.609 294.264 L 277.609 296.264 C 277.414 296.459 277.158 296.557 276.902 296.557 Z " fill="rgb(70,70,70)"/></g></g></svg>