<?xml version="1.0" encoding="UTF-8" standalone="no"?><!-- Generator: Gravit.io --><svg xmlns="http://www.w3.org/2000/svg" xmlns:xlink="http://www.w3.org/1999/xlink" style="isolation:isolate" viewBox="268.548 281.557 59.998 66" width="59.998pt" height="66pt"><defs><clipPath id="_clipPath_9ThL0Qp5xwYf7s5ug5jBhWiGT6wvV7n6"><rect x="268.548" y="281.557" width="59.998" height="66"/></clipPath></defs><g clip-path="url(#_clipPath_9ThL0Qp5xwYf7s5ug5jBhWiGT6wvV7n6)"><g><mask id="_mask_7MZ58eKziXJIARZ5yHX9aI7J2GogzTc6" x="-200%" y="-200%" width="400%" height="400%"><rect x="-200%" y="-200%" width="400%" height="400%" style="fill:white;"/><path d=" M 311.142 343.557 L 285.952 343.557 C 284.071 343.557 282.547 342.032 282.547 340.152 L 282.547 288.962 C 282.547 287.081 284.072 285.557 285.952 285.557 L 311.141 285.557 C 313.022 285.557 314.546 287.082 314.546 288.962 L 314.546 340.151 C 314.547 342.032 313.022 343.557 311.142 343.557 Z " fill="black" stroke="none"/></mask><path d=" M 311.142 343.557 L 285.952 343.557 C 284.071 343.557 282.547 342.032 282.547 340.152 L 282.547 288.962 C 282.547 287.081 284.072 285.557 285.952 285.557 L 311.141 285.557 C 313.022 285.557 314.546 287.082 314.546 288.962 L 314.546 340.151 C 314.547 342.032 313.022 343.557 311.142 343.557 Z " fill="rgb(231,236,237)" mask="url(#_mask_7MZ58eKziXJIARZ5yHX9aI7J2GogzTc6)" vector-effect="non-scaling-stroke" stroke-width="2" stroke="rgb(209,209,209)" stroke-linejoin="miter" stroke-linecap="butt" stroke-miterlimit="4"/><path d=" M 311.142 343.557 L 285.952 343.557 C 284.071 343.557 282.547 342.032 282.547 340.152 L 282.547 288.962 C 282.547 287.081 284.072 285.557 285.952 285.557 L 311.141 285.557 C 313.022 285.557 314.546 287.082 314.546 288.962 L 314.546 340.151 C 314.547 342.032 313.022 343.557 311.142 343.557 Z " fill="rgb(231,236,237)"/><circle vector-effect="non-scaling-stroke" cx="298.5468047587574" cy="338.55663092991864" r="3" fill="rgb(255,255,255)" stroke-width="1" stroke="rgb(255,153,0)" stroke-linejoin="miter" stroke-linecap="butt" stroke-miterlimit="4"/><path d=" M 298.547 289.557 L 294.547 289.557 C 293.994 289.557 293.547 289.11 293.547 288.557 C 293.547 288.004 293.994 287.557 294.547 287.557 L 298.547 287.557 C 299.1 287.557 299.547 288.004 299.547 288.557 C 299.547 289.11 299.1 289.557 298.547 289.557 Z " fill="rgb(70,70,70)"/><path d=" M 302.547 289.557 L 301.547 289.557 C 300.994 289.557 300.547 289.11 300.547 288.557 C 300.547 288.004 300.994 287.557 301.547 287.557 L 302.547 287.557 C 303.1 287.557 303.547 288.004 303.547 288.557 C 303.547 289.11 303.1 289.557 302.547 289.557 Z " fill="rgb(70,70,70)"/><path d=" M 324.452 305.799 C 324.196 305.799 323.94 305.701 323.745 305.506 C 323.354 305.115 323.354 304.483 323.745 304.092 C 327.481 300.356 327.481 294.277 323.745 290.54 C 323.354 290.149 323.354 289.517 323.745 289.126 C 324.136 288.735 324.768 288.735 325.159 289.126 C 329.675 293.642 329.675 300.99 325.159 305.506 C 324.964 305.702 324.708 305.799 324.452 305.799 Z " fill="rgb(74,134,232)"/><path d=" M 320.241 303.799 C 319.985 303.799 319.729 303.701 319.534 303.506 C 319.143 303.115 319.143 302.483 319.534 302.092 C 320.771 300.856 321.452 299.208 321.452 297.454 C 321.452 295.7 320.771 294.053 319.534 292.815 C 319.143 292.424 319.143 291.792 319.534 291.401 C 319.925 291.01 320.557 291.01 320.948 291.401 C 322.563 293.015 323.452 295.166 323.452 297.454 C 323.452 299.742 322.563 301.892 320.948 303.506 C 320.753 303.702 320.497 303.799 320.241 303.799 Z " fill="rgb(74,134,232)"/><path d=" M 272.642 305.799 C 272.386 305.799 272.13 305.701 271.935 305.506 C 267.419 300.99 267.419 293.642 271.935 289.126 C 272.326 288.735 272.958 288.735 273.349 289.126 C 273.74 289.517 273.74 290.149 273.349 290.54 C 269.613 294.276 269.613 300.355 273.349 304.092 C 273.74 304.483 273.74 305.115 273.349 305.506 C 273.153 305.702 272.898 305.799 272.642 305.799 Z " fill="rgb(74,134,232)"/><path d=" M 276.853 303.524 C 276.597 303.524 276.341 303.426 276.146 303.231 C 274.531 301.617 273.642 299.466 273.642 297.178 C 273.642 294.89 274.531 292.74 276.146 291.126 C 276.537 290.735 277.169 290.735 277.56 291.126 C 277.951 291.517 277.951 292.149 277.56 292.54 C 276.323 293.776 275.642 295.424 275.642 297.178 C 275.642 298.932 276.323 300.579 277.56 301.817 C 277.951 302.208 277.951 302.84 277.56 303.231 C 277.364 303.426 277.109 303.524 276.853 303.524 Z " fill="rgb(74,134,232)"/><rect x="282.547" y="291.557" width="32" height="42" transform="matrix(1,0,0,1,0,0)" fill="rgb(70,70,70)"/></g></g></svg>