<?xml version="1.0" encoding="UTF-8" standalone="no"?><!-- Generator: Gravit.io --><svg xmlns="http://www.w3.org/2000/svg" xmlns:xlink="http://www.w3.org/1999/xlink" style="isolation:isolate" viewBox="240.95 294.87 56 58" width="56pt" height="58pt"><defs><clipPath id="_clipPath_ABoCyHtnQXxxjRWz9Hm6MPNDUGFJzGsJ"><rect x="240.95" y="294.87" width="56" height="58"/></clipPath></defs><g clip-path="url(#_clipPath_ABoCyHtnQXxxjRWz9Hm6MPNDUGFJzGsJ)"><g><path d=" M 293.545 352.87 L 268.355 352.87 C 266.475 352.87 264.95 351.345 264.95 349.465 L 264.95 298.275 C 264.95 296.395 266.475 294.87 268.355 294.87 L 293.544 294.87 C 295.425 294.87 296.95 296.395 296.95 298.275 L 296.95 349.464 C 296.95 351.345 295.425 352.87 293.545 352.87 Z " fill="rgb(70,70,70)"/><rect x="266" y="300.87" width="30" height="40" transform="matrix(1,0,0,1,0,0)" fill="rgb(231,236,237)" vector-effect="non-scaling-stroke" stroke-width="1" stroke="rgb(70,70,70)" stroke-linejoin="miter" stroke-linecap="butt" stroke-miterlimit="2"/><circle vector-effect="non-scaling-stroke" cx="280.94961275560513" cy="346.8695668829097" r="3" fill="rgb(209,209,209)"/><path d=" M 280.95 298.87 L 276.95 298.87 C 276.397 298.87 275.95 298.423 275.95 297.87 C 275.95 297.317 276.397 296.87 276.95 296.87 L 280.95 296.87 C 281.503 296.87 281.95 297.317 281.95 297.87 C 281.95 298.423 281.503 298.87 280.95 298.87 Z " fill="rgb(23,23,23)"/><path d=" M 284.95 298.87 L 283.95 298.87 C 283.397 298.87 282.95 298.423 282.95 297.87 C 282.95 297.317 283.397 296.87 283.95 296.87 L 284.95 296.87 C 285.503 296.87 285.95 297.317 285.95 297.87 C 285.95 298.423 285.503 298.87 284.95 298.87 Z " fill="rgb(23,23,23)"/><line x1="259.316" y1="329.597" x2="241.95" y2="345.87" vector-effect="non-scaling-stroke" stroke-width="2" stroke="rgb(255,153,0)" stroke-linejoin="miter" stroke-linecap="round" stroke-miterlimit="10"/><circle vector-effect="non-scaling-stroke" cx="268.94961275560513" cy="320.8695668829097" r="13" fill="rgb(74,134,232)" stroke-width="2" stroke="rgb(255,153,0)" stroke-linejoin="miter" stroke-linecap="round" stroke-miterlimit="10"/></g></g></svg>