<?xml version="1.0" encoding="UTF-8" standalone="no"?><!-- Generator: Gravit.io --><svg xmlns="http://www.w3.org/2000/svg" xmlns:xlink="http://www.w3.org/1999/xlink" style="isolation:isolate" viewBox="241.95 294.87 32 58" width="32pt" height="58pt"><defs><clipPath id="_clipPath_cO8lVidoI2aOchlnygUHkMCrpN3pRvMj"><rect x="241.95" y="294.87" width="32" height="58"/></clipPath></defs><g clip-path="url(#_clipPath_cO8lVidoI2aOchlnygUHkMCrpN3pRvMj)"><g><path d=" M 270.545 352.87 L 245.355 352.87 C 243.475 352.87 241.95 351.345 241.95 349.465 L 241.95 298.275 C 241.95 296.395 243.475 294.87 245.355 294.87 L 270.544 294.87 C 272.425 294.87 273.95 296.395 273.95 298.275 L 273.95 349.464 C 273.95 351.345 272.425 352.87 270.545 352.87 Z " fill="rgb(70,70,70)"/><rect x="241.95" y="300.87" width="32" height="40" transform="matrix(1,0,0,1,0,0)" fill="rgb(231,236,237)"/><circle vector-effect="non-scaling-stroke" cx="257.94961275560513" cy="346.8695668829097" r="3" fill="rgb(209,209,209)"/><path d=" M 257.95 298.87 L 253.95 298.87 C 253.397 298.87 252.95 298.423 252.95 297.87 C 252.95 297.317 253.397 296.87 253.95 296.87 L 257.95 296.87 C 258.503 296.87 258.95 297.317 258.95 297.87 C 258.95 298.423 258.503 298.87 257.95 298.87 Z " fill="rgb(23,23,23)"/><path d=" M 261.95 298.87 L 260.95 298.87 C 260.397 298.87 259.95 298.423 259.95 297.87 C 259.95 297.317 260.397 296.87 260.95 296.87 L 261.95 296.87 C 262.503 296.87 262.95 297.317 262.95 297.87 C 262.95 298.423 262.503 298.87 261.95 298.87 Z " fill="rgb(23,23,23)"/><circle vector-effect="non-scaling-stroke" cx="257.94961275560513" cy="315.8695668829097" r="12" fill="rgb(74,134,232)"/><path d=" M 260.882 323.437 C 260.435 323.213 260.152 322.756 260.152 322.256 L 260.152 320.898 C 260.249 320.787 260.361 320.645 260.479 320.477 C 260.951 319.811 261.307 319.078 261.555 318.309 C 261.999 318.172 262.326 317.762 262.326 317.275 L 262.326 315.826 C 262.326 315.507 262.184 315.222 261.964 315.023 L 261.964 312.927 C 261.964 312.927 262.394 309.666 257.978 309.666 C 253.562 309.666 253.992 312.927 253.992 312.927 L 253.992 315.023 C 253.771 315.222 253.63 315.507 253.63 315.826 L 253.63 317.275 C 253.63 317.657 253.831 317.993 254.131 318.187 C 254.493 319.764 255.442 320.898 255.442 320.898 L 255.442 322.223 C 255.442 322.706 255.178 323.151 254.754 323.382 L 251.521 325.145 C 251.3 325.265 251.103 325.416 250.924 325.584 C 252.901 327.016 255.323 327.87 257.95 327.87 C 260.573 327.87 262.991 327.019 264.966 325.592 C 264.78 325.427 264.573 325.283 264.344 325.168 L 260.882 323.437 Z " fill="rgb(255,153,0)"/><rect x="244.95" y="331.87" width="26" height="6" transform="matrix(1,0,0,1,0,0)" fill="rgb(74,134,232)"/><rect x="244.95" y="331.87" width="6" height="6" transform="matrix(1,0,0,1,0,0)" fill="rgb(255,153,0)"/></g></g></svg>