<?xml version="1.0" encoding="UTF-8" standalone="no"?><!-- Generator: Gravit.io --><svg xmlns="http://www.w3.org/2000/svg" xmlns:xlink="http://www.w3.org/1999/xlink" style="isolation:isolate" viewBox="0 0 60 60" width="60pt" height="60pt"><defs><clipPath id="_clipPath_RskXQmEr5YyGy5piTkkexiRKnjOpBGkQ"><rect width="60" height="60"/></clipPath></defs><g clip-path="url(#_clipPath_RskXQmEr5YyGy5piTkkexiRKnjOpBGkQ)"><rect width="60" height="60" style="fill:rgb(0,0,0)" fill-opacity="0"/><g><circle vector-effect="non-scaling-stroke" cx="30" cy="30" r="29" fill="rgb(255,153,0)"/><path d=" M 19.427 21 L 11.104 21 C 9.942 21 9 21.942 9 23.104 L 9 35.897 C 9 37.058 9.942 38 11.104 38 L 19.427 38 C 19.802 38 20.17 38.1 20.494 38.29 L 33.83 50.706 C 35.232 51.531 37 50.52 37 48.893 L 37 10.107 C 37 8.48 35.232 7.469 33.83 8.294 L 20.494 20.71 C 20.17 20.9 19.802 21 19.427 21 Z " fill="rgb(74,134,232)"/><path d=" M 41 39 C 40.744 39 40.488 38.902 40.293 38.707 C 39.902 38.316 39.902 37.684 40.293 37.293 C 44.59 32.996 44.59 26.004 40.293 21.707 C 39.902 21.316 39.902 20.684 40.293 20.293 C 40.684 19.902 41.316 19.902 41.707 20.293 C 46.784 25.37 46.784 33.63 41.707 38.707 C 41.512 38.902 41.256 39 41 39 Z " fill="rgb(74,134,232)"/></g></g></svg>