<?xml version="1.0" encoding="UTF-8" standalone="no"?><!-- Generator: Gravit.io --><svg xmlns="http://www.w3.org/2000/svg" xmlns:xlink="http://www.w3.org/1999/xlink" style="isolation:isolate" viewBox="0 0 60 60" width="60pt" height="60pt"><defs><clipPath id="_clipPath_bA5zbju9gluCa8nSzpVGA4b0glbRnptC"><rect width="60" height="60"/></clipPath></defs><g clip-path="url(#_clipPath_bA5zbju9gluCa8nSzpVGA4b0glbRnptC)"><rect width="60" height="60" style="fill:rgb(0,0,0)" fill-opacity="0"/><g><circle vector-effect="non-scaling-stroke" cx="30" cy="30" r="29" fill="rgb(255,153,0)"/><path d=" M 17.427 21 L 9.104 21 C 7.942 21 7 21.942 7 23.104 L 7 35.897 C 7 37.058 7.942 38 9.104 38 L 17.427 38 C 17.802 38 18.17 38.1 18.494 38.29 L 31.83 50.706 C 33.232 51.531 35 50.52 35 48.893 L 35 10.107 C 35 8.48 33.232 7.469 31.83 8.294 L 18.494 20.71 C 18.17 20.9 17.802 21 17.427 21 Z " fill="rgb(74,134,232)"/><path d=" M 42.541 43.042 C 42.285 43.042 42.029 42.944 41.834 42.749 C 41.443 42.358 41.443 41.726 41.834 41.335 C 48.072 35.097 48.072 24.945 41.834 18.707 C 41.443 18.316 41.443 17.684 41.834 17.293 C 42.225 16.902 42.857 16.902 43.248 17.293 C 50.266 24.312 50.266 35.731 43.248 42.749 C 43.052 42.944 42.796 43.042 42.541 43.042 Z " fill="rgb(74,134,232)"/><path d=" M 39 39 C 38.744 39 38.488 38.902 38.293 38.707 C 37.902 38.316 37.902 37.684 38.293 37.293 C 42.59 32.996 42.59 26.004 38.293 21.707 C 37.902 21.316 37.902 20.684 38.293 20.293 C 38.684 19.902 39.316 19.902 39.707 20.293 C 44.784 25.37 44.784 33.63 39.707 38.707 C 39.512 38.902 39.256 39 39 39 Z " fill="rgb(74,134,232)"/><path d=" M 45.476 48 C 45.22 48 44.964 47.902 44.769 47.707 C 44.378 47.316 44.378 46.684 44.769 46.293 C 49.125 41.938 51.524 36.151 51.524 30 C 51.524 23.849 49.125 18.062 44.769 13.707 C 44.378 13.316 44.378 12.684 44.769 12.293 C 45.16 11.902 45.792 11.902 46.183 12.293 C 50.917 17.026 53.524 23.314 53.524 30 C 53.524 36.686 50.917 42.974 46.183 47.707 C 45.988 47.902 45.732 48 45.476 48 Z " fill="rgb(74,134,232)"/></g></g></svg>