<?xml version="1.0" encoding="UTF-8" standalone="no"?><!-- Generator: Gravit.io --><svg xmlns="http://www.w3.org/2000/svg" xmlns:xlink="http://www.w3.org/1999/xlink" style="isolation:isolate" viewBox="0 0 60 60" width="60pt" height="60pt"><defs><clipPath id="_clipPath_MHfrNJXaIMYAmuGbStY48rlDxPhhF9kD"><rect width="60" height="60"/></clipPath></defs><g clip-path="url(#_clipPath_MHfrNJXaIMYAmuGbStY48rlDxPhhF9kD)"><rect width="60" height="60" style="fill:rgb(0,0,0)" fill-opacity="0"/><g><path d=" M 32.315 8.516 L 37.722 19.472 C 38.098 20.234 38.825 20.762 39.666 20.884 L 51.757 22.641 C 53.875 22.949 54.72 25.551 53.188 27.044 L 44.439 35.572 C 43.831 36.165 43.552 37.02 43.697 37.857 L 45.762 49.899 C 46.124 52.008 43.91 53.616 42.015 52.621 L 31.202 46.936 C 30.45 46.541 29.551 46.541 28.799 46.936 L 17.985 52.621 C 16.09 53.617 13.877 52.008 14.238 49.899 L 16.304 37.857 C 16.447 37.02 16.17 36.165 15.561 35.572 L 6.812 27.044 C 5.28 25.55 6.125 22.948 8.243 22.641 L 20.335 20.884 C 21.175 20.762 21.902 20.234 22.278 19.472 L 27.685 8.516 C 28.632 6.597 31.368 6.597 32.315 8.516 Z " fill="rgb(247,208,68)"/></g></g></svg>