<?xml version="1.0" encoding="UTF-8" standalone="no"?><!-- Generator: Gravit.io --><svg xmlns="http://www.w3.org/2000/svg" xmlns:xlink="http://www.w3.org/1999/xlink" style="isolation:isolate" viewBox="0 0 60 60" width="60pt" height="60pt"><defs><clipPath id="_clipPath_Wk4B8D8lc1zsJlfcMmzQfHYz28xGfiLy"><rect width="60" height="60"/></clipPath></defs><g clip-path="url(#_clipPath_Wk4B8D8lc1zsJlfcMmzQfHYz28xGfiLy)"><rect width="60" height="60" style="fill:rgb(0,0,0)" fill-opacity="0"/><g><path d=" M 11.615 15.115 C 11.359 15.115 11.103 15.017 10.908 14.822 L 7.373 11.287 C 6.982 10.896 6.982 10.264 7.373 9.873 C 7.764 9.482 8.396 9.482 8.787 9.873 L 12.322 13.408 C 12.713 13.799 12.713 14.431 12.322 14.822 C 12.127 15.017 11.871 15.115 11.615 15.115 Z " fill="rgb(139,139,139)"/><path d=" M 48.385 15.115 C 48.129 15.115 47.873 15.017 47.678 14.822 C 47.287 14.431 47.287 13.799 47.678 13.408 L 51.213 9.873 C 51.604 9.482 52.236 9.482 52.627 9.873 C 53.018 10.264 53.018 10.896 52.627 11.287 L 49.092 14.822 C 48.896 15.017 48.641 15.115 48.385 15.115 Z " fill="rgb(139,139,139)"/><circle vector-effect="non-scaling-stroke" cx="30.0000999" cy="32.5" r="26" fill="rgb(255,255,255)"/><path d=" M 32 5.582 L 32 3.5 L 34.5 3.5 C 35.328 3.5 36 2.828 36 2 L 36 2 C 36 1.172 35.328 0.5 34.5 0.5 L 25.5 0.5 C 24.672 0.5 24 1.172 24 2 L 24 2 C 24 2.828 24.671 3.5 25.5 3.5 L 28 3.5 L 28 5.582 C 14.044 6.61 3 18.285 3 32.5 C 3 47.388 15.112 59.5 30 59.5 C 44.888 59.5 57 47.388 57 32.5 C 57 18.285 45.956 6.61 32 5.582 Z  M 30 57.5 C 16.215 57.5 5 46.285 5 32.5 C 5 18.715 16.215 7.5 30 7.5 C 43.785 7.5 55 18.715 55 32.5 C 55 46.285 43.785 57.5 30 57.5 Z " fill="rgb(70,70,70)"/><rect x="3.665" y="6.166" width="6" height="5.999" transform="matrix(0.707,-0.707,0.707,0.707,-4.529,7.399)" fill="rgb(255,153,0)"/><rect x="50.334" y="6.166" width="6.001" height="6" transform="matrix(0.707,-0.707,0.707,0.707,9.14,40.397)" fill="rgb(74,134,232)"/><g><path d=" M 30 5.5 C 29.447 5.5 29 5.947 29 6.5 L 29 9.5 C 29 10.053 29.447 10.5 30 10.5 C 30.553 10.5 31 10.053 31 9.5 L 31 6.5 C 31 5.947 30.553 5.5 30 5.5 Z " fill="rgb(70,70,70)"/><path d=" M 30 54.5 C 29.447 54.5 29 54.947 29 55.5 L 29 58.5 C 29 59.053 29.447 59.5 30 59.5 C 30.553 59.5 31 59.053 31 58.5 L 31 55.5 C 31 54.947 30.553 54.5 30 54.5 Z " fill="rgb(70,70,70)"/><path d=" M 56 31.5 L 53 31.5 C 52.447 31.5 52 31.947 52 32.5 C 52 33.053 52.447 33.5 53 33.5 L 56 33.5 C 56.553 33.5 57 33.053 57 32.5 C 57 31.947 56.553 31.5 56 31.5 Z " fill="rgb(70,70,70)"/><path d=" M 7 33.5 C 7.553 33.5 8 33.053 8 32.5 C 8 31.947 7.553 31.5 7 31.5 L 4 31.5 C 3.447 31.5 3 31.947 3 32.5 C 3 33.053 3.447 33.5 4 33.5 L 7 33.5 Z " fill="rgb(70,70,70)"/><path d=" M 46.264 17.236 C 46.52 17.236 46.776 17.138 46.971 16.943 L 49.092 14.822 C 49.483 14.431 49.483 13.799 49.092 13.408 C 48.701 13.017 48.069 13.017 47.678 13.408 L 45.557 15.529 C 45.166 15.92 45.166 16.552 45.557 16.943 C 45.752 17.138 46.008 17.236 46.264 17.236 Z " fill="rgb(70,70,70)"/><path d=" M 13.029 48.056 L 10.908 50.177 C 10.517 50.568 10.517 51.2 10.908 51.591 C 11.103 51.786 11.359 51.884 11.615 51.884 C 11.871 51.884 12.127 51.786 12.322 51.591 L 14.443 49.47 C 14.834 49.079 14.834 48.447 14.443 48.056 C 14.052 47.665 13.42 47.666 13.029 48.056 Z " fill="rgb(70,70,70)"/><path d=" M 46.971 48.056 C 46.58 47.665 45.948 47.665 45.557 48.056 C 45.166 48.447 45.166 49.079 45.557 49.47 L 47.678 51.591 C 47.873 51.786 48.129 51.884 48.385 51.884 C 48.641 51.884 48.897 51.786 49.092 51.591 C 49.483 51.2 49.483 50.568 49.092 50.177 L 46.971 48.056 Z " fill="rgb(70,70,70)"/><path d=" M 12.322 13.408 C 11.931 13.017 11.299 13.017 10.908 13.408 C 10.517 13.799 10.517 14.431 10.908 14.822 L 13.029 16.943 C 13.224 17.138 13.48 17.236 13.736 17.236 C 13.992 17.236 14.248 17.138 14.443 16.943 C 14.834 16.552 14.834 15.92 14.443 15.529 L 12.322 13.408 Z " fill="rgb(70,70,70)"/><path d=" M 24.236 7.127 C 24.093 6.594 23.547 6.277 23.011 6.42 C 22.478 6.563 22.161 7.111 22.304 7.645 L 23.08 10.543 C 23.199 10.989 23.603 11.284 24.045 11.284 C 24.131 11.284 24.218 11.273 24.305 11.25 C 24.838 11.107 25.155 10.559 25.012 10.025 L 24.236 7.127 Z " fill="rgb(70,70,70)"/><path d=" M 36.919 54.458 C 36.776 53.924 36.228 53.606 35.694 53.751 C 35.161 53.894 34.844 54.442 34.987 54.976 L 35.763 57.873 C 35.882 58.32 36.286 58.614 36.728 58.614 C 36.814 58.614 36.901 58.603 36.988 58.58 C 37.521 58.437 37.838 57.889 37.695 57.355 L 36.919 54.458 Z " fill="rgb(70,70,70)"/><path d=" M 51.25 26.806 C 51.37 27.253 51.773 27.547 52.215 27.547 C 52.301 27.547 52.388 27.536 52.475 27.513 L 55.373 26.736 C 55.906 26.593 56.224 26.045 56.08 25.511 C 55.936 24.977 55.389 24.662 54.855 24.804 L 51.957 25.581 C 51.424 25.724 51.106 26.273 51.25 26.806 Z " fill="rgb(70,70,70)"/><path d=" M 8.75 38.194 C 8.608 37.66 8.06 37.342 7.525 37.487 L 4.627 38.263 C 4.094 38.406 3.777 38.954 3.92 39.488 C 4.039 39.935 4.443 40.229 4.885 40.229 C 4.971 40.229 5.058 40.218 5.145 40.195 L 8.043 39.419 C 8.576 39.276 8.892 38.727 8.75 38.194 Z " fill="rgb(70,70,70)"/><path d=" M 43.5 9.117 C 43.022 8.84 42.41 9.005 42.134 9.483 L 40.634 12.082 C 40.358 12.561 40.522 13.172 41 13.448 C 41.157 13.539 41.329 13.582 41.499 13.582 C 41.845 13.582 42.181 13.402 42.366 13.082 L 43.866 10.483 C 44.142 10.005 43.978 9.393 43.5 9.117 Z " fill="rgb(70,70,70)"/><path d=" M 19 51.552 C 18.522 51.275 17.91 51.438 17.634 51.918 L 16.134 54.516 C 15.858 54.995 16.022 55.606 16.5 55.882 C 16.657 55.973 16.829 56.016 16.999 56.016 C 17.345 56.016 17.681 55.837 17.866 55.516 L 19.366 52.918 C 19.642 52.44 19.478 51.829 19 51.552 Z " fill="rgb(70,70,70)"/><path d=" M 53.016 44.634 L 50.418 43.134 C 49.94 42.857 49.328 43.02 49.052 43.5 C 48.776 43.979 48.94 44.59 49.418 44.866 L 52.016 46.366 C 52.174 46.457 52.346 46.5 52.516 46.5 C 52.862 46.5 53.198 46.321 53.383 46 C 53.659 45.521 53.495 44.91 53.016 44.634 Z " fill="rgb(70,70,70)"/><path d=" M 6.983 20.366 L 9.581 21.866 C 9.738 21.957 9.91 22 10.08 22 C 10.426 22 10.762 21.821 10.947 21.5 C 11.223 21.021 11.059 20.41 10.581 20.134 L 7.983 18.634 C 7.505 18.357 6.893 18.521 6.617 19 C 6.341 19.478 6.505 20.09 6.983 20.366 Z " fill="rgb(70,70,70)"/><path d=" M 17.866 9.483 C 17.589 9.005 16.975 8.84 16.5 9.117 C 16.021 9.393 15.857 10.005 16.134 10.483 L 17.634 13.082 C 17.82 13.402 18.155 13.582 18.501 13.582 C 18.671 13.582 18.843 13.539 19 13.448 C 19.479 13.172 19.643 12.56 19.366 12.082 L 17.866 9.483 Z " fill="rgb(70,70,70)"/><path d=" M 42.366 51.919 C 42.089 51.439 41.476 51.275 41 51.553 C 40.521 51.829 40.357 52.441 40.634 52.919 L 42.134 55.517 C 42.32 55.838 42.655 56.017 43.001 56.017 C 43.171 56.017 43.343 55.974 43.5 55.883 C 43.979 55.607 44.143 54.995 43.866 54.517 L 42.366 51.919 Z " fill="rgb(70,70,70)"/><path d=" M 49.053 21.5 C 49.239 21.821 49.574 22 49.92 22 C 50.09 22 50.262 21.957 50.419 21.866 L 53.017 20.366 C 53.496 20.09 53.66 19.478 53.383 19 C 53.106 18.521 52.493 18.356 52.017 18.634 L 49.419 20.134 C 48.94 20.41 48.776 21.021 49.053 21.5 Z " fill="rgb(70,70,70)"/><path d=" M 10.947 43.5 C 10.67 43.02 10.057 42.856 9.581 43.134 L 6.983 44.634 C 6.505 44.91 6.341 45.521 6.617 46 C 6.803 46.321 7.139 46.5 7.484 46.5 C 7.654 46.5 7.826 46.457 7.983 46.366 L 10.581 44.866 C 11.059 44.59 11.224 43.978 10.947 43.5 Z " fill="rgb(70,70,70)"/><path d=" M 36.988 6.42 C 36.456 6.278 35.906 6.594 35.763 7.127 L 34.987 10.025 C 34.844 10.558 35.161 11.107 35.694 11.25 C 35.781 11.273 35.868 11.284 35.954 11.284 C 36.395 11.284 36.8 10.989 36.919 10.543 L 37.695 7.645 C 37.838 7.111 37.521 6.562 36.988 6.42 Z " fill="rgb(70,70,70)"/><path d=" M 24.306 53.751 C 23.773 53.607 23.224 53.924 23.081 54.458 L 22.305 57.355 C 22.162 57.888 22.479 58.437 23.012 58.58 C 23.099 58.603 23.186 58.614 23.272 58.614 C 23.713 58.614 24.118 58.32 24.237 57.873 L 25.013 54.976 C 25.155 54.442 24.839 53.893 24.306 53.751 Z " fill="rgb(70,70,70)"/><path d=" M 55.373 38.263 L 52.475 37.487 C 51.944 37.343 51.393 37.661 51.25 38.194 C 51.107 38.727 51.424 39.276 51.957 39.419 L 54.855 40.195 C 54.942 40.218 55.029 40.229 55.115 40.229 C 55.556 40.229 55.961 39.934 56.08 39.488 C 56.223 38.955 55.906 38.406 55.373 38.263 Z " fill="rgb(70,70,70)"/><path d=" M 4.627 26.736 L 7.525 27.513 C 7.612 27.536 7.699 27.547 7.785 27.547 C 8.226 27.547 8.63 27.253 8.75 26.806 C 8.894 26.273 8.576 25.724 8.043 25.581 L 5.145 24.804 C 4.612 24.663 4.064 24.977 3.92 25.511 C 3.776 26.045 4.094 26.594 4.627 26.736 Z " fill="rgb(70,70,70)"/></g><path d=" M 19 21.5 L 19 21.5 L 31.944 30.863 C 33.218 31.789 33.363 33.635 32.249 34.749 L 32.249 34.749 C 31.135 35.863 29.29 35.718 28.363 34.444 L 19 21.5 Z " fill="rgb(255,153,0)"/></g></g></svg>