<?xml version="1.0" encoding="UTF-8" standalone="no"?><!-- Generator: Gravit.io --><svg xmlns="http://www.w3.org/2000/svg" xmlns:xlink="http://www.w3.org/1999/xlink" style="isolation:isolate" viewBox="0 0 60 60" width="60pt" height="60pt"><defs><clipPath id="_clipPath_O4W379DeWfKJ1lHUTYsbkmRfywmshefI"><rect width="60" height="60"/></clipPath></defs><g clip-path="url(#_clipPath_O4W379DeWfKJ1lHUTYsbkmRfywmshefI)"><rect width="60" height="60" style="fill:rgb(0,0,0)" fill-opacity="0"/><g><g><path d=" M 30 1 C 13.984 1 1 13.984 1 30 C 1 38.629 4.778 46.366 10.761 51.677 C 16.033 47.501 22.692 45 29.939 45 C 37.22 45 43.906 47.524 49.19 51.734 C 55.203 46.42 59 38.656 59 30 C 59 13.984 46.016 1 30 1 Z " fill="rgb(255,153,0)"/></g><g><path d=" M 30 4 C 29.447 4 29 4.447 29 5 L 29 7 C 29 7.553 29.447 8 30 8 C 30.553 8 31 7.553 31 7 L 31 5 C 31 4.447 30.553 4 30 4 Z " fill="rgb(74,134,232)"/><path d=" M 55.5 29 L 53.5 29 C 52.947 29 52.5 29.447 52.5 30 C 52.5 30.553 52.947 31 53.5 31 L 55.5 31 C 56.053 31 56.5 30.553 56.5 30 C 56.5 29.447 56.053 29 55.5 29 Z " fill="rgb(74,134,232)"/><path d=" M 7.5 30 C 7.5 29.447 7.053 29 6.5 29 L 4.5 29 C 3.947 29 3.5 29.447 3.5 30 C 3.5 30.553 3.947 31 4.5 31 L 6.5 31 C 7.053 31 7.5 30.552 7.5 30 Z " fill="rgb(74,134,232)"/><path d=" M 43.25 7.551 C 42.771 7.275 42.16 7.438 41.884 7.917 L 40.884 9.648 C 40.608 10.127 40.772 10.738 41.25 11.014 C 41.407 11.105 41.579 11.148 41.749 11.148 C 42.095 11.148 42.431 10.969 42.616 10.648 L 43.616 8.917 C 43.893 8.438 43.729 7.827 43.25 7.551 Z " fill="rgb(74,134,232)"/><path d=" M 52.584 42.384 L 50.852 41.384 C 50.374 41.108 49.761 41.272 49.486 41.75 C 49.21 42.229 49.374 42.84 49.852 43.116 L 51.584 44.116 C 51.741 44.207 51.913 44.25 52.083 44.25 C 52.429 44.25 52.765 44.07 52.95 43.75 C 53.227 43.271 53.063 42.66 52.584 42.384 Z " fill="rgb(74,134,232)"/><path d=" M 10.148 17.884 L 8.416 16.884 C 7.938 16.608 7.326 16.772 7.05 17.25 C 6.774 17.728 6.938 18.34 7.416 18.616 L 9.148 19.616 C 9.305 19.707 9.477 19.75 9.647 19.75 C 9.993 19.75 10.329 19.57 10.514 19.25 C 10.791 18.771 10.627 18.16 10.148 17.884 Z " fill="rgb(74,134,232)"/><path d=" M 18.111 7.883 C 17.835 7.404 17.221 7.24 16.745 7.517 C 16.266 7.793 16.102 8.405 16.379 8.883 L 17.379 10.615 C 17.565 10.935 17.9 11.115 18.246 11.115 C 18.416 11.115 18.588 11.072 18.745 10.981 C 19.224 10.705 19.388 10.093 19.111 9.615 L 18.111 7.883 Z " fill="rgb(74,134,232)"/><path d=" M 50.099 19.284 C 50.269 19.284 50.441 19.241 50.598 19.15 L 52.329 18.15 C 52.808 17.874 52.972 17.262 52.695 16.784 C 52.418 16.305 51.805 16.14 51.329 16.418 L 49.598 17.418 C 49.119 17.694 48.955 18.306 49.232 18.784 C 49.417 19.105 49.753 19.284 50.099 19.284 Z " fill="rgb(74,134,232)"/><path d=" M 8.894 40.918 L 7.163 41.918 C 6.684 42.194 6.52 42.806 6.797 43.284 C 6.983 43.605 7.318 43.784 7.664 43.784 C 7.834 43.784 8.006 43.741 8.163 43.65 L 9.894 42.65 C 10.373 42.374 10.537 41.762 10.26 41.284 C 9.982 40.804 9.37 40.641 8.894 40.918 Z " fill="rgb(74,134,232)"/></g><path d=" M 10.752 51.683 C 15.873 56.232 22.612 59 30 59 C 37.361 59 44.076 56.252 49.19 51.734 C 43.906 47.524 37.22 45 29.939 45 C 22.688 45 16.025 47.504 10.752 51.683 Z " fill="rgb(74,134,232)"/><path d=" M 43.021 18.172 C 42.63 17.781 41.998 17.781 41.607 18.172 L 33.22 26.56 C 31.683 25.563 29.495 25.727 28.172 27.051 C 27.416 27.805 27 28.81 27 29.879 C 27 30.948 27.416 31.952 28.172 32.707 C 28.927 33.463 29.932 33.879 31 33.879 C 32.068 33.879 33.073 33.463 33.828 32.707 C 34.584 31.952 35 30.947 35 29.879 C 35 29.234 34.832 28.62 34.545 28.063 L 43.021 19.586 C 43.411 19.195 43.411 18.562 43.021 18.172 Z  M 32.414 31.293 C 31.658 32.049 30.342 32.049 29.586 31.293 C 29.208 30.915 29 30.413 29 29.879 C 29 29.345 29.208 28.843 29.586 28.465 C 29.964 28.087 30.466 27.879 31 27.879 C 31.534 27.879 32.036 28.087 32.414 28.465 C 32.792 28.843 33 29.344 33 29.879 C 33 30.414 32.792 30.915 32.414 31.293 Z " fill="rgb(74,134,232)"/><path d=" M 42.021 17.172 C 41.63 16.781 40.998 16.781 40.607 17.172 L 32.22 25.56 C 30.683 24.563 28.495 24.727 27.172 26.051 C 26.416 26.805 26 27.81 26 28.879 C 26 29.948 26.416 30.952 27.172 31.707 C 27.927 32.463 28.932 32.879 30 32.879 C 31.068 32.879 32.073 32.463 32.828 31.707 C 33.584 30.952 34 29.947 34 28.879 C 34 28.234 33.832 27.62 33.545 27.063 L 42.021 18.586 C 42.411 18.195 42.411 17.562 42.021 17.172 Z  M 31.414 30.293 C 30.658 31.049 29.342 31.049 28.586 30.293 C 28.208 29.915 28 29.413 28 28.879 C 28 28.345 28.208 27.843 28.586 27.465 C 28.964 27.087 29.466 26.879 30 26.879 C 30.534 26.879 31.036 27.087 31.414 27.465 C 31.792 27.843 32 28.344 32 28.879 C 32 29.414 31.792 29.915 31.414 30.293 Z " fill="rgb(255,255,255)"/></g></g></svg>