<?xml version="1.0" encoding="UTF-8" standalone="no"?><!-- Generator: Gravit.io --><svg xmlns="http://www.w3.org/2000/svg" xmlns:xlink="http://www.w3.org/1999/xlink" style="isolation:isolate" viewBox="0 0 60 60" width="60pt" height="60pt"><defs><clipPath id="_clipPath_HVdxui3PdYJ3PnddACohWTc6PA3o8L92"><rect width="60" height="60"/></clipPath></defs><g clip-path="url(#_clipPath_HVdxui3PdYJ3PnddACohWTc6PA3o8L92)"><rect width="60" height="60" style="fill:rgb(0,0,0)" fill-opacity="0"/><g><circle vector-effect="non-scaling-stroke" cx="29.999999999999993" cy="30" r="29" fill="rgb(74,134,232)"/><path d=" M 58.978 37.765 C 58.979 37.762 58.978 37.758 58.979 37.755 C 59.641 35.28 60 32.681 60 30 C 60 27.319 59.641 24.72 58.978 22.245 C 58.977 22.242 58.978 22.238 58.978 22.238 C 58.976 22.231 58.973 22.228 58.972 22.224 C 58.291 19.691 57.285 17.291 56.003 15.068 C 55.992 15.046 55.992 15.021 55.98 14.999 C 55.968 14.978 55.946 14.966 55.933 14.945 C 54.635 12.717 53.064 10.668 51.256 8.851 C 51.239 8.831 51.232 8.805 51.213 8.786 C 51.194 8.767 51.168 8.76 51.148 8.743 C 49.331 6.935 47.282 5.364 45.054 4.066 C 45.034 4.053 45.022 4.032 45 4.02 C 44.978 4.007 44.953 4.007 44.93 3.997 C 42.707 2.716 40.308 1.709 37.775 1.028 C 37.771 1.027 37.768 1.024 37.765 1.023 C 37.762 1.022 37.758 1.023 37.755 1.023 C 35.28 0.359 32.681 0 30 0 C 27.319 0 24.72 0.359 22.245 1.022 C 22.242 1.023 22.238 1.022 22.235 1.022 C 22.231 1.023 22.228 1.026 22.225 1.027 C 19.692 1.707 17.293 2.714 15.07 3.995 C 15.047 4.007 15.022 4.007 15 4.02 C 14.978 4.032 14.966 4.054 14.946 4.067 C 12.718 5.365 10.669 6.936 8.852 8.744 C 8.832 8.761 8.806 8.768 8.787 8.787 C 8.768 8.806 8.761 8.832 8.744 8.852 C 6.937 10.669 5.365 12.718 4.067 14.946 C 4.053 14.967 4.032 14.979 4.02 15 C 4.007 15.022 4.008 15.046 3.997 15.069 C 2.715 17.292 1.709 19.692 1.028 22.225 C 1.027 22.229 1.024 22.231 1.023 22.235 C 1.023 22.235 1.023 22.242 1.022 22.245 C 0.359 24.72 0 27.319 0 30 C 0 32.681 0.359 35.28 1.022 37.755 C 1.023 37.758 1.022 37.762 1.023 37.765 C 1.024 37.77 1.028 37.773 1.029 37.778 C 1.71 40.31 2.716 42.709 3.997 44.932 C 4.007 44.954 4.007 44.978 4.02 45 C 4.038 45.031 4.064 45.055 4.085 45.083 C 5.38 47.299 6.945 49.339 8.745 51.147 C 8.762 51.167 8.769 51.193 8.788 51.212 C 8.807 51.231 8.833 51.238 8.853 51.255 C 10.669 53.062 12.717 54.632 14.944 55.93 C 14.965 55.945 14.978 55.967 15.001 55.98 C 15.035 56 15.072 56.009 15.108 56.024 C 17.321 57.295 19.707 58.294 22.226 58.971 C 22.23 58.972 22.233 58.975 22.236 58.976 C 22.241 58.977 22.246 58.977 22.251 58.978 C 24.724 59.642 27.32 60 30 60 C 32.68 60 35.276 59.642 37.75 58.979 C 37.755 58.978 37.76 58.978 37.765 58.977 C 37.769 58.976 37.772 58.973 37.775 58.972 C 40.294 58.295 42.68 57.296 44.893 56.025 C 44.929 56.01 44.966 56.001 45 55.981 C 45.023 55.968 45.036 55.945 45.057 55.931 C 47.283 54.633 49.332 53.063 51.148 51.256 C 51.168 51.239 51.194 51.232 51.213 51.213 C 51.232 51.194 51.239 51.168 51.256 51.148 C 53.055 49.339 54.621 47.3 55.916 45.084 C 55.937 45.055 55.963 45.032 55.981 45.001 C 55.994 44.979 55.993 44.955 56.004 44.932 C 57.285 42.71 58.291 40.311 58.972 37.778 C 58.973 37.773 58.976 37.77 58.978 37.765 Z  M 54.855 37.695 L 56.77 38.208 C 56.244 39.921 55.555 41.564 54.726 43.12 L 53.017 42.133 C 52.539 41.857 51.927 42.02 51.651 42.499 C 51.375 42.978 51.539 43.589 52.017 43.865 L 53.721 44.849 C 52.774 46.357 51.688 47.768 50.48 49.065 L 49.092 47.677 C 48.701 47.286 48.069 47.286 47.678 47.677 C 47.287 48.068 47.287 48.7 47.678 49.091 L 49.066 50.479 C 47.769 51.687 46.358 52.773 44.85 53.72 L 43.866 52.015 C 43.589 51.536 42.976 51.372 42.5 51.649 C 42.021 51.925 41.857 52.537 42.134 53.015 L 43.121 54.724 C 41.564 55.553 39.922 56.242 38.209 56.768 L 37.696 54.853 C 37.553 54.319 37.007 54.002 36.471 54.146 C 35.938 54.289 35.621 54.837 35.764 55.371 L 36.276 57.28 C 34.571 57.672 32.808 57.908 31.001 57.972 L 31.001 54 C 31.001 53.447 30.554 53 30.001 53 C 29.448 53 29.001 53.447 29.001 54 L 29.001 57.975 C 27.194 57.911 25.431 57.675 23.726 57.283 L 24.238 55.374 C 24.381 54.841 24.064 54.292 23.531 54.149 C 22.998 54.006 22.449 54.322 22.306 54.856 L 21.793 56.771 C 20.08 56.245 18.438 55.556 16.881 54.727 L 17.868 53.018 C 18.144 52.539 17.98 51.928 17.502 51.652 C 17.024 51.376 16.413 51.54 16.136 52.018 L 15.152 53.723 C 13.644 52.776 12.233 51.69 10.936 50.482 L 12.324 49.094 C 12.715 48.703 12.715 48.071 12.324 47.68 C 11.933 47.289 11.301 47.289 10.91 47.68 L 9.52 49.066 C 8.312 47.769 7.226 46.358 6.279 44.85 L 7.983 43.866 C 8.462 43.59 8.626 42.979 8.35 42.5 C 8.073 42.021 7.461 41.857 6.984 42.134 L 5.275 43.121 C 4.446 41.564 3.757 39.922 3.231 38.209 L 5.146 37.696 C 5.679 37.553 5.996 37.005 5.853 36.471 C 5.711 35.937 5.163 35.619 4.628 35.764 L 2.719 36.275 C 2.326 34.57 2.089 32.807 2.025 31 L 6 31 C 6.553 31 7 30.553 7 30 C 7 29.447 6.553 29 6 29 L 2.025 29 C 2.089 27.193 2.325 25.43 2.717 23.725 L 4.626 24.236 C 4.713 24.259 4.8 24.27 4.886 24.27 C 5.327 24.27 5.732 23.976 5.851 23.529 C 5.994 22.996 5.677 22.447 5.144 22.304 L 3.23 21.792 C 3.756 20.079 4.445 18.436 5.274 16.88 L 6.983 17.867 C 7.141 17.957 7.312 18 7.482 18 C 7.828 18 8.164 17.821 8.349 17.5 C 8.625 17.021 8.461 16.41 7.983 16.134 L 6.279 15.15 C 7.226 13.642 8.312 12.231 9.52 10.934 L 10.908 12.322 C 11.103 12.517 11.359 12.615 11.615 12.615 C 11.871 12.615 12.127 12.517 12.322 12.322 C 12.713 11.931 12.713 11.299 12.322 10.908 L 10.934 9.52 C 12.231 8.312 13.642 7.226 15.15 6.279 L 16.134 7.983 C 16.32 8.304 16.655 8.483 17.001 8.483 C 17.171 8.483 17.343 8.44 17.5 8.349 C 17.979 8.073 18.143 7.461 17.866 6.983 L 16.879 5.274 C 18.436 4.445 20.078 3.756 21.791 3.23 L 22.304 5.145 C 22.423 5.592 22.827 5.886 23.269 5.886 C 23.355 5.886 23.442 5.875 23.529 5.852 C 24.062 5.709 24.379 5.161 24.236 4.627 L 23.724 2.718 C 25.43 2.326 27.193 2.089 29 2.025 L 29 6 C 29 6.553 29.447 7 30 7 C 30.553 7 31 6.553 31 6 L 31 2.025 C 32.807 2.089 34.57 2.325 36.275 2.717 L 35.763 4.626 C 35.62 5.159 35.937 5.708 36.47 5.851 C 36.557 5.874 36.644 5.885 36.73 5.885 C 37.171 5.885 37.576 5.591 37.695 5.144 L 38.208 3.229 C 39.921 3.755 41.564 4.444 43.12 5.273 L 42.133 6.982 C 41.857 7.461 42.021 8.072 42.499 8.348 C 42.656 8.439 42.828 8.482 42.998 8.482 C 43.344 8.482 43.68 8.303 43.865 7.982 L 44.849 6.278 C 46.357 7.225 47.768 8.311 49.065 9.519 L 47.677 10.907 C 47.286 11.298 47.286 11.93 47.677 12.321 C 47.872 12.516 48.128 12.614 48.384 12.614 C 48.64 12.614 48.896 12.516 49.091 12.321 L 50.479 10.933 C 51.687 12.23 52.773 13.641 53.72 15.149 L 52.016 16.133 C 51.537 16.409 51.373 17.021 51.65 17.499 C 51.836 17.82 52.171 17.999 52.517 17.999 C 52.687 17.999 52.859 17.956 53.016 17.865 L 54.725 16.878 C 55.554 18.435 56.243 20.077 56.769 21.79 L 54.854 22.303 C 54.321 22.446 54.004 22.994 54.147 23.528 C 54.266 23.975 54.67 24.269 55.112 24.269 C 55.198 24.269 55.285 24.258 55.372 24.235 L 57.281 23.724 C 57.673 25.429 57.91 27.192 57.973 28.999 L 54 28.999 C 53.447 28.999 53 29.446 53 29.999 C 53 30.552 53.447 30.999 54 30.999 L 57.975 30.999 C 57.911 32.806 57.675 34.569 57.283 36.274 L 55.374 35.763 C 54.842 35.62 54.292 35.936 54.149 36.47 C 54.006 37.004 54.322 37.553 54.855 37.695 Z " fill="rgb(255,153,0)"/><path d=" M 41 29 L 33.858 29 C 33.494 27.601 32.399 26.505 31 26.142 L 31 13 C 31 12.447 30.553 12 30 12 C 29.447 12 29 12.447 29 13 L 29 26.142 C 27.279 26.589 26 28.141 26 30 C 26 32.206 27.794 34 30 34 C 31.859 34 33.411 32.72 33.858 31 L 41 31 C 41.553 31 42 30.553 42 30 C 42 29.447 41.553 29 41 29 Z  M 30 32 C 28.897 32 28 31.103 28 30 C 28 28.897 28.897 28 30 28 C 31.103 28 32 28.897 32 30 C 32 31.103 31.103 32 30 32 Z " fill="rgb(255,255,255)"/><circle vector-effect="non-scaling-stroke" cx="29.999999999999993" cy="43.00000000000001" r="7" fill="rgb(255,153,0)"/><path d=" M 30 44 C 29.744 44 29.488 43.902 29.293 43.707 L 26.293 40.707 C 25.902 40.316 25.902 39.684 26.293 39.293 C 26.684 38.902 27.316 38.902 27.707 39.293 L 30.707 42.293 C 31.098 42.684 31.098 43.316 30.707 43.707 C 30.512 43.902 30.256 44 30 44 Z " fill="rgb(255,255,255)"/></g></g></svg>