<?xml version="1.0" encoding="UTF-8" standalone="no"?><!-- Generator: Gravit.io --><svg xmlns="http://www.w3.org/2000/svg" xmlns:xlink="http://www.w3.org/1999/xlink" style="isolation:isolate" viewBox="0 0 60 60" width="60pt" height="60pt"><defs><clipPath id="_clipPath_xioiLiPtD1aXpmK8xdb4A4yWbqKRe28e"><rect width="60" height="60"/></clipPath></defs><g clip-path="url(#_clipPath_xioiLiPtD1aXpmK8xdb4A4yWbqKRe28e)"><rect width="60" height="60" style="fill:rgb(0,0,0)" fill-opacity="0"/><g><circle vector-effect="non-scaling-stroke" cx="30.000000000000007" cy="29.999999999999996" r="30.000000000000007" fill="rgb(74,134,232)"/><path d=" M 30 60 C 13.458 60 0 46.542 0 30 C 0 22.007 3.107 14.486 8.749 8.824 C 9.528 8.039 10.796 8.039 11.577 8.818 C 12.36 9.598 12.362 10.864 11.583 11.646 C 6.693 16.555 4 23.072 4 30 C 4 44.337 15.663 56 30 56 C 44.337 56 56 44.337 56 30 C 56 16.337 45.405 5.101 32 4.076 L 32 14.833 C 32 15.937 31.104 16.833 30 16.833 C 28.896 16.833 28 15.937 28 14.833 L 28 2 C 28 0.896 28.896 0 30 0 C 46.542 0 60 13.458 60 30 C 60 46.542 46.542 60 30 60 Z " fill="rgb(255,153,0)"/><path d=" M 20 20.121 L 20 20.121 L 32.944 29.484 C 34.218 30.41 34.363 32.256 33.249 33.37 L 33.249 33.37 C 32.135 34.484 30.29 34.339 29.363 33.065 L 20 20.121 Z " fill="rgb(255,153,0)"/></g></g></svg>