<?xml version="1.0" encoding="UTF-8" standalone="no"?><!-- Generator: Gravit.io --><svg xmlns="http://www.w3.org/2000/svg" xmlns:xlink="http://www.w3.org/1999/xlink" style="isolation:isolate" viewBox="254.525 346.363 41 58" width="41pt" height="58pt"><defs><clipPath id="_clipPath_lZcck7FNZn0lM1KODTWp66oVGVCSkoRk"><rect x="254.525" y="346.363" width="41" height="58"/></clipPath></defs><g clip-path="url(#_clipPath_lZcck7FNZn0lM1KODTWp66oVGVCSkoRk)"><g><line x1="274.525" y1="396.363" x2="274.525" y2="373.363" vector-effect="non-scaling-stroke" stroke-width="2" stroke="rgb(93,93,93)" stroke-linejoin="miter" stroke-linecap="round" stroke-miterlimit="10"/><rect x="266.525" y="400.363" width="16" height="4" transform="matrix(1,0,0,1,0,0)" fill="rgb(46,46,46)"/><rect x="269.525" y="396.363" width="10" height="4" transform="matrix(1,0,0,1,0,0)" fill="rgb(70,70,70)"/><path d=" M 259.525 373.363 L 284.384 373.363 C 285.567 373.363 286.525 372.404 286.525 371.222 L 286.525 365.504 C 286.525 364.321 285.566 363.363 284.384 363.363 L 259.525 363.363 L 254.525 368.363 L 259.525 373.363 Z " fill="rgb(255,153,0)"/><line x1="274.525" y1="357.363" x2="274.525" y2="354.363" vector-effect="non-scaling-stroke" stroke-width="2" stroke="rgb(93,93,93)" stroke-linejoin="miter" stroke-linecap="round" stroke-miterlimit="10"/><path d=" M 290.525 357.363 L 265.666 357.363 C 264.483 357.363 263.525 358.322 263.525 359.504 L 263.525 363.363 L 284.384 363.363 C 285.567 363.363 286.525 364.322 286.525 365.504 L 286.525 367.363 L 290.525 367.363 L 295.525 362.363 L 290.525 357.363 Z " fill="rgb(74,134,232)"/><circle vector-effect="non-scaling-stroke" cx="274.5250611892742" cy="350.3629452949777" r="4" fill="rgb(70,70,70)"/></g></g></svg>