<?xml version="1.0" encoding="UTF-8" standalone="no"?><!-- Generator: Gravit.io --><svg xmlns="http://www.w3.org/2000/svg" xmlns:xlink="http://www.w3.org/1999/xlink" style="isolation:isolate" viewBox="254.525 346.363 38 58" width="38pt" height="58pt"><defs><clipPath id="_clipPath_cUjrMONKMD8JZaehQwmiKwotlMl9vfAt"><rect x="254.525" y="346.363" width="38" height="58"/></clipPath></defs><g clip-path="url(#_clipPath_cUjrMONKMD8JZaehQwmiKwotlMl9vfAt)"><g><path d=" M 273.525 397.363 C 272.973 397.363 272.525 396.916 272.525 396.363 L 272.525 370.363 C 272.525 369.81 272.973 369.363 273.525 369.363 C 274.077 369.363 274.525 369.81 274.525 370.363 L 274.525 396.363 C 274.525 396.916 274.077 397.363 273.525 397.363 Z " fill="rgb(74,134,232)"/><rect x="265.525" y="400.363" width="16" height="4" transform="matrix(1,0,0,1,0,0)" fill="rgb(70,70,70)"/><rect x="268.525" y="396.363" width="10" height="4" transform="matrix(1,0,0,1,0,0)" fill="rgb(74,134,232)"/><path d=" M 273.525 359.363 C 272.973 359.363 272.525 358.916 272.525 358.363 L 272.525 354.363 C 272.525 353.81 272.973 353.363 273.525 353.363 C 274.077 353.363 274.525 353.81 274.525 354.363 L 274.525 358.363 C 274.525 358.916 274.077 359.363 273.525 359.363 Z " fill="rgb(74,134,232)"/><circle vector-effect="non-scaling-stroke" cx="273.5250611892742" cy="350.3629452949777" r="4" fill="rgb(70,70,70)"/><path d=" M 286.525 370.363 L 260.525 370.363 C 257.225 370.363 254.525 367.663 254.525 364.363 L 254.525 364.363 C 254.525 361.063 257.225 358.363 260.525 358.363 L 286.525 358.363 C 289.825 358.363 292.525 361.063 292.525 364.363 L 292.525 364.363 C 292.525 367.663 289.825 370.363 286.525 370.363 Z " fill="rgb(255,153,0)"/><path d=" M 278.525 363.363 L 268.525 363.363 C 267.973 363.363 267.525 362.916 267.525 362.363 C 267.525 361.81 267.973 361.363 268.525 361.363 L 278.525 361.363 C 279.077 361.363 279.525 361.81 279.525 362.363 C 279.525 362.916 279.077 363.363 278.525 363.363 Z " fill="rgb(255,255,255)"/><path d=" M 287.525 367.363 L 260.525 367.363 C 259.973 367.363 259.525 366.916 259.525 366.363 C 259.525 365.81 259.973 365.363 260.525 365.363 L 287.525 365.363 C 288.077 365.363 288.525 365.81 288.525 366.363 C 288.525 366.916 288.077 367.363 287.525 367.363 Z " fill="rgb(255,255,255)"/></g></g></svg>