<?xml version="1.0" encoding="UTF-8" standalone="no"?><!-- Generator: Gravit.io --><svg xmlns="http://www.w3.org/2000/svg" xmlns:xlink="http://www.w3.org/1999/xlink" style="isolation:isolate" viewBox="247.312 302.48 82 70" width="82pt" height="70pt"><defs><clipPath id="_clipPath_JkU7XJESaBfKp5BDvVjASSFddnUTRUn1"><rect x="247.312" y="302.48" width="82" height="70"/></clipPath></defs><g clip-path="url(#_clipPath_JkU7XJESaBfKp5BDvVjASSFddnUTRUn1)"><g><mask id="_mask_YI57bS0Mb7f103CtPpfulRO31RZ17ezr" x="-200%" y="-200%" width="400%" height="400%"><rect x="-200%" y="-200%" width="400%" height="400%" style="fill:white;"/><path d=" M 322.32 352.48 L 270.304 352.48 C 268.652 352.48 267.312 351.14 267.312 349.488 L 267.312 325.472 C 267.312 323.82 268.652 322.48 270.304 322.48 L 322.32 322.48 C 323.972 322.48 325.312 323.82 325.312 325.472 L 325.312 349.488 C 325.312 351.14 323.972 352.48 322.32 352.48 Z " fill="black" stroke="none"/></mask><path d=" M 322.32 352.48 L 270.304 352.48 C 268.652 352.48 267.312 351.14 267.312 349.488 L 267.312 325.472 C 267.312 323.82 268.652 322.48 270.304 322.48 L 322.32 322.48 C 323.972 322.48 325.312 323.82 325.312 325.472 L 325.312 349.488 C 325.312 351.14 323.972 352.48 322.32 352.48 Z " fill="rgb(255,153,0)" mask="url(#_mask_YI57bS0Mb7f103CtPpfulRO31RZ17ezr)" vector-effect="non-scaling-stroke" stroke-width="2" stroke="rgb(255,153,0)" stroke-linejoin="miter" stroke-linecap="butt" stroke-miterlimit="4"/><path d=" M 322.32 352.48 L 270.304 352.48 C 268.652 352.48 267.312 351.14 267.312 349.488 L 267.312 325.472 C 267.312 323.82 268.652 322.48 270.304 322.48 L 322.32 322.48 C 323.972 322.48 325.312 323.82 325.312 325.472 L 325.312 349.488 C 325.312 351.14 323.972 352.48 322.32 352.48 Z " fill="rgb(255,153,0)"/><mask id="_mask_krDyka5jRzgfC1f8HHQNVMN8any5nnFa" x="-200%" y="-200%" width="400%" height="400%"><rect x="-200%" y="-200%" width="400%" height="400%" style="fill:white;"/><path d=" M 294.32 352.48 L 270.304 352.48 C 268.652 352.48 267.312 351.14 267.312 349.488 L 267.312 325.472 C 267.312 323.82 268.652 322.48 270.304 322.48 L 294.32 322.48 C 295.972 322.48 297.312 323.82 297.312 325.472 L 297.312 349.488 C 297.312 351.14 295.972 352.48 294.32 352.48 Z " fill="black" stroke="none"/></mask><path d=" M 294.32 352.48 L 270.304 352.48 C 268.652 352.48 267.312 351.14 267.312 349.488 L 267.312 325.472 C 267.312 323.82 268.652 322.48 270.304 322.48 L 294.32 322.48 C 295.972 322.48 297.312 323.82 297.312 325.472 L 297.312 349.488 C 297.312 351.14 295.972 352.48 294.32 352.48 Z " fill="rgb(255,255,255)" mask="url(#_mask_krDyka5jRzgfC1f8HHQNVMN8any5nnFa)" vector-effect="non-scaling-stroke" stroke-width="4" stroke="rgb(74,134,232)" stroke-linejoin="miter" stroke-linecap="butt" stroke-miterlimit="10"/><path d=" M 294.32 352.48 L 270.304 352.48 C 268.652 352.48 267.312 351.14 267.312 349.488 L 267.312 325.472 C 267.312 323.82 268.652 322.48 270.304 322.48 L 294.32 322.48 C 295.972 322.48 297.312 323.82 297.312 325.472 L 297.312 349.488 C 297.312 351.14 295.972 352.48 294.32 352.48 Z " fill="rgb(255,255,255)"/><line x1="279.312" y1="334.48" x2="279.312" y2="340.48" vector-effect="non-scaling-stroke" stroke-width="2" stroke="rgb(255,153,0)" stroke-linejoin="miter" stroke-linecap="round" stroke-miterlimit="10"/><line x1="282.312" y1="334.48" x2="282.312" y2="340.48" vector-effect="non-scaling-stroke" stroke-width="2" stroke="rgb(255,153,0)" stroke-linejoin="miter" stroke-linecap="round" stroke-miterlimit="10"/><line x1="285.312" y1="334.48" x2="285.312" y2="340.48" vector-effect="non-scaling-stroke" stroke-width="2" stroke="rgb(255,153,0)" stroke-linejoin="miter" stroke-linecap="round" stroke-miterlimit="10"/></g></g></svg>