<?xml version="1.0" encoding="UTF-8" standalone="no"?><!-- Generator: Gravit.io --><svg xmlns="http://www.w3.org/2000/svg" xmlns:xlink="http://www.w3.org/1999/xlink" style="isolation:isolate" viewBox="247.514 327.668 88 86" width="88pt" height="86pt"><defs><clipPath id="_clipPath_aMKklHpmE1CHAOwn9g0VxOk62Z9zL1jj"><rect x="247.514" y="327.668" width="88" height="86"/></clipPath></defs><g clip-path="url(#_clipPath_aMKklHpmE1CHAOwn9g0VxOk62Z9zL1jj)"><g><path d=" M 313.985 399.668 L 269.043 399.668 C 265.437 399.668 262.514 396.745 262.514 393.139 L 262.514 348.197 C 262.514 344.591 265.437 341.668 269.043 341.668 L 313.986 341.668 C 317.591 341.668 320.514 344.591 320.514 348.197 L 320.514 393.14 C 320.514 396.745 317.591 399.668 313.985 399.668 Z " fill="rgb(93,93,93)"/><mask id="_mask_gI5USd0gppBXQHYR7sOMnjfDZfDUVSV0" x="-200%" y="-200%" width="400%" height="400%"><rect x="-200%" y="-200%" width="400%" height="400%" style="fill:white;"/><path d=" M 305.514 367.668 L 277.514 367.668 C 272.014 367.668 267.514 363.168 267.514 357.668 L 267.514 357.668 C 267.514 352.168 272.014 347.668 277.514 347.668 L 305.514 347.668 C 311.014 347.668 315.514 352.168 315.514 357.668 L 315.514 357.668 C 315.514 363.168 311.014 367.668 305.514 367.668 Z " fill="black" stroke="none"/></mask><path d=" M 305.514 367.668 L 277.514 367.668 C 272.014 367.668 267.514 363.168 267.514 357.668 L 267.514 357.668 C 267.514 352.168 272.014 347.668 277.514 347.668 L 305.514 347.668 C 311.014 347.668 315.514 352.168 315.514 357.668 L 315.514 357.668 C 315.514 363.168 311.014 367.668 305.514 367.668 Z " fill="rgb(74,134,232)" mask="url(#_mask_gI5USd0gppBXQHYR7sOMnjfDZfDUVSV0)" vector-effect="non-scaling-stroke" stroke-width="4" stroke="rgb(93,93,93)" stroke-linejoin="miter" stroke-linecap="round" stroke-miterlimit="10"/><path d=" M 305.514 367.668 L 277.514 367.668 C 272.014 367.668 267.514 363.168 267.514 357.668 L 267.514 357.668 C 267.514 352.168 272.014 347.668 277.514 347.668 L 305.514 347.668 C 311.014 347.668 315.514 352.168 315.514 357.668 L 315.514 357.668 C 315.514 363.168 311.014 367.668 305.514 367.668 Z " fill="rgb(74,134,232)"/><mask id="_mask_FlgENpUEFr7f1EFkK1QStgytZSPXnLhD" x="-200%" y="-200%" width="400%" height="400%"><rect x="-200%" y="-200%" width="400%" height="400%" style="fill:white;"/><path d=" M 277.514 393.668 L 305.514 393.668 C 311.014 393.668 315.514 389.168 315.514 383.668 L 315.514 383.668 C 315.514 378.168 311.014 373.668 305.514 373.668 L 277.514 373.668 C 272.014 373.668 267.514 378.168 267.514 383.668 L 267.514 383.668 C 267.514 389.168 272.014 393.668 277.514 393.668 Z " fill="black" stroke="none"/></mask><path d=" M 277.514 393.668 L 305.514 393.668 C 311.014 393.668 315.514 389.168 315.514 383.668 L 315.514 383.668 C 315.514 378.168 311.014 373.668 305.514 373.668 L 277.514 373.668 C 272.014 373.668 267.514 378.168 267.514 383.668 L 267.514 383.668 C 267.514 389.168 272.014 393.668 277.514 393.668 Z " fill="rgb(255,153,0)" mask="url(#_mask_FlgENpUEFr7f1EFkK1QStgytZSPXnLhD)" vector-effect="non-scaling-stroke" stroke-width="4" stroke="rgb(93,93,93)" stroke-linejoin="miter" stroke-linecap="round" stroke-miterlimit="10"/><path d=" M 277.514 393.668 L 305.514 393.668 C 311.014 393.668 315.514 389.168 315.514 383.668 L 315.514 383.668 C 315.514 378.168 311.014 373.668 305.514 373.668 L 277.514 373.668 C 272.014 373.668 267.514 378.168 267.514 383.668 L 267.514 383.668 C 267.514 389.168 272.014 393.668 277.514 393.668 Z " fill="rgb(255,153,0)"/><circle vector-effect="non-scaling-stroke" cx="305.5144033145931" cy="357.668492435846" r="10" fill="rgb(255,153,0)" stroke-width="2" stroke="rgb(255,255,255)" stroke-linejoin="miter" stroke-linecap="round" stroke-miterlimit="10"/><circle vector-effect="non-scaling-stroke" cx="277.5144033145931" cy="383.668492435846" r="10" fill="rgb(74,134,232)" stroke-width="2" stroke="rgb(255,255,255)" stroke-linejoin="miter" stroke-linecap="round" stroke-miterlimit="10"/></g></g></svg>