<?xml version="1.0" encoding="UTF-8" standalone="no"?><!-- Generator: Gravit.io --><svg xmlns="http://www.w3.org/2000/svg" xmlns:xlink="http://www.w3.org/1999/xlink" style="isolation:isolate" viewBox="267.312 302.48 78 70" width="78pt" height="70pt"><defs><clipPath id="_clipPath_gL8MRVdjolZcmlKpwIllbFME2n6tmWCZ"><rect x="267.312" y="302.48" width="78" height="70"/></clipPath></defs><g clip-path="url(#_clipPath_gL8MRVdjolZcmlKpwIllbFME2n6tmWCZ)"><g><path d=" M 270.304 322.48 L 322.32 322.48 C 323.972 322.48 325.312 323.82 325.312 325.472 L 325.312 349.488 C 325.312 351.14 323.972 352.48 322.32 352.48 L 270.304 352.48 C 268.652 352.48 267.312 351.14 267.312 349.488 L 267.312 325.472 C 267.312 323.82 268.652 322.48 270.304 322.48 Z " fill="rgb(74,134,232)"/><mask id="_mask_DylIulT8ItW6ViVUIfFVCOdHtQJblf9k" x="-200%" y="-200%" width="400%" height="400%"><rect x="-200%" y="-200%" width="400%" height="400%" style="fill:white;"/><path d=" M 298.304 322.48 L 322.32 322.48 C 323.972 322.48 325.312 323.82 325.312 325.472 L 325.312 349.488 C 325.312 351.14 323.972 352.48 322.32 352.48 L 298.304 352.48 C 296.652 352.48 295.312 351.14 295.312 349.488 L 295.312 325.472 C 295.312 323.82 296.652 322.48 298.304 322.48 Z " fill="black" stroke="none"/></mask><path d=" M 298.304 322.48 L 322.32 322.48 C 323.972 322.48 325.312 323.82 325.312 325.472 L 325.312 349.488 C 325.312 351.14 323.972 352.48 322.32 352.48 L 298.304 352.48 C 296.652 352.48 295.312 351.14 295.312 349.488 L 295.312 325.472 C 295.312 323.82 296.652 322.48 298.304 322.48 Z " fill="rgb(255,255,255)" mask="url(#_mask_DylIulT8ItW6ViVUIfFVCOdHtQJblf9k)" vector-effect="non-scaling-stroke" stroke-width="4" stroke="rgb(231,236,237)" stroke-linejoin="miter" stroke-linecap="butt" stroke-miterlimit="10"/><path d=" M 298.304 322.48 L 322.32 322.48 C 323.972 322.48 325.312 323.82 325.312 325.472 L 325.312 349.488 C 325.312 351.14 323.972 352.48 322.32 352.48 L 298.304 352.48 C 296.652 352.48 295.312 351.14 295.312 349.488 L 295.312 325.472 C 295.312 323.82 296.652 322.48 298.304 322.48 Z " fill="rgb(255,255,255)"/><line x1="313.312" y1="340.48" x2="313.312" y2="334.48" vector-effect="non-scaling-stroke" stroke-width="2" stroke="rgb(74,134,232)" stroke-linejoin="miter" stroke-linecap="round" stroke-miterlimit="10"/><line x1="310.312" y1="340.48" x2="310.312" y2="334.48" vector-effect="non-scaling-stroke" stroke-width="2" stroke="rgb(74,134,232)" stroke-linejoin="miter" stroke-linecap="round" stroke-miterlimit="10"/><line x1="307.312" y1="340.48" x2="307.312" y2="334.48" vector-effect="non-scaling-stroke" stroke-width="2" stroke="rgb(74,134,232)" stroke-linejoin="miter" stroke-linecap="round" stroke-miterlimit="10"/></g></g></svg>