<?xml version="1.0" encoding="UTF-8" standalone="no"?><!-- Generator: Gravit.io --><svg xmlns="http://www.w3.org/2000/svg" xmlns:xlink="http://www.w3.org/1999/xlink" style="isolation:isolate" viewBox="0 0 60 60" width="60pt" height="60pt"><defs><clipPath id="_clipPath_un1vKnsma53xM2AXYf5YLoIZ0F4DiRVB"><rect width="60" height="60"/></clipPath></defs><g clip-path="url(#_clipPath_un1vKnsma53xM2AXYf5YLoIZ0F4DiRVB)"><g><path d=" M 20 59 L 30 43 L 40 59 L 20 59 Z " fill="rgb(235,186,22)"/><mask id="_mask_LLebsVwvKfasaKA8ww1gzltbxrFgUIiG" x="-200%" y="-200%" width="400%" height="400%"><rect x="-200%" y="-200%" width="400%" height="400%" style="fill:white;"/><path d=" M 1 10 L 1 48 L 22 48 L 38 48 L 59 48 L 59 10 L 1 10 Z " fill="black" stroke="none"/></mask><path d=" M 1 10 L 1 48 L 22 48 L 38 48 L 59 48 L 59 10 L 1 10 Z " fill="rgb(46,46,46)" mask="url(#_mask_LLebsVwvKfasaKA8ww1gzltbxrFgUIiG)" vector-effect="non-scaling-stroke" stroke-width="2" stroke="rgb(0,0,0)" stroke-linejoin="miter" stroke-linecap="butt" stroke-miterlimit="4"/><path d=" M 1 10 L 1 48 L 22 48 L 38 48 L 59 48 L 59 10 L 1 10 Z " fill="rgb(46,46,46)"/></g></g></svg>