<?xml version="1.0" encoding="UTF-8" standalone="no"?><!-- Generator: Gravit.io --><svg xmlns="http://www.w3.org/2000/svg" xmlns:xlink="http://www.w3.org/1999/xlink" style="isolation:isolate" viewBox="0 0 60 60" width="60pt" height="60pt"><defs><clipPath id="_clipPath_xow5ECDzeVvmIkuhyRcxgDZLX4PBdGfd"><rect width="60" height="60"/></clipPath></defs><g clip-path="url(#_clipPath_xow5ECDzeVvmIkuhyRcxgDZLX4PBdGfd)"><rect width="60" height="60" style="fill:rgb(0,0,0)" fill-opacity="0"/><g><circle vector-effect="non-scaling-stroke" cx="29.999999999999996" cy="30" r="29" fill="rgb(255,153,0)"/><path d=" M 1 30 C 1 30.295 1.013 30.586 1.022 30.879 L 30 30.879 L 30 1 C 13.984 1 1 13.984 1 30 Z " fill="rgb(74,134,232)"/><path d=" M 30 7.879 C 29.448 7.879 29 8.326 29 8.879 L 29 31.879 L 14 31.879 C 13.448 31.879 13 32.326 13 32.879 C 13 33.432 13.448 33.879 14 33.879 L 30 33.879 C 30.552 33.879 31 33.432 31 32.879 L 31 8.879 C 31 8.326 30.552 7.879 30 7.879 Z " fill="rgb(221,136,8)"/><path d=" M 30 6 C 29.448 6 29 6.447 29 7 L 29 30 L 14 30 C 13.448 30 13 30.447 13 31 C 13 31.553 13.448 32 14 32 L 30 32 C 30.552 32 31 31.553 31 31 L 31 7 C 31 6.447 30.552 6 30 6 Z " fill="rgb(46,46,46)"/></g></g></svg>