<?xml version="1.0" encoding="UTF-8" standalone="no"?><!-- Generator: Gravit.io --><svg xmlns="http://www.w3.org/2000/svg" xmlns:xlink="http://www.w3.org/1999/xlink" style="isolation:isolate" viewBox="0 0 60 60" width="60pt" height="60pt"><defs><clipPath id="_clipPath_NQMCLbNERHZVtmHNMbQsxUUosOF3P7ww"><rect width="60" height="60"/></clipPath></defs><g clip-path="url(#_clipPath_NQMCLbNERHZVtmHNMbQsxUUosOF3P7ww)"><rect width="60" height="60" style="fill:rgb(0,0,0)" fill-opacity="0"/><g><path d=" M 30 1 L 30 55 C 30 57.209 28.209 59 26 59 C 23.791 59 22 57.209 22 55" fill="none" vector-effect="non-scaling-stroke" stroke-width="2" stroke="rgb(74,134,232)" stroke-linejoin="miter" stroke-linecap="round" stroke-miterlimit="10"/><path d=" M 30 28 C 33.316 24 38.684 24 42 28 C 45.316 24 50.684 24 54 28 C 54 14.745 43.255 4 30 4 C 16.745 4 6 14.745 6 28 C 9.316 24 14.684 24 18 28 C 21.316 24 26.684 24 30 28 Z " fill="rgb(255,153,0)"/></g></g></svg>