<?xml version="1.0" encoding="UTF-8" standalone="no"?><!-- Generator: Gravit.io --><svg xmlns="http://www.w3.org/2000/svg" xmlns:xlink="http://www.w3.org/1999/xlink" style="isolation:isolate" viewBox="231.95 284.87 70.964 70.965" width="70.964pt" height="70.965pt"><defs><clipPath id="_clipPath_ebvNXs1NQrf7q8GlbMyfL9TlJu53zkkX"><rect x="231.95" y="284.87" width="70.964" height="70.965"/></clipPath></defs><g clip-path="url(#_clipPath_ebvNXs1NQrf7q8GlbMyfL9TlJu53zkkX)"><g><path d=" M 264.957 307.271 L 274.149 298.078 C 278.427 293.8 285.427 293.8 289.705 298.078 L 289.705 298.078 C 293.983 302.356 293.983 309.356 289.705 313.634 L 277.684 325.656 C 273.406 329.934 266.406 329.934 262.128 325.656 L 262.128 325.656" fill="none" vector-effect="non-scaling-stroke" stroke-width="2" stroke="rgb(74,134,232)" stroke-linejoin="miter" stroke-linecap="round" stroke-miterlimit="10"/><path d=" M 268.492 334.848 L 260.714 342.626 C 256.436 346.904 249.436 346.904 245.158 342.626 L 245.158 342.626 C 240.88 338.348 240.88 331.348 245.158 327.07 L 256.472 315.756 C 260.75 311.478 267.75 311.478 272.028 315.756 L 272.028 315.756" fill="none" vector-effect="non-scaling-stroke" stroke-width="2" stroke="rgb(255,153,0)" stroke-linejoin="miter" stroke-linecap="round" stroke-miterlimit="10"/></g></g></svg>