<?xml version="1.0" encoding="UTF-8" standalone="no"?><!-- Generator: Gravit.io --><svg xmlns="http://www.w3.org/2000/svg" xmlns:xlink="http://www.w3.org/1999/xlink" style="isolation:isolate" viewBox="267.375 380.125 38 58" width="38pt" height="58pt"><defs><clipPath id="_clipPath_fuJQhr9pmczxfcpiuT1cys87LMlFa6Cs"><rect x="267.375" y="380.125" width="38" height="58"/></clipPath></defs><g clip-path="url(#_clipPath_fuJQhr9pmczxfcpiuT1cys87LMlFa6Cs)"><g><path d=" M 296.375 404.125 L 296.375 391.344 C 296.375 386.274 291.875 382.125 286.375 382.125 C 280.875 382.125 276.375 386.274 276.375 391.344" fill="none" vector-effect="non-scaling-stroke" stroke-width="4" stroke="rgb(139,139,139)" stroke-linejoin="round" stroke-linecap="round" stroke-miterlimit="10"/><circle vector-effect="non-scaling-stroke" cx="286.375" cy="419.125" r="19" fill="rgb(255,153,0)"/><path d=" M 305.375 419.125 C 305.375 408.632 296.868 400.125 286.375 400.125 L 286.375 438.125 C 296.868 438.125 305.375 429.618 305.375 419.125 Z " fill="rgb(208,126,3)"/><circle vector-effect="non-scaling-stroke" cx="286.375" cy="419.125" r="8" fill="rgb(116,116,116)" stroke-width="2" stroke="rgb(74,134,232)" stroke-linejoin="round" stroke-linecap="round" stroke-miterlimit="10"/><line x1="286.375" y1="411.125" x2="286.375" y2="407.125" vector-effect="non-scaling-stroke" stroke-width="2" stroke="rgb(74,134,232)" stroke-linejoin="round" stroke-linecap="round" stroke-miterlimit="10"/><line x1="286.375" y1="431.125" x2="286.375" y2="427.125" vector-effect="non-scaling-stroke" stroke-width="2" stroke="rgb(74,134,232)" stroke-linejoin="round" stroke-linecap="round" stroke-miterlimit="10"/><line x1="292.032" y1="424.782" x2="294.86" y2="427.61" vector-effect="non-scaling-stroke" stroke-width="2" stroke="rgb(74,134,232)" stroke-linejoin="round" stroke-linecap="round" stroke-miterlimit="10"/><line x1="277.89" y1="427.61" x2="280.718" y2="424.782" vector-effect="non-scaling-stroke" stroke-width="2" stroke="rgb(74,134,232)" stroke-linejoin="round" stroke-linecap="round" stroke-miterlimit="10"/><line x1="292.032" y1="413.468" x2="294.86" y2="410.64" vector-effect="non-scaling-stroke" stroke-width="2" stroke="rgb(74,134,232)" stroke-linejoin="round" stroke-linecap="round" stroke-miterlimit="10"/><line x1="277.89" y1="410.64" x2="280.718" y2="413.468" vector-effect="non-scaling-stroke" stroke-width="2" stroke="rgb(74,134,232)" stroke-linejoin="round" stroke-linecap="round" stroke-miterlimit="10"/><line x1="294.375" y1="419.125" x2="298.375" y2="419.125" vector-effect="non-scaling-stroke" stroke-width="2" stroke="rgb(74,134,232)" stroke-linejoin="round" stroke-linecap="round" stroke-miterlimit="10"/><line x1="274.375" y1="419.125" x2="278.375" y2="419.125" vector-effect="non-scaling-stroke" stroke-width="2" stroke="rgb(74,134,232)" stroke-linejoin="round" stroke-linecap="round" stroke-miterlimit="10"/><circle vector-effect="non-scaling-stroke" cx="286.375" cy="419.125" r="4" fill="rgb(162,162,162)"/></g></g></svg>