<?xml version="1.0" encoding="UTF-8" standalone="no"?><!-- Generator: Gravit.io --><svg xmlns="http://www.w3.org/2000/svg" xmlns:xlink="http://www.w3.org/1999/xlink" style="isolation:isolate" viewBox="262.394 361.946 58 58" width="58pt" height="58pt"><defs><clipPath id="_clipPath_DnaU0mETtv71UbbEGTgIDGJ64odlLKII"><rect x="262.394" y="361.946" width="58" height="58"/></clipPath></defs><g clip-path="url(#_clipPath_DnaU0mETtv71UbbEGTgIDGJ64odlLKII)"><g><circle vector-effect="non-scaling-stroke" cx="291.3944994548745" cy="390.9459086398641" r="29" fill="rgb(255,153,0)"/><path d=" M 315.326 407.322 C 314.669 400.931 309.27 395.946 302.705 395.946 L 296.759 395.946 C 296.005 395.946 295.394 395.335 295.394 394.581 L 295.394 393.936 C 295.394 393.353 295.773 392.854 296.319 392.649 C 302.123 390.467 306.097 380.945 305.29 374.216 C 304.528 367.865 299.364 362.747 293.008 362.036 C 292.491 361.978 291.979 361.95 291.473 361.948 C 291.457 361.948 291.441 361.947 291.425 361.947 C 283.679 361.93 277.394 368.204 277.394 375.946 C 277.394 381.97 281.201 390.701 286.539 392.675 C 287.062 392.868 287.394 393.388 287.394 393.946 L 287.394 394.581 C 287.394 395.335 286.783 395.946 286.029 395.946 L 280.083 395.946 C 273.518 395.946 268.119 400.931 267.462 407.322 C 272.687 414.944 281.455 419.946 291.394 419.946 C 301.333 419.946 310.101 414.944 315.326 407.322 Z " fill="rgb(251,206,157)"/><path d=" M 295.886 368.556 C 299.601 369.577 303.099 371.862 305.339 374.878 C 305.323 374.657 305.316 374.431 305.29 374.215 C 304.528 367.865 299.364 362.747 293.008 362.036 C 292.491 361.978 291.979 361.95 291.473 361.948 C 291.457 361.948 291.441 361.947 291.425 361.947 C 284.505 361.932 278.765 366.942 277.617 373.53 L 277.622 373.53 C 277.801 373.782 277.976 374.037 278.167 374.28 C 278.237 374.193 278.308 374.107 278.38 374.022 C 280.38 371.642 283.721 371.091 286.563 372.351 C 287.428 372.733 288.386 372.946 289.394 372.946 C 292.336 372.946 294.85 371.128 295.886 368.556 Z " fill="rgb(70,70,70)"/><path d=" M 315.326 407.322 C 314.669 400.931 309.269 395.946 302.705 395.946 L 301.394 395.946 L 295.394 401.946 L 287.394 401.946 L 284.394 399.946 L 280.965 395.946 L 280.083 395.946 C 273.519 395.946 268.119 400.931 267.462 407.322 C 272.687 414.944 281.455 419.946 291.394 419.946 C 301.333 419.946 310.101 414.944 315.326 407.322 Z " fill="rgb(231,236,237)"/><path d=" M 305.394 416.338 C 306.079 415.959 306.744 415.549 307.394 415.118 L 307.394 408.946 L 305.394 408.946 L 305.394 416.338 Z " fill="rgb(204,213,214)"/><path d=" M 277.394 416.338 L 277.394 408.946 L 275.394 408.946 L 275.394 415.118 C 276.044 415.549 276.709 415.959 277.394 416.338 Z " fill="rgb(204,213,214)"/><rect x="288.394" y="399.946" width="6" height="6" transform="matrix(1,0,0,1,0,0)" fill="rgb(70,70,70)"/><path d=" M 287.355 419.66 C 288.675 419.844 290.023 419.946 291.394 419.946 C 292.776 419.946 294.133 419.843 295.463 419.656 L 293.394 405.946 L 292.25 405.946 L 289.394 405.946 L 287.355 419.66 Z " fill="rgb(74,134,232)"/><path d=" M 288.394 400.746 L 284.394 395.946 L 279.538 395.946 C 279.469 395.946 279.422 396.016 279.447 396.08 L 283.394 405.946 L 288.394 402.613 L 288.394 400.746 Z " fill="rgb(255,255,255)"/><path d=" M 303.25 395.946 L 298.394 395.946 L 294.394 400.746 L 294.394 402.613 L 299.394 405.946 L 303.34 396.08 C 303.366 396.016 303.319 395.946 303.25 395.946 Z " fill="rgb(255,255,255)"/></g></g></svg>