<?xml version="1.0" encoding="UTF-8" standalone="no"?><!-- Generator: Gravit.io --><svg xmlns="http://www.w3.org/2000/svg" xmlns:xlink="http://www.w3.org/1999/xlink" style="isolation:isolate" viewBox="262.394 361.946 58 53" width="58pt" height="53pt"><defs><clipPath id="_clipPath_gZb0EGq1aW0tXB1uXtzDyR9FkXnMHqXS"><rect x="262.394" y="361.946" width="58" height="53"/></clipPath></defs><g clip-path="url(#_clipPath_gZb0EGq1aW0tXB1uXtzDyR9FkXnMHqXS)"><g><path d=" M 315.96 404.729 L 306.408 399.953 C 305.174 399.336 304.394 398.074 304.394 396.694 L 304.394 392.946 C 304.662 392.641 304.97 392.248 305.298 391.784 C 306.6 389.946 307.584 387.923 308.267 385.8 C 309.492 385.423 310.394 384.291 310.394 382.946 L 310.394 378.946 C 310.394 378.066 310.003 377.279 309.394 376.729 L 309.394 370.946 C 309.394 370.946 310.581 361.946 298.394 361.946 C 286.206 361.946 287.394 370.946 287.394 370.946 L 287.394 376.729 C 286.785 377.279 286.394 378.066 286.394 378.946 L 286.394 382.946 C 286.394 384 286.948 384.927 287.777 385.463 C 288.776 389.815 291.394 392.946 291.394 392.946 L 291.394 396.601 C 291.394 397.934 290.666 399.161 289.495 399.799 L 280.574 404.666 C 277.997 406.071 276.394 408.772 276.394 411.707 L 276.394 414.946 L 320.394 414.946 L 320.394 411.903 C 320.394 408.865 318.677 406.088 315.96 404.729 Z " fill="rgb(255,153,0)"/><path d=" M 280.574 404.666 L 286.52 401.423 C 286.486 401.39 286.515 401.38 286.585 401.387 L 289.495 399.8 C 290.666 399.161 291.394 397.935 291.394 396.601 L 291.394 392.946 C 291.394 392.946 290.332 391.671 289.302 389.623 L 289.302 389.623 C 289.302 389.622 289.301 389.621 289.301 389.62 C 289.166 389.352 289.033 389.069 288.902 388.776 C 288.884 388.735 288.866 388.696 288.848 388.655 C 288.715 388.352 288.585 388.039 288.462 387.711 C 288.454 387.69 288.447 387.667 288.439 387.646 C 288.331 387.356 288.23 387.057 288.133 386.75 C 288.107 386.666 288.081 386.583 288.056 386.499 C 287.955 386.161 287.86 385.817 287.778 385.461 C 286.948 384.927 286.394 384 286.394 382.946 L 286.394 378.946 C 286.394 378.066 286.785 377.279 287.394 376.729 L 287.394 371.081 C 285.981 369.985 283.791 368.946 280.394 368.946 C 270.831 368.946 270.394 376.946 270.394 376.946 L 270.394 381.941 C 269.868 382.416 269.394 383.095 269.394 383.855 L 269.394 387.31 C 269.394 388.221 269.873 389.021 270.588 389.484 C 271.451 393.242 274.348 395.947 274.348 395.947 L 274.348 399.104 C 274.348 400.255 273.719 401.315 272.708 401.866 L 266.004 406.068 C 263.779 407.282 262.394 409.614 262.394 412.149 L 262.394 414.946 L 276.394 414.946 L 276.394 411.707 C 276.394 408.772 277.997 406.071 280.574 404.666 Z " fill="rgb(74,134,232)"/></g></g></svg>