<?xml version="1.0" encoding="UTF-8" standalone="no"?><!-- Generator: Gravit.io --><svg xmlns="http://www.w3.org/2000/svg" xmlns:xlink="http://www.w3.org/1999/xlink" style="isolation:isolate" viewBox="262.394 361.946 53 53" width="53pt" height="53pt"><defs><clipPath id="_clipPath_0xO72EcDnDwGSps07ZYYYiQtSjdzDroZ"><rect x="262.394" y="361.946" width="53" height="53"/></clipPath></defs><g clip-path="url(#_clipPath_0xO72EcDnDwGSps07ZYYYiQtSjdzDroZ)"><g><path d=" M 273.881 406.587 L 282.994 402.679 C 283.488 402.432 283.89 401.634 284.173 401.065 C 284.428 400.551 284.047 399.946 283.473 399.946 L 277.028 399.946 C 277.028 399.946 274.698 399.718 272.901 398.946 C 271.848 398.494 271.486 397.897 272.144 396.96 C 274.069 394.22 278.048 387.768 278.177 381.105 C 278.177 381.105 278.398 370.848 288.517 370.765 C 294.42 370.814 297.208 374.288 298.507 377.175 C 299.231 378.786 299.542 380.542 299.658 382.304 C 300.078 388.655 303.312 394.464 304.819 396.946 C 305.33 397.788 305.083 398.909 304.238 399.415 C 302.852 400.244 301.155 399.946 301.155 399.946 L 294.667 399.946 C 294.033 399.946 293.753 400.832 294.251 401.225 C 294.657 401.545 295.044 401.834 295.253 401.948 L 302.833 406.535 C 303.927 407.132 304.8 408.018 305.394 409.064 C 300.845 412.741 295.058 414.946 288.753 414.946 C 282.179 414.946 276.168 412.547 271.537 408.583 C 272.142 407.758 272.931 407.062 273.881 406.587 Z " fill="rgb(255,153,0)"/><g><path d=" M 288.894 361.946 C 274.258 361.946 262.394 373.811 262.394 388.446 C 262.394 396.468 265.964 403.652 271.596 408.512 C 272.194 407.719 272.96 407.048 273.882 406.587 L 282.995 402.679 C 283.489 402.432 283.891 401.634 284.174 401.065 C 284.429 400.551 284.048 399.946 283.474 399.946 L 277.029 399.946 C 277.029 399.946 274.699 399.718 272.902 398.946 C 271.849 398.494 271.487 397.897 272.145 396.96 C 274.07 394.22 278.049 387.768 278.178 381.105 C 278.178 381.105 278.399 370.848 288.518 370.765 C 294.421 370.814 297.209 374.288 298.508 377.175 C 299.232 378.786 299.543 380.542 299.659 382.304 C 300.079 388.655 303.313 394.464 304.82 396.946 C 305.331 397.788 305.084 398.909 304.239 399.415 C 302.852 400.244 301.155 399.946 301.155 399.946 L 294.667 399.946 C 294.033 399.946 293.753 400.832 294.251 401.225 C 294.657 401.545 295.044 401.834 295.253 401.948 L 302.833 406.535 C 303.919 407.127 304.785 408.004 305.378 409.04 C 305.404 409.065 305.433 409.088 305.458 409.115 C 311.511 404.259 315.394 396.81 315.394 388.446 C 315.394 373.811 303.53 361.946 288.894 361.946 Z " fill="rgb(74,134,232)"/></g></g></g></svg>