<?xml version="1.0" encoding="UTF-8" standalone="no"?><!-- Generator: Gravit.io --><svg xmlns="http://www.w3.org/2000/svg" xmlns:xlink="http://www.w3.org/1999/xlink" style="isolation:isolate" viewBox="258.394 357.946 52 66" width="52pt" height="66pt"><defs><clipPath id="_clipPath_xkDR5DWYdlkVhZ8FZ7dNhpomlsbdymmU"><rect x="258.394" y="357.946" width="52" height="66"/></clipPath></defs><g clip-path="url(#_clipPath_xkDR5DWYdlkVhZ8FZ7dNhpomlsbdymmU)"><g><mask id="_mask_Ljs8661qn9Ev7kyWnxMx6RikGfvc06UX" x="-200%" y="-200%" width="400%" height="400%"><rect x="-200%" y="-200%" width="400%" height="400%" style="fill:white;"/><path d=" M 306.394 412.903 C 306.394 409.865 304.677 407.087 301.96 405.729 L 290.933 400.953 C 290.33 400.651 289.838 400.01 289.492 399.313 C 289.181 398.685 289.647 397.946 290.348 397.946 L 298.114 397.946 C 298.114 397.946 300.962 398.219 303.158 397.276 C 304.444 396.723 304.888 395.109 304.083 393.963 C 301.73 390.614 296.868 382.729 296.71 374.584 C 296.71 374.584 296.44 362.048 284.072 361.946 C 276.857 362.006 273.449 366.252 271.862 369.781 C 270.977 371.75 270.597 373.896 270.455 376.05 C 269.942 383.813 265.989 391.142 264.147 394.176 C 263.522 395.205 263.824 396.576 264.858 397.193 C 266.552 398.206 268.625 397.946 268.625 397.946 L 276.574 397.946 C 277.349 397.946 277.691 398.925 277.083 399.405 C 276.587 399.796 276.114 400.15 275.858 400.289 L 266.574 405.666 C 263.997 407.071 262.394 409.772 262.394 412.707 L 262.394 413.946 C 262.394 413.946 262.394 414.603 262.394 414.946 C 262.394 417.707 272.244 419.946 284.394 419.946 C 296.544 419.946 306.394 417.707 306.394 414.946 C 306.394 414.603 306.394 413.946 306.394 413.946 L 306.394 412.903 Z " fill="black" stroke="none"/></mask><path d=" M 306.394 412.903 C 306.394 409.865 304.677 407.087 301.96 405.729 L 290.933 400.953 C 290.33 400.651 289.838 400.01 289.492 399.313 C 289.181 398.685 289.647 397.946 290.348 397.946 L 298.114 397.946 C 298.114 397.946 300.962 398.219 303.158 397.276 C 304.444 396.723 304.888 395.109 304.083 393.963 C 301.73 390.614 296.868 382.729 296.71 374.584 C 296.71 374.584 296.44 362.048 284.072 361.946 C 276.857 362.006 273.449 366.252 271.862 369.781 C 270.977 371.75 270.597 373.896 270.455 376.05 C 269.942 383.813 265.989 391.142 264.147 394.176 C 263.522 395.205 263.824 396.576 264.858 397.193 C 266.552 398.206 268.625 397.946 268.625 397.946 L 276.574 397.946 C 277.349 397.946 277.691 398.925 277.083 399.405 C 276.587 399.796 276.114 400.15 275.858 400.289 L 266.574 405.666 C 263.997 407.071 262.394 409.772 262.394 412.707 L 262.394 413.946 C 262.394 413.946 262.394 414.603 262.394 414.946 C 262.394 417.707 272.244 419.946 284.394 419.946 C 296.544 419.946 306.394 417.707 306.394 414.946 C 306.394 414.603 306.394 413.946 306.394 413.946 L 306.394 412.903 Z " fill="rgb(255,153,0)" mask="url(#_mask_Ljs8661qn9Ev7kyWnxMx6RikGfvc06UX)" vector-effect="non-scaling-stroke" stroke-width="2" stroke="rgb(74,134,232)" stroke-linejoin="miter" stroke-linecap="butt" stroke-miterlimit="4"/><path d=" M 306.394 412.903 C 306.394 409.865 304.677 407.087 301.96 405.729 L 290.933 400.953 C 290.33 400.651 289.838 400.01 289.492 399.313 C 289.181 398.685 289.647 397.946 290.348 397.946 L 298.114 397.946 C 298.114 397.946 300.962 398.219 303.158 397.276 C 304.444 396.723 304.888 395.109 304.083 393.963 C 301.73 390.614 296.868 382.729 296.71 374.584 C 296.71 374.584 296.44 362.048 284.072 361.946 C 276.857 362.006 273.449 366.252 271.862 369.781 C 270.977 371.75 270.597 373.896 270.455 376.05 C 269.942 383.813 265.989 391.142 264.147 394.176 C 263.522 395.205 263.824 396.576 264.858 397.193 C 266.552 398.206 268.625 397.946 268.625 397.946 L 276.574 397.946 C 277.349 397.946 277.691 398.925 277.083 399.405 C 276.587 399.796 276.114 400.15 275.858 400.289 L 266.574 405.666 C 263.997 407.071 262.394 409.772 262.394 412.707 L 262.394 413.946 C 262.394 413.946 262.394 414.603 262.394 414.946 C 262.394 417.707 272.244 419.946 284.394 419.946 C 296.544 419.946 306.394 417.707 306.394 414.946 C 306.394 414.603 306.394 413.946 306.394 413.946 L 306.394 412.903 Z " fill="rgb(255,153,0)"/></g></g></svg>