<?xml version="1.0" encoding="UTF-8" standalone="no"?><!-- Generator: Gravit.io --><svg xmlns="http://www.w3.org/2000/svg" xmlns:xlink="http://www.w3.org/1999/xlink" style="isolation:isolate" viewBox="258.394 357.946 52 66" width="52pt" height="66pt"><defs><clipPath id="_clipPath_cSA3qgZTmyOxEkQo6VWU6sQqqTcGIEh8"><rect x="258.394" y="357.946" width="52" height="66"/></clipPath></defs><g clip-path="url(#_clipPath_cSA3qgZTmyOxEkQo6VWU6sQqqTcGIEh8)"><g><mask id="_mask_AhAgMyrsIReqUXuGTA56zf19tV7aOkkF" x="-200%" y="-200%" width="400%" height="400%"><rect x="-200%" y="-200%" width="400%" height="400%" style="fill:white;"/><path d=" M 306.394 411.903 C 306.394 408.865 304.677 406.087 301.96 404.729 L 292.408 399.953 C 291.174 399.336 290.394 398.074 290.394 396.694 L 290.394 392.946 C 290.662 392.641 290.97 392.248 291.298 391.784 C 292.6 389.946 293.584 387.923 294.267 385.8 C 295.492 385.423 296.394 384.291 296.394 382.946 L 296.394 378.946 C 296.394 378.066 296.003 377.279 295.394 376.729 L 295.394 370.946 C 295.394 370.946 296.581 361.946 284.394 361.946 C 272.206 361.946 273.394 370.946 273.394 370.946 L 273.394 376.729 C 272.785 377.279 272.394 378.066 272.394 378.946 L 272.394 382.946 C 272.394 384 272.948 384.927 273.777 385.463 C 274.776 389.815 277.394 392.946 277.394 392.946 L 277.394 396.601 C 277.394 397.934 276.666 399.161 275.495 399.799 L 266.574 404.666 C 263.997 406.071 262.394 408.772 262.394 411.707 L 262.394 413.946 C 262.394 413.946 262.394 414.603 262.394 414.946 C 262.394 417.707 272.244 419.946 284.394 419.946 C 296.544 419.946 306.394 417.707 306.394 414.946 C 306.394 414.603 306.394 413.946 306.394 413.946 L 306.394 411.903 Z " fill="black" stroke="none"/></mask><path d=" M 306.394 411.903 C 306.394 408.865 304.677 406.087 301.96 404.729 L 292.408 399.953 C 291.174 399.336 290.394 398.074 290.394 396.694 L 290.394 392.946 C 290.662 392.641 290.97 392.248 291.298 391.784 C 292.6 389.946 293.584 387.923 294.267 385.8 C 295.492 385.423 296.394 384.291 296.394 382.946 L 296.394 378.946 C 296.394 378.066 296.003 377.279 295.394 376.729 L 295.394 370.946 C 295.394 370.946 296.581 361.946 284.394 361.946 C 272.206 361.946 273.394 370.946 273.394 370.946 L 273.394 376.729 C 272.785 377.279 272.394 378.066 272.394 378.946 L 272.394 382.946 C 272.394 384 272.948 384.927 273.777 385.463 C 274.776 389.815 277.394 392.946 277.394 392.946 L 277.394 396.601 C 277.394 397.934 276.666 399.161 275.495 399.799 L 266.574 404.666 C 263.997 406.071 262.394 408.772 262.394 411.707 L 262.394 413.946 C 262.394 413.946 262.394 414.603 262.394 414.946 C 262.394 417.707 272.244 419.946 284.394 419.946 C 296.544 419.946 306.394 417.707 306.394 414.946 C 306.394 414.603 306.394 413.946 306.394 413.946 L 306.394 411.903 Z " fill="rgb(255,153,0)" mask="url(#_mask_AhAgMyrsIReqUXuGTA56zf19tV7aOkkF)" vector-effect="non-scaling-stroke" stroke-width="2" stroke="rgb(74,134,232)" stroke-linejoin="miter" stroke-linecap="butt" stroke-miterlimit="4"/><path d=" M 306.394 411.903 C 306.394 408.865 304.677 406.087 301.96 404.729 L 292.408 399.953 C 291.174 399.336 290.394 398.074 290.394 396.694 L 290.394 392.946 C 290.662 392.641 290.97 392.248 291.298 391.784 C 292.6 389.946 293.584 387.923 294.267 385.8 C 295.492 385.423 296.394 384.291 296.394 382.946 L 296.394 378.946 C 296.394 378.066 296.003 377.279 295.394 376.729 L 295.394 370.946 C 295.394 370.946 296.581 361.946 284.394 361.946 C 272.206 361.946 273.394 370.946 273.394 370.946 L 273.394 376.729 C 272.785 377.279 272.394 378.066 272.394 378.946 L 272.394 382.946 C 272.394 384 272.948 384.927 273.777 385.463 C 274.776 389.815 277.394 392.946 277.394 392.946 L 277.394 396.601 C 277.394 397.934 276.666 399.161 275.495 399.799 L 266.574 404.666 C 263.997 406.071 262.394 408.772 262.394 411.707 L 262.394 413.946 C 262.394 413.946 262.394 414.603 262.394 414.946 C 262.394 417.707 272.244 419.946 284.394 419.946 C 296.544 419.946 306.394 417.707 306.394 414.946 C 306.394 414.603 306.394 413.946 306.394 413.946 L 306.394 411.903 Z " fill="rgb(255,153,0)"/></g></g></svg>