<?xml version="1.0" encoding="UTF-8" standalone="no"?><!-- Generator: Gravit.io --><svg xmlns="http://www.w3.org/2000/svg" xmlns:xlink="http://www.w3.org/1999/xlink" style="isolation:isolate" viewBox="262.394 361.946 58 53" width="58pt" height="53pt"><defs><clipPath id="_clipPath_VQnc4UJeSRGR6e9hU7xet1jcrAYOSsim"><rect x="262.394" y="361.946" width="58" height="53"/></clipPath></defs><g clip-path="url(#_clipPath_VQnc4UJeSRGR6e9hU7xet1jcrAYOSsim)"><g><path d=" M 301.96 404.729 L 292.408 399.953 C 291.174 399.336 290.394 398.074 290.394 396.694 L 290.394 392.946 C 290.662 392.641 290.97 392.248 291.298 391.784 C 292.6 389.946 293.584 387.923 294.267 385.8 C 295.492 385.423 296.394 384.291 296.394 382.946 L 296.394 378.946 C 296.394 378.066 296.003 377.279 295.394 376.729 L 295.394 370.946 C 295.394 370.946 296.581 361.946 284.394 361.946 C 272.206 361.946 273.394 370.946 273.394 370.946 L 273.394 376.729 C 272.785 377.279 272.394 378.066 272.394 378.946 L 272.394 382.946 C 272.394 384 272.948 384.927 273.777 385.463 C 274.776 389.815 277.394 392.946 277.394 392.946 L 277.394 396.601 C 277.394 397.934 276.666 399.161 275.495 399.799 L 266.574 404.666 C 263.997 406.071 262.394 408.772 262.394 411.707 L 262.394 414.946 L 306.394 414.946 L 306.394 411.903 C 306.394 408.865 304.677 406.088 301.96 404.729 Z " fill="rgb(255,153,0)"/><path d=" M 316.464 405.89 L 306.69 401.657 C 306.155 401.39 305.719 400.821 305.413 400.204 C 305.136 399.647 305.549 398.992 306.171 398.992 L 313.054 398.992 C 313.054 398.992 315.578 399.234 317.525 398.398 C 318.665 397.908 319.058 396.477 318.345 395.462 C 316.26 392.493 311.949 385.504 311.81 378.285 C 311.81 378.285 311.571 367.173 300.608 367.083 C 298.421 367.101 296.638 367.559 295.17 368.271 C 295.546 369.77 295.394 370.946 295.394 370.946 L 295.394 376.729 C 296.003 377.279 296.394 378.066 296.394 378.946 L 296.394 382.946 C 296.394 384.291 295.492 385.423 294.267 385.8 C 293.584 387.922 292.6 389.945 291.298 391.784 C 290.97 392.248 290.662 392.641 290.394 392.946 L 290.394 396.694 C 290.394 397.547 290.693 398.353 291.212 398.991 L 293.963 398.991 C 294.65 398.991 294.953 399.859 294.414 400.284 C 294.228 400.431 294.05 400.567 293.884 400.69 L 301.961 404.728 C 304.677 406.088 306.394 408.865 306.394 411.903 L 306.394 414.946 L 320.394 414.946 L 320.394 412.249 C 320.394 409.556 318.873 407.094 316.464 405.89 Z " fill="rgb(74,134,232)"/></g></g></svg>