<?xml version="1.0" encoding="UTF-8" standalone="no"?><!-- Generator: Gravit.io --><svg xmlns="http://www.w3.org/2000/svg" xmlns:xlink="http://www.w3.org/1999/xlink" style="isolation:isolate" viewBox="262.394 361.946 52.998 53" width="52.998pt" height="53pt"><defs><clipPath id="_clipPath_2MAm0vutF1SnhYZ1JZ3gXr2idn8vebQ3"><rect x="262.394" y="361.946" width="52.998" height="53"/></clipPath></defs><g clip-path="url(#_clipPath_2MAm0vutF1SnhYZ1JZ3gXr2idn8vebQ3)"><g><path d=" M 281.007 403.498 L 273.1 407.811 C 272.636 408.064 272.219 408.375 271.831 408.714 C 276.441 412.601 282.392 414.946 288.894 414.946 C 295.348 414.946 301.261 412.636 305.858 408.802 C 305.434 408.444 304.974 408.122 304.464 407.868 L 295.997 403.635 C 294.903 403.088 294.212 401.97 294.212 400.747 L 294.212 397.425 C 294.45 397.154 294.722 396.806 295.013 396.395 C 296.167 394.765 297.04 392.972 297.645 391.091 C 298.731 390.756 299.531 389.753 299.531 388.561 L 299.531 385.015 C 299.531 384.235 299.184 383.538 298.645 383.05 L 298.645 377.924 C 298.645 377.924 299.698 369.947 288.895 369.947 C 278.092 369.947 279.145 377.924 279.145 377.924 L 279.145 383.05 C 278.605 383.538 278.259 384.235 278.259 385.015 L 278.259 388.561 C 278.259 389.495 278.75 390.317 279.485 390.792 C 280.371 394.649 282.691 397.425 282.691 397.425 L 282.691 400.665 C 282.69 401.845 282.044 402.932 281.007 403.498 Z " fill="rgb(255,153,0)"/><g><path d=" M 289.347 361.95 C 274.714 361.7 262.648 373.36 262.398 387.993 C 262.256 396.29 265.954 403.747 271.842 408.706 C 272.227 408.37 272.64 408.062 273.099 407.812 L 281.006 403.499 C 282.043 402.933 282.689 401.846 282.689 400.664 L 282.689 397.424 C 282.689 397.424 280.368 394.648 279.483 390.791 C 278.749 390.316 278.257 389.495 278.257 388.56 L 278.257 385.014 C 278.257 384.234 278.604 383.537 279.143 383.049 L 279.143 377.923 C 279.143 377.923 278.09 369.946 288.893 369.946 C 299.696 369.946 298.643 377.923 298.643 377.923 L 298.643 383.049 C 299.183 383.537 299.529 384.234 299.529 385.014 L 299.529 388.56 C 299.529 389.752 298.729 390.755 297.643 391.09 C 297.038 392.971 296.165 394.764 295.011 396.394 C 294.72 396.805 294.448 397.153 294.21 397.424 L 294.21 400.746 C 294.21 401.969 294.901 403.088 295.995 403.634 L 304.462 407.867 C 304.97 408.121 305.429 408.442 305.852 408.799 C 311.562 404.037 315.251 396.917 315.388 388.899 C 315.64 374.266 303.981 362.2 289.347 361.95 Z " fill="rgb(74,134,232)"/></g></g></g></svg>