<?xml version="1.0" encoding="UTF-8" standalone="no"?><!-- Generator: Gravit.io --><svg xmlns="http://www.w3.org/2000/svg" xmlns:xlink="http://www.w3.org/1999/xlink" style="isolation:isolate" viewBox="0 0 60 60" width="60pt" height="60pt"><defs><clipPath id="_clipPath_EEvAAe2WQzz5xEn31oJtdbdmCai9EQxG"><rect width="60" height="60"/></clipPath></defs><g clip-path="url(#_clipPath_EEvAAe2WQzz5xEn31oJtdbdmCai9EQxG)"><rect width="60" height="60" style="fill:rgb(0,0,0)" fill-opacity="0"/><g><path d=" M 42.193 48.777 L 4.807 48.777 C 3.533 48.777 2.5 47.744 2.5 46.47 L 2.5 21.084 C 2.5 19.81 3.533 18.777 4.807 18.777 L 42.193 18.777 C 43.467 18.777 44.5 19.81 44.5 21.084 L 44.5 46.47 C 44.5 47.744 43.467 48.777 42.193 48.777 Z " fill="rgb(70,70,70)"/><path d=" M 53.574 48.965 L 44.5 44.777 L 44.5 22.777 L 53.574 18.589 C 55.407 17.743 57.5 19.082 57.5 21.101 L 57.5 46.453 C 57.5 48.472 55.407 49.811 53.574 48.965 Z " fill="rgb(116,116,116)"/><path d=" M 2.5 10.777 L 34.5 10.777 C 35.6 10.777 36.5 11.677 36.5 12.777 L 36.5 18.777" fill="none" vector-effect="non-scaling-stroke" stroke-width="2" stroke="rgb(70,70,70)" stroke-linejoin="miter" stroke-linecap="round" stroke-miterlimit="10"/></g></g></svg>