<?xml version="1.0" encoding="UTF-8" standalone="no"?><!-- Generator: Gravit.io --><svg xmlns="http://www.w3.org/2000/svg" xmlns:xlink="http://www.w3.org/1999/xlink" style="isolation:isolate" viewBox="0 0 60 60" width="60pt" height="60pt"><defs><clipPath id="_clipPath_4NOozcg6RgXQgtFEviGSu5fmiPolzT96"><rect width="60" height="60"/></clipPath></defs><g clip-path="url(#_clipPath_4NOozcg6RgXQgtFEviGSu5fmiPolzT96)"><rect width="60" height="60" style="fill:rgb(0,0,0)" fill-opacity="0"/><g><mask id="_mask_pj1jNHAWQb9ZmXqm38cpQby7S5qxRj60" x="-200%" y="-200%" width="400%" height="400%"><rect x="-200%" y="-200%" width="400%" height="400%" style="fill:white;"/><line x1="23.632" y1="41" x2="16.211" y2="57" fill="black" stroke="none"/></mask><line x1="23.632" y1="41" x2="16.211" y2="57" mask="url(#_mask_pj1jNHAWQb9ZmXqm38cpQby7S5qxRj60)" vector-effect="non-scaling-stroke" stroke-width="4" stroke="rgb(116,116,116)" stroke-linejoin="miter" stroke-linecap="round" stroke-miterlimit="10"/><mask id="_mask_RcLp1iPZTuNgHMYU7leHLI8vS2V7g2OT" x="-200%" y="-200%" width="400%" height="400%"><rect x="-200%" y="-200%" width="400%" height="400%" style="fill:white;"/><line x1="23.632" y1="41" x2="31.053" y2="57" fill="black" stroke="none"/></mask><line x1="23.632" y1="41" x2="31.053" y2="57" mask="url(#_mask_RcLp1iPZTuNgHMYU7leHLI8vS2V7g2OT)" vector-effect="non-scaling-stroke" stroke-width="4" stroke="rgb(116,116,116)" stroke-linejoin="miter" stroke-linecap="round" stroke-miterlimit="10"/><path d=" M 53.52 38.928 L 41.011 26.974 C 40.315 26.271 40.332 25.127 41.049 24.446 L 53.558 12.9 C 54.672 11.842 56.5 12.639 56.5 14.183 L 56.5 25.69 L 56.5 37.683 C 56.5 39.252 54.62 40.037 53.52 38.928 Z " fill="rgb(255,153,0)"/><path d=" M 38.327 41 L 7.291 41 C 5.197 41 3.5 39.303 3.5 37.209 L 3.5 13.944 C 3.5 11.775 5.275 10 7.444 10 L 38.556 10 C 40.734 10 42.5 11.766 42.5 13.944 L 42.5 36.827 C 42.5 39.122 40.622 41 38.327 41 Z " fill="rgb(70,70,70)"/><circle vector-effect="non-scaling-stroke" cx="15" cy="21.5" r="5.5" fill="rgb(255,153,0)"/><mask id="_mask_hGPuSXx6ZEsdcF8fn2QWcD1vOnlR9tRv" x="-200%" y="-200%" width="400%" height="400%"><rect x="-200%" y="-200%" width="400%" height="400%" style="fill:white;"/><line x1="16.5" y1="22" x2="21.5" y2="27" fill="black" stroke="none"/></mask><line x1="16.5" y1="22" x2="21.5" y2="27" mask="url(#_mask_hGPuSXx6ZEsdcF8fn2QWcD1vOnlR9tRv)" vector-effect="non-scaling-stroke" stroke-width="4" stroke="rgb(74,134,232)" stroke-linejoin="miter" stroke-linecap="round" stroke-miterlimit="10"/></g></g></svg>