<?xml version="1.0" encoding="UTF-8" standalone="no"?><!-- Generator: Gravit.io --><svg xmlns="http://www.w3.org/2000/svg" xmlns:xlink="http://www.w3.org/1999/xlink" style="isolation:isolate" viewBox="0 0 60 60" width="60pt" height="60pt"><defs><clipPath id="_clipPath_jti2lTalnFVT2VpjWq4QbPapUIdXijMd"><rect width="60" height="60"/></clipPath></defs><g clip-path="url(#_clipPath_jti2lTalnFVT2VpjWq4QbPapUIdXijMd)"><rect width="60" height="60" style="fill:rgb(0,0,0)" fill-opacity="0"/><g><rect x="12" y="8" width="36" height="44" transform="matrix(1,0,0,1,0,0)" fill="rgb(70,70,70)"/><path d=" M 48 31 L 12 31 C 11.448 31 11 30.553 11 30 C 11 29.447 11.448 29 12 29 L 48 29 C 48.552 29 49 29.447 49 30 C 49 30.553 48.552 31 48 31 Z " fill="rgb(93,93,93)"/><path d=" M 48 10 L 12 10 C 11.448 10 11 9.553 11 9 C 11 8.447 11.448 8 12 8 L 48 8 C 48.552 8 49 8.447 49 9 C 49 9.553 48.552 10 48 10 Z " fill="rgb(93,93,93)"/><path d=" M 48 52 L 12 52 C 11.448 52 11 51.553 11 51 C 11 50.447 11.448 50 12 50 L 48 50 C 48.552 50 49 50.447 49 51 C 49 51.553 48.552 52 48 52 Z " fill="rgb(93,93,93)"/><path d=" M 48 41 L 48 52 L 58 52 L 58 41 L 48 41 Z  M 55 49 L 51 49 L 51 44 L 55 44 L 55 49 Z " fill="rgb(93,93,93)"/><path d=" M 48 30 L 48 41 L 58 41 L 58 30 L 48 30 Z  M 55 38 L 51 38 L 51 33 L 55 33 L 55 38 Z " fill="rgb(116,116,116)"/><path d=" M 48 19 L 48 30 L 58 30 L 58 19 L 48 19 Z  M 55 27 L 51 27 L 51 22 L 55 22 L 55 27 Z " fill="rgb(93,93,93)"/><path d=" M 48 8 L 48 19 L 58 19 L 58 8 L 48 8 Z  M 55 16 L 51 16 L 51 11 L 55 11 L 55 16 Z " fill="rgb(116,116,116)"/><path d=" M 2 41 L 2 52 L 12 52 L 12 41 L 2 41 Z  M 9 49 L 5 49 L 5 44 L 9 44 L 9 49 Z " fill="rgb(93,93,93)"/><path d=" M 2 30 L 2 41 L 12 41 L 12 30 L 2 30 Z  M 9 38 L 5 38 L 5 33 L 9 33 L 9 38 Z " fill="rgb(116,116,116)"/><path d=" M 2 19 L 2 30 L 12 30 L 12 19 L 2 19 Z  M 9 27 L 5 27 L 5 22 L 9 22 L 9 27 Z " fill="rgb(93,93,93)"/><path d=" M 2 8 L 2 19 L 12 19 L 12 8 L 2 8 Z  M 9 16 L 5 16 L 5 11 L 9 11 L 9 16 Z " fill="rgb(116,116,116)"/></g></g></svg>