<?xml version="1.0" encoding="UTF-8" standalone="no"?><!-- Generator: Gravit.io --><svg xmlns="http://www.w3.org/2000/svg" xmlns:xlink="http://www.w3.org/1999/xlink" style="isolation:isolate" viewBox="0 0 60 60" width="60pt" height="60pt"><defs><clipPath id="_clipPath_tlJzJKgDgIJ5TnaSTIyKFOFhyAqSxzzT"><rect width="60" height="60"/></clipPath></defs><g clip-path="url(#_clipPath_tlJzJKgDgIJ5TnaSTIyKFOFhyAqSxzzT)"><g><rect x="4" y="3" width="52" height="53" transform="matrix(1,0,0,1,0,0)" fill="rgb(255,153,0)"/><path d=" M 27 28 L 27 20.954 L 27 14 L 38 21 L 27 28 Z " fill="rgb(255,255,255)"/><rect x="4" y="37.941" width="52" height="18.059" transform="matrix(1,0,0,1,0,0)" fill="rgb(74,134,232)"/><path d=" M 50 48 L 20 48 C 19.447 48 19 47.553 19 47 C 19 46.447 19.447 46 20 46 L 50 46 C 50.553 46 51 46.447 51 47 C 51 47.553 50.553 48 50 48 Z " fill="rgb(42,48,61)"/><path d=" M 10 51 C 9.447 51 9 50.553 9 50 L 9 44 C 9 43.447 9.447 43 10 43 C 10.553 43 11 43.447 11 44 L 11 50 C 11 50.553 10.553 51 10 51 Z " fill="rgb(255,255,255)"/><path d=" M 14 51 C 13.447 51 13 50.553 13 50 L 13 44 C 13 43.447 13.447 43 14 43 C 14.553 43 15 43.447 15 44 L 15 50 C 15 50.553 14.553 51 14 51 Z " fill="rgb(255,255,255)"/><path d=" M 25 46 L 20 46 C 19.447 46 19 46.447 19 47 C 19 47.553 19.447 48 20 48 L 25 48 L 25 46 Z " fill="rgb(255,153,0)"/><path d=" M 25 51 C 24.447 51 24 50.553 24 50 L 24 44 C 24 43.447 24.447 43 25 43 C 25.553 43 26 43.447 26 44 L 26 50 C 26 50.553 25.553 51 25 51 Z " fill="rgb(255,255,255)"/></g></g></svg>