<?xml version="1.0" encoding="UTF-8" standalone="no"?><!-- Generator: Gravit.io --><svg xmlns="http://www.w3.org/2000/svg" xmlns:xlink="http://www.w3.org/1999/xlink" style="isolation:isolate" viewBox="0 0 60 60" width="60pt" height="60pt"><defs><clipPath id="_clipPath_XnIz6My5Ynxxqt0krS6Z7kCwjZTjJgRx"><rect width="60" height="60"/></clipPath></defs><g clip-path="url(#_clipPath_XnIz6My5Ynxxqt0krS6Z7kCwjZTjJgRx)"><rect width="60" height="60" style="fill:rgb(0,0,0)" fill-opacity="0"/><g><rect x="2" y="8" width="56" height="44" transform="matrix(1,0,0,1,0,0)" fill="rgb(255,153,0)" vector-effect="non-scaling-stroke" stroke-width="2" stroke="rgb(255,153,0)" stroke-linejoin="miter" stroke-linecap="butt" stroke-miterlimit="2"/><path d=" M 26 37 L 26 29.954 L 26 23 L 37 30 L 26 37 Z " fill="rgb(255,255,255)"/><rect x="2" y="8" width="10" height="11" transform="matrix(1,0,0,1,0,0)" fill="rgb(74,134,232)" vector-effect="non-scaling-stroke" stroke-width="2" stroke="rgb(255,255,255)" stroke-linejoin="miter" stroke-linecap="butt" stroke-miterlimit="2"/><rect x="2" y="19" width="10" height="11" transform="matrix(1,0,0,1,0,0)" fill="rgb(74,134,232)" vector-effect="non-scaling-stroke" stroke-width="2" stroke="rgb(255,255,255)" stroke-linejoin="miter" stroke-linecap="butt" stroke-miterlimit="2"/><rect x="2" y="30" width="10" height="11" transform="matrix(1,0,0,1,0,0)" fill="rgb(74,134,232)" vector-effect="non-scaling-stroke" stroke-width="2" stroke="rgb(255,255,255)" stroke-linejoin="miter" stroke-linecap="butt" stroke-miterlimit="2"/><rect x="2" y="41" width="10" height="11" transform="matrix(1,0,0,1,0,0)" fill="rgb(74,134,232)" vector-effect="non-scaling-stroke" stroke-width="2" stroke="rgb(255,255,255)" stroke-linejoin="miter" stroke-linecap="butt" stroke-miterlimit="2"/><rect x="48" y="8" width="10" height="11" transform="matrix(1,0,0,1,0,0)" fill="rgb(74,134,232)" vector-effect="non-scaling-stroke" stroke-width="2" stroke="rgb(255,255,255)" stroke-linejoin="miter" stroke-linecap="butt" stroke-miterlimit="2"/><rect x="48" y="19" width="10" height="11" transform="matrix(1,0,0,1,0,0)" fill="rgb(74,134,232)" vector-effect="non-scaling-stroke" stroke-width="2" stroke="rgb(255,255,255)" stroke-linejoin="miter" stroke-linecap="butt" stroke-miterlimit="2"/><rect x="48" y="30" width="10" height="11" transform="matrix(1,0,0,1,0,0)" fill="rgb(74,134,232)" vector-effect="non-scaling-stroke" stroke-width="2" stroke="rgb(255,255,255)" stroke-linejoin="miter" stroke-linecap="butt" stroke-miterlimit="2"/><rect x="48" y="41" width="10" height="11" transform="matrix(1,0,0,1,0,0)" fill="rgb(74,134,232)" vector-effect="non-scaling-stroke" stroke-width="2" stroke="rgb(255,255,255)" stroke-linejoin="miter" stroke-linecap="butt" stroke-miterlimit="2"/></g></g></svg>