<?xml version="1.0" encoding="UTF-8" standalone="no"?><!-- Generator: Gravit.io --><svg xmlns="http://www.w3.org/2000/svg" xmlns:xlink="http://www.w3.org/1999/xlink" style="isolation:isolate" viewBox="0 0 60 60" width="60pt" height="60pt"><defs><clipPath id="_clipPath_wKGFewOK2BoMyD4bd81fWfzD4lb2vuJm"><rect width="60" height="60"/></clipPath></defs><g clip-path="url(#_clipPath_wKGFewOK2BoMyD4bd81fWfzD4lb2vuJm)"><rect width="60" height="60" style="fill:rgb(0,0,0)" fill-opacity="0"/><g><path d=" M 56.454 23.375 C 56.198 23.375 55.942 23.277 55.747 23.082 C 48.881 16.215 39.737 12.434 30 12.434 C 20.263 12.434 11.119 16.215 4.253 23.082 C 3.862 23.473 3.23 23.473 2.839 23.082 C 2.448 22.691 2.448 22.059 2.839 21.668 C 10.083 14.424 19.729 10.435 30 10.435 C 40.271 10.435 49.918 14.424 57.161 21.668 C 57.552 22.059 57.552 22.691 57.161 23.082 C 56.966 23.277 56.71 23.375 56.454 23.375 Z " fill="rgb(74,134,232)"/><path d=" M 9.424 29.253 C 9.168 29.253 8.912 29.155 8.717 28.96 C 8.326 28.569 8.326 27.937 8.717 27.546 C 20.453 15.81 39.548 15.812 51.282 27.546 C 51.673 27.937 51.673 28.569 51.282 28.96 C 50.891 29.351 50.259 29.351 49.868 28.96 C 38.912 18.004 21.086 18.004 10.131 28.96 C 9.936 29.155 9.68 29.253 9.424 29.253 Z " fill="rgb(255,153,0)"/><path d=" M 44.697 35.131 C 44.441 35.131 44.185 35.033 43.99 34.838 C 40.26 31.108 35.291 29.053 30 29.053 C 24.709 29.053 19.741 31.108 16.01 34.838 C 15.619 35.229 14.987 35.229 14.596 34.838 C 14.205 34.447 14.205 33.815 14.596 33.424 C 18.704 29.316 24.175 27.053 30 27.053 C 35.825 27.053 41.295 29.316 45.404 33.424 C 45.795 33.815 45.795 34.447 45.404 34.838 C 45.209 35.034 44.953 35.131 44.697 35.131 Z " fill="rgb(74,134,232)"/><path d=" M 30 36.461 C 26.388 36.461 23.449 39.4 23.449 43.013 C 23.449 46.626 26.388 49.565 30 49.565 C 33.613 49.565 36.552 46.626 36.552 43.013 C 36.552 39.4 33.613 36.461 30 36.461 Z " fill="rgb(255,153,0)"/></g></g></svg>