<?xml version="1.0" encoding="UTF-8" standalone="no"?><!-- Generator: Gravit.io --><svg xmlns="http://www.w3.org/2000/svg" xmlns:xlink="http://www.w3.org/1999/xlink" style="isolation:isolate" viewBox="0 0 60 60" width="60pt" height="60pt"><defs><clipPath id="_clipPath_hoUNTWX8KWe2OaFdSxOPujrcSaROokOV"><rect width="60" height="60"/></clipPath></defs><g clip-path="url(#_clipPath_hoUNTWX8KWe2OaFdSxOPujrcSaROokOV)"><rect width="60" height="60" style="fill:rgb(0,0,0)" fill-opacity="0"/><g><path d=" M 10.2 42.098 C 9.944 42.098 9.688 42 9.493 41.805 C -1.813 30.498 -1.813 12.1 9.493 0.793 C 9.884 0.402 10.516 0.402 10.907 0.793 C 11.298 1.184 11.298 1.816 10.907 2.207 C 0.38 12.734 0.38 29.863 10.907 40.391 C 11.298 40.782 11.298 41.414 10.907 41.805 C 10.712 42 10.456 42.098 10.2 42.098 Z " fill="rgb(255,153,0)"/><path d=" M 49.798 42.098 C 49.542 42.098 49.286 42 49.091 41.805 C 48.7 41.414 48.7 40.782 49.091 40.391 C 54.183 35.3 56.987 28.52 56.987 21.299 C 56.987 14.078 54.183 7.298 49.091 2.207 C 48.7 1.816 48.7 1.184 49.091 0.793 C 49.482 0.402 50.114 0.402 50.505 0.793 C 55.975 6.262 58.986 13.544 58.986 21.299 C 58.986 29.054 55.974 36.336 50.505 41.805 C 50.31 42 50.054 42.098 49.798 42.098 Z " fill="rgb(74,134,232)"/><path d=" M 14.444 37.855 C 14.188 37.855 13.932 37.757 13.737 37.562 C 4.769 28.594 4.769 14.002 13.737 5.035 C 14.128 4.644 14.76 4.644 15.151 5.035 C 15.542 5.426 15.542 6.058 15.151 6.449 C 6.963 14.637 6.963 27.96 15.151 36.148 C 15.542 36.539 15.542 37.171 15.151 37.562 C 14.955 37.758 14.699 37.855 14.444 37.855 Z " fill="rgb(255,153,0)"/><path d=" M 45.556 37.855 C 45.3 37.855 45.044 37.757 44.849 37.562 C 44.458 37.171 44.458 36.539 44.849 36.148 C 53.037 27.96 53.037 14.637 44.849 6.449 C 44.458 6.058 44.458 5.426 44.849 5.035 C 45.24 4.644 45.872 4.644 46.263 5.035 C 55.231 14.003 55.231 28.595 46.263 37.562 C 46.068 37.758 45.812 37.855 45.556 37.855 Z " fill="rgb(255,153,0)"/><path d=" M 18.686 33.612 C 18.43 33.612 18.174 33.514 17.979 33.319 C 14.773 30.113 13.007 25.844 13.007 21.298 C 13.007 16.752 14.773 12.484 17.979 9.277 C 18.37 8.886 19.002 8.886 19.393 9.277 C 19.784 9.668 19.784 10.3 19.393 10.691 C 13.544 16.54 13.544 26.055 19.393 31.904 C 19.784 32.295 19.784 32.927 19.393 33.318 C 19.198 33.515 18.942 33.612 18.686 33.612 Z " fill="rgb(74,134,232)"/><path d=" M 41.314 33.612 C 41.058 33.612 40.802 33.514 40.607 33.319 C 40.216 32.928 40.216 32.296 40.607 31.905 C 46.456 26.056 46.456 16.541 40.607 10.692 C 40.216 10.301 40.216 9.669 40.607 9.278 C 40.998 8.887 41.63 8.887 42.021 9.278 C 45.227 12.484 46.993 16.753 46.993 21.299 C 46.993 25.845 45.227 30.113 42.021 33.32 C 41.825 33.515 41.57 33.612 41.314 33.612 Z " fill="rgb(74,134,232)"/><path d=" M 36 21.5 C 36 18.186 33.314 15.5 30 15.5 C 26.686 15.5 24 18.186 24 21.5 C 24 24.478 26.172 26.943 29.017 27.413 C 29.014 27.443 28.999 27.469 28.999 27.5 L 28.999 58.5 C 28.999 59.053 29.446 59.5 29.999 59.5 C 30.552 59.5 30.999 59.053 30.999 58.5 L 30.999 27.5 C 30.999 27.469 30.984 27.443 30.981 27.413 C 33.827 26.943 36 24.479 36 21.5 Z " fill="rgb(255,153,0)"/></g></g></svg>