<?xml version="1.0" encoding="UTF-8" standalone="no"?><!-- Generator: Gravit.io --><svg xmlns="http://www.w3.org/2000/svg" xmlns:xlink="http://www.w3.org/1999/xlink" style="isolation:isolate" viewBox="0 0 60 60" width="60pt" height="60pt"><defs><clipPath id="_clipPath_yYwOqYr5si6UPj0M5J9g3nMUijvwGCQS"><rect width="60" height="60"/></clipPath></defs><g clip-path="url(#_clipPath_yYwOqYr5si6UPj0M5J9g3nMUijvwGCQS)"><rect width="60" height="60" style="fill:rgb(0,0,0)" fill-opacity="0"/><g><circle vector-effect="non-scaling-stroke" cx="29.999999999999993" cy="31.90318965517241" r="2.844827586206895" fill="none" stroke-width="2" stroke="rgb(74,134,232)" stroke-linejoin="miter" stroke-linecap="butt" stroke-miterlimit="10"/><path d=" M 33.845 38.431 C 36.079 37.11 37.586 34.682 37.586 31.903 C 37.586 27.72 34.183 24.317 30 24.317 C 25.817 24.317 22.414 27.72 22.414 31.903 C 22.414 34.682 23.921 37.11 26.155 38.431" fill="none" vector-effect="non-scaling-stroke" stroke-width="2" stroke="rgb(255,153,0)" stroke-linejoin="miter" stroke-linecap="round" stroke-miterlimit="10"/><path d=" M 43.956 55.597 C 52.06 50.813 57.5 41.996 57.5 31.903 C 57.5 16.716 45.188 4.403 30 4.403 C 14.812 4.403 2.5 16.716 2.5 31.903 C 2.5 41.996 7.94 50.813 16.044 55.597" fill="none" vector-effect="non-scaling-stroke" stroke-width="2" stroke="rgb(74,134,232)" stroke-linejoin="miter" stroke-linecap="round" stroke-miterlimit="10"/><path d=" M 40.583 49.871 C 46.729 46.237 50.862 39.545 50.862 31.903 C 50.862 20.4 41.504 11.041 30 11.041 C 18.496 11.041 9.138 20.4 9.138 31.903 C 9.138 39.545 13.271 46.237 19.417 49.871" fill="none" vector-effect="non-scaling-stroke" stroke-width="2" stroke="rgb(255,153,0)" stroke-linejoin="miter" stroke-linecap="round" stroke-miterlimit="10"/><path d=" M 37.21 44.144 C 41.399 41.666 44.224 37.114 44.224 31.903 C 44.224 24.06 37.843 17.679 30 17.679 C 22.157 17.679 15.776 24.06 15.776 31.903 C 15.776 37.114 18.601 41.666 22.79 44.144" fill="none" vector-effect="non-scaling-stroke" stroke-width="2" stroke="rgb(74,134,232)" stroke-linejoin="miter" stroke-linecap="round" stroke-miterlimit="10"/></g></g></svg>