<?xml version="1.0" encoding="UTF-8" standalone="no"?><!-- Generator: Gravit.io --><svg xmlns="http://www.w3.org/2000/svg" xmlns:xlink="http://www.w3.org/1999/xlink" style="isolation:isolate" viewBox="0 0 60 60" width="60pt" height="60pt"><defs><clipPath id="_clipPath_ddMq0BB6n5VsZqjBwanTsnZ0U2e79fm2"><rect width="60" height="60"/></clipPath></defs><g clip-path="url(#_clipPath_ddMq0BB6n5VsZqjBwanTsnZ0U2e79fm2)"><rect width="60" height="60" style="fill:rgb(0,0,0)" fill-opacity="0"/><g><circle vector-effect="non-scaling-stroke" cx="30" cy="30" r="29" fill="rgb(74,134,232)"/><path d=" M 44.887 5.486 C 45.008 5.444 45.106 5.374 45.207 5.307 C 40.785 2.578 35.578 1 30 1 C 23.866 1 18.181 2.909 13.496 6.159 C 13.521 6.275 13.553 6.39 13.604 6.5 C 15.582 10.762 18.127 17.996 22.473 19.663 C 24.586 20.473 26.539 20.168 28.542 21.149 C 28.756 21.253 29.069 21.497 29.203 21.694 C 30.221 23.183 29.635 25.365 30.645 25.899 C 31.444 26.321 31.898 27.184 31.557 28.021 C 30.164 31.439 31.369 35.348 34.609 38.031 C 36.889 39.919 34.991 44.295 33.073 47.731 C 32.387 48.96 33.61 50.379 34.935 49.908 C 37.031 49.162 38.766 48.081 40.775 46.353 C 43.688 43.848 44.318 41.118 47.205 38.991 C 47.237 38.968 47.261 38.939 47.274 38.901 C 48.012 36.737 50.305 32.014 47.991 30.811 C 45.831 29.689 45.023 26.44 42.915 24.226 C 42.673 23.972 42.329 23.846 41.981 23.801 C 39.397 23.468 38.235 21.503 36.496 22.81 C 35.194 23.789 33.73 23.193 33.276 21.628 C 33.128 21.118 32.867 20.663 31.93 20.374 C 31.218 20.155 30.872 19.348 31.128 18.649 C 31.132 18.639 31.135 18.628 31.139 18.618 C 31.482 17.684 29.55 17.826 28.568 17.99 C 28.293 18.036 29.227 16.925 28.92 17.105 C 27.712 17.818 26.213 16.587 26.277 15.186 C 26.343 13.765 26.608 13.833 29.044 13.553 C 31.666 12.332 32.935 13.222 32.851 16.221 C 34.472 16.461 35.038 15.745 34.55 14.072 C 34.407 13.583 34.522 13.038 34.832 12.635 C 37.82 8.749 40.315 7.055 44.887 5.486 Z " fill="rgb(13,96,74)"/></g></g></svg>