<?xml version="1.0" encoding="UTF-8" standalone="no"?><!-- Generator: Gravit.io --><svg xmlns="http://www.w3.org/2000/svg" xmlns:xlink="http://www.w3.org/1999/xlink" style="isolation:isolate" viewBox="0 0 60 60" width="60pt" height="60pt"><defs><clipPath id="_clipPath_TqYdxkadADjs0Bec19NiBtKYpv5mjKSS"><rect width="60" height="60"/></clipPath></defs><g clip-path="url(#_clipPath_TqYdxkadADjs0Bec19NiBtKYpv5mjKSS)"><rect width="60" height="60" style="fill:rgb(0,0,0)" fill-opacity="0"/><g><circle vector-effect="non-scaling-stroke" cx="30.988" cy="20.999999999999996" r="20" fill="rgb(74,134,232)"/><path d=" M 49.373 37.971 L 45.838 34.436 L 44.424 35.85 L 46.529 37.955 C 37.516 46.226 23.456 45.993 14.725 37.264 C 10.388 32.927 8 27.151 8 21 C 8 15.185 10.135 9.704 14.033 5.459 L 16.139 7.564 L 17.553 6.15 L 14.018 2.615 L 13.311 3.322 C 8.596 8.037 6 14.314 6 21 C 6 27.686 8.597 33.963 13.312 38.678 C 17.793 43.159 23.687 45.722 30 45.966 L 30 56 C 30 56.553 30.447 57 31 57 C 31.553 57 32 56.553 32 56 L 32 45.965 C 38.304 45.716 44.19 43.154 48.666 38.678 L 49.373 37.971 Z " fill="rgb(70,70,70)"/><rect x="21" y="56" width="20" height="3" transform="matrix(1,0,0,1,0,0)" fill="rgb(70,70,70)"/><path d=" M 19.76 4.45 C 19.754 4.791 19.743 5.146 19.723 5.531 C 19.713 5.716 19.746 5.901 19.824 6.069 C 21.18 8.991 22.925 13.951 25.905 15.093 C 27.354 15.649 28.693 15.439 30.066 16.112 C 30.213 16.184 30.427 16.351 30.519 16.486 C 31.217 17.507 30.815 19.003 31.507 19.369 C 32.055 19.659 32.366 20.25 32.132 20.824 C 31.177 23.167 32.003 25.847 34.224 27.687 C 35.787 28.981 34.486 31.982 33.171 34.337 C 32.701 35.179 33.539 36.152 34.448 35.83 C 35.885 35.319 37.075 34.578 38.452 33.392 C 40.449 31.674 40.881 29.803 42.861 28.345 C 42.883 28.329 42.899 28.309 42.908 28.283 C 43.414 26.8 44.986 23.561 43.4 22.736 C 41.919 21.967 41.365 19.739 39.92 18.221 C 39.754 18.047 39.518 17.96 39.279 17.929 C 37.508 17.701 36.71 16.353 35.519 17.249 C 34.626 17.92 33.623 17.511 33.311 16.438 C 33.209 16.088 33.031 15.776 32.388 15.578 C 31.9 15.428 31.662 14.874 31.838 14.395 C 31.841 14.388 31.843 14.381 31.846 14.374 C 32.081 13.733 30.757 13.831 30.083 13.943 C 29.894 13.974 30.535 13.213 30.324 13.337 C 29.496 13.826 28.468 12.982 28.512 12.022 C 28.557 11.048 28.739 11.094 30.409 10.902 C 32.207 10.065 33.077 10.675 33.019 12.731 C 34.13 12.896 34.519 12.404 34.184 11.258 C 34.086 10.923 34.165 10.549 34.377 10.273 C 36.424 7.609 38.135 6.448 41.27 5.372 C 41.735 5.212 41.997 4.747 41.936 4.272 C 38.791 2.21 35.033 1 30.988 1 C 26.825 1 22.961 2.274 19.76 4.45 Z " fill="rgb(20,96,45)"/></g></g></svg>