<?xml version="1.0" encoding="UTF-8" standalone="no"?><!-- Generator: Gravit.io --><svg xmlns="http://www.w3.org/2000/svg" xmlns:xlink="http://www.w3.org/1999/xlink" style="isolation:isolate" viewBox="0 0 60 60" width="60pt" height="60pt"><defs><clipPath id="_clipPath_4fzrRl6IviFqdkoi9MXjhCo7ZcSZ0L1g"><rect width="60" height="60"/></clipPath></defs><g clip-path="url(#_clipPath_4fzrRl6IviFqdkoi9MXjhCo7ZcSZ0L1g)"><rect width="60" height="60" style="fill:rgb(0,0,0)" fill-opacity="0"/><g><circle vector-effect="non-scaling-stroke" cx="25.5" cy="24.517" r="20" fill="rgb(74,134,232)" stroke-width="4" stroke="rgb(255,153,0)" stroke-linejoin="miter" stroke-linecap="butt" stroke-miterlimit="10"/><path d=" M 32.5 26.776 L 18.5 26.776 C 17.948 26.776 17.5 25.764 17.5 24.517 C 17.5 23.27 17.948 22.259 18.5 22.259 L 32.5 22.259 C 33.052 22.259 33.5 23.27 33.5 24.517 C 33.5 25.764 33.052 26.776 32.5 26.776 Z " fill="rgb(255,255,255)"/><line x1="40" y1="40" x2="55.546" y2="56.168" vector-effect="non-scaling-stroke" stroke-width="4" stroke="rgb(255,153,0)" stroke-linejoin="miter" stroke-linecap="round" stroke-miterlimit="10"/><path d=" M 25.5 34.276 C 24.258 34.276 23.25 33.729 23.25 33.056 L 23.25 15.978 C 23.25 15.305 24.258 14.759 25.5 14.759 C 26.742 14.759 27.75 15.305 27.75 15.978 L 27.75 33.056 C 27.75 33.729 26.742 34.276 25.5 34.276 Z " fill="rgb(255,255,255)"/></g></g></svg>